<?xml version="1.0" encoding="UTF-8" ?>
<!DOCTYPE svg PUBLIC "-//W3C//DTD SVG 1.1//EN" "http://www.w3.org/Graphics/SVG/1.1/DTD/svg11.dtd">
<svg width="650pt" height="1047pt" viewBox="0 0 650 1047" version="1.1" xmlns="http://www.w3.org/2000/svg">
<g id="#000000ff">
<path fill="#000000" opacity="1.00" d=" M 46.47 2.13 C 49.91 4.52 51.97 8.34 54.57 11.54 C 55.08 11.57 56.09 11.63 56.60 11.66 C 59.27 8.51 61.26 4.66 64.58 2.14 C 67.55 5.07 70.06 8.43 72.79 11.58 C 73.23 11.59 74.13 11.63 74.57 11.64 C 77.19 8.43 79.70 5.13 82.07 1.74 C 84.92 5.04 87.78 8.33 90.57 11.68 C 91.04 11.66 91.97 11.62 92.44 11.60 C 94.92 8.59 97.36 5.55 99.62 2.39 C 99.98 2.36 100.68 2.30 101.03 2.27 C 103.25 5.58 105.73 8.71 108.36 11.71 C 108.82 11.68 109.73 11.62 110.19 11.59 C 112.99 8.34 115.37 4.69 118.70 1.94 C 121.50 4.95 123.40 8.69 126.37 11.56 C 126.70 11.55 127.37 11.53 127.71 11.52 C 130.28 9.42 132.02 6.52 134.18 4.04 C 134.91 3.46 135.37 2.02 136.51 2.33 C 139.23 4.72 141.12 7.88 143.59 10.51 C 144.14 11.31 144.89 11.66 145.85 11.56 C 148.89 8.57 151.19 4.93 153.94 1.68 C 156.59 4.83 159.02 8.21 162.05 11.02 C 162.71 11.94 164.10 11.70 164.64 10.79 C 167.30 8.03 169.33 4.75 171.53 1.63 C 174.28 4.83 176.93 8.14 179.88 11.16 C 180.67 12.17 182.07 11.40 182.66 10.57 C 185.25 7.81 187.34 4.61 189.98 1.89 C 192.95 5.12 195.45 8.74 198.09 12.24 C 202.13 9.55 204.55 5.27 207.98 1.94 C 210.95 4.79 213.26 8.23 215.64 11.56 C 216.11 11.58 217.06 11.61 217.53 11.63 C 220.17 8.46 222.57 5.07 225.46 2.11 C 229.15 4.84 231.50 8.97 234.75 12.18 C 237.94 9.02 240.18 4.98 243.59 2.04 C 246.53 5.05 249.06 8.43 251.84 11.59 C 252.27 11.62 253.12 11.67 253.55 11.69 C 256.40 8.65 258.09 4.31 261.69 2.11 C 264.50 5.14 266.84 8.56 269.54 11.68 C 270.03 11.66 271.00 11.61 271.48 11.58 C 273.95 8.55 276.40 5.49 278.70 2.33 C 279.09 2.32 279.86 2.30 280.25 2.29 C 282.73 5.60 285.40 8.76 288.12 11.87 C 291.37 8.59 294.60 5.27 297.58 1.74 C 300.40 5.11 303.32 8.39 306.19 11.72 C 309.19 8.46 312.18 5.18 315.07 1.82 C 318.18 5.08 321.34 8.30 324.29 11.71 C 327.04 8.28 329.97 5.00 332.97 1.78 C 336.10 5.09 339.19 8.45 342.14 11.93 C 345.53 8.97 347.74 4.93 351.10 1.95 C 354.04 5.05 356.24 8.82 359.46 11.65 C 359.74 11.61 360.30 11.53 360.58 11.50 C 363.89 8.66 366.25 4.90 369.05 1.59 C 371.72 4.86 374.35 8.17 376.83 11.60 C 377.25 11.62 378.09 11.66 378.51 11.68 C 381.38 8.37 384.20 5.02 387.01 1.66 C 389.84 5.31 392.89 8.77 396.02 12.17 C 398.85 8.58 401.78 5.08 404.87 1.71 C 407.95 5.02 410.16 9.73 414.36 11.64 C 417.47 8.76 419.12 4.51 422.67 2.08 C 425.56 5.06 428.02 8.44 430.71 11.61 C 431.17 11.61 432.07 11.63 432.53 11.63 C 434.90 8.51 437.28 5.39 439.56 2.21 C 439.96 2.24 440.77 2.31 441.17 2.35 C 443.49 5.54 445.96 8.62 448.49 11.65 C 448.97 11.64 449.94 11.63 450.42 11.62 C 452.95 8.06 455.94 4.89 458.74 1.55 C 460.80 4.39 462.72 7.35 465.01 10.02 C 465.75 10.81 466.49 11.99 467.76 11.51 C 471.13 8.72 473.20 4.68 476.64 1.95 C 479.63 5.19 482.11 8.85 484.98 12.19 C 487.51 9.58 489.82 6.78 492.16 4.00 C 492.88 3.38 493.41 2.06 494.57 2.34 C 497.04 4.63 498.83 7.53 501.09 10.01 C 501.81 10.78 502.56 11.80 503.77 11.52 C 506.71 8.42 509.07 4.82 511.95 1.66 C 514.70 5.08 517.52 8.45 520.45 11.73 C 520.87 11.68 521.72 11.59 522.15 11.55 C 524.71 8.32 527.16 4.99 529.50 1.59 C 531.63 4.08 533.97 6.41 535.89 9.08 C 536.88 10.13 537.75 11.88 539.46 11.61 C 542.77 8.70 545.23 4.99 548.04 1.62 C 550.63 4.94 553.22 8.26 555.80 11.59 C 556.20 11.62 557.02 11.67 557.43 11.70 C 560.29 8.37 563.16 5.04 566.01 1.69 C 568.63 4.95 571.24 8.22 573.76 11.56 C 574.17 11.57 574.98 11.59 575.39 11.60 C 578.04 8.17 580.93 4.94 583.84 1.73 C 586.43 5.04 589.13 8.26 591.80 11.51 C 592.26 11.54 593.17 11.61 593.63 11.64 C 596.10 8.35 598.39 4.90 601.23 1.91 C 604.40 4.79 606.93 8.26 609.63 11.57 C 610.12 11.60 611.09 11.66 611.57 11.69 C 614.04 8.68 616.41 5.59 618.58 2.36 C 618.98 2.34 619.79 2.30 620.19 2.28 C 622.51 5.51 624.98 8.62 627.52 11.67 C 627.99 11.66 628.91 11.64 629.38 11.62 C 631.94 8.58 634.49 5.52 636.90 2.35 C 637.24 2.32 637.93 2.26 638.28 2.23 C 640.57 5.67 643.11 8.95 645.89 12.01 C 645.93 44.01 645.82 76.01 645.91 108.00 C 646.04 113.56 642.92 118.40 641.22 123.52 C 635.46 136.95 630.61 150.75 626.26 164.70 C 622.15 178.76 619.08 193.29 619.28 208.01 C 619.21 231.99 619.24 255.97 619.19 279.96 C 619.16 285.27 619.43 290.60 618.83 295.90 C 618.02 306.58 618.43 317.29 618.34 327.99 C 618.24 366.32 618.30 404.65 618.21 442.98 C 617.70 449.98 617.81 456.98 617.80 463.99 C 617.63 588.66 617.61 713.33 617.41 837.99 C 617.54 844.01 617.43 850.03 616.89 856.03 C 617.42 865.44 617.70 874.98 620.24 884.13 C 624.52 904.68 632.77 924.08 640.92 943.32 C 643.32 948.94 645.23 954.88 645.37 961.04 C 645.72 985.34 645.83 1009.64 645.91 1033.94 C 646.46 1039.58 640.98 1042.91 638.04 1047.00 L 636.85 1047.00 C 634.25 1043.53 631.54 1040.14 628.78 1036.80 C 625.76 1040.00 622.88 1043.34 620.43 1047.00 L 618.84 1047.00 C 616.13 1043.50 613.52 1039.94 610.40 1036.79 C 607.60 1040.13 604.89 1043.54 602.23 1047.00 L 601.06 1047.00 C 598.16 1043.78 595.57 1040.31 592.88 1036.94 C 589.73 1040.09 586.97 1043.60 584.10 1047.00 L 583.21 1047.00 C 580.48 1043.62 577.69 1040.30 574.87 1037.02 C 571.90 1040.27 569.19 1043.75 566.22 1047.00 L 565.23 1047.00 C 562.63 1043.59 560.17 1040.00 556.92 1037.17 C 553.75 1040.07 551.49 1043.79 548.65 1047.00 L 547.12 1047.00 C 544.70 1043.67 542.48 1040.12 539.38 1037.37 C 535.41 1039.16 533.72 1043.93 530.78 1047.00 L 529.11 1047.00 C 526.74 1043.85 524.35 1040.73 522.00 1037.58 C 521.62 1037.51 520.88 1037.37 520.51 1037.30 C 517.79 1040.42 515.19 1043.65 512.74 1047.00 L 511.71 1047.00 C 508.66 1043.80 505.94 1040.31 503.09 1036.94 C 500.23 1040.23 497.41 1043.57 494.72 1047.00 L 493.86 1047.00 C 490.93 1043.71 488.20 1040.24 485.18 1037.04 C 482.42 1040.35 479.60 1043.63 476.91 1047.00 L 475.87 1047.00 C 473.11 1043.47 470.26 1040.02 467.05 1036.91 C 464.45 1040.29 461.84 1043.66 459.18 1047.00 L 457.81 1047.00 C 455.15 1043.93 452.78 1040.61 450.27 1037.42 C 449.87 1037.41 449.05 1037.39 448.64 1037.39 C 446.13 1040.56 443.63 1043.75 441.20 1047.00 L 439.83 1047.00 C 437.08 1044.00 434.69 1040.70 432.26 1037.45 C 431.91 1037.44 431.22 1037.42 430.87 1037.41 C 428.21 1040.56 425.59 1043.73 423.08 1047.00 L 422.06 1047.00 C 419.19 1043.78 416.56 1040.36 413.82 1037.04 C 410.71 1040.18 407.95 1043.64 405.08 1047.00 L 404.22 1047.00 C 401.49 1043.62 398.70 1040.29 395.87 1037.01 C 392.93 1040.29 390.22 1043.77 387.22 1047.00 L 386.23 1047.00 C 383.61 1043.48 380.86 1040.07 377.91 1036.83 C 375.03 1040.11 372.47 1043.66 369.65 1047.00 L 368.09 1047.00 C 365.61 1043.42 362.91 1039.99 359.97 1036.78 C 356.96 1039.97 354.40 1043.54 351.70 1047.00 L 350.08 1047.00 C 347.61 1043.44 344.81 1040.12 341.91 1036.90 C 338.99 1040.10 336.28 1043.50 333.71 1047.00 L 332.73 1047.00 C 329.68 1043.80 326.95 1040.32 324.07 1036.98 C 321.23 1040.28 318.42 1043.60 315.69 1047.00 L 314.86 1047.00 C 311.94 1043.67 309.20 1040.18 306.14 1036.99 C 303.42 1040.34 300.63 1043.63 297.94 1047.00 L 296.85 1047.00 C 294.07 1043.44 291.22 1039.95 287.92 1036.86 C 285.30 1040.23 282.91 1043.80 280.06 1047.00 L 278.61 1047.00 C 276.19 1043.79 273.71 1040.62 271.22 1037.47 C 270.82 1037.44 270.03 1037.38 269.64 1037.35 C 267.09 1040.52 264.57 1043.72 262.15 1047.00 L 260.84 1047.00 C 258.03 1043.81 255.46 1040.43 252.59 1037.30 C 249.45 1040.26 246.58 1043.50 244.03 1047.00 L 243.03 1047.00 C 240.18 1043.81 237.79 1040.19 234.56 1037.37 C 231.33 1040.21 228.93 1043.82 226.04 1047.00 L 225.13 1047.00 C 222.44 1043.57 219.65 1040.23 216.80 1036.94 C 213.87 1040.23 211.17 1043.72 208.22 1047.00 L 207.08 1047.00 C 204.66 1043.72 202.13 1040.53 199.51 1037.42 C 199.11 1037.42 198.31 1037.44 197.90 1037.45 C 195.47 1040.60 193.06 1043.77 190.73 1047.00 L 189.00 1047.00 C 186.41 1043.87 184.39 1040.25 181.40 1037.48 C 180.62 1037.37 179.99 1037.64 179.50 1038.27 C 176.88 1040.88 174.84 1043.99 172.71 1047.00 L 171.24 1047.00 C 168.37 1043.81 166.11 1040.11 163.00 1037.16 C 159.61 1040.07 157.32 1044.01 153.99 1046.99 C 150.47 1044.23 148.49 1039.94 144.86 1037.33 C 141.83 1040.27 139.37 1043.73 136.70 1047.00 L 135.80 1047.00 C 132.84 1043.70 130.18 1040.14 127.17 1036.89 C 124.38 1040.21 121.49 1043.46 118.97 1047.00 L 117.75 1047.00 C 114.57 1044.01 112.82 1039.03 108.66 1037.38 C 105.74 1040.24 103.56 1043.75 101.10 1047.00 L 99.62 1047.00 C 96.91 1043.62 94.32 1040.13 91.13 1037.19 C 88.23 1040.29 85.46 1043.53 82.99 1047.00 L 81.81 1047.00 C 78.96 1043.66 76.25 1040.21 73.29 1036.97 C 70.45 1040.25 67.63 1043.56 64.98 1047.00 L 63.99 1047.00 C 61.23 1043.57 58.41 1040.18 55.32 1037.03 C 52.53 1040.33 49.90 1043.78 47.01 1047.00 L 45.97 1047.00 C 43.44 1043.29 40.41 1039.99 37.22 1036.86 C 34.63 1040.30 32.14 1043.84 29.20 1047.00 L 27.92 1047.00 C 25.54 1043.72 23.03 1040.53 20.47 1037.40 C 20.06 1037.41 19.25 1037.41 18.85 1037.41 C 16.35 1040.52 13.94 1043.71 11.68 1047.00 L 10.01 1047.00 C 7.33 1043.71 4.87 1040.25 2.10 1037.04 C 2.03 1011.03 2.13 985.02 2.04 959.01 C 1.84 951.00 5.25 943.56 8.00 936.22 C 16.59 913.43 25.61 890.39 28.20 865.99 C 28.83 860.34 28.46 854.66 28.50 849.00 C 28.52 801.67 28.56 754.34 28.59 707.02 C 28.73 695.69 28.04 684.35 29.17 673.06 C 29.24 616.69 29.31 560.32 29.39 503.95 C 29.53 469.31 29.25 434.66 29.74 400.02 C 29.76 376.33 29.72 352.64 29.80 328.95 C 30.45 318.63 30.18 308.30 30.24 297.97 C 30.26 268.99 30.31 240.01 30.30 211.03 C 30.70 199.28 28.94 187.54 26.27 176.12 C 21.78 155.85 11.70 137.45 5.49 117.74 C 3.27 110.72 2.69 103.31 2.52 95.99 C 1.94 68.02 2.10 40.04 2.12 12.06 C 5.49 9.17 7.50 4.82 11.07 2.29 C 13.69 5.30 16.12 8.46 18.59 11.60 C 19.07 11.62 20.03 11.66 20.51 11.69 C 23.37 8.38 26.17 5.02 28.99 1.69 C 31.45 5.02 33.96 8.32 36.46 11.62 C 36.98 11.61 38.02 11.60 38.55 11.59 C 41.16 8.42 43.57 5.05 46.47 2.13 Z" />
</g>
</svg>
