<svg width="362" height="183" viewBox="0 0 362 183" fill="none" xmlns="http://www.w3.org/2000/svg">
<path d="M319 14C330.598 14 340 23.402 340 35V148C340 159.598 330.598 169 319 169H100L52 123V119.229C40.9111 115.155 33 104.502 33 92C33 79.4982 40.911 68.8442 52 64.7705V35C52 23.402 61.402 14 73 14H319Z" fill="url(#paint0_linear_6_199)"/>
<path d="M106.558 161H100.424V160H106.558V161ZM118.825 161H112.691V160H118.825V161ZM131.094 161H124.96V160H131.094V161ZM143.362 161H137.228V160H143.362V161ZM155.63 161H149.496V160H155.63V161ZM167.898 161H161.765V160H167.898V161ZM180.166 161H174.032V160H180.166V161ZM192.435 161H186.301V160H192.435V161ZM204.703 161H198.568V160H204.703V161ZM216.971 161H210.837V160H216.971V161ZM229.239 161H223.105V160H229.239V161ZM241.507 161H235.373V160H241.507V161ZM253.775 161H247.642V160H253.775V161ZM266.044 161H259.909V160H266.044V161ZM278.312 161H272.178V160H278.312V161ZM290.58 161H284.446V160H290.58V161ZM302.848 161H296.714V160H302.848V161ZM315.65 159.677L315.74 160.169H315.739L315.829 160.661C314.604 160.884 313.34 161 312.049 161H308.982V160H312.049C313.28 160 314.484 159.887 315.649 159.675L315.65 159.677ZM94.2891 161H91.6523L90.6084 160H94.2891V161ZM327.667 152.237L328.476 152.827C326.989 154.867 325.091 156.613 322.899 157.962L322.637 157.535V157.536L322.375 157.11L322.374 157.109C324.458 155.828 326.257 154.169 327.666 152.236L327.667 152.237ZM332 142.092C332 143.394 331.861 144.666 331.596 145.896L330.618 145.685C330.837 144.67 330.965 143.623 330.994 142.554L331 142.092V138.93H332V142.092ZM332 132.605H331V126.281H332V132.605ZM60.0029 130.669L59.0029 129.711V126.281H60.0029V130.669ZM59.0029 115.352C59.3333 115.472 59.6663 115.587 60.0029 115.695V119.958H59.0029V115.352ZM332 119.958H331V113.634H332V119.958ZM52.665 112.044C54.4821 113.327 56.4797 114.394 58.6143 115.207V115.21L58.2588 116.144C56.0458 115.3 53.9744 114.193 52.0889 112.861L52.665 112.045V112.044ZM44.1191 101.781C45.0478 103.837 46.2587 105.752 47.7061 107.482V107.483L46.9385 108.125C45.4343 106.327 44.1741 104.334 43.207 102.193L44.1182 101.782L44.1191 101.781ZM332 107.31H331V100.986H332V107.31ZM42.2373 88.5791H42.2383C42.0817 89.6808 42 90.8051 42 91.9473C42 93.0893 42.0818 94.2139 42.2383 95.3154L42.2373 95.3164L41.2471 95.457C41.0839 94.3088 41 93.1368 41 91.9473C41 90.7579 41.0839 89.5865 41.2471 88.4385L42.2373 88.5791ZM332 94.6621H331V88.3379H332V94.6621ZM47.7061 76.4121C46.2587 78.1423 45.0478 80.0573 44.1191 82.1133H44.1182L43.6631 81.9082V81.9072L43.207 81.7021C44.1741 79.561 45.4343 77.5687 46.9385 75.7705L47.7061 76.4121ZM332 82.0137H331V75.6904H332V82.0137ZM58.6143 68.6855V68.6875C56.4797 69.501 54.4821 70.5675 52.665 71.8506L52.0889 71.0342C53.9744 69.7027 56.0458 68.5943 58.2588 67.751L58.6143 68.6855ZM332 69.3662H331V63.042H332V69.3662ZM60.0029 68.1992C59.6663 68.3071 59.3333 68.4228 59.0029 68.543V63.042H60.0029V68.1992ZM60.0029 56.7188H59.0029V50.3945H60.0029V56.7188ZM332 56.7188H331V50.3945H332V56.7188ZM60.3848 37.3154C60.1346 38.4761 60.003 39.6777 60.0029 40.9082V44.0703H59.0029V40.9082C59.003 39.6063 59.1423 38.3339 59.4072 37.1045L60.3848 37.3154ZM331.596 37.1045C331.861 38.3339 332 39.6063 332 40.9082V44.0703H331V40.9082C331 39.6773 330.868 38.4755 330.618 37.3145L331.596 37.1045ZM68.6279 25.8896V25.8906C66.545 27.1723 64.7455 28.8302 63.3369 30.7627H63.3359L62.5283 30.1729C64.0153 28.1329 65.9128 26.3865 68.1045 25.0381L68.6279 25.8896ZM322.899 25.0381C325.091 26.3865 326.989 28.1328 328.476 30.1729L327.667 30.7627H327.666C326.257 28.8298 324.458 27.1714 322.374 25.8896H322.375L322.899 25.0381ZM82.0215 23H78.9541L78.4648 23.0059C77.4033 23.0313 76.3637 23.1404 75.3525 23.3242V23.3232L75.1738 22.3389C76.3986 22.1162 77.6625 22 78.9541 22H82.0215V23ZM312.049 22C313.34 22 314.604 22.1162 315.829 22.3389L315.739 22.8311L315.65 23.3232L315.649 23.3242C314.484 23.1123 313.28 23 312.049 23H308.982V22H312.049ZM94.2891 23H88.1553V22H94.2891V23ZM106.558 23H100.424V22H106.558V23ZM118.825 23H112.691V22H118.825V23ZM131.094 23H124.96V22H131.094V23ZM143.362 23H137.228V22H143.362V23ZM155.63 23H149.496V22H155.63V23ZM167.898 23H161.765V22H167.898V23ZM180.166 23H174.032V22H180.166V23ZM192.435 23H186.301V22H192.435V23ZM204.703 23H198.568V22H204.703V23ZM216.971 23H210.837V22H216.971V23ZM229.239 23H223.105V22H229.239V23ZM241.507 23H235.373V22H241.507V23ZM253.775 23H247.642V22H253.775V23ZM266.044 23H259.909V22H266.044V23ZM278.312 23H272.178V22H278.312V23ZM290.58 23H284.445V22H290.58V23ZM302.848 23H296.714V22H302.848V23Z" fill="white" fill-opacity="0.17"/>
<path d="M100.5 169.5L51.5 122.5C58.4775 127.484 72.027 126.905 82.9848 125.357C90.1255 124.348 96.5608 130.467 96.0562 137.661C94.9921 152.831 96.8363 165.331 100.5 169.5Z" fill="url(#paint1_linear_6_199)"/>
<defs>
<linearGradient id="paint0_linear_6_199" x1="34" y1="91.5" x2="339" y2="91.5" gradientUnits="userSpaceOnUse">
<stop stop-color="#303849"/>
<stop offset="1" stop-color="#3D4759"/>
</linearGradient>
<linearGradient id="paint1_linear_6_199" x1="72" y1="141.5" x2="87" y2="126" gradientUnits="userSpaceOnUse">
<stop stop-color="#8E8E8E"/>
<stop offset="0.124427" stop-color="#C5C5C5"/>
<stop offset="0.306396" stop-color="#FDFDFD"/>
<stop offset="1" stop-color="#FDFDFD"/>
</linearGradient>
</defs>
</svg>
