<svg width="707" height="386" viewBox="0 0 707 386" fill="none" xmlns="http://www.w3.org/2000/svg">
<path d="M27.5693 22.0426C35.9693 3.24258 79.4026 -0.457425 100.069 0.0425754C264.569 0.0425438 599.569 0.14248 623.569 0.54248C659.569 1.14248 674.392 12.63 686.069 37.5425C701.069 69.5425 707.069 132.542 706.569 184.542C706.069 236.542 703.104 304.542 692.069 341.042C685.569 362.542 675.569 375.542 659.569 380.042C646.769 383.642 622.903 384.542 612.569 384.542C444.569 386.042 119.57 386.042 62.5693 384.542C8.069 383.108 8.28046 340.799 5.569 312.542C-3.93097 213.542 1.06165 154.542 3.56929 112.542C7.56956 45.5425 17.0693 45.5426 27.5693 22.0426Z" fill="white"/>
</svg>
