<svg width="320" height="156" viewBox="0 0 320 156" fill="none" xmlns="http://www.w3.org/2000/svg">
<rect x="1" y="1" width="318" height="154" rx="19" fill="url(#paint0_linear_3_289)" stroke="#434A5F" stroke-width="2"/>
<g opacity="0.3" style="mix-blend-mode:overlay">
<path d="M235.899 0H177.269L320 121.184V71.4071L235.899 0Z" fill="url(#paint1_linear_3_289)" style="mix-blend-mode:overlay"/>
<path d="M4.82805 10H4.7813L0 27.0063V54.0126L4.7813 88.1568L87.9413 156H120.123H183.781L4.82805 10Z" fill="url(#paint2_linear_3_289)" style="mix-blend-mode:overlay"/>
<path d="M4.82805 10L183.781 156H218.528L34.7893 0L18 1.5L4.82805 10Z" fill="url(#paint3_linear_3_289)" style="mix-blend-mode:overlay"/>
<path d="M104.277 0L288.011 156H320V153.661L139.019 0H104.277Z" fill="url(#paint4_linear_3_289)" style="mix-blend-mode:overlay"/>
<path d="M104.277 0H34.7893L218.528 156H288.011L104.277 0Z" fill="url(#paint5_linear_3_289)" style="mix-blend-mode:overlay"/>
<path d="M253.269 156L69.5306 0H34.7893L218.528 156H253.269Z" fill="url(#paint6_linear_3_289)" style="mix-blend-mode:overlay"/>
<path d="M288.011 156L104.277 0H69.5306L253.269 156H288.011Z" fill="url(#paint7_linear_3_289)" style="mix-blend-mode:overlay"/>
<path d="M4.7813 88.1568L87.9413 156H120.123L0 54.0126L4.7813 88.1568Z" fill="url(#paint8_linear_3_289)" style="mix-blend-mode:overlay"/>
<path d="M104.277 0L288.011 156H320V153.661L139.019 0H104.277Z" fill="url(#paint9_linear_3_289)" style="mix-blend-mode:overlay"/>
<path d="M212.011 0H177.269L320 121.184V91.6863L212.011 0Z" fill="url(#paint10_linear_3_289)" style="mix-blend-mode:overlay"/>
<path d="M270.64 0H235.899L320 71.4071L320 41.9097L270.64 0Z" fill="url(#paint11_linear_3_289)" style="mix-blend-mode:overlay"/>
<path d="M212.011 0H177.269L320 121.184V91.6863L212.011 0Z" fill="url(#paint12_linear_3_289)" style="mix-blend-mode:overlay"/>
<path d="M4.82805 10H4.7813V88.1568L87.9413 156H183.781L4.82805 10Z" fill="url(#paint13_linear_3_289)" style="mix-blend-mode:overlay"/>
</g>
<rect x="1" y="1" width="318" height="154" rx="19" stroke="#434A5F" stroke-width="2"/>
<rect x="73" y="14" width="221" height="129" rx="24" fill="white"/>
<rect x="74" y="21" width="212" height="115" rx="23" stroke="#DFDFDF" stroke-width="2" stroke-dasharray="6 6"/>
<mask id="path-6-inside-1_3_289" fill="white">
<path d="M275 12C286.598 12.0001 296 21.4021 296 33V124C296 135.598 286.598 145 275 145H94C80.7452 145 70 134.255 70 121V106.229C58.9112 102.154 51 91.5016 51 79C51 66.4982 58.911 55.8442 70 51.7705V33C70 21.402 79.402 12 91 12H275Z"/>
</mask>
<path d="M275 12C286.598 12.0001 296 21.4021 296 33V124C296 135.598 286.598 145 275 145H94C80.7452 145 70 134.255 70 121V106.229C58.9112 102.154 51 91.5016 51 79C51 66.4982 58.911 55.8442 70 51.7705V33C70 21.402 79.402 12 91 12H275Z" fill="white"/>
<path d="M275 12L275 11H275V12ZM296 124H297H296ZM70 121H69V121H70ZM70 106.229H71V105.531L70.3449 105.29L70 106.229ZM51 79H50H51ZM70 51.7705L70.3448 52.7092L71 52.4685V51.7705H70ZM275 12V11H269.889V12V13H275V12ZM259.667 12V11H249.444V12V13H259.667V12ZM239.222 12V11H229V12V13H239.222V12ZM218.778 12V11H208.556V12V13H218.778V12ZM198.333 12V11H188.111V12V13H198.333V12ZM177.889 12V11H167.667V12V13H177.889V12ZM157.444 12V11H147.222V12V13H157.444V12ZM137 12V11H126.778V12V13H137V12ZM116.556 12V11H106.333V12V13H116.556V12ZM96.1111 12V11H91V12V13H96.1111V12ZM91 12V11C89.532 11 88.0966 11.1439 86.7075 11.4187L86.9016 12.3997L87.0957 13.3807C88.3576 13.131 89.663 13 91 13V12ZM79.3321 15.5371L78.7757 14.7062C76.377 16.312 74.312 18.377 72.7062 20.7757L73.5371 21.3321L74.3681 21.8884C75.8285 19.7069 77.7069 17.8285 79.8884 16.3681L79.3321 15.5371ZM70.3997 28.9016L69.4187 28.7075C69.1439 30.0966 69 31.532 69 33H70H71C71 31.663 71.1311 30.3576 71.3807 29.0957L70.3997 28.9016ZM70 33H69V37.6926H70H71V33H70ZM70 47.0779H69V51.7705H70H71V47.0779H70ZM70 51.7705L69.6552 50.8318C68.2153 51.3608 66.8273 51.9969 65.5009 52.7305L65.9849 53.6056L66.4689 54.4807C67.7067 53.7961 69.0017 53.2026 70.3448 52.7092L70 51.7705ZM59.0152 58.9842L58.2917 58.2939C56.1962 60.4902 54.4303 63.0044 53.0739 65.7573L53.9709 66.1992L54.8679 66.6412C56.1336 64.0725 57.7819 61.7254 59.7387 59.6745L59.0152 58.9842ZM51.3321 74.5973L50.3435 74.4467C50.1172 75.932 50 77.4527 50 79H51H52C52 77.5538 52.1096 76.1339 52.3207 74.7479L51.3321 74.5973ZM51 79H50C50 80.5473 50.1172 82.0679 50.3435 83.5532L51.3321 83.4026L52.3207 83.252C52.1096 81.8661 52 80.4462 52 79H51ZM53.971 91.8004L53.074 92.2424C54.4305 94.9952 56.1964 97.5092 58.2919 99.7054L59.0154 99.015L59.7389 98.3247C57.7821 96.2739 56.1337 93.927 54.868 91.3583L53.971 91.8004ZM65.985 104.393L65.5011 105.268C66.8274 106.002 68.2153 106.638 69.6551 107.167L70 106.229L70.3449 105.29C69.0017 104.796 67.7068 104.203 66.469 103.518L65.985 104.393ZM70 106.229H69V109.921H70H71V106.229H70ZM70 117.307H69V121H70H71V117.307H70ZM70 121H69C69 122.668 69.1636 124.299 69.4758 125.878L70.4568 125.684L71.4378 125.49C71.1507 124.038 71 122.537 71 121H70ZM74.0424 134.335L73.2115 134.891C75.0364 137.617 77.3831 139.964 80.1089 141.789L80.6652 140.958L81.2215 140.127C78.7129 138.447 76.5529 136.287 74.8734 133.778L74.0424 134.335ZM89.3161 144.543L89.122 145.524C90.7005 145.836 92.3316 146 94 146V145V144C92.4627 144 90.9615 143.849 89.5102 143.562L89.3161 144.543ZM94 145V146H99.0278V145V144H94V145ZM109.083 145V146H119.139V145V144H109.083V145ZM129.194 145V146H139.25V145V144H129.194V145ZM149.306 145V146H159.361V145V144H149.306V145ZM169.417 145V146H179.472V145V144H169.417V145ZM189.528 145V146H199.583V145V144H189.528V145ZM209.639 145V146H219.694V145V144H209.639V145ZM229.75 145V146H239.806V145V144H229.75V145ZM249.861 145V146H259.917V145V144H249.861V145ZM269.972 145V146H275V145V144H269.972V145ZM275 145V146C276.468 146 277.903 145.856 279.292 145.581L279.098 144.6L278.904 143.619C277.642 143.869 276.337 144 275 144V145ZM286.668 141.463L287.224 142.294C289.623 140.688 291.688 138.623 293.294 136.224L292.463 135.668L291.632 135.112C290.171 137.293 288.293 139.171 286.112 140.632L286.668 141.463ZM295.6 128.098L296.581 128.292C296.856 126.903 297 125.468 297 124H296H295C295 125.337 294.869 126.642 294.619 127.904L295.6 128.098ZM296 124H297V119.45H296H295V124H296ZM296 110.35H297V101.25H296H295V110.35H296ZM296 92.15H297V83.05H296H295V92.15H296ZM296 73.95H297V64.85H296H295V73.95H296ZM296 55.75H297V46.65H296H295V55.75H296ZM296 37.55H297V33H296H295V37.55H296ZM296 33H297C297 31.532 296.856 30.0966 296.581 28.7075L295.6 28.9016L294.619 29.0957C294.869 30.3576 295 31.663 295 33H296ZM292.463 21.3321L293.294 20.7758C291.688 18.3771 289.623 16.3121 287.224 14.7062L286.668 15.5372L286.112 16.3682C288.293 17.8286 290.171 19.707 291.632 21.8884L292.463 21.3321ZM279.098 12.3998L279.292 11.4188C277.903 11.144 276.468 11 275 11L275 12L275 13C276.337 13 277.642 13.1311 278.904 13.3807L279.098 12.3998ZM275 12L275 10H275V12ZM296 124H298H296ZM70 121H68V121H70ZM70 106.229H72V104.833L70.6897 104.351L70 106.229ZM51 79H49H51ZM70 51.7705L70.6897 53.6478L72 53.1665V51.7705H70ZM275 12V10H269.889V12V14H275V12ZM259.667 12V10H249.444V12V14H259.667V12ZM239.222 12V10H229V12V14H239.222V12ZM218.778 12V10H208.556V12V14H218.778V12ZM198.333 12V10H188.111V12V14H198.333V12ZM177.889 12V10H167.667V12V14H177.889V12ZM157.444 12V10H147.222V12V14H157.444V12ZM137 12V10H126.778V12V14H137V12ZM116.556 12V10H106.333V12V14H116.556V12ZM96.1111 12V10H91V12V14H96.1111V12ZM91 12V10C89.4665 10 87.9661 10.1504 86.5135 10.4377L86.9016 12.3997L87.2897 14.3617C88.4881 14.1246 89.7285 14 91 14V12ZM79.3321 15.5371L78.2194 13.8752C75.7121 15.5538 73.5538 17.7121 71.8752 20.2194L73.5371 21.3321L75.1991 22.4447C76.5868 20.3719 78.3719 18.5868 80.4447 17.1991L79.3321 15.5371ZM70.3997 28.9016L68.4377 28.5135C68.1504 29.9661 68 31.4665 68 33H70H72C72 31.7285 72.1246 30.4881 72.3617 29.2897L70.3997 28.9016ZM70 33H68V37.6926H70H72V33H70ZM70 47.0779H68V51.7705H70H72V47.0779H70ZM70 51.7705L69.3103 49.8932C67.8221 50.4399 66.3876 51.0974 65.017 51.8554L65.9849 53.6056L66.9529 55.3558C68.1464 54.6957 69.3948 54.1235 70.6897 53.6478L70 51.7705ZM59.0152 58.9842L57.5681 57.6036C55.4033 59.8725 53.5787 62.4703 52.1769 65.3153L53.9709 66.1992L55.7649 67.0832C56.9853 64.6066 58.5748 62.343 60.4622 60.3648L59.0152 58.9842ZM51.3321 74.5973L49.3549 74.2961C49.1211 75.8311 49 77.4021 49 79H51H53C53 77.6044 53.1057 76.2348 53.3093 74.8984L51.3321 74.5973ZM51 79H49C49 80.5979 49.1211 82.1688 49.3549 83.7038L51.3321 83.4026L53.3093 83.1014C53.1057 81.7652 53 80.3956 53 79H51ZM53.971 91.8004L52.177 92.6844C53.5788 95.5293 55.4035 98.1269 57.5684 100.396L59.0154 99.015L60.4624 97.6344C58.5749 95.6563 56.9854 93.3929 55.765 90.9163L53.971 91.8004ZM65.985 104.393L65.0171 106.144C66.3877 106.902 67.8221 107.559 69.3103 108.106L70 106.229L70.6897 104.351C69.3949 103.876 68.1465 103.303 66.953 102.643L65.985 104.393ZM70 106.229H68V109.921H70H72V106.229H70ZM70 117.307H68V121H70H72V117.307H70ZM70 121H68C68 122.734 68.17 124.43 68.4948 126.072L70.4568 125.684L72.4188 125.296C72.1443 123.908 72 122.472 72 121H70ZM74.0424 134.335L72.3805 135.447C74.2781 138.282 76.7181 140.722 79.5526 142.62L80.6652 140.958L81.7779 139.296C79.3779 137.689 77.3111 135.622 75.7044 133.222L74.0424 134.335ZM89.3161 144.543L88.928 146.505C90.57 146.83 92.2661 147 94 147V145V143C92.5282 143 91.092 142.856 89.7043 142.581L89.3161 144.543ZM94 145V147H99.0278V145V143H94V145ZM109.083 145V147H119.139V145V143H109.083V145ZM129.194 145V147H139.25V145V143H129.194V145ZM149.306 145V147H159.361V145V143H149.306V145ZM169.417 145V147H179.472V145V143H169.417V145ZM189.528 145V147H199.583V145V143H189.528V145ZM209.639 145V147H219.694V145V143H209.639V145ZM229.75 145V147H239.806V145V143H229.75V145ZM249.861 145V147H259.917V145V143H249.861V145ZM269.972 145V147H275V145V143H269.972V145ZM275 145V147C276.534 147 278.034 146.85 279.487 146.562L279.098 144.6L278.71 142.638C277.512 142.875 276.271 143 275 143V145ZM286.668 141.463L287.781 143.125C290.288 141.446 292.446 139.288 294.125 136.781L292.463 135.668L290.801 134.555C289.413 136.628 287.628 138.413 285.555 139.801L286.668 141.463ZM295.6 128.098L297.562 128.487C297.85 127.034 298 125.534 298 124H296H294C294 125.271 293.875 126.512 293.638 127.71L295.6 128.098ZM296 124H298V119.45H296H294V124H296ZM296 110.35H298V101.25H296H294V110.35H296ZM296 92.15H298V83.05H296H294V92.15H296ZM296 73.95H298V64.85H296H294V73.95H296ZM296 55.75H298V46.65H296H294V55.75H296ZM296 37.55H298V33H296H294V37.55H296ZM296 33H298C298 31.4665 297.85 29.9661 297.562 28.5135L295.6 28.9016L293.638 29.2898C293.875 30.4881 294 31.7285 294 33H296ZM292.463 21.3321L294.125 20.2195C292.446 17.7122 290.288 15.5539 287.781 13.8753L286.668 15.5372L285.555 17.1991C287.628 18.5869 289.413 20.3719 290.801 22.4448L292.463 21.3321ZM279.098 12.3998L279.487 10.4378C278.034 10.1504 276.534 10 275 10L275 12L275 14C276.271 14 277.512 14.1246 278.71 14.3617L279.098 12.3998Z" fill="white" fill-opacity="0.26" mask="url(#path-6-inside-1_3_289)"/>
<mask id="mask0_3_289" style="mask-type:alpha" maskUnits="userSpaceOnUse" x="51" y="12" width="245" height="133">
<mask id="path-8-inside-2_3_289" fill="white">
<path d="M275 12C286.598 12.0001 296 21.4021 296 33V124C296 135.598 286.598 145 275 145H94C80.7452 145 70 134.255 70 121V106.229C58.9112 102.154 51 91.5016 51 79C51 66.4982 58.911 55.8442 70 51.7705V33C70 21.402 79.402 12 91 12H275Z"/>
</mask>
<path d="M275 12C286.598 12.0001 296 21.4021 296 33V124C296 135.598 286.598 145 275 145H94C80.7452 145 70 134.255 70 121V106.229C58.9112 102.154 51 91.5016 51 79C51 66.4982 58.911 55.8442 70 51.7705V33C70 21.402 79.402 12 91 12H275Z" fill="white"/>
<path d="M275 12L275 11H275V12ZM296 124H297H296ZM70 121H69V121H70ZM70 106.229H71V105.531L70.3449 105.29L70 106.229ZM51 79H50H51ZM70 51.7705L70.3448 52.7092L71 52.4685V51.7705H70ZM275 12V11H269.889V12V13H275V12ZM259.667 12V11H249.444V12V13H259.667V12ZM239.222 12V11H229V12V13H239.222V12ZM218.778 12V11H208.556V12V13H218.778V12ZM198.333 12V11H188.111V12V13H198.333V12ZM177.889 12V11H167.667V12V13H177.889V12ZM157.444 12V11H147.222V12V13H157.444V12ZM137 12V11H126.778V12V13H137V12ZM116.556 12V11H106.333V12V13H116.556V12ZM96.1111 12V11H91V12V13H96.1111V12ZM91 12V11C89.532 11 88.0966 11.1439 86.7075 11.4187L86.9016 12.3997L87.0957 13.3807C88.3576 13.131 89.663 13 91 13V12ZM79.3321 15.5371L78.7757 14.7062C76.377 16.312 74.312 18.377 72.7062 20.7757L73.5371 21.3321L74.3681 21.8884C75.8285 19.7069 77.7069 17.8285 79.8884 16.3681L79.3321 15.5371ZM70.3997 28.9016L69.4187 28.7075C69.1439 30.0966 69 31.532 69 33H70H71C71 31.663 71.1311 30.3576 71.3807 29.0957L70.3997 28.9016ZM70 33H69V37.6926H70H71V33H70ZM70 47.0779H69V51.7705H70H71V47.0779H70ZM70 51.7705L69.6552 50.8318C68.2153 51.3608 66.8273 51.9969 65.5009 52.7305L65.9849 53.6056L66.4689 54.4807C67.7067 53.7961 69.0017 53.2026 70.3448 52.7092L70 51.7705ZM59.0152 58.9842L58.2917 58.2939C56.1962 60.4902 54.4303 63.0044 53.0739 65.7573L53.9709 66.1992L54.8679 66.6412C56.1336 64.0725 57.7819 61.7254 59.7387 59.6745L59.0152 58.9842ZM51.3321 74.5973L50.3435 74.4467C50.1172 75.932 50 77.4527 50 79H51H52C52 77.5538 52.1096 76.1339 52.3207 74.7479L51.3321 74.5973ZM51 79H50C50 80.5473 50.1172 82.0679 50.3435 83.5532L51.3321 83.4026L52.3207 83.252C52.1096 81.8661 52 80.4462 52 79H51ZM53.971 91.8004L53.074 92.2424C54.4305 94.9952 56.1964 97.5092 58.2919 99.7054L59.0154 99.015L59.7389 98.3247C57.7821 96.2739 56.1337 93.927 54.868 91.3583L53.971 91.8004ZM65.985 104.393L65.5011 105.268C66.8274 106.002 68.2153 106.638 69.6551 107.167L70 106.229L70.3449 105.29C69.0017 104.796 67.7068 104.203 66.469 103.518L65.985 104.393ZM70 106.229H69V109.921H70H71V106.229H70ZM70 117.307H69V121H70H71V117.307H70ZM70 121H69C69 122.668 69.1636 124.299 69.4758 125.878L70.4568 125.684L71.4378 125.49C71.1507 124.038 71 122.537 71 121H70ZM74.0424 134.335L73.2115 134.891C75.0364 137.617 77.3831 139.964 80.1089 141.789L80.6652 140.958L81.2215 140.127C78.7129 138.447 76.5529 136.287 74.8734 133.778L74.0424 134.335ZM89.3161 144.543L89.122 145.524C90.7005 145.836 92.3316 146 94 146V145V144C92.4627 144 90.9615 143.849 89.5102 143.562L89.3161 144.543ZM94 145V146H99.0278V145V144H94V145ZM109.083 145V146H119.139V145V144H109.083V145ZM129.194 145V146H139.25V145V144H129.194V145ZM149.306 145V146H159.361V145V144H149.306V145ZM169.417 145V146H179.472V145V144H169.417V145ZM189.528 145V146H199.583V145V144H189.528V145ZM209.639 145V146H219.694V145V144H209.639V145ZM229.75 145V146H239.806V145V144H229.75V145ZM249.861 145V146H259.917V145V144H249.861V145ZM269.972 145V146H275V145V144H269.972V145ZM275 145V146C276.468 146 277.903 145.856 279.292 145.581L279.098 144.6L278.904 143.619C277.642 143.869 276.337 144 275 144V145ZM286.668 141.463L287.224 142.294C289.623 140.688 291.688 138.623 293.294 136.224L292.463 135.668L291.632 135.112C290.171 137.293 288.293 139.171 286.112 140.632L286.668 141.463ZM295.6 128.098L296.581 128.292C296.856 126.903 297 125.468 297 124H296H295C295 125.337 294.869 126.642 294.619 127.904L295.6 128.098ZM296 124H297V119.45H296H295V124H296ZM296 110.35H297V101.25H296H295V110.35H296ZM296 92.15H297V83.05H296H295V92.15H296ZM296 73.95H297V64.85H296H295V73.95H296ZM296 55.75H297V46.65H296H295V55.75H296ZM296 37.55H297V33H296H295V37.55H296ZM296 33H297C297 31.532 296.856 30.0966 296.581 28.7075L295.6 28.9016L294.619 29.0957C294.869 30.3576 295 31.663 295 33H296ZM292.463 21.3321L293.294 20.7758C291.688 18.3771 289.623 16.3121 287.224 14.7062L286.668 15.5372L286.112 16.3682C288.293 17.8286 290.171 19.707 291.632 21.8884L292.463 21.3321ZM279.098 12.3998L279.292 11.4188C277.903 11.144 276.468 11 275 11L275 12L275 13C276.337 13 277.642 13.1311 278.904 13.3807L279.098 12.3998ZM275 12L275 10H275V12ZM296 124H298H296ZM70 121H68V121H70ZM70 106.229H72V104.833L70.6897 104.351L70 106.229ZM51 79H49H51ZM70 51.7705L70.6897 53.6478L72 53.1665V51.7705H70ZM275 12V10H269.889V12V14H275V12ZM259.667 12V10H249.444V12V14H259.667V12ZM239.222 12V10H229V12V14H239.222V12ZM218.778 12V10H208.556V12V14H218.778V12ZM198.333 12V10H188.111V12V14H198.333V12ZM177.889 12V10H167.667V12V14H177.889V12ZM157.444 12V10H147.222V12V14H157.444V12ZM137 12V10H126.778V12V14H137V12ZM116.556 12V10H106.333V12V14H116.556V12ZM96.1111 12V10H91V12V14H96.1111V12ZM91 12V10C89.4665 10 87.9661 10.1504 86.5135 10.4377L86.9016 12.3997L87.2897 14.3617C88.4881 14.1246 89.7285 14 91 14V12ZM79.3321 15.5371L78.2194 13.8752C75.7121 15.5538 73.5538 17.7121 71.8752 20.2194L73.5371 21.3321L75.1991 22.4447C76.5868 20.3719 78.3719 18.5868 80.4447 17.1991L79.3321 15.5371ZM70.3997 28.9016L68.4377 28.5135C68.1504 29.9661 68 31.4665 68 33H70H72C72 31.7285 72.1246 30.4881 72.3617 29.2897L70.3997 28.9016ZM70 33H68V37.6926H70H72V33H70ZM70 47.0779H68V51.7705H70H72V47.0779H70ZM70 51.7705L69.3103 49.8932C67.8221 50.4399 66.3876 51.0974 65.017 51.8554L65.9849 53.6056L66.9529 55.3558C68.1464 54.6957 69.3948 54.1235 70.6897 53.6478L70 51.7705ZM59.0152 58.9842L57.5681 57.6036C55.4033 59.8725 53.5787 62.4703 52.1769 65.3153L53.9709 66.1992L55.7649 67.0832C56.9853 64.6066 58.5748 62.343 60.4622 60.3648L59.0152 58.9842ZM51.3321 74.5973L49.3549 74.2961C49.1211 75.8311 49 77.4021 49 79H51H53C53 77.6044 53.1057 76.2348 53.3093 74.8984L51.3321 74.5973ZM51 79H49C49 80.5979 49.1211 82.1688 49.3549 83.7038L51.3321 83.4026L53.3093 83.1014C53.1057 81.7652 53 80.3956 53 79H51ZM53.971 91.8004L52.177 92.6844C53.5788 95.5293 55.4035 98.1269 57.5684 100.396L59.0154 99.015L60.4624 97.6344C58.5749 95.6563 56.9854 93.3929 55.765 90.9163L53.971 91.8004ZM65.985 104.393L65.0171 106.144C66.3877 106.902 67.8221 107.559 69.3103 108.106L70 106.229L70.6897 104.351C69.3949 103.876 68.1465 103.303 66.953 102.643L65.985 104.393ZM70 106.229H68V109.921H70H72V106.229H70ZM70 117.307H68V121H70H72V117.307H70ZM70 121H68C68 122.734 68.17 124.43 68.4948 126.072L70.4568 125.684L72.4188 125.296C72.1443 123.908 72 122.472 72 121H70ZM74.0424 134.335L72.3805 135.447C74.2781 138.282 76.7181 140.722 79.5526 142.62L80.6652 140.958L81.7779 139.296C79.3779 137.689 77.3111 135.622 75.7044 133.222L74.0424 134.335ZM89.3161 144.543L88.928 146.505C90.57 146.83 92.2661 147 94 147V145V143C92.5282 143 91.092 142.856 89.7043 142.581L89.3161 144.543ZM94 145V147H99.0278V145V143H94V145ZM109.083 145V147H119.139V145V143H109.083V145ZM129.194 145V147H139.25V145V143H129.194V145ZM149.306 145V147H159.361V145V143H149.306V145ZM169.417 145V147H179.472V145V143H169.417V145ZM189.528 145V147H199.583V145V143H189.528V145ZM209.639 145V147H219.694V145V143H209.639V145ZM229.75 145V147H239.806V145V143H229.75V145ZM249.861 145V147H259.917V145V143H249.861V145ZM269.972 145V147H275V145V143H269.972V145ZM275 145V147C276.534 147 278.034 146.85 279.487 146.562L279.098 144.6L278.71 142.638C277.512 142.875 276.271 143 275 143V145ZM286.668 141.463L287.781 143.125C290.288 141.446 292.446 139.288 294.125 136.781L292.463 135.668L290.801 134.555C289.413 136.628 287.628 138.413 285.555 139.801L286.668 141.463ZM295.6 128.098L297.562 128.487C297.85 127.034 298 125.534 298 124H296H294C294 125.271 293.875 126.512 293.638 127.71L295.6 128.098ZM296 124H298V119.45H296H294V124H296ZM296 110.35H298V101.25H296H294V110.35H296ZM296 92.15H298V83.05H296H294V92.15H296ZM296 73.95H298V64.85H296H294V73.95H296ZM296 55.75H298V46.65H296H294V55.75H296ZM296 37.55H298V33H296H294V37.55H296ZM296 33H298C298 31.4665 297.85 29.9661 297.562 28.5135L295.6 28.9016L293.638 29.2898C293.875 30.4881 294 31.7285 294 33H296ZM292.463 21.3321L294.125 20.2195C292.446 17.7122 290.288 15.5539 287.781 13.8753L286.668 15.5372L285.555 17.1991C287.628 18.5869 289.413 20.3719 290.801 22.4448L292.463 21.3321ZM279.098 12.3998L279.487 10.4378C278.034 10.1504 276.534 10 275 10L275 12L275 14C276.271 14 277.512 14.1246 278.71 14.3617L279.098 12.3998Z" fill="white" fill-opacity="0.26" mask="url(#path-8-inside-2_3_289)"/>
</mask>
<g mask="url(#mask0_3_289)">
<rect x="51" y="125" width="246" height="20" fill="#A0A0A0" fill-opacity="0.87"/>
<rect x="51" y="12" width="246" height="20" fill="#A0A0A0" fill-opacity="0.87"/>
<rect x="51" y="27" width="246" height="103" fill="#0F101B" fill-opacity="0.87"/>
</g>
<mask id="path-13-inside-3_3_289" fill="white">
<path d="M276.028 18C287.058 18 296 26.5538 296 37.1055V119.896C296 130.447 287.058 139.001 276.028 139.001H100.069C86.8145 139.001 76.0693 128.256 76.0693 115.001V103.729C65.5238 100.022 58.0002 90.3297 58 78.9561C58 67.5821 65.5235 57.8888 76.0693 54.1826V37.1055C76.0693 26.5538 85.0111 18 96.041 18H276.028Z"/>
</mask>
<path d="M296 37.1055H297V37.1055H296ZM100.069 139.001V140.001V140.001V139.001ZM76.0693 103.729H77.0693V103.02L76.4009 102.785L76.0693 103.729ZM58 78.9561H57V78.9561L58 78.9561ZM76.0693 54.1826L76.4009 55.1261L77.0693 54.8911V54.1826H76.0693ZM76.0693 37.1055H75.0693V37.1055H76.0693ZM276.028 18V17H273.029V18V19H276.028V18ZM267.029 18V17H261.029V18V19H267.029V18ZM255.03 18V17H249.03V18V19H255.03V18ZM243.031 18V17H237.031V18V19H243.031V18ZM231.031 18V17H225.032V18V19H231.031V18ZM219.032 18V17H213.033V18V19H219.032V18ZM207.033 18V17H201.034V18V19H207.033V18ZM195.034 18V17H189.034V18V19H195.034V18ZM183.035 18V17H177.035V18V19H183.035V18ZM171.036 18V17H165.036V18V19H171.036V18ZM159.037 18V17H153.037V18V19H159.037V18ZM147.037 18V17H141.038V18V19H147.037V18ZM135.038 18V17H129.039V18V19H135.038V18ZM123.039 18V17H117.04V18V19H123.039V18ZM111.04 18V17H105.04V18V19H111.04V18ZM99.0408 18V17H96.041V18V19H99.0408V18ZM96.041 18V17C95.1354 17 94.2428 17.0551 93.3666 17.162L93.4878 18.1547L93.609 19.1473C94.4049 19.0501 95.2166 19 96.041 19V18ZM88.5379 19.3941L88.1761 18.4618C86.4863 19.1176 84.9056 19.9784 83.4677 21.0125L84.0516 21.8244L84.6354 22.6362C85.9365 21.7006 87.368 20.9208 88.8997 20.3264L88.5379 19.3941ZM80.3274 25.312L79.5547 24.6773C78.4164 26.0633 77.4632 27.5976 76.7323 29.2461L77.6465 29.6514L78.5607 30.0567C79.2167 28.577 80.0738 27.1964 81.1002 25.9466L80.3274 25.312ZM76.2458 34.5544L75.2554 34.4162C75.1327 35.2964 75.0693 36.1941 75.0693 37.1055H76.0693H77.0693C77.0693 36.2868 77.1262 35.4814 77.2362 34.6925L76.2458 34.5544ZM76.0693 37.1055H75.0693V41.3748H76.0693H77.0693V37.1055H76.0693ZM76.0693 49.9133H75.0693V54.1826H76.0693H77.0693V49.9133H76.0693ZM76.0693 54.1826L75.7378 53.2392C74.8449 53.553 73.9729 53.9082 73.1243 54.3025L73.5456 55.2094L73.967 56.1163C74.7572 55.7492 75.5692 55.4183 76.4009 55.1261L76.0693 54.1826ZM68.8582 57.9727L68.2684 57.1651C66.7396 58.2818 65.3315 59.5431 64.0663 60.9281L64.8046 61.6026L65.5429 62.277C66.7176 60.9911 68.0261 59.8188 69.4481 58.7802L68.8582 57.9727ZM61.5646 65.9732L60.7041 65.4637C59.7467 67.081 58.9557 68.8015 58.3539 70.6039L59.3025 70.9206L60.251 71.2372C60.807 69.5717 61.5385 67.9802 62.4251 66.4826L61.5646 65.9732ZM58.1449 76.2351L57.1506 76.1286C57.051 77.0584 57 78.0017 57 78.9561H58H59C59 78.073 59.0472 77.2008 59.1392 76.3416L58.1449 76.2351ZM58 78.9561L57 78.9561C57 79.9104 57.051 80.8537 57.1506 81.7834L58.1449 81.6769L59.1392 81.5704C59.0472 80.7112 59 79.8391 59 78.956L58 78.9561ZM59.3026 86.9913L58.3541 87.308C58.9558 89.1103 59.7469 90.8307 60.7043 92.4479L61.5648 91.9385L62.4253 91.429C61.5387 89.9314 60.8072 88.34 60.2511 86.6746L59.3026 86.9913ZM64.8049 96.3088L64.0666 96.9833C65.3318 98.3683 66.7399 99.6295 68.2686 100.746L68.8585 99.9385L69.4483 99.131C68.0264 98.0924 66.7178 96.9202 65.5432 95.6344L64.8049 96.3088ZM73.5457 102.702L73.1243 103.609C73.9729 104.003 74.8449 104.358 75.7378 104.672L76.0693 103.729L76.4009 102.785C75.5693 102.493 74.7572 102.162 73.9671 101.795L73.5457 102.702ZM76.0693 103.729H75.0693V106.547H76.0693H77.0693V103.729H76.0693ZM76.0693 112.183H75.0693V115.001H76.0693H77.0693V112.183H76.0693ZM76.0693 115.001H75.0693C75.0693 116.107 75.1412 117.196 75.2806 118.265L76.2722 118.136L77.2638 118.006C77.1355 117.023 77.0693 116.02 77.0693 115.001H76.0693ZM77.8905 124.188L76.9667 124.571C77.8098 126.604 78.9131 128.501 80.2348 130.221L81.0278 129.612L81.8207 129.002C80.6042 127.419 79.5894 125.674 78.8142 123.805L77.8905 124.188ZM85.4585 134.043L84.8492 134.835C86.5692 136.157 88.4664 137.261 90.4994 138.104L90.8824 137.18L91.2655 136.256C89.3962 135.481 87.6508 134.466 86.0679 133.25L85.4585 134.043ZM96.9347 138.798L96.8054 139.79C97.8741 139.929 98.9636 140.001 100.069 140.001V139.001V138.001C99.0503 138.001 98.0472 137.935 97.0641 137.807L96.9347 138.798ZM100.069 139.001V140.001H103.002V139.001V138.001H100.069V139.001ZM108.867 139.001V140.001H114.733V139.001V138.001H108.867V139.001ZM120.598 139.001V140.001H126.463V139.001V138.001H120.598V139.001ZM132.328 139.001V140.001H138.194V139.001V138.001H132.328V139.001ZM144.059 139.001V140.001H149.924V139.001V138.001H144.059V139.001ZM155.79 139.001V140.001H161.655V139.001V138.001H155.79V139.001ZM167.52 139.001V140.001H173.386V139.001V138.001H167.52V139.001ZM179.251 139.001V140.001H185.116V139.001V138.001H179.251V139.001ZM190.981 139.001V140.001H196.847V139.001V138.001H190.981V139.001ZM202.712 139.001V140.001H208.577V139.001V138.001H202.712V139.001ZM214.443 139.001V140.001H220.308V139.001V138.001H214.443V139.001ZM226.173 139.001V140.001H232.039V139.001V138.001H226.173V139.001ZM237.904 139.001V140.001H243.769V139.001V138.001H237.904V139.001ZM249.634 139.001V140.001H255.5V139.001V138.001H249.634V139.001ZM261.365 139.001V140.001H267.23V139.001V138.001H261.365V139.001ZM273.096 139.001V140.001H276.028V139.001V138.001H273.096V139.001ZM276.028 139.001V140.001C276.934 140.001 277.827 139.946 278.703 139.839L278.582 138.846L278.46 137.854C277.664 137.951 276.853 138.001 276.028 138.001V139.001ZM283.531 137.607L283.893 138.539C285.583 137.883 287.164 137.023 288.602 135.988L288.018 135.177L287.434 134.365C286.133 135.3 284.701 136.08 283.17 136.675L283.531 137.607ZM291.742 131.689L292.515 132.324C293.653 130.938 294.606 129.403 295.337 127.755L294.423 127.35L293.509 126.944C292.853 128.424 291.996 129.805 290.969 131.054L291.742 131.689ZM295.824 122.447L296.814 122.585C296.937 121.705 297 120.807 297 119.896H296H295C295 120.714 294.943 121.52 294.833 122.308L295.824 122.447ZM296 119.896H297V116.939H296H295V119.896H296ZM296 111.025H297V105.112H296H295V111.025H296ZM296 99.198H297V93.2844H296H295V99.198H296ZM296 87.3708H297V81.4573H296H295V87.3708H296ZM296 75.5437H297V69.6301H296H295V75.5437H296ZM296 63.7166H297V57.803H296H295V63.7166H296ZM296 51.8894H297V45.9758H296H295V51.8894H296ZM296 40.0623H297V37.1055H296H295V40.0623H296ZM296 37.1055H297C297 36.1941 296.937 35.2964 296.814 34.4162L295.824 34.5544L294.833 34.6925C294.943 35.4814 295 36.2869 295 37.1055H296ZM294.423 29.6514L295.337 29.2461C294.606 27.5976 293.653 26.0633 292.515 24.6773L291.742 25.312L290.969 25.9466C291.996 27.1964 292.853 28.577 293.509 30.0567L294.423 29.6514ZM288.018 21.8244L288.602 21.0125C287.164 19.9784 285.583 19.1176 283.893 18.4618L283.531 19.3941L283.17 20.3264C284.701 20.9208 286.133 21.7006 287.434 22.6362L288.018 21.8244ZM278.582 18.1547L278.703 17.162C277.827 17.0551 276.934 17 276.028 17V18V19C276.853 19 277.664 19.0501 278.46 19.1473L278.582 18.1547ZM296 37.1055H298V37.1055L296 37.1055ZM100.069 139.001L100.069 141.001H100.069V139.001ZM76.0693 103.729H78.0693V102.312L76.7325 101.842L76.0693 103.729ZM58 78.9561H56V78.9561L58 78.9561ZM76.0693 54.1826L76.7325 56.0695L78.0693 55.5997V54.1826H76.0693ZM76.0693 37.1055L74.0693 37.1055V37.1055H76.0693ZM276.028 18V16H273.029V18V20H276.028V18ZM267.029 18V16H261.029V18V20H267.029V18ZM255.03 18V16H249.03V18V20H255.03V18ZM243.031 18V16H237.031V18V20H243.031V18ZM231.031 18V16H225.032V18V20H231.031V18ZM219.032 18V16H213.033V18V20H219.032V18ZM207.033 18V16H201.034V18V20H207.033V18ZM195.034 18V16H189.034V18V20H195.034V18ZM183.035 18V16H177.035V18V20H183.035V18ZM171.036 18V16H165.036V18V20H171.036V18ZM159.037 18V16H153.037V18V20H159.037V18ZM147.037 18V16H141.038V18V20H147.037V18ZM135.038 18V16H129.039V18V20H135.038V18ZM123.039 18V16H117.04V18V20H123.039V18ZM111.04 18V16H105.04V18V20H111.04V18ZM99.0408 18V16H96.041V18V20H99.0408V18ZM96.041 18V16C95.0948 16 94.1618 16.0575 93.2455 16.1694L93.4878 18.1547L93.7302 20.1399C94.4859 20.0477 95.2572 20 96.041 20V18ZM88.5379 19.3941L87.8143 17.5296C86.0455 18.216 84.3902 19.1174 82.8838 20.2006L84.0516 21.8244L85.2193 23.4481C86.4519 22.5616 87.8089 21.8223 89.2615 21.2586L88.5379 19.3941ZM80.3274 25.312L78.7819 24.0426C77.5876 25.4967 76.5864 27.108 75.8181 28.8408L77.6465 29.6514L79.4749 30.4621C80.0935 29.0667 80.9025 27.763 81.873 26.5813L80.3274 25.312ZM76.2458 34.5544L74.265 34.2781C74.1359 35.2038 74.0693 36.1477 74.0693 37.1055L76.0693 37.1055L78.0693 37.1055C78.0693 36.3332 78.123 35.574 78.2267 34.8307L76.2458 34.5544ZM76.0693 37.1055H74.0693V41.3748H76.0693H78.0693V37.1055H76.0693ZM76.0693 49.9133H74.0693V54.1826H76.0693H78.0693V49.9133H76.0693ZM76.0693 54.1826L75.4062 52.2957C74.4828 52.6203 73.5808 52.9877 72.7029 53.3957L73.5456 55.2094L74.3884 57.0232C75.1493 56.6697 75.9314 56.351 76.7325 56.0695L76.0693 54.1826ZM68.8582 57.9727L67.6786 56.3576C66.0964 57.5133 64.6384 58.8191 63.328 60.2537L64.8046 61.6026L66.2813 62.9515C67.4107 61.7151 68.6694 60.5873 70.0379 59.5877L68.8582 57.9727ZM61.5646 65.9732L59.8435 64.9543C58.8507 66.6314 58.03 68.4164 57.4054 70.2872L59.3025 70.9206L61.1995 71.5539C61.7327 69.9569 62.4344 68.4299 63.2856 66.992L61.5646 65.9732ZM58.1449 76.2351L56.1563 76.0221C56.0529 76.9872 56 77.966 56 78.9561H58H60C60 78.1086 60.0453 77.272 60.1335 76.4481L58.1449 76.2351ZM58 78.9561L56 78.9561C56 79.9461 56.0529 80.9249 56.1563 81.8899L58.1449 81.6769L60.1336 81.4639C60.0453 80.64 60 79.8034 60 78.956L58 78.9561ZM59.3026 86.9913L57.4055 87.6247C58.0302 89.4955 58.851 91.2804 59.8438 92.9574L61.5648 91.9385L63.2858 90.9196C62.4346 89.4818 61.7329 87.9549 61.1996 86.3579L59.3026 86.9913ZM64.8049 96.3088L63.3283 97.6578C64.6387 99.0923 66.0967 100.398 67.6788 101.554L68.8585 99.9385L70.0381 98.3235C68.6696 97.3239 67.4109 96.1962 66.2815 94.9599L64.8049 96.3088ZM73.5457 102.702L72.7029 104.515C73.5808 104.923 74.4828 105.291 75.4062 105.615L76.0693 103.729L76.7325 101.842C75.9315 101.56 75.1494 101.241 74.3885 100.888L73.5457 102.702ZM76.0693 103.729H74.0693V106.547H76.0693H78.0693V103.729H76.0693ZM76.0693 112.183H74.0693V115.001H76.0693H78.0693V112.183H76.0693ZM76.0693 115.001H74.0693C74.0693 116.15 74.144 117.283 74.289 118.394L76.2722 118.136L78.2554 117.877C78.1327 116.937 78.0693 115.977 78.0693 115.001H76.0693ZM77.8905 124.188L76.043 124.954C76.92 127.069 78.0675 129.042 79.4419 130.83L81.0278 129.612L82.6136 128.393C81.4498 126.879 80.4792 125.209 79.7379 123.422L77.8905 124.188ZM85.4585 134.043L84.2399 135.628C86.0283 137.003 88.0015 138.15 90.1163 139.027L90.8824 137.18L91.6485 135.332C89.8611 134.591 88.1917 133.621 86.6772 132.457L85.4585 134.043ZM96.9347 138.798L96.676 140.781C97.7875 140.926 98.9202 141.001 100.069 141.001L100.069 139.001L100.069 137.001C99.0937 137.001 98.1338 136.938 97.1934 136.815L96.9347 138.798ZM100.069 139.001V141.001H103.002V139.001V137.001H100.069V139.001ZM108.867 139.001V141.001H114.733V139.001V137.001H108.867V139.001ZM120.598 139.001V141.001H126.463V139.001V137.001H120.598V139.001ZM132.328 139.001V141.001H138.194V139.001V137.001H132.328V139.001ZM144.059 139.001V141.001H149.924V139.001V137.001H144.059V139.001ZM155.79 139.001V141.001H161.655V139.001V137.001H155.79V139.001ZM167.52 139.001V141.001H173.386V139.001V137.001H167.52V139.001ZM179.251 139.001V141.001H185.116V139.001V137.001H179.251V139.001ZM190.981 139.001V141.001H196.847V139.001V137.001H190.981V139.001ZM202.712 139.001V141.001H208.577V139.001V137.001H202.712V139.001ZM214.443 139.001V141.001H220.308V139.001V137.001H214.443V139.001ZM226.173 139.001V141.001H232.039V139.001V137.001H226.173V139.001ZM237.904 139.001V141.001H243.769V139.001V137.001H237.904V139.001ZM249.634 139.001V141.001H255.5V139.001V137.001H249.634V139.001ZM261.365 139.001V141.001H267.23V139.001V137.001H261.365V139.001ZM273.096 139.001V141.001H276.028V139.001V137.001H273.096V139.001ZM276.028 139.001V141.001C276.974 141.001 277.908 140.943 278.824 140.832L278.582 138.846L278.339 136.861C277.583 136.953 276.812 137.001 276.028 137.001V139.001ZM283.531 137.607L284.255 139.471C286.024 138.785 287.679 137.884 289.185 136.8L288.018 135.177L286.85 133.553C285.617 134.439 284.26 135.179 282.808 135.742L283.531 137.607ZM291.742 131.689L293.287 132.958C294.482 131.504 295.483 129.893 296.251 128.16L294.423 127.35L292.594 126.539C291.976 127.934 291.167 129.238 290.196 130.42L291.742 131.689ZM295.824 122.447L297.804 122.723C297.933 121.797 298 120.853 298 119.896H296H294C294 120.668 293.946 121.427 293.843 122.17L295.824 122.447ZM296 119.896H298V116.939H296H294V119.896H296ZM296 111.025H298V105.112H296H294V111.025H296ZM296 99.198H298V93.2844H296H294V99.198H296ZM296 87.3708H298V81.4573H296H294V87.3708H296ZM296 75.5437H298V69.6301H296H294V75.5437H296ZM296 63.7166H298V57.803H296H294V63.7166H296ZM296 51.8894H298V45.9758H296H294V51.8894H296ZM296 40.0623H298V37.1055H296H294V40.0623H296ZM296 37.1055L298 37.1055C298 36.1477 297.933 35.2038 297.804 34.2781L295.824 34.5544L293.843 34.8307C293.946 35.574 294 36.3332 294 37.1055L296 37.1055ZM294.423 29.6514L296.251 28.8408C295.483 27.108 294.482 25.4967 293.287 24.0426L291.742 25.312L290.196 26.5813C291.167 27.763 291.976 29.0667 292.594 30.4621L294.423 29.6514ZM288.018 21.8244L289.185 20.2006C287.679 19.1174 286.024 18.216 284.255 17.5296L283.531 19.3941L282.808 21.2586C284.26 21.8223 285.617 22.5616 286.85 23.4481L288.018 21.8244ZM278.582 18.1547L278.824 16.1694C277.908 16.0575 276.974 16 276.028 16V18V20C276.812 20 277.583 20.0477 278.339 20.1399L278.582 18.1547Z" fill="#373737" fill-opacity="0.47" mask="url(#path-13-inside-3_3_289)"/>
<mask id="path-15-inside-4_3_289" fill="white">
<path d="M276.028 18C287.058 18 296 26.5538 296 37.1055V119.896C296 130.447 287.058 139.001 276.028 139.001H100.069C86.8145 139.001 76.0693 128.256 76.0693 115.001V103.729C65.5238 100.022 58.0002 90.3297 58 78.9561C58 67.5821 65.5235 57.8888 76.0693 54.1826V37.1055C76.0693 26.5538 85.0111 18 96.041 18H276.028Z"/>
</mask>
<path d="M296 37.1055H297V37.1055H296ZM100.069 139.001V140.001V140.001V139.001ZM76.0693 103.729H77.0693V103.02L76.4009 102.785L76.0693 103.729ZM58 78.9561H57V78.9561L58 78.9561ZM76.0693 54.1826L76.4009 55.1261L77.0693 54.8911V54.1826H76.0693ZM76.0693 37.1055H75.0693V37.1055H76.0693ZM276.028 18V17H273.029V18V19H276.028V18ZM267.029 18V17H261.029V18V19H267.029V18ZM255.03 18V17H249.03V18V19H255.03V18ZM243.031 18V17H237.031V18V19H243.031V18ZM231.031 18V17H225.032V18V19H231.031V18ZM219.032 18V17H213.033V18V19H219.032V18ZM207.033 18V17H201.034V18V19H207.033V18ZM195.034 18V17H189.034V18V19H195.034V18ZM183.035 18V17H177.035V18V19H183.035V18ZM171.036 18V17H165.036V18V19H171.036V18ZM159.037 18V17H153.037V18V19H159.037V18ZM147.037 18V17H141.038V18V19H147.037V18ZM135.038 18V17H129.039V18V19H135.038V18ZM123.039 18V17H117.04V18V19H123.039V18ZM111.04 18V17H105.04V18V19H111.04V18ZM99.0408 18V17H96.041V18V19H99.0408V18ZM96.041 18V17C95.1354 17 94.2428 17.0551 93.3666 17.162L93.4878 18.1547L93.609 19.1473C94.4049 19.0501 95.2166 19 96.041 19V18ZM88.5379 19.3941L88.1761 18.4618C86.4863 19.1176 84.9056 19.9784 83.4677 21.0125L84.0516 21.8244L84.6354 22.6362C85.9365 21.7006 87.368 20.9208 88.8997 20.3264L88.5379 19.3941ZM80.3274 25.312L79.5547 24.6773C78.4164 26.0633 77.4632 27.5976 76.7323 29.2461L77.6465 29.6514L78.5607 30.0567C79.2167 28.577 80.0738 27.1964 81.1002 25.9466L80.3274 25.312ZM76.2458 34.5544L75.2554 34.4162C75.1327 35.2964 75.0693 36.1941 75.0693 37.1055H76.0693H77.0693C77.0693 36.2868 77.1262 35.4814 77.2362 34.6925L76.2458 34.5544ZM76.0693 37.1055H75.0693V41.3748H76.0693H77.0693V37.1055H76.0693ZM76.0693 49.9133H75.0693V54.1826H76.0693H77.0693V49.9133H76.0693ZM76.0693 54.1826L75.7378 53.2392C74.8449 53.553 73.9729 53.9082 73.1243 54.3025L73.5456 55.2094L73.967 56.1163C74.7572 55.7492 75.5692 55.4183 76.4009 55.1261L76.0693 54.1826ZM68.8582 57.9727L68.2684 57.1651C66.7396 58.2818 65.3315 59.5431 64.0663 60.9281L64.8046 61.6026L65.5429 62.277C66.7176 60.9911 68.0261 59.8188 69.4481 58.7802L68.8582 57.9727ZM61.5646 65.9732L60.7041 65.4637C59.7467 67.081 58.9557 68.8015 58.3539 70.6039L59.3025 70.9206L60.251 71.2372C60.807 69.5717 61.5385 67.9802 62.4251 66.4826L61.5646 65.9732ZM58.1449 76.2351L57.1506 76.1286C57.051 77.0584 57 78.0017 57 78.9561H58H59C59 78.073 59.0472 77.2008 59.1392 76.3416L58.1449 76.2351ZM58 78.9561L57 78.9561C57 79.9104 57.051 80.8537 57.1506 81.7834L58.1449 81.6769L59.1392 81.5704C59.0472 80.7112 59 79.8391 59 78.956L58 78.9561ZM59.3026 86.9913L58.3541 87.308C58.9558 89.1103 59.7469 90.8307 60.7043 92.4479L61.5648 91.9385L62.4253 91.429C61.5387 89.9314 60.8072 88.34 60.2511 86.6746L59.3026 86.9913ZM64.8049 96.3088L64.0666 96.9833C65.3318 98.3683 66.7399 99.6295 68.2686 100.746L68.8585 99.9385L69.4483 99.131C68.0264 98.0924 66.7178 96.9202 65.5432 95.6344L64.8049 96.3088ZM73.5457 102.702L73.1243 103.609C73.9729 104.003 74.8449 104.358 75.7378 104.672L76.0693 103.729L76.4009 102.785C75.5693 102.493 74.7572 102.162 73.9671 101.795L73.5457 102.702ZM76.0693 103.729H75.0693V106.547H76.0693H77.0693V103.729H76.0693ZM76.0693 112.183H75.0693V115.001H76.0693H77.0693V112.183H76.0693ZM76.0693 115.001H75.0693C75.0693 116.107 75.1412 117.196 75.2806 118.265L76.2722 118.136L77.2638 118.006C77.1355 117.023 77.0693 116.02 77.0693 115.001H76.0693ZM77.8905 124.188L76.9667 124.571C77.8098 126.604 78.9131 128.501 80.2348 130.221L81.0278 129.612L81.8207 129.002C80.6042 127.419 79.5894 125.674 78.8142 123.805L77.8905 124.188ZM85.4585 134.043L84.8492 134.835C86.5692 136.157 88.4664 137.261 90.4994 138.104L90.8824 137.18L91.2655 136.256C89.3962 135.481 87.6508 134.466 86.0679 133.25L85.4585 134.043ZM96.9347 138.798L96.8054 139.79C97.8741 139.929 98.9636 140.001 100.069 140.001V139.001V138.001C99.0503 138.001 98.0472 137.935 97.0641 137.807L96.9347 138.798ZM100.069 139.001V140.001H103.002V139.001V138.001H100.069V139.001ZM108.867 139.001V140.001H114.733V139.001V138.001H108.867V139.001ZM120.598 139.001V140.001H126.463V139.001V138.001H120.598V139.001ZM132.328 139.001V140.001H138.194V139.001V138.001H132.328V139.001ZM144.059 139.001V140.001H149.924V139.001V138.001H144.059V139.001ZM155.79 139.001V140.001H161.655V139.001V138.001H155.79V139.001ZM167.52 139.001V140.001H173.386V139.001V138.001H167.52V139.001ZM179.251 139.001V140.001H185.116V139.001V138.001H179.251V139.001ZM190.981 139.001V140.001H196.847V139.001V138.001H190.981V139.001ZM202.712 139.001V140.001H208.577V139.001V138.001H202.712V139.001ZM214.443 139.001V140.001H220.308V139.001V138.001H214.443V139.001ZM226.173 139.001V140.001H232.039V139.001V138.001H226.173V139.001ZM237.904 139.001V140.001H243.769V139.001V138.001H237.904V139.001ZM249.634 139.001V140.001H255.5V139.001V138.001H249.634V139.001ZM261.365 139.001V140.001H267.23V139.001V138.001H261.365V139.001ZM273.096 139.001V140.001H276.028V139.001V138.001H273.096V139.001ZM276.028 139.001V140.001C276.934 140.001 277.827 139.946 278.703 139.839L278.582 138.846L278.46 137.854C277.664 137.951 276.853 138.001 276.028 138.001V139.001ZM283.531 137.607L283.893 138.539C285.583 137.883 287.164 137.023 288.602 135.988L288.018 135.177L287.434 134.365C286.133 135.3 284.701 136.08 283.17 136.675L283.531 137.607ZM291.742 131.689L292.515 132.324C293.653 130.938 294.606 129.403 295.337 127.755L294.423 127.35L293.509 126.944C292.853 128.424 291.996 129.805 290.969 131.054L291.742 131.689ZM295.824 122.447L296.814 122.585C296.937 121.705 297 120.807 297 119.896H296H295C295 120.714 294.943 121.52 294.833 122.308L295.824 122.447ZM296 119.896H297V116.939H296H295V119.896H296ZM296 111.025H297V105.112H296H295V111.025H296ZM296 99.198H297V93.2844H296H295V99.198H296ZM296 87.3708H297V81.4573H296H295V87.3708H296ZM296 75.5437H297V69.6301H296H295V75.5437H296ZM296 63.7166H297V57.803H296H295V63.7166H296ZM296 51.8894H297V45.9758H296H295V51.8894H296ZM296 40.0623H297V37.1055H296H295V40.0623H296ZM296 37.1055H297C297 36.1941 296.937 35.2964 296.814 34.4162L295.824 34.5544L294.833 34.6925C294.943 35.4814 295 36.2869 295 37.1055H296ZM294.423 29.6514L295.337 29.2461C294.606 27.5976 293.653 26.0633 292.515 24.6773L291.742 25.312L290.969 25.9466C291.996 27.1964 292.853 28.577 293.509 30.0567L294.423 29.6514ZM288.018 21.8244L288.602 21.0125C287.164 19.9784 285.583 19.1176 283.893 18.4618L283.531 19.3941L283.17 20.3264C284.701 20.9208 286.133 21.7006 287.434 22.6362L288.018 21.8244ZM278.582 18.1547L278.703 17.162C277.827 17.0551 276.934 17 276.028 17V18V19C276.853 19 277.664 19.0501 278.46 19.1473L278.582 18.1547ZM296 37.1055H298V37.1055L296 37.1055ZM100.069 139.001L100.069 141.001H100.069V139.001ZM76.0693 103.729H78.0693V102.312L76.7325 101.842L76.0693 103.729ZM58 78.9561H56V78.9561L58 78.9561ZM76.0693 54.1826L76.7325 56.0695L78.0693 55.5997V54.1826H76.0693ZM76.0693 37.1055L74.0693 37.1055V37.1055H76.0693ZM276.028 18V16H273.029V18V20H276.028V18ZM267.029 18V16H261.029V18V20H267.029V18ZM255.03 18V16H249.03V18V20H255.03V18ZM243.031 18V16H237.031V18V20H243.031V18ZM231.031 18V16H225.032V18V20H231.031V18ZM219.032 18V16H213.033V18V20H219.032V18ZM207.033 18V16H201.034V18V20H207.033V18ZM195.034 18V16H189.034V18V20H195.034V18ZM183.035 18V16H177.035V18V20H183.035V18ZM171.036 18V16H165.036V18V20H171.036V18ZM159.037 18V16H153.037V18V20H159.037V18ZM147.037 18V16H141.038V18V20H147.037V18ZM135.038 18V16H129.039V18V20H135.038V18ZM123.039 18V16H117.04V18V20H123.039V18ZM111.04 18V16H105.04V18V20H111.04V18ZM99.0408 18V16H96.041V18V20H99.0408V18ZM96.041 18V16C95.0948 16 94.1618 16.0575 93.2455 16.1694L93.4878 18.1547L93.7302 20.1399C94.4859 20.0477 95.2572 20 96.041 20V18ZM88.5379 19.3941L87.8143 17.5296C86.0455 18.216 84.3902 19.1174 82.8838 20.2006L84.0516 21.8244L85.2193 23.4481C86.4519 22.5616 87.8089 21.8223 89.2615 21.2586L88.5379 19.3941ZM80.3274 25.312L78.7819 24.0426C77.5876 25.4967 76.5864 27.108 75.8181 28.8408L77.6465 29.6514L79.4749 30.4621C80.0935 29.0667 80.9025 27.763 81.873 26.5813L80.3274 25.312ZM76.2458 34.5544L74.265 34.2781C74.1359 35.2038 74.0693 36.1477 74.0693 37.1055L76.0693 37.1055L78.0693 37.1055C78.0693 36.3332 78.123 35.574 78.2267 34.8307L76.2458 34.5544ZM76.0693 37.1055H74.0693V41.3748H76.0693H78.0693V37.1055H76.0693ZM76.0693 49.9133H74.0693V54.1826H76.0693H78.0693V49.9133H76.0693ZM76.0693 54.1826L75.4062 52.2957C74.4828 52.6203 73.5808 52.9877 72.7029 53.3957L73.5456 55.2094L74.3884 57.0232C75.1493 56.6697 75.9314 56.351 76.7325 56.0695L76.0693 54.1826ZM68.8582 57.9727L67.6786 56.3576C66.0964 57.5133 64.6384 58.8191 63.328 60.2537L64.8046 61.6026L66.2813 62.9515C67.4107 61.7151 68.6694 60.5873 70.0379 59.5877L68.8582 57.9727ZM61.5646 65.9732L59.8435 64.9543C58.8507 66.6314 58.03 68.4164 57.4054 70.2872L59.3025 70.9206L61.1995 71.5539C61.7327 69.9569 62.4344 68.4299 63.2856 66.992L61.5646 65.9732ZM58.1449 76.2351L56.1563 76.0221C56.0529 76.9872 56 77.966 56 78.9561H58H60C60 78.1086 60.0453 77.272 60.1335 76.4481L58.1449 76.2351ZM58 78.9561L56 78.9561C56 79.9461 56.0529 80.9249 56.1563 81.8899L58.1449 81.6769L60.1336 81.4639C60.0453 80.64 60 79.8034 60 78.956L58 78.9561ZM59.3026 86.9913L57.4055 87.6247C58.0302 89.4955 58.851 91.2804 59.8438 92.9574L61.5648 91.9385L63.2858 90.9196C62.4346 89.4818 61.7329 87.9549 61.1996 86.3579L59.3026 86.9913ZM64.8049 96.3088L63.3283 97.6578C64.6387 99.0923 66.0967 100.398 67.6788 101.554L68.8585 99.9385L70.0381 98.3235C68.6696 97.3239 67.4109 96.1962 66.2815 94.9599L64.8049 96.3088ZM73.5457 102.702L72.7029 104.515C73.5808 104.923 74.4828 105.291 75.4062 105.615L76.0693 103.729L76.7325 101.842C75.9315 101.56 75.1494 101.241 74.3885 100.888L73.5457 102.702ZM76.0693 103.729H74.0693V106.547H76.0693H78.0693V103.729H76.0693ZM76.0693 112.183H74.0693V115.001H76.0693H78.0693V112.183H76.0693ZM76.0693 115.001H74.0693C74.0693 116.15 74.144 117.283 74.289 118.394L76.2722 118.136L78.2554 117.877C78.1327 116.937 78.0693 115.977 78.0693 115.001H76.0693ZM77.8905 124.188L76.043 124.954C76.92 127.069 78.0675 129.042 79.4419 130.83L81.0278 129.612L82.6136 128.393C81.4498 126.879 80.4792 125.209 79.7379 123.422L77.8905 124.188ZM85.4585 134.043L84.2399 135.628C86.0283 137.003 88.0015 138.15 90.1163 139.027L90.8824 137.18L91.6485 135.332C89.8611 134.591 88.1917 133.621 86.6772 132.457L85.4585 134.043ZM96.9347 138.798L96.676 140.781C97.7875 140.926 98.9202 141.001 100.069 141.001L100.069 139.001L100.069 137.001C99.0937 137.001 98.1338 136.938 97.1934 136.815L96.9347 138.798ZM100.069 139.001V141.001H103.002V139.001V137.001H100.069V139.001ZM108.867 139.001V141.001H114.733V139.001V137.001H108.867V139.001ZM120.598 139.001V141.001H126.463V139.001V137.001H120.598V139.001ZM132.328 139.001V141.001H138.194V139.001V137.001H132.328V139.001ZM144.059 139.001V141.001H149.924V139.001V137.001H144.059V139.001ZM155.79 139.001V141.001H161.655V139.001V137.001H155.79V139.001ZM167.52 139.001V141.001H173.386V139.001V137.001H167.52V139.001ZM179.251 139.001V141.001H185.116V139.001V137.001H179.251V139.001ZM190.981 139.001V141.001H196.847V139.001V137.001H190.981V139.001ZM202.712 139.001V141.001H208.577V139.001V137.001H202.712V139.001ZM214.443 139.001V141.001H220.308V139.001V137.001H214.443V139.001ZM226.173 139.001V141.001H232.039V139.001V137.001H226.173V139.001ZM237.904 139.001V141.001H243.769V139.001V137.001H237.904V139.001ZM249.634 139.001V141.001H255.5V139.001V137.001H249.634V139.001ZM261.365 139.001V141.001H267.23V139.001V137.001H261.365V139.001ZM273.096 139.001V141.001H276.028V139.001V137.001H273.096V139.001ZM276.028 139.001V141.001C276.974 141.001 277.908 140.943 278.824 140.832L278.582 138.846L278.339 136.861C277.583 136.953 276.812 137.001 276.028 137.001V139.001ZM283.531 137.607L284.255 139.471C286.024 138.785 287.679 137.884 289.185 136.8L288.018 135.177L286.85 133.553C285.617 134.439 284.26 135.179 282.808 135.742L283.531 137.607ZM291.742 131.689L293.287 132.958C294.482 131.504 295.483 129.893 296.251 128.16L294.423 127.35L292.594 126.539C291.976 127.934 291.167 129.238 290.196 130.42L291.742 131.689ZM295.824 122.447L297.804 122.723C297.933 121.797 298 120.853 298 119.896H296H294C294 120.668 293.946 121.427 293.843 122.17L295.824 122.447ZM296 119.896H298V116.939H296H294V119.896H296ZM296 111.025H298V105.112H296H294V111.025H296ZM296 99.198H298V93.2844H296H294V99.198H296ZM296 87.3708H298V81.4573H296H294V87.3708H296ZM296 75.5437H298V69.6301H296H294V75.5437H296ZM296 63.7166H298V57.803H296H294V63.7166H296ZM296 51.8894H298V45.9758H296H294V51.8894H296ZM296 40.0623H298V37.1055H296H294V40.0623H296ZM296 37.1055L298 37.1055C298 36.1477 297.933 35.2038 297.804 34.2781L295.824 34.5544L293.843 34.8307C293.946 35.574 294 36.3332 294 37.1055L296 37.1055ZM294.423 29.6514L296.251 28.8408C295.483 27.108 294.482 25.4967 293.287 24.0426L291.742 25.312L290.196 26.5813C291.167 27.763 291.976 29.0667 292.594 30.4621L294.423 29.6514ZM288.018 21.8244L289.185 20.2006C287.679 19.1174 286.024 18.216 284.255 17.5296L283.531 19.3941L282.808 21.2586C284.26 21.8223 285.617 22.5616 286.85 23.4481L288.018 21.8244ZM278.582 18.1547L278.824 16.1694C277.908 16.0575 276.974 16 276.028 16V18V20C276.812 20 277.583 20.0477 278.339 20.1399L278.582 18.1547Z" fill="white" fill-opacity="0.24" mask="url(#path-15-inside-4_3_289)"/>
<path d="M276 138.317L293.124 130.023L276 121.729L293.124 113.434L276 105.139L293.124 96.8447L276 88.5498L293.124 80.2549L276 71.96L293.124 63.666L276 55.3711L293.124 47.0771L276 38.7822L293.124 30.4873L276 22.1924L287.971 16.3955C293.444 20.3975 297 26.8654 297 34.165L297 123.165C297 131.679 292.163 139.061 285.089 142.719L276 138.317Z" fill="#5A5E6C"/>
<rect x="17" y="18" width="24" height="121" rx="8" fill="#AEAEAE" fill-opacity="0.24"/>
<path d="M26.465 30.148C26.6297 30.2087 26.7337 30.3083 26.777 30.447C26.829 30.5857 26.8073 30.7243 26.712 30.863C26.426 31.3397 26.14 31.7643 25.854 32.137C25.5767 32.501 25.2863 32.8477 24.983 33.177C24.6883 33.5063 24.3547 33.8443 23.982 34.191C23.8347 34.321 23.6873 34.373 23.54 34.347C23.3927 34.3123 23.2757 34.2127 23.189 34.048L23.15 33.97C23.0633 33.7967 23.0417 33.619 23.085 33.437C23.1283 33.255 23.2237 33.099 23.371 32.969C23.6137 32.7697 23.8303 32.579 24.021 32.397C24.2203 32.2063 24.4023 32.0157 24.567 31.825C24.7403 31.6257 24.9093 31.4177 25.074 31.201C25.2387 30.9757 25.412 30.7157 25.594 30.421C25.698 30.2823 25.828 30.187 25.984 30.135C26.14 30.083 26.3003 30.0873 26.465 30.148ZM26.218 27.275C26.3913 27.3443 26.4997 27.4483 26.543 27.587C26.5863 27.717 26.5473 27.8557 26.426 28.003C26.244 28.2543 26.0663 28.4797 25.893 28.679C25.7197 28.8783 25.5463 29.069 25.373 29.251C25.1997 29.433 25.009 29.6107 24.801 29.784C24.6017 29.9573 24.3807 30.1437 24.138 30.343C23.9993 30.447 23.8563 30.486 23.709 30.46C23.5617 30.4253 23.436 30.33 23.332 30.174C23.2453 30.018 23.215 29.8663 23.241 29.719C23.2757 29.563 23.3623 29.4243 23.501 29.303C23.709 29.1557 23.9257 28.978 24.151 28.77C24.3763 28.562 24.5887 28.354 24.788 28.146C24.9873 27.9293 25.1433 27.7343 25.256 27.561C25.3773 27.4137 25.5203 27.314 25.685 27.262C25.8583 27.21 26.036 27.2143 26.218 27.275ZM25.88 31.37L25.945 31.396V38.468C25.945 38.6587 25.8843 38.8103 25.763 38.923C25.6503 39.0357 25.4987 39.092 25.308 39.092C25.1173 39.092 24.9657 39.0357 24.853 38.923C24.7403 38.8103 24.684 38.6587 24.684 38.468V32.566L25.88 31.37ZM33.667 33.307C33.8403 33.307 33.979 33.3633 34.083 33.476C34.1957 33.58 34.252 33.723 34.252 33.905C34.252 34.0783 34.1957 34.217 34.083 34.321C33.979 34.425 33.8403 34.477 33.667 34.477H28.129C27.9557 34.477 27.817 34.425 27.713 34.321C27.609 34.2083 27.557 34.061 27.557 33.879C27.557 33.7057 27.609 33.567 27.713 33.463C27.817 33.359 27.9557 33.307 28.129 33.307H33.667ZM34.421 37.532C34.5943 37.532 34.733 37.5883 34.837 37.701C34.941 37.805 34.993 37.948 34.993 38.13C34.993 38.3033 34.941 38.442 34.837 38.546C34.733 38.65 34.5943 38.702 34.421 38.702H27.284C27.1107 38.702 26.972 38.6457 26.868 38.533C26.764 38.429 26.712 38.286 26.712 38.104C26.712 37.9307 26.764 37.792 26.868 37.688C26.972 37.584 27.1107 37.532 27.284 37.532H34.421ZM34.083 29.485C34.2563 29.485 34.395 29.5413 34.499 29.654C34.603 29.758 34.655 29.901 34.655 30.083C34.655 30.2563 34.603 30.395 34.499 30.499C34.395 30.603 34.2563 30.655 34.083 30.655H27.674C27.5007 30.655 27.362 30.603 27.258 30.499C27.154 30.3863 27.102 30.239 27.102 30.057C27.102 29.8837 27.154 29.745 27.258 29.641C27.362 29.537 27.5007 29.485 27.674 29.485H34.083ZM31.561 30.148V38.052H30.287V30.148H31.561ZM30.183 27.158C30.3477 27.106 30.508 27.1103 30.664 27.171C30.8287 27.223 30.95 27.3227 31.028 27.47C31.158 27.6693 31.2663 27.847 31.353 28.003C31.4397 28.1503 31.5133 28.302 31.574 28.458C31.6607 28.6313 31.665 28.796 31.587 28.952C31.5177 29.0993 31.392 29.2077 31.21 29.277C31.0367 29.3377 30.8763 29.3333 30.729 29.264C30.5903 29.1947 30.4863 29.0733 30.417 28.9C30.339 28.718 30.261 28.5533 30.183 28.406C30.105 28.2587 30.0053 28.0853 29.884 27.886C29.806 27.73 29.793 27.587 29.845 27.457C29.897 27.3183 30.0097 27.2187 30.183 27.158ZM34.148 44.368C34.33 44.368 34.473 44.4243 34.577 44.537C34.681 44.641 34.733 44.7883 34.733 44.979C34.733 45.1523 34.681 45.2953 34.577 45.408C34.473 45.512 34.33 45.564 34.148 45.564H23.891C23.7177 45.564 23.5747 45.512 23.462 45.408C23.3493 45.2953 23.293 45.1437 23.293 44.953C23.293 44.771 23.3493 44.628 23.462 44.524C23.5747 44.42 23.7177 44.368 23.891 44.368H34.148ZM28.337 42.145C28.5363 42.1797 28.6793 42.2663 28.766 42.405C28.8527 42.5437 28.87 42.7083 28.818 42.899C28.532 44.017 28.1983 45.07 27.817 46.058C27.4357 47.046 26.9503 47.969 26.361 48.827C25.7803 49.6763 25.048 50.4607 24.164 51.18C24.0253 51.3013 23.8693 51.3533 23.696 51.336C23.5313 51.31 23.384 51.2233 23.254 51.076C23.1327 50.9287 23.0807 50.777 23.098 50.621C23.124 50.465 23.2063 50.3263 23.345 50.205C24.1683 49.555 24.8487 48.84 25.386 48.06C25.9233 47.28 26.361 46.4393 26.699 45.538C27.037 44.6367 27.323 43.6747 27.557 42.652C27.6003 42.4613 27.6913 42.3227 27.83 42.236C27.9773 42.1407 28.1463 42.1103 28.337 42.145ZM25.919 48.697C25.919 48.463 25.9927 48.2723 26.14 48.125C26.2873 47.9777 26.478 47.904 26.712 47.904H33.03C33.264 47.904 33.4547 47.9777 33.602 48.125C33.7493 48.2723 33.823 48.463 33.823 48.697V52.961C33.823 53.1863 33.7493 53.3727 33.602 53.52C33.4547 53.676 33.264 53.754 33.03 53.754H26.712C26.478 53.754 26.2873 53.676 26.14 53.52C25.9927 53.3727 25.919 53.1863 25.919 52.961V48.697ZM27.544 49.087C27.4313 49.087 27.336 49.126 27.258 49.204C27.1887 49.282 27.154 49.3773 27.154 49.49V52.155C27.154 52.2677 27.1887 52.363 27.258 52.441C27.336 52.5103 27.4313 52.545 27.544 52.545H32.12C32.2413 52.545 32.3367 52.5103 32.406 52.441C32.484 52.363 32.523 52.2677 32.523 52.155V49.49C32.523 49.3773 32.484 49.282 32.406 49.204C32.3367 49.126 32.2413 49.087 32.12 49.087H27.544ZM30.339 58.835C30.4863 58.835 30.6033 58.8827 30.69 58.978C30.7853 59.0733 30.833 59.199 30.833 59.355C30.833 59.5023 30.7853 59.6237 30.69 59.719C30.6033 59.8057 30.4863 59.849 30.339 59.849H26.855C26.7077 59.849 26.5863 59.8057 26.491 59.719C26.4043 59.6237 26.361 59.498 26.361 59.342C26.361 59.1947 26.4043 59.0733 26.491 58.978C26.5863 58.8827 26.7077 58.835 26.855 58.835H30.339ZM27.518 57.145C27.648 57.145 27.7563 57.1883 27.843 57.275C27.9297 57.3617 27.973 57.4743 27.973 57.613V65.452H27.037V57.613C27.037 57.4743 27.076 57.3617 27.154 57.275C27.2407 57.1883 27.362 57.145 27.518 57.145ZM29.767 57.145C29.9057 57.145 30.0183 57.1883 30.105 57.275C30.1917 57.3617 30.235 57.4743 30.235 57.613V65.426H29.273V57.613C29.273 57.4743 29.3163 57.3617 29.403 57.275C29.4983 57.1883 29.6197 57.145 29.767 57.145ZM29.845 60.902V61.786H27.492V60.902H29.845ZM27.739 66.219C27.8863 66.2623 27.9903 66.3403 28.051 66.453C28.1117 66.5657 28.116 66.6913 28.064 66.83C27.986 67.0293 27.8863 67.246 27.765 67.48C27.6523 67.714 27.531 67.935 27.401 68.143C27.2797 68.3597 27.167 68.533 27.063 68.663C26.985 68.793 26.8767 68.871 26.738 68.897C26.5993 68.923 26.465 68.8883 26.335 68.793C26.205 68.7063 26.1313 68.598 26.114 68.468C26.1053 68.338 26.14 68.2123 26.218 68.091C26.3307 67.961 26.439 67.8093 26.543 67.636C26.647 67.4627 26.7423 67.285 26.829 67.103C26.9243 66.921 27.0023 66.7433 27.063 66.57C27.1237 66.4313 27.2103 66.3317 27.323 66.271C27.4443 66.2017 27.583 66.1843 27.739 66.219ZM29.143 66.232C29.273 66.1713 29.3987 66.1583 29.52 66.193C29.65 66.219 29.754 66.2883 29.832 66.401C29.936 66.5397 30.0183 66.6653 30.079 66.778C30.1483 66.8907 30.2133 67.0077 30.274 67.129C30.352 67.2503 30.365 67.376 30.313 67.506C30.261 67.636 30.1657 67.7313 30.027 67.792C29.9057 67.8613 29.7843 67.8743 29.663 67.831C29.5503 67.7877 29.4593 67.701 29.39 67.571C29.3293 67.4323 29.2643 67.311 29.195 67.207C29.1343 67.0943 29.0563 66.9643 28.961 66.817C28.8917 66.6957 28.87 66.583 28.896 66.479C28.9307 66.375 29.013 66.2927 29.143 66.232ZM31.158 59.017C31.158 58.783 31.2273 58.5707 31.366 58.38C31.5047 58.1893 31.6823 58.0507 31.899 57.964C32.159 57.86 32.406 57.756 32.64 57.652C32.8827 57.548 33.0907 57.444 33.264 57.34C33.4373 57.2533 33.6193 57.2143 33.81 57.223C34.0093 57.2317 34.187 57.2967 34.343 57.418C34.4903 57.5393 34.5597 57.665 34.551 57.795C34.5423 57.9163 34.447 58.0203 34.265 58.107C34.1263 58.1763 33.9573 58.2543 33.758 58.341C33.5587 58.4277 33.355 58.51 33.147 58.588C32.939 58.666 32.744 58.7353 32.562 58.796C32.458 58.8307 32.367 58.9 32.289 59.004C32.2197 59.0993 32.185 59.2033 32.185 59.316V62.41C32.185 63.0687 32.159 63.762 32.107 64.49C32.0637 65.2093 31.9727 65.9243 31.834 66.635C31.704 67.3457 31.496 68.0087 31.21 68.624C31.1493 68.7713 31.0583 68.858 30.937 68.884C30.8157 68.91 30.6943 68.8667 30.573 68.754C30.4517 68.65 30.3737 68.52 30.339 68.364C30.3043 68.2167 30.3173 68.0693 30.378 67.922C30.612 67.3673 30.7853 66.7823 30.898 66.167C31.0107 65.543 31.08 64.9147 31.106 64.282C31.1407 63.6407 31.158 63.0167 31.158 62.41V59.017ZM34.512 61.175C34.668 61.175 34.7937 61.2227 34.889 61.318C34.9843 61.4133 35.032 61.5433 35.032 61.708C35.032 61.864 34.9843 61.9897 34.889 62.085C34.7937 62.1803 34.668 62.228 34.512 62.228H31.704V61.175H34.512ZM30.352 64.854C30.508 64.854 30.6293 64.9017 30.716 64.997C30.8113 65.0837 30.859 65.205 30.859 65.361C30.859 65.5083 30.8113 65.6297 30.716 65.725C30.6293 65.8203 30.508 65.868 30.352 65.868H26.699C26.5517 65.868 26.4303 65.8203 26.335 65.725C26.2397 65.6297 26.192 65.504 26.192 65.348C26.192 65.2007 26.2397 65.0837 26.335 64.997C26.4303 64.9017 26.5517 64.854 26.699 64.854H30.352ZM34.122 61.643V68.585C34.122 68.741 34.0743 68.8623 33.979 68.949C33.8837 69.0443 33.7623 69.092 33.615 69.092C33.4677 69.092 33.3463 69.0443 33.251 68.949C33.1557 68.8623 33.108 68.741 33.108 68.585V61.643H34.122ZM29.845 62.865V63.749H27.492V62.865H29.845ZM23.072 64.399C23.0287 64.2257 23.046 64.074 23.124 63.944C23.2107 63.8053 23.3363 63.7057 23.501 63.645C23.7003 63.5843 23.878 63.5237 24.034 63.463C24.1987 63.4023 24.3633 63.3417 24.528 63.281C24.6927 63.2117 24.8703 63.138 25.061 63.06C25.2517 62.982 25.477 62.891 25.737 62.787C25.893 62.735 26.0273 62.7437 26.14 62.813C26.2613 62.8823 26.335 63.0037 26.361 63.177C26.3957 63.333 26.374 63.4803 26.296 63.619C26.218 63.7577 26.101 63.8573 25.945 63.918C25.711 64.0047 25.503 64.087 25.321 64.165C25.1477 64.2343 24.983 64.3037 24.827 64.373C24.671 64.4423 24.5107 64.5117 24.346 64.581C24.19 64.6417 24.008 64.7153 23.8 64.802C23.6267 64.854 23.475 64.8453 23.345 64.776C23.215 64.7067 23.124 64.581 23.072 64.399ZM25.698 59.576C25.8713 59.576 26.01 59.628 26.114 59.732C26.218 59.836 26.27 59.9747 26.27 60.148C26.27 60.3213 26.218 60.46 26.114 60.564C26.01 60.668 25.8713 60.72 25.698 60.72H23.644C23.4707 60.72 23.332 60.668 23.228 60.564C23.124 60.46 23.072 60.3213 23.072 60.148C23.072 59.9747 23.124 59.836 23.228 59.732C23.332 59.628 23.4707 59.576 23.644 59.576H25.698ZM25.412 67.701C25.412 67.987 25.3817 68.2167 25.321 68.39C25.2603 68.5633 25.1477 68.6977 24.983 68.793C24.8183 68.8883 24.6537 68.9447 24.489 68.962C24.333 68.988 24.1163 69.0053 23.839 69.014C23.6657 69.0227 23.5227 68.975 23.41 68.871C23.2973 68.767 23.2237 68.6283 23.189 68.455C23.163 68.2903 23.1933 68.156 23.28 68.052C23.3753 67.9567 23.5097 67.909 23.683 67.909C23.787 67.909 23.8737 67.9133 23.943 67.922C24.0123 67.922 24.0817 67.9177 24.151 67.909C24.2203 67.909 24.268 67.896 24.294 67.87C24.3287 67.844 24.346 67.7877 24.346 67.701V57.548C24.346 57.392 24.3937 57.2663 24.489 57.171C24.593 57.0757 24.7273 57.028 24.892 57.028C25.048 57.028 25.1737 57.0757 25.269 57.171C25.3643 57.2663 25.412 57.392 25.412 57.548V67.701ZM31.704 77.8C31.8513 77.8 31.9683 77.8477 32.055 77.943C32.1417 78.0297 32.185 78.1467 32.185 78.294C32.185 78.4413 32.1417 78.5627 32.055 78.658C31.9683 78.7447 31.8513 78.788 31.704 78.788H26.283C26.1443 78.788 26.0273 78.7447 25.932 78.658C25.8453 78.5627 25.802 78.437 25.802 78.281C25.802 78.1337 25.8453 78.0167 25.932 77.93C26.0273 77.8433 26.1443 77.8 26.283 77.8H31.704ZM31.925 80.01C32.081 80.01 32.2023 80.0577 32.289 80.153C32.3843 80.2483 32.432 80.374 32.432 80.53C32.432 80.686 32.3843 80.8117 32.289 80.907C32.2023 80.9937 32.081 81.037 31.925 81.037H26.088C25.932 81.037 25.8063 80.9937 25.711 80.907C25.6243 80.8117 25.581 80.6817 25.581 80.517C25.581 80.3697 25.6243 80.2483 25.711 80.153C25.8063 80.0577 25.932 80.01 26.088 80.01H31.925ZM30.82 78.099V83.312C30.82 83.468 30.768 83.598 30.664 83.702C30.5687 83.806 30.4343 83.858 30.261 83.858C30.105 83.858 29.975 83.806 29.871 83.702C29.767 83.598 29.715 83.468 29.715 83.312V78.099H30.82ZM28.168 80.582C28.168 80.8507 28.129 81.167 28.051 81.531C27.9817 81.895 27.8517 82.2677 27.661 82.649C27.4703 83.0303 27.1887 83.3857 26.816 83.715C26.712 83.8277 26.582 83.8797 26.426 83.871C26.27 83.871 26.1313 83.8103 26.01 83.689C25.8973 83.585 25.8453 83.4723 25.854 83.351C25.8627 83.2383 25.919 83.1213 26.023 83C26.3177 82.7487 26.543 82.48 26.699 82.194C26.855 81.908 26.9633 81.6263 27.024 81.349C27.0847 81.063 27.115 80.803 27.115 80.569V78.151H28.168V80.582ZM27.7 74.342V75.187H24.216V74.342H27.7ZM33.732 74.342V75.187H30.235V74.342H33.732ZM23.592 73.354C23.592 73.12 23.6657 72.9293 23.813 72.782C23.969 72.6347 24.1597 72.561 24.385 72.561H27.687C27.921 72.561 28.1073 72.6347 28.246 72.782C28.3933 72.9293 28.467 73.12 28.467 73.354V76.253C28.467 76.487 28.3933 76.6777 28.246 76.825C28.1073 76.9723 27.921 77.046 27.687 77.046H24.775C24.645 77.046 24.5367 77.007 24.45 76.929C24.372 76.8423 24.333 76.7253 24.333 76.578C24.333 76.4393 24.372 76.331 24.45 76.253C24.5367 76.175 24.645 76.136 24.775 76.136H27.076C27.1453 76.136 27.2017 76.1143 27.245 76.071C27.2883 76.019 27.31 75.9627 27.31 75.902V73.679C27.31 73.6183 27.2883 73.5663 27.245 73.523C27.2103 73.4797 27.1583 73.458 27.089 73.458H25.022C24.9613 73.458 24.9093 73.4797 24.866 73.523C24.8227 73.5663 24.801 73.6183 24.801 73.679V83.507C24.801 83.689 24.7447 83.832 24.632 83.936C24.528 84.0487 24.3807 84.105 24.19 84.105C24.0167 84.105 23.8737 84.0487 23.761 83.936C23.6483 83.832 23.592 83.689 23.592 83.507V73.354ZM33.68 72.561C33.914 72.561 34.1047 72.6347 34.252 72.782C34.3993 72.9293 34.473 73.12 34.473 73.354V82.597C34.473 82.9263 34.4297 83.1863 34.343 83.377C34.265 83.5763 34.122 83.728 33.914 83.832C33.7753 83.9013 33.628 83.949 33.472 83.975C33.3247 84.0097 33.1513 84.0313 32.952 84.04C32.7613 84.0487 32.5273 84.053 32.25 84.053C32.068 84.0617 31.912 84.0097 31.782 83.897C31.652 83.7843 31.574 83.6327 31.548 83.442C31.522 83.26 31.5567 83.117 31.652 83.013C31.7473 82.909 31.886 82.857 32.068 82.857C32.2847 82.857 32.4667 82.857 32.614 82.857C32.7613 82.857 32.887 82.857 32.991 82.857C33.0863 82.8483 33.1513 82.8267 33.186 82.792C33.2293 82.7487 33.251 82.6793 33.251 82.584V73.679C33.251 73.6183 33.2293 73.5663 33.186 73.523C33.1513 73.4797 33.0993 73.458 33.03 73.458H30.885C30.8243 73.458 30.7723 73.4797 30.729 73.523C30.6857 73.5663 30.664 73.6183 30.664 73.679V75.915C30.664 75.9843 30.6857 76.045 30.729 76.097C30.781 76.1403 30.8417 76.162 30.911 76.162H33.433C33.563 76.162 33.667 76.2053 33.745 76.292C33.8317 76.37 33.875 76.4783 33.875 76.617C33.875 76.747 33.8317 76.8553 33.745 76.942C33.667 77.02 33.563 77.059 33.433 77.059H30.287C30.053 77.059 29.8623 76.9853 29.715 76.838C29.5677 76.6907 29.494 76.5043 29.494 76.279V73.354C29.494 73.12 29.5677 72.9293 29.715 72.782C29.8623 72.6347 30.053 72.561 30.287 72.561H33.68ZM30.209 87.054C30.3997 87.054 30.5513 87.1147 30.664 87.236C30.7853 87.3487 30.846 87.5047 30.846 87.704C30.8633 88.7873 30.9153 89.8317 31.002 90.837C31.0973 91.8337 31.223 92.7567 31.379 93.606C31.5437 94.4467 31.73 95.1877 31.938 95.829C32.1547 96.4617 32.3887 96.9513 32.64 97.298C32.8913 97.6447 33.1557 97.818 33.433 97.818C33.5977 97.818 33.7147 97.6837 33.784 97.415C33.8533 97.1463 33.9053 96.7043 33.94 96.089C33.966 95.8897 34.031 95.7683 34.135 95.725C34.239 95.673 34.3733 95.699 34.538 95.803C34.6853 95.907 34.8023 96.05 34.889 96.232C34.9843 96.414 35.0103 96.6003 34.967 96.791C34.889 97.389 34.7893 97.8527 34.668 98.182C34.5553 98.52 34.3907 98.7583 34.174 98.897C33.966 99.0357 33.68 99.105 33.316 99.105C32.8827 99.105 32.4883 98.9577 32.133 98.663C31.7863 98.377 31.4743 97.974 31.197 97.454C30.9283 96.9253 30.6943 96.3057 30.495 95.595C30.2957 94.8757 30.1267 94.0913 29.988 93.242C29.858 92.3927 29.7583 91.5 29.689 90.564C29.6197 89.6193 29.572 88.666 29.546 87.704C29.5373 87.5047 29.5937 87.3487 29.715 87.236C29.8363 87.1147 30.001 87.054 30.209 87.054ZM31.912 87.405C32.0247 87.2923 32.1547 87.223 32.302 87.197C32.458 87.171 32.601 87.197 32.731 87.275C32.9737 87.3877 33.2033 87.5047 33.42 87.626C33.6367 87.7473 33.8187 87.8643 33.966 87.977C34.1047 88.0723 34.1783 88.1937 34.187 88.341C34.1957 88.4797 34.1393 88.6183 34.018 88.757C33.9053 88.8783 33.7753 88.9433 33.628 88.952C33.4893 88.9607 33.3507 88.913 33.212 88.809C33.0473 88.6703 32.8567 88.536 32.64 88.406C32.432 88.276 32.2153 88.1547 31.99 88.042C31.86 87.964 31.7863 87.8687 31.769 87.756C31.7517 87.6347 31.7993 87.5177 31.912 87.405ZM33.68 91.201C33.862 91.2357 33.9877 91.3223 34.057 91.461C34.135 91.5997 34.1437 91.7557 34.083 91.929C33.7103 93.0037 33.29 93.9483 32.822 94.763C32.3627 95.569 31.834 96.2927 31.236 96.934C30.638 97.5753 29.9447 98.1777 29.156 98.741C29.0087 98.8623 28.844 98.9143 28.662 98.897C28.48 98.8797 28.3153 98.8017 28.168 98.663L28.142 98.65C28.012 98.5113 27.9513 98.3683 27.96 98.221C27.9773 98.0737 28.064 97.9393 28.22 97.818C28.8007 97.4453 29.3207 97.051 29.78 96.635C30.248 96.219 30.664 95.764 31.028 95.27C31.4007 94.776 31.7387 94.23 32.042 93.632C32.3453 93.034 32.6227 92.371 32.874 91.643C32.9347 91.4697 33.0343 91.3397 33.173 91.253C33.3203 91.1663 33.4893 91.149 33.68 91.201ZM34.148 89.03C34.33 89.03 34.473 89.0863 34.577 89.199C34.6897 89.303 34.746 89.4503 34.746 89.641C34.746 89.823 34.6897 89.9703 34.577 90.083C34.473 90.187 34.33 90.239 34.148 90.239H23.904C23.722 90.239 23.5747 90.187 23.462 90.083C23.358 89.9703 23.306 89.8187 23.306 89.628C23.306 89.446 23.358 89.303 23.462 89.199C23.5747 89.0863 23.722 89.03 23.904 89.03H34.148ZM23.345 97.649C23.3103 97.4583 23.3407 97.298 23.436 97.168C23.5313 97.0293 23.6743 96.9427 23.865 96.908C24.2117 96.8473 24.554 96.7867 24.892 96.726C25.2387 96.6567 25.594 96.5873 25.958 96.518C26.322 96.44 26.7077 96.3577 27.115 96.271C27.5223 96.1843 27.9643 96.0933 28.441 95.998C28.6143 95.9547 28.7573 95.9763 28.87 96.063C28.9913 96.1497 29.0607 96.284 29.078 96.466C29.0867 96.6393 29.0433 96.791 28.948 96.921C28.8527 97.051 28.7227 97.1333 28.558 97.168C28.0987 97.272 27.674 97.3673 27.284 97.454C26.894 97.532 26.5257 97.61 26.179 97.688C25.8323 97.766 25.4857 97.844 25.139 97.922C24.801 97.9913 24.4543 98.065 24.099 98.143C23.9083 98.1863 23.7437 98.1603 23.605 98.065C23.475 97.9783 23.3883 97.8397 23.345 97.649ZM25.126 93.97C25.126 94.048 25.1477 94.113 25.191 94.165C25.243 94.2083 25.308 94.23 25.386 94.23H27.206C27.284 94.23 27.3447 94.2083 27.388 94.165C27.44 94.113 27.466 94.048 27.466 93.97V92.566C27.466 92.488 27.44 92.4273 27.388 92.384C27.3447 92.332 27.284 92.306 27.206 92.306H25.386C25.308 92.306 25.243 92.332 25.191 92.384C25.1477 92.4273 25.126 92.488 25.126 92.566V93.97ZM27.869 91.253C28.103 91.253 28.2937 91.3267 28.441 91.474C28.5883 91.6213 28.662 91.812 28.662 92.046V94.49C28.662 94.724 28.5883 94.9147 28.441 95.062C28.2937 95.2093 28.103 95.283 27.869 95.283H24.788C24.554 95.283 24.3633 95.2093 24.216 95.062C24.0687 94.9147 23.995 94.724 23.995 94.49V92.046C23.995 91.812 24.0687 91.6213 24.216 91.474C24.3633 91.3267 24.554 91.253 24.788 91.253H27.869ZM31.171 102.639C31.171 102.466 31.2273 102.327 31.34 102.223C31.4527 102.11 31.6 102.054 31.782 102.054C31.9553 102.054 32.094 102.11 32.198 102.223C32.3107 102.327 32.367 102.466 32.367 102.639C32.367 102.639 32.367 102.747 32.367 102.964C32.367 103.172 32.367 103.454 32.367 103.809C32.367 104.156 32.367 104.537 32.367 104.953C32.367 105.369 32.367 105.785 32.367 106.201C32.367 106.617 32.367 107.003 32.367 107.358C32.367 107.705 32.367 107.986 32.367 108.203C32.367 108.411 32.367 108.515 32.367 108.515C32.367 108.515 32.328 108.515 32.25 108.515C32.172 108.515 32.0723 108.515 31.951 108.515C31.8297 108.515 31.7083 108.515 31.587 108.515C31.4743 108.515 31.3747 108.515 31.288 108.515C31.21 108.515 31.171 108.515 31.171 108.515C31.171 108.515 31.171 108.411 31.171 108.203C31.171 107.986 31.171 107.705 31.171 107.358C31.171 107.003 31.171 106.617 31.171 106.201C31.171 105.776 31.171 105.36 31.171 104.953C31.171 104.537 31.171 104.156 31.171 103.809C31.171 103.454 31.171 103.172 31.171 102.964C31.171 102.747 31.171 102.639 31.171 102.639ZM31.886 104.81C31.886 104.81 31.9727 104.81 32.146 104.81C32.3193 104.81 32.5317 104.81 32.783 104.81C33.043 104.81 33.303 104.81 33.563 104.81C33.823 104.81 34.0397 104.81 34.213 104.81C34.3863 104.81 34.473 104.81 34.473 104.81C34.6377 104.81 34.772 104.866 34.876 104.979C34.9887 105.083 35.045 105.217 35.045 105.382C35.045 105.547 34.9887 105.685 34.876 105.798C34.772 105.902 34.6377 105.954 34.473 105.954C34.473 105.954 34.3863 105.954 34.213 105.954C34.0397 105.954 33.823 105.954 33.563 105.954C33.303 105.954 33.043 105.954 32.783 105.954C32.5317 105.954 32.3193 105.954 32.146 105.954C31.9727 105.954 31.886 105.954 31.886 105.954C31.886 105.954 31.886 105.898 31.886 105.785C31.886 105.664 31.886 105.529 31.886 105.382C31.886 105.226 31.886 105.092 31.886 104.979C31.886 104.866 31.886 104.81 31.886 104.81ZM24.645 103.315C24.5583 103.315 24.4847 103.345 24.424 103.406C24.3633 103.467 24.333 103.54 24.333 103.627C24.333 103.627 24.333 103.709 24.333 103.874C24.333 104.03 24.333 104.225 24.333 104.459C24.333 104.684 24.333 104.914 24.333 105.148C24.333 105.373 24.333 105.568 24.333 105.733C24.333 105.889 24.333 105.967 24.333 105.967C24.333 106.08 24.3677 106.171 24.437 106.24C24.5063 106.301 24.5973 106.331 24.71 106.331C24.71 106.331 24.775 106.331 24.905 106.331C25.035 106.331 25.204 106.331 25.412 106.331C25.62 106.331 25.841 106.331 26.075 106.331C26.3177 106.331 26.543 106.331 26.751 106.331C26.959 106.331 27.128 106.331 27.258 106.331C27.388 106.331 27.453 106.331 27.453 106.331C27.5657 106.331 27.6567 106.296 27.726 106.227C27.7953 106.158 27.83 106.071 27.83 105.967C27.83 105.967 27.83 105.889 27.83 105.733C27.83 105.568 27.83 105.373 27.83 105.148C27.83 104.914 27.83 104.684 27.83 104.459C27.83 104.225 27.83 104.03 27.83 103.874C27.83 103.718 27.83 103.64 27.83 103.64C27.83 103.545 27.7997 103.467 27.739 103.406C27.6783 103.345 27.6047 103.315 27.518 103.315C27.518 103.315 27.4487 103.315 27.31 103.315C27.1713 103.315 26.9937 103.315 26.777 103.315C26.5603 103.315 26.3263 103.315 26.075 103.315C25.8323 103.315 25.6027 103.315 25.386 103.315C25.1693 103.315 24.9917 103.315 24.853 103.315C24.7143 103.315 24.645 103.315 24.645 103.315ZM23.436 103.25C23.436 103.025 23.5097 102.838 23.657 102.691C23.813 102.535 24.0037 102.457 24.229 102.457C24.229 102.457 24.32 102.457 24.502 102.457C24.684 102.457 24.9137 102.457 25.191 102.457C25.477 102.457 25.7803 102.457 26.101 102.457C26.4217 102.457 26.7207 102.457 26.998 102.457C27.284 102.457 27.5137 102.457 27.687 102.457C27.869 102.457 27.96 102.457 27.96 102.457C28.194 102.457 28.3847 102.535 28.532 102.691C28.6793 102.838 28.753 103.025 28.753 103.25C28.753 103.25 28.753 103.358 28.753 103.575C28.753 103.783 28.753 104.043 28.753 104.355C28.753 104.667 28.753 104.983 28.753 105.304C28.753 105.616 28.753 105.88 28.753 106.097C28.753 106.305 28.753 106.409 28.753 106.409C28.753 106.634 28.6793 106.821 28.532 106.968C28.3847 107.115 28.194 107.189 27.96 107.189C27.96 107.189 27.869 107.189 27.687 107.189C27.5137 107.189 27.284 107.189 26.998 107.189C26.7207 107.189 26.4217 107.189 26.101 107.189C25.7803 107.189 25.477 107.189 25.191 107.189C24.9137 107.189 24.684 107.189 24.502 107.189C24.32 107.189 24.229 107.189 24.229 107.189C24.0037 107.189 23.813 107.115 23.657 106.968C23.5097 106.821 23.436 106.634 23.436 106.409C23.436 106.409 23.436 106.305 23.436 106.097C23.436 105.88 23.436 105.616 23.436 105.304C23.436 104.983 23.436 104.667 23.436 104.355C23.436 104.043 23.436 103.783 23.436 103.575C23.436 103.358 23.436 103.25 23.436 103.25ZM24.541 104.277C24.515 104.182 24.5237 104.095 24.567 104.017C24.6103 103.939 24.6753 103.887 24.762 103.861C24.8573 103.835 24.944 103.844 25.022 103.887C25.1 103.922 25.1563 103.987 25.191 104.082C25.2517 104.264 25.295 104.42 25.321 104.55C25.347 104.68 25.373 104.806 25.399 104.927C25.425 105.04 25.451 105.178 25.477 105.343C25.4943 105.447 25.4727 105.542 25.412 105.629C25.3513 105.707 25.269 105.768 25.165 105.811C25.0697 105.837 24.9873 105.828 24.918 105.785C24.8573 105.733 24.8183 105.655 24.801 105.551C24.7837 105.386 24.762 105.243 24.736 105.122C24.7187 105.001 24.6927 104.875 24.658 104.745C24.632 104.615 24.593 104.459 24.541 104.277ZM24.97 111.869C24.9527 111.748 24.9743 111.648 25.035 111.57C25.0957 111.483 25.191 111.436 25.321 111.427C25.4337 111.41 25.5333 111.436 25.62 111.505C25.7153 111.574 25.7717 111.67 25.789 111.791C25.815 111.964 25.8367 112.133 25.854 112.298C25.8713 112.463 25.8843 112.623 25.893 112.779C25.9017 112.926 25.906 113.082 25.906 113.247C25.9147 113.368 25.8757 113.468 25.789 113.546C25.711 113.633 25.607 113.685 25.477 113.702C25.3557 113.711 25.256 113.68 25.178 113.611C25.1087 113.55 25.0697 113.459 25.061 113.338C25.061 113.139 25.0567 112.974 25.048 112.844C25.048 112.705 25.0393 112.562 25.022 112.415C25.0133 112.259 24.996 112.077 24.97 111.869ZM26.361 111.817C26.3263 111.713 26.3307 111.622 26.374 111.544C26.426 111.457 26.5083 111.405 26.621 111.388C26.7337 111.371 26.8377 111.388 26.933 111.44C27.037 111.492 27.1063 111.574 27.141 111.687C27.2017 111.852 27.2537 112.012 27.297 112.168C27.3403 112.315 27.3793 112.463 27.414 112.61C27.4573 112.749 27.492 112.887 27.518 113.026C27.544 113.147 27.5223 113.251 27.453 113.338C27.3923 113.433 27.297 113.494 27.167 113.52C27.063 113.546 26.9677 113.529 26.881 113.468C26.7943 113.407 26.7423 113.321 26.725 113.208C26.6903 113.026 26.6557 112.87 26.621 112.74C26.595 112.61 26.5603 112.476 26.517 112.337C26.4823 112.198 26.4303 112.025 26.361 111.817ZM27.752 111.791C27.7 111.678 27.6913 111.579 27.726 111.492C27.7607 111.405 27.8343 111.34 27.947 111.297C28.0597 111.254 28.1723 111.254 28.285 111.297C28.3977 111.332 28.4843 111.405 28.545 111.518C28.6317 111.674 28.7053 111.826 28.766 111.973C28.8353 112.112 28.896 112.25 28.948 112.389C29.0087 112.519 29.0607 112.658 29.104 112.805C29.1473 112.918 29.1387 113.026 29.078 113.13C29.026 113.243 28.9393 113.321 28.818 113.364C28.7053 113.407 28.597 113.403 28.493 113.351C28.3977 113.308 28.3327 113.225 28.298 113.104C28.2547 112.957 28.207 112.814 28.155 112.675C28.103 112.536 28.0423 112.393 27.973 112.246C27.9037 112.099 27.83 111.947 27.752 111.791ZM23.618 111.596C23.644 111.475 23.7047 111.388 23.8 111.336C23.8953 111.275 24.0123 111.271 24.151 111.323C24.2723 111.366 24.3633 111.444 24.424 111.557C24.4847 111.661 24.4977 111.774 24.463 111.895C24.4197 112.103 24.3763 112.298 24.333 112.48C24.2897 112.662 24.2377 112.835 24.177 113C24.125 113.173 24.0557 113.342 23.969 113.507C23.9257 113.628 23.839 113.711 23.709 113.754C23.579 113.797 23.449 113.793 23.319 113.741C23.1977 113.68 23.1153 113.598 23.072 113.494C23.0373 113.39 23.0503 113.273 23.111 113.143C23.1977 112.97 23.267 112.805 23.319 112.649C23.3797 112.484 23.4317 112.315 23.475 112.142C23.527 111.969 23.5747 111.787 23.618 111.596ZM26.959 104.082C27.0283 103.831 27.1843 103.748 27.427 103.835C27.5397 103.87 27.6177 103.935 27.661 104.03C27.7043 104.125 27.7043 104.229 27.661 104.342C27.6003 104.533 27.544 104.697 27.492 104.836C27.4487 104.966 27.4053 105.092 27.362 105.213C27.3187 105.334 27.2623 105.477 27.193 105.642C27.167 105.729 27.115 105.789 27.037 105.824C26.959 105.85 26.8767 105.846 26.79 105.811C26.5993 105.733 26.5387 105.599 26.608 105.408C26.66 105.235 26.7033 105.083 26.738 104.953C26.7727 104.814 26.8073 104.68 26.842 104.55C26.8853 104.42 26.9243 104.264 26.959 104.082ZM23.397 108.424C23.397 108.277 23.4403 108.16 23.527 108.073C23.6137 107.986 23.7263 107.943 23.865 107.943C23.865 107.943 23.9733 107.943 24.19 107.943C24.4067 107.943 24.684 107.943 25.022 107.943C25.36 107.943 25.7153 107.943 26.088 107.943C26.4693 107.943 26.829 107.943 27.167 107.943C27.505 107.943 27.778 107.943 27.986 107.943C28.2027 107.943 28.311 107.943 28.311 107.943C28.4583 107.943 28.5753 107.991 28.662 108.086C28.7487 108.173 28.792 108.285 28.792 108.424C28.792 108.563 28.7487 108.68 28.662 108.775C28.5753 108.862 28.4583 108.905 28.311 108.905C28.311 108.905 28.2027 108.905 27.986 108.905C27.778 108.905 27.505 108.905 27.167 108.905C26.829 108.905 26.4693 108.905 26.088 108.905C25.7153 108.905 25.36 108.905 25.022 108.905C24.684 108.905 24.4067 108.905 24.19 108.905C23.9733 108.905 23.865 108.905 23.865 108.905C23.7263 108.905 23.6137 108.862 23.527 108.775C23.4403 108.68 23.397 108.563 23.397 108.424ZM25.62 102.886C25.62 102.886 25.6633 102.886 25.75 102.886C25.8367 102.886 25.932 102.886 26.036 102.886C26.1487 102.886 26.2483 102.886 26.335 102.886C26.4217 102.886 26.465 102.886 26.465 102.886C26.465 102.886 26.465 102.981 26.465 103.172C26.465 103.363 26.465 103.605 26.465 103.9C26.465 104.195 26.465 104.511 26.465 104.849C26.465 105.178 26.465 105.49 26.465 105.785C26.465 106.08 26.465 106.322 26.465 106.513C26.465 106.704 26.465 106.799 26.465 106.799C26.465 106.799 26.478 106.799 26.504 106.799C26.53 106.799 26.543 106.799 26.543 106.799C26.543 106.799 26.543 106.881 26.543 107.046C26.543 107.202 26.543 107.41 26.543 107.67C26.543 107.921 26.543 108.194 26.543 108.489C26.543 108.775 26.543 109.048 26.543 109.308C26.543 109.559 26.543 109.767 26.543 109.932C26.543 110.088 26.543 110.166 26.543 110.166C26.543 110.166 26.491 110.166 26.387 110.166C26.2917 110.166 26.1747 110.166 26.036 110.166C25.906 110.166 25.789 110.166 25.685 110.166C25.5897 110.166 25.542 110.166 25.542 110.166C25.542 110.166 25.542 110.088 25.542 109.932C25.542 109.767 25.542 109.559 25.542 109.308C25.542 109.048 25.542 108.775 25.542 108.489C25.542 108.194 25.542 107.921 25.542 107.67C25.542 107.41 25.542 107.202 25.542 107.046C25.542 106.881 25.542 106.799 25.542 106.799C25.542 106.799 25.555 106.799 25.581 106.799C25.607 106.799 25.62 106.799 25.62 106.799C25.62 106.799 25.62 106.704 25.62 106.513C25.62 106.322 25.62 106.08 25.62 105.785C25.62 105.49 25.62 105.178 25.62 104.849C25.62 104.511 25.62 104.195 25.62 103.9C25.62 103.605 25.62 103.363 25.62 103.172C25.62 102.981 25.62 102.886 25.62 102.886ZM23.15 110.231C23.15 110.092 23.1933 109.98 23.28 109.893C23.3667 109.806 23.4793 109.763 23.618 109.763C23.618 109.763 23.735 109.763 23.969 109.763C24.203 109.763 24.502 109.763 24.866 109.763C25.2387 109.763 25.633 109.763 26.049 109.763C26.4737 109.763 26.868 109.763 27.232 109.763C27.6047 109.763 27.908 109.763 28.142 109.763C28.376 109.763 28.493 109.763 28.493 109.763C28.6317 109.763 28.7443 109.806 28.831 109.893C28.9177 109.98 28.961 110.101 28.961 110.257C28.961 110.387 28.9177 110.495 28.831 110.582C28.7443 110.669 28.6317 110.712 28.493 110.712C28.493 110.712 28.376 110.712 28.142 110.712C27.908 110.712 27.6047 110.712 27.232 110.712C26.868 110.712 26.4737 110.712 26.049 110.712C25.633 110.712 25.2387 110.712 24.866 110.712C24.502 110.712 24.203 110.712 23.969 110.712C23.735 110.712 23.618 110.712 23.618 110.712C23.4793 110.712 23.3667 110.669 23.28 110.582C23.1933 110.487 23.15 110.37 23.15 110.231ZM29.351 108.983C29.351 108.758 29.4247 108.571 29.572 108.424C29.7193 108.268 29.91 108.19 30.144 108.19C30.144 108.19 30.2263 108.19 30.391 108.19C30.5643 108.19 30.7897 108.19 31.067 108.19C31.3443 108.19 31.639 108.19 31.951 108.19C32.263 108.19 32.5577 108.19 32.835 108.19C33.1123 108.19 33.3377 108.19 33.511 108.19C33.6843 108.19 33.771 108.19 33.771 108.19C33.9963 108.19 34.1827 108.268 34.33 108.424C34.486 108.571 34.564 108.758 34.564 108.983C34.564 108.983 34.564 109.083 34.564 109.282C34.564 109.473 34.564 109.724 34.564 110.036C34.564 110.339 34.564 110.664 34.564 111.011C34.564 111.349 34.564 111.67 34.564 111.973C34.564 112.276 34.564 112.528 34.564 112.727C34.564 112.918 34.564 113.013 34.564 113.013C34.564 113.238 34.486 113.425 34.33 113.572C34.1827 113.728 33.9963 113.806 33.771 113.806C33.771 113.806 33.6843 113.806 33.511 113.806C33.3377 113.806 33.1123 113.806 32.835 113.806C32.5577 113.806 32.263 113.806 31.951 113.806C31.639 113.806 31.3443 113.806 31.067 113.806C30.7897 113.806 30.5643 113.806 30.391 113.806C30.2263 113.806 30.144 113.806 30.144 113.806C29.91 113.806 29.7193 113.728 29.572 113.572C29.4247 113.425 29.351 113.238 29.351 113.013C29.351 113.013 29.351 112.918 29.351 112.727C29.351 112.528 29.351 112.276 29.351 111.973C29.351 111.67 29.351 111.349 29.351 111.011C29.351 110.664 29.351 110.339 29.351 110.036C29.351 109.724 29.351 109.473 29.351 109.282C29.351 109.083 29.351 108.983 29.351 108.983ZM30.872 109.308C30.7593 109.308 30.664 109.343 30.586 109.412C30.5167 109.481 30.482 109.577 30.482 109.698C30.482 109.698 30.482 109.763 30.482 109.893C30.482 110.014 30.482 110.175 30.482 110.374C30.482 110.565 30.482 110.773 30.482 110.998C30.482 111.215 30.482 111.423 30.482 111.622C30.482 111.813 30.482 111.973 30.482 112.103C30.482 112.224 30.482 112.285 30.482 112.285C30.482 112.398 30.5167 112.493 30.586 112.571C30.664 112.64 30.7593 112.675 30.872 112.675C30.872 112.675 30.924 112.675 31.028 112.675C31.132 112.675 31.262 112.675 31.418 112.675C31.574 112.675 31.743 112.675 31.925 112.675C32.1157 112.675 32.289 112.675 32.445 112.675C32.601 112.675 32.731 112.675 32.835 112.675C32.939 112.675 32.991 112.675 32.991 112.675C33.1123 112.675 33.2077 112.64 33.277 112.571C33.3463 112.493 33.381 112.398 33.381 112.285C33.381 112.285 33.381 112.224 33.381 112.103C33.381 111.973 33.381 111.813 33.381 111.622C33.381 111.423 33.381 111.215 33.381 110.998C33.381 110.773 33.381 110.565 33.381 110.374C33.381 110.175 33.381 110.014 33.381 109.893C33.381 109.763 33.381 109.698 33.381 109.698C33.381 109.577 33.3463 109.481 33.277 109.412C33.2077 109.343 33.1123 109.308 32.991 109.308C32.991 109.308 32.939 109.308 32.835 109.308C32.731 109.308 32.601 109.308 32.445 109.308C32.289 109.308 32.1157 109.308 31.925 109.308C31.743 109.308 31.574 109.308 31.418 109.308C31.262 109.308 31.132 109.308 31.028 109.308C30.924 109.308 30.872 109.308 30.872 109.308ZM33.29 125.062C33.4027 125.062 33.4937 125.097 33.563 125.166C33.641 125.235 33.68 125.335 33.68 125.465C33.68 125.578 33.641 125.673 33.563 125.751C33.4937 125.82 33.4027 125.855 33.29 125.855H24.463C24.3417 125.855 24.2463 125.82 24.177 125.751C24.1077 125.673 24.073 125.573 24.073 125.452C24.073 125.331 24.1077 125.235 24.177 125.166C24.2463 125.097 24.3417 125.062 24.463 125.062H33.29ZM34.668 126.401C34.7893 126.401 34.8847 126.44 34.954 126.518C35.032 126.596 35.071 126.7 35.071 126.83C35.071 126.943 35.032 127.038 34.954 127.116C34.8847 127.194 34.7893 127.233 34.668 127.233H23.345C23.2323 127.233 23.137 127.194 23.059 127.116C22.981 127.038 22.942 126.938 22.942 126.817C22.942 126.687 22.981 126.587 23.059 126.518C23.137 126.44 23.2323 126.401 23.345 126.401H34.668ZM29.611 127.974C29.611 128.269 29.5677 128.485 29.481 128.624C29.3943 128.771 29.2383 128.88 29.013 128.949C28.7877 129.027 28.532 129.07 28.246 129.079C27.9687 129.088 27.5917 129.092 27.115 129.092C26.9763 129.092 26.8507 129.049 26.738 128.962C26.634 128.884 26.569 128.771 26.543 128.624C26.517 128.485 26.5387 128.377 26.608 128.299C26.6773 128.221 26.777 128.182 26.907 128.182C27.2017 128.191 27.453 128.195 27.661 128.195C27.869 128.195 28.0207 128.191 28.116 128.182C28.22 128.173 28.2893 128.152 28.324 128.117C28.3673 128.091 28.389 128.035 28.389 127.948V123.931H29.611V127.974ZM33.55 123.762C33.6627 123.849 33.706 123.931 33.68 124.009C33.6627 124.078 33.5803 124.126 33.433 124.152C32.7917 124.239 32.1027 124.312 31.366 124.373C30.6293 124.425 29.8623 124.468 29.065 124.503C28.2763 124.538 27.466 124.559 26.634 124.568C25.8107 124.577 24.983 124.577 24.151 124.568C24.0383 124.568 23.9387 124.533 23.852 124.464C23.7653 124.395 23.709 124.308 23.683 124.204C23.657 124.091 23.67 124.005 23.722 123.944C23.774 123.875 23.852 123.84 23.956 123.84C24.7707 123.849 25.5767 123.849 26.374 123.84C27.1713 123.823 27.947 123.801 28.701 123.775C29.455 123.749 30.1613 123.714 30.82 123.671C31.4873 123.619 32.0983 123.558 32.653 123.489C32.8003 123.472 32.9563 123.489 33.121 123.541C33.2857 123.584 33.4287 123.658 33.55 123.762ZM28.61 117.652C28.8267 117.652 28.935 117.765 28.935 117.99C28.935 118.085 28.9047 118.163 28.844 118.224C28.7833 118.285 28.7053 118.315 28.61 118.315H23.605C23.397 118.315 23.293 118.198 23.293 117.964C23.293 117.869 23.319 117.795 23.371 117.743C23.4317 117.682 23.5097 117.652 23.605 117.652H28.61ZM28.688 121.305C28.7833 121.305 28.8613 121.335 28.922 121.396C28.9827 121.457 29.013 121.535 29.013 121.63C29.013 121.725 28.9827 121.803 28.922 121.864C28.8613 121.925 28.7833 121.955 28.688 121.955H23.358C23.2627 121.955 23.1847 121.925 23.124 121.864C23.0633 121.803 23.033 121.725 23.033 121.63C23.033 121.535 23.0633 121.457 23.124 121.396C23.1847 121.335 23.2627 121.305 23.358 121.305H28.688ZM24.515 120.265C24.515 120.317 24.5323 120.36 24.567 120.395C24.6017 120.43 24.645 120.447 24.697 120.447H27.518C27.5613 120.447 27.6003 120.43 27.635 120.395C27.6697 120.36 27.687 120.317 27.687 120.265V120.044H24.515V120.265ZM24.515 119.563H27.687V119.355C27.687 119.303 27.6697 119.264 27.635 119.238C27.609 119.203 27.57 119.186 27.518 119.186H24.684C24.632 119.186 24.5887 119.203 24.554 119.238C24.528 119.264 24.515 119.303 24.515 119.355V119.563ZM27.765 118.692C27.999 118.692 28.1897 118.766 28.337 118.913C28.4843 119.06 28.558 119.251 28.558 119.485V120.148C28.558 120.373 28.4843 120.564 28.337 120.72C28.1897 120.867 27.999 120.941 27.765 120.941H24.463C24.2377 120.941 24.047 120.867 23.891 120.72C23.7437 120.564 23.67 120.373 23.67 120.148V119.485C23.67 119.251 23.7437 119.06 23.891 118.913C24.047 118.766 24.2377 118.692 24.463 118.692H27.765ZM26.075 117.028C26.2137 117.028 26.3263 117.071 26.413 117.158C26.4997 117.245 26.543 117.362 26.543 117.509V123.125H25.581V117.509C25.581 117.362 25.6243 117.245 25.711 117.158C25.8063 117.071 25.9277 117.028 26.075 117.028ZM32.64 117.418C32.8393 117.418 33.004 117.483 33.134 117.613C33.264 117.734 33.329 117.899 33.329 118.107V118.64C33.329 118.779 33.342 118.878 33.368 118.939C33.394 118.991 33.446 119.017 33.524 119.017C33.576 119.017 33.6497 119.017 33.745 119.017C33.849 119.017 33.9487 119.017 34.044 119.017C34.148 119.017 34.226 119.017 34.278 119.017C34.3647 119.017 34.4383 119.017 34.499 119.017C34.5597 119.017 34.629 119.013 34.707 119.004C34.7763 118.987 34.8327 118.995 34.876 119.03C34.928 119.065 34.9583 119.112 34.967 119.173C34.9757 119.242 34.9757 119.316 34.967 119.394C34.967 119.472 34.954 119.546 34.928 119.615C34.8413 119.762 34.746 119.849 34.642 119.875C34.538 119.901 34.4253 119.914 34.304 119.914C34.2433 119.914 34.1523 119.914 34.031 119.914C33.9097 119.914 33.7883 119.914 33.667 119.914C33.5543 119.914 33.4677 119.914 33.407 119.914C33.095 119.914 32.8567 119.875 32.692 119.797C32.5273 119.71 32.4147 119.572 32.354 119.381C32.302 119.19 32.276 118.943 32.276 118.64V118.315C32.276 118.298 32.2587 118.285 32.224 118.276C32.1893 118.267 32.1417 118.263 32.081 118.263H31.028C30.898 118.263 30.833 118.332 30.833 118.471V118.692C30.833 118.796 30.794 118.93 30.716 119.095C30.6467 119.251 30.5167 119.42 30.326 119.602C30.1353 119.784 29.8623 119.957 29.507 120.122C29.3683 120.191 29.2167 120.209 29.052 120.174C28.896 120.131 28.7617 120.048 28.649 119.927C28.4323 119.693 28.48 119.511 28.792 119.381C29.2167 119.208 29.4897 119.026 29.611 118.835C29.741 118.644 29.806 118.415 29.806 118.146V118.003C29.806 117.821 29.8623 117.678 29.975 117.574C30.0877 117.47 30.2263 117.418 30.391 117.418H32.64ZM33.81 120.629C33.81 120.742 33.7883 120.867 33.745 121.006C33.7103 121.145 33.6583 121.257 33.589 121.344C33.2683 121.769 32.913 122.12 32.523 122.397C32.133 122.674 31.691 122.9 31.197 123.073C30.703 123.238 30.1483 123.385 29.533 123.515C29.403 123.532 29.2773 123.511 29.156 123.45C29.0347 123.389 28.935 123.294 28.857 123.164C28.7963 123.051 28.7877 122.952 28.831 122.865C28.8743 122.778 28.9653 122.726 29.104 122.709C29.598 122.631 30.053 122.531 30.469 122.41C30.885 122.28 31.2663 122.115 31.613 121.916C31.9597 121.708 32.2673 121.457 32.536 121.162C32.5793 121.127 32.5967 121.097 32.588 121.071C32.5793 121.036 32.5447 121.019 32.484 121.019H29.923C29.8017 121.019 29.7063 120.984 29.637 120.915C29.5677 120.837 29.533 120.737 29.533 120.616C29.533 120.495 29.5677 120.399 29.637 120.33C29.7063 120.252 29.8017 120.213 29.923 120.213H33.407C33.5283 120.213 33.6237 120.252 33.693 120.33C33.771 120.399 33.81 120.499 33.81 120.629ZM30.157 121.071C30.287 121.036 30.4213 121.036 30.56 121.071C30.7073 121.097 30.8373 121.153 30.95 121.24C31.236 121.517 31.548 121.756 31.886 121.955C32.2327 122.154 32.627 122.319 33.069 122.449C33.5197 122.579 34.044 122.692 34.642 122.787C34.798 122.804 34.8933 122.861 34.928 122.956C34.9713 123.043 34.9453 123.151 34.85 123.281C34.7547 123.411 34.629 123.511 34.473 123.58C34.317 123.641 34.1653 123.654 34.018 123.619C33.3853 123.498 32.8263 123.35 32.341 123.177C31.8557 123.004 31.4223 122.787 31.041 122.527C30.6683 122.267 30.326 121.951 30.014 121.578C29.91 121.474 29.871 121.374 29.897 121.279C29.9317 121.184 30.0183 121.114 30.157 121.071ZM24.294 122.098C24.45 122.098 24.528 122.176 24.528 122.332V122.605C24.528 122.718 24.5843 122.774 24.697 122.774H27.505C27.6177 122.774 27.674 122.718 27.674 122.605V122.332C27.674 122.176 27.752 122.098 27.908 122.098H28.129C28.259 122.098 28.363 122.137 28.441 122.215C28.5277 122.293 28.571 122.401 28.571 122.54V122.8C28.571 122.982 28.5147 123.134 28.402 123.255C28.2893 123.376 28.1377 123.437 27.947 123.437H24.294C24.112 123.437 23.9603 123.376 23.839 123.255C23.7263 123.134 23.67 122.982 23.67 122.8V122.527C23.67 122.397 23.709 122.293 23.787 122.215C23.865 122.137 23.969 122.098 24.099 122.098H24.294Z" fill="white"/>
<defs>
<linearGradient id="paint0_linear_3_289" x1="0" y1="78" x2="320" y2="78" gradientUnits="userSpaceOnUse">
<stop stop-color="#212B3C"/>
<stop offset="1" stop-color="#313745"/>
</linearGradient>
<linearGradient id="paint1_linear_3_289" x1="39.7867" y1="-37.6373" x2="79.986" y2="129.202" gradientUnits="userSpaceOnUse">
<stop stop-color="white"/>
<stop offset="1" stop-color="white" stop-opacity="0"/>
</linearGradient>
<linearGradient id="paint2_linear_3_289" x1="39.7867" y1="-37.6373" x2="79.986" y2="129.202" gradientUnits="userSpaceOnUse">
<stop stop-color="white"/>
<stop offset="1" stop-color="white" stop-opacity="0"/>
</linearGradient>
<linearGradient id="paint3_linear_3_289" x1="39.7867" y1="-37.6373" x2="79.986" y2="129.202" gradientUnits="userSpaceOnUse">
<stop stop-color="white"/>
<stop offset="1" stop-color="white" stop-opacity="0"/>
</linearGradient>
<linearGradient id="paint4_linear_3_289" x1="39.7867" y1="-37.6373" x2="79.986" y2="129.202" gradientUnits="userSpaceOnUse">
<stop stop-color="white"/>
<stop offset="1" stop-color="white" stop-opacity="0"/>
</linearGradient>
<linearGradient id="paint5_linear_3_289" x1="39.7867" y1="-37.6373" x2="79.986" y2="129.202" gradientUnits="userSpaceOnUse">
<stop stop-color="white"/>
<stop offset="1" stop-color="white" stop-opacity="0"/>
</linearGradient>
<linearGradient id="paint6_linear_3_289" x1="39.7867" y1="-37.6373" x2="79.986" y2="129.202" gradientUnits="userSpaceOnUse">
<stop stop-color="white"/>
<stop offset="1" stop-color="white" stop-opacity="0"/>
</linearGradient>
<linearGradient id="paint7_linear_3_289" x1="39.7867" y1="-37.6373" x2="79.986" y2="129.202" gradientUnits="userSpaceOnUse">
<stop stop-color="white"/>
<stop offset="1" stop-color="white" stop-opacity="0"/>
</linearGradient>
<linearGradient id="paint8_linear_3_289" x1="39.7867" y1="-37.6373" x2="79.986" y2="129.202" gradientUnits="userSpaceOnUse">
<stop stop-color="white"/>
<stop offset="1" stop-color="white" stop-opacity="0"/>
</linearGradient>
<linearGradient id="paint9_linear_3_289" x1="39.7867" y1="-37.6373" x2="79.986" y2="129.202" gradientUnits="userSpaceOnUse">
<stop stop-color="white"/>
<stop offset="1" stop-color="white" stop-opacity="0"/>
</linearGradient>
<linearGradient id="paint10_linear_3_289" x1="39.7867" y1="-37.6373" x2="79.986" y2="129.202" gradientUnits="userSpaceOnUse">
<stop stop-color="white"/>
<stop offset="1" stop-color="white" stop-opacity="0"/>
</linearGradient>
<linearGradient id="paint11_linear_3_289" x1="39.7867" y1="-37.6373" x2="79.986" y2="129.202" gradientUnits="userSpaceOnUse">
<stop stop-color="white"/>
<stop offset="1" stop-color="white" stop-opacity="0"/>
</linearGradient>
<linearGradient id="paint12_linear_3_289" x1="39.7867" y1="-37.6373" x2="79.986" y2="129.202" gradientUnits="userSpaceOnUse">
<stop stop-color="white"/>
<stop offset="1" stop-color="white" stop-opacity="0"/>
</linearGradient>
<linearGradient id="paint13_linear_3_289" x1="39.7867" y1="-37.6373" x2="79.986" y2="129.202" gradientUnits="userSpaceOnUse">
<stop stop-color="white"/>
<stop offset="1" stop-color="white" stop-opacity="0"/>
</linearGradient>
</defs>
</svg>
