<svg width="54" height="54" viewBox="0 0 54 54" fill="none" xmlns="http://www.w3.org/2000/svg">
<path d="M50.6272 27.5253C50.6272 25.5828 50.4664 24.1653 50.1183 22.6953H27.4844V31.4627H40.77C40.5022 33.6415 39.0558 36.9228 35.8414 39.1277L35.7964 39.4212L42.9528 44.8543L43.4486 44.9028C48.0021 40.7815 50.6272 34.7177 50.6272 27.5253Z" fill="#4285F4"/>
<path d="M27.4849 50.6246C33.9937 50.6246 39.4579 48.5244 43.4491 44.902L35.842 39.1268C33.8063 40.5181 31.0741 41.4893 27.4849 41.4893C21.11 41.4893 15.6993 37.3682 13.7706 31.6719L13.4879 31.6954L6.04653 37.3392L5.94922 37.6043C9.91345 45.3219 18.0563 50.6246 27.4849 50.6246Z" fill="#34A853"/>
<path d="M13.7716 31.6718C13.2627 30.2018 12.9682 28.6267 12.9682 26.9993C12.9682 25.3717 13.2627 23.7968 13.7449 22.3268L13.7314 22.0137L6.19679 16.2793L5.95027 16.3942C4.31642 19.5967 3.37891 23.1931 3.37891 26.9993C3.37891 30.8055 4.31642 34.4017 5.95027 37.6042L13.7716 31.6718Z" fill="#FBBC05"/>
<path d="M27.485 12.5099C32.0118 12.5099 35.0653 14.4262 36.8064 16.0275L43.61 9.5175C39.4315 5.71126 33.9939 3.375 27.485 3.375C18.0564 3.375 9.91347 8.67746 5.94922 16.3949L13.7438 22.3275C15.6994 16.6312 21.1101 12.5099 27.485 12.5099Z" fill="#EB4335"/>
</svg>
