<svg width="54" height="54" viewBox="0 0 54 54" fill="none" xmlns="http://www.w3.org/2000/svg">
<path d="M50.625 24.4652C50.625 13.7665 40.0273 5.0625 26.9998 5.0625C13.9741 5.0625 3.375 13.7665 3.375 24.4652C3.375 34.0565 11.7798 42.0891 23.133 43.608C23.9024 43.7758 24.9495 44.1214 25.2145 44.7869C25.4527 45.3914 25.3703 46.3384 25.2906 46.9489C25.2906 46.9489 25.0134 48.6361 24.9536 48.9954C24.8508 49.6 24.479 51.3596 26.9998 50.2843C29.5215 49.209 40.6056 42.1766 45.5621 36.4028C48.986 32.6031 50.625 28.7471 50.625 24.4652Z" fill="#2CCF54"/>
<path d="M22.2037 19.2788H20.5465C20.2925 19.2788 20.0859 19.4871 20.0859 19.743V30.1491C20.0859 30.4054 20.2925 30.6133 20.5465 30.6133H22.2037C22.4577 30.6133 22.6638 30.4054 22.6638 30.1491V19.743C22.6638 19.4871 22.4577 19.2788 22.2037 19.2788Z" fill="white"/>
<path d="M33.6046 19.2788H31.9474C31.6934 19.2788 31.4873 19.4871 31.4873 19.743V25.9253L26.77 19.4853C26.6827 19.353 26.5412 19.2875 26.3868 19.2788H24.7301C24.4761 19.2788 24.2695 19.4871 24.2695 19.743V30.1491C24.2695 30.4054 24.4761 30.6133 24.7301 30.6133H26.3868C26.6413 30.6133 26.8474 30.4054 26.8474 30.1491V23.9686L31.5706 30.4169C31.6555 30.5383 31.7994 30.6133 31.9474 30.6133H33.6046C33.8591 30.6133 34.0647 30.4054 34.0647 30.1491V19.743C34.0647 19.4871 33.8591 19.2788 33.6046 19.2788Z" fill="white"/>
<path d="M18.2051 28.0074H13.7024V19.7435C13.7024 19.4867 13.4964 19.2783 13.2427 19.2783H11.5851C11.3311 19.2783 11.125 19.4867 11.125 19.7435V30.1477C11.125 30.4003 11.3302 30.6133 11.5847 30.6133H18.2051C18.4592 30.6133 18.6643 30.4045 18.6643 30.1477V28.4726C18.6643 28.2157 18.4592 28.0074 18.2051 28.0074Z" fill="white"/>
<path d="M42.7559 21.8842C43.01 21.8842 43.2151 21.6764 43.2151 21.4191V19.7439C43.2151 19.4871 43.01 19.2783 42.7559 19.2783H36.1359C35.8817 19.2783 35.6758 19.491 35.6758 19.7435V30.1481C35.6758 30.4 35.8811 30.6133 36.135 30.6133H42.7559C43.01 30.6133 43.2151 30.4045 43.2151 30.1481V28.4726C43.2151 28.2162 43.01 28.0074 42.7559 28.0074H38.2537V26.2485H42.7559C43.01 26.2485 43.2151 26.0402 43.2151 25.7834V24.1082C43.2151 23.8514 43.01 23.6427 42.7559 23.6427H38.2537V21.8842H42.7559Z" fill="white"/>
</svg>
