<svg width="1316" height="627" viewBox="0 0 1316 627" fill="none" xmlns="http://www.w3.org/2000/svg">
<g clip-path="url(#clip0_61_239)">
<path d="M511.987 135.76C532.147 90.68 552.454 45.6667 572.227 0.41333C592.187 45.5467 612.307 90.6133 632.16 135.787C653.214 128.573 673.947 120.387 695.307 114.027C719.08 104.48 743.147 95.72 767.294 87.1733C759.16 110.933 749.907 134.28 741.934 158.093C734.774 178.707 727.2 199.173 720.56 219.96C729.827 226.48 739.16 232.907 748.574 239.187C726.08 236.667 703.507 234.907 680.974 232.747C691.64 202.853 702.067 172.84 711.76 142.6C679.107 153.16 646.974 165.267 614.734 177.04C601.707 146.787 588.36 116.667 574.854 86.6267C574.187 85.2267 573.24 84.04 572.014 83.0933C557.494 114.267 543.614 145.747 529.64 177.16C502.654 166.96 475.44 157.427 448.28 147.747C443.307 145.96 438.36 144.08 433.254 142.747C438.68 162.107 445.64 181.013 452 200.08C456.4 211.093 459.227 222.627 463.427 233.707C436.84 235.573 410.294 237.84 383.667 239.08C393.987 233.6 404.347 228.2 414.907 223.173C417.96 221.733 420.907 220.04 423.574 217.973C408.347 174.44 392.987 130.92 377.707 87.4C403.054 96.0267 428 105.827 453.294 114.653C472.854 121.68 492.414 128.72 511.987 135.76Z" fill="#FF9E7A"/>
<path d="M12.2801 256.053C27.8668 225.307 61.7468 205.56 96.0268 205.64C117.28 204.48 139.32 209.213 156.747 221.827C167.307 229.56 176.2 239.733 181.773 251.627C168.133 260.213 154.693 269.12 141.293 278.067C134.907 267.987 126.08 258.533 114.16 255.427C99.4001 251.4 81.9068 252.867 70.0001 263.28C61.3334 270.507 56.2401 281.253 54.3601 292.227C51.8268 306.987 52.4134 322.56 57.6668 336.68C62.6268 350.36 74.9601 360.773 89.1334 363.827C104.613 367 121.04 364.88 135.413 358.387C135.413 351.52 135.467 344.64 135.507 337.773C124 338.36 112.453 338.04 100.933 337.987C100.88 323.8 100.947 309.613 100.893 295.427C128.24 295.573 155.573 295.973 182.907 295.413C183.08 327.133 183.147 358.84 183.013 390.56C158.373 406.187 129.147 413.84 100.053 413.627C78.8801 412.773 57.1334 407.72 39.8534 394.893C18.1868 379.533 4.80009 354.2 1.66676 328.08C-1.42658 303.787 0.680091 278 12.2801 256.053Z" fill="#EC602C"/>
<path d="M797.897 256.053C813.484 225.307 847.364 205.56 881.644 205.64C902.897 204.48 924.937 209.213 942.364 221.827C952.924 229.56 961.817 239.733 967.391 251.627C953.751 260.213 940.311 269.12 926.911 278.067C920.524 267.987 911.697 258.533 899.777 255.427C885.017 251.4 867.524 252.867 855.617 263.28C846.951 270.507 841.857 281.253 839.977 292.227C837.444 306.987 838.031 322.56 843.284 336.68C848.244 350.36 860.577 360.773 874.751 363.827C890.231 367 906.657 364.88 921.031 358.387C921.031 351.52 921.084 344.64 921.124 337.773C909.617 338.36 898.071 338.04 886.551 337.987C886.497 323.8 886.564 309.613 886.511 295.427C913.857 295.573 941.191 295.973 968.524 295.413C968.697 327.133 968.764 358.84 968.631 390.56C943.991 406.187 914.764 413.84 885.671 413.627C864.497 412.773 842.751 407.72 825.471 394.893C803.804 379.533 790.417 354.2 787.284 328.08C784.191 303.787 786.297 278 797.897 256.053Z" fill="#EC602C"/>
<path d="M490.414 208.4C506.694 208.68 522.974 207.88 539.254 208.253C539.601 231.707 538.761 255.2 539.414 278.627C547.947 270.867 557.987 264.12 569.614 262.32C582.601 260.507 596.841 261.813 607.787 269.653C617.507 276.667 623.001 288.307 624.321 300.04C625.161 308 624.841 316.013 624.934 324.013C624.801 352.52 625.107 381.04 624.734 409.56C608.561 409.493 592.374 409.547 576.201 409.64C576.281 386.4 576.174 363.147 576.161 339.907C576.121 332.36 576.441 324.76 575.334 317.267C574.334 311.707 570.681 306 564.787 304.853C552.067 302.16 539.667 314.147 539.547 326.627C539.494 354.28 539.454 381.933 539.481 409.587C523.281 409.613 507.094 409.427 490.907 409.653C490.094 396.68 490.654 383.667 490.467 370.68C490.574 316.573 490.521 262.493 490.414 208.4Z" fill="#EC602C"/>
<path d="M389.24 267.787C404.28 261.347 421.186 260.04 437.213 262.88C454.08 265.907 469.733 275.787 479.266 290.093C469.213 299.613 458.733 308.653 448.586 318.08C442.08 311.147 433.653 305.32 423.906 304.613C414.653 303.64 405.133 308.373 400.426 316.413C393.72 327.773 393.28 342.493 398.653 354.467C401.786 361.733 408.346 367.6 416.186 369.187C429.133 371.88 442.813 366.467 451.493 356.72C460.92 366.987 471.013 376.627 480.946 386.4C473.333 394.88 464.493 402.56 454.093 407.427C434.053 416.48 410.306 416.667 389.96 408.44C371.013 400.827 356.32 384.12 350.066 364.8C344.493 349.32 343.666 332.28 347.893 316.373C352.986 294.92 368.173 275.373 389.24 267.787Z" fill="#EC602C"/>
<path d="M206.44 277.467C226.814 267.707 249.187 260.973 271.974 261.933C287.334 261.973 303.4 266.413 314.827 277.08C325.974 287.707 329.614 303.72 329.787 318.6C329.8 348.933 329.787 379.267 329.974 409.6C314.814 409.547 299.667 409.413 284.507 409.653C284.36 405.467 284.334 401.28 284.267 397.107C266.907 414.027 238.347 419.04 216.974 406.96C205.707 400.8 199.12 388.507 197.48 376.067C194.76 361.373 200.28 345.347 211.907 335.853C221.627 327.6 234.547 325.293 246.534 322.227C258.427 319.293 270.734 318.88 282.72 316.68C282.534 309.467 277.56 303.013 270.387 301.573C252.96 298.053 235.2 303.867 219.694 311.6C215.574 300.107 210.867 288.84 206.44 277.467ZM259.587 351.28C253.96 352.96 247.867 355.613 245.24 361.253C242.107 367.693 245.2 376.253 252.054 378.707C260.2 380.987 270.16 380.04 276.067 373.36C282.92 366.4 282.014 355.867 282.054 346.893C274.454 347.747 266.96 349.333 259.587 351.28Z" fill="#EC602C"/>
<path d="M648.868 278.053C671.668 265.827 698.094 259.427 723.961 262.613C736.028 264.64 748.668 268.28 757.468 277.267C767.001 286.72 770.694 300.493 771.374 313.56C771.761 345.587 771.294 377.64 771.788 409.68C756.881 409.653 741.974 409.467 727.081 409.733C726.988 405.493 726.961 401.253 726.974 397.013C721.934 401.253 716.961 405.76 710.881 408.453C697.134 414.587 681.121 415.28 666.854 410.533C654.148 406.387 643.948 395.387 640.681 382.44C637.241 369.293 638.788 354.32 647.174 343.293C655.334 332.507 668.414 326.76 681.401 324.293C695.521 319.493 710.628 319.533 725.148 316.72C724.294 312.013 723.054 306.733 718.534 304.213C709.174 298.667 697.588 300.533 687.454 302.507C678.614 304.133 670.308 307.693 662.308 311.707C657.908 300.453 653.814 289.08 648.868 278.053ZM700.908 351.373C695.028 352.947 689.188 356.773 687.094 362.72C684.721 368.96 688.188 376.653 694.548 378.867C703.614 381.293 714.668 379.093 720.428 371.173C725.214 364.147 723.921 355.133 724.454 347.093C716.561 348.28 708.628 349.347 700.908 351.373Z" fill="#EC602C"/>
<path d="M698.04 436.907C709.173 436.4 720.333 436.6 731.48 436.467C743.067 470.773 754.8 505.04 766.133 539.44C729.613 525.493 692.827 512.307 656.253 498.52C648.413 495.56 640.32 493.187 632.72 489.613C624.013 507.573 616.44 526.107 608.307 544.347C595.907 571.573 584.587 599.28 572.107 626.467C561.827 601.52 550.573 576.987 539.92 552.2C530.72 531.347 521.893 510.32 512.187 489.707C467.413 506.04 422.933 523.187 378.08 539.333C389.88 505.267 401.88 471.253 412.92 436.933C424.467 437.173 436.027 437.013 447.573 436.827C442.747 452.507 437.027 467.907 432.76 483.76C465.64 473.467 497.347 459.773 529.72 448.04C543.947 480.12 557.533 512.493 572.107 544.427C587.24 512.707 600.693 480.227 614.8 448.053C627.64 452.213 639.907 457.973 652.68 462.373C672.733 469.947 692.707 477.747 712.867 485.053C708.493 468.84 702.747 453.027 698.04 436.907Z" fill="#FF9E7A"/>
<path d="M1177.58 439.09C1181.93 438.077 1186.32 437.273 1190.74 436.646C1193.31 442.509 1194.32 448.878 1196.18 454.975C1196.71 456.678 1197.02 458.445 1197.26 460.217C1193.05 461.547 1188.69 462.465 1184.3 462.946C1181.95 455.032 1179.14 447.206 1177.58 439.09Z" fill="#EC602C"/>
<path d="M1159.13 442.28C1163.02 441.128 1167.02 440.197 1171.08 439.805C1173.21 445.953 1175.15 452.17 1177.22 458.343C1177.76 459.939 1178.15 461.585 1178.42 463.25C1175.65 463.927 1172.85 464.516 1170.16 465.491C1168.55 469.195 1169.49 473.323 1169.01 477.223C1168.5 480.782 1168.67 484.384 1168.46 487.961C1167.56 500.611 1166.94 513.274 1166.11 525.93C1166.11 530.305 1165.58 534.655 1165.16 539.005C1147.23 539.391 1129.28 539.024 1111.35 539.131C1104.54 539.017 1097.7 539.416 1090.9 538.935C1090.75 533.42 1090.77 527.9 1090.77 522.379C1100.12 521.467 1109.53 521.961 1118.91 521.809C1127.81 521.764 1136.71 521.695 1145.61 521.84C1146.38 509.887 1147.44 497.946 1148.03 485.98C1148.38 482.978 1148.46 479.965 1148.43 476.951C1147.18 476.717 1145.93 476.539 1144.66 476.552C1127.9 476.666 1111.15 476.521 1094.39 476.641C1093.18 476.641 1091.98 476.451 1090.79 476.248C1091.12 471.215 1091.11 466.175 1091.07 461.135C1091.24 460.806 1091.6 460.141 1091.78 459.806C1114.72 459.495 1137.68 459.837 1160.62 459.628C1161.53 462.269 1162.28 464.959 1163.14 467.619C1164.18 467.448 1165.21 467.277 1166.24 467.08C1164.72 462.585 1162.41 458.375 1161.48 453.69C1160.72 450.106 1159.29 446.706 1158.6 443.11C1158.73 442.901 1158.99 442.489 1159.13 442.28Z" fill="#EC602C"/>
<rect x="1184.08" y="491.058" width="59.9196" height="19.7379" fill="#EC602C"/>
<path d="M836.411 442.129C842.53 441.812 848.661 441.787 854.792 441.85C854.547 445.712 853.427 449.441 852.673 453.215C851.503 458.711 850.252 464.181 848.919 469.632C849.076 469.873 849.378 470.354 849.529 470.595C863.64 470.898 877.757 470.544 891.868 470.671C889.73 486.208 886.335 501.536 883.794 517.01C882.323 524.943 880.889 532.882 879.562 540.841C873.098 541.563 866.551 541.158 860.062 540.917C860.747 535.903 861.954 530.989 862.728 525.988C864.269 516.022 866.746 506.24 868.626 496.338C869.016 493.945 870.06 491.545 869.67 489.095C865.136 488.601 860.558 488.956 856.006 488.873C851.836 488.981 847.648 488.386 843.498 488.987C839.455 505.651 834.537 522.081 829.865 538.568C829.475 539.587 829.236 541.373 827.821 541.335C821.765 541.215 815.703 541.588 809.654 541.215C814.276 523.613 819.501 506.17 824.381 488.639C818.583 488.652 812.792 488.595 807 488.69V471.354C814.357 471.228 821.734 471.601 829.085 471.145C831.449 461.452 834.311 451.885 836.411 442.129Z" fill="#EC602C"/>
<path d="M859.456 441.971C864.059 441.654 868.675 441.825 873.284 441.8C873.535 442.781 873.969 443.75 873.8 444.788C873.372 450.86 873.674 456.957 873.504 463.035L873.491 463.687C868.731 464.067 863.939 463.858 859.166 463.902C859.223 456.596 858.971 449.264 859.456 441.971Z" fill="#EC602C"/>
<path d="M879.575 441.869C884.291 441.686 889.014 441.768 893.73 441.679C893.881 449.074 893.661 456.476 893.724 463.877C888.85 463.839 883.97 464.086 879.109 463.744L879.179 463.016C879.543 457.204 879.512 451.354 879.172 445.541C879.097 444.3 879.361 443.078 879.575 441.869Z" fill="#EC602C"/>
<path d="M966.788 448.042C970.574 447.339 974.233 446.01 978.082 445.624C980.019 450.936 982.49 456.039 984.358 461.37C984.961 462.313 983.66 462.914 982.955 463.066C977.9 464.39 972.73 465.238 967.725 466.758C966.279 470.31 965.43 474.058 964.298 477.717C963.38 480.908 962.021 484.011 961.776 487.366C971.718 487.537 981.679 487.081 991.602 487.714C991.935 493.381 991.992 499.098 991.394 504.746C984.037 505.373 976.623 504.872 969.24 505.031C965.203 505.145 961.135 504.657 957.135 505.309C954.708 513.217 952.815 521.277 950.734 529.28C949.444 533.3 948.558 537.435 947.407 541.499C945.049 541.556 942.684 541.493 940.339 541.309C936.365 541.006 932.353 541.544 928.41 540.885C929.894 531.926 932.692 523.259 934.943 514.477C935.698 511.432 936.805 508.475 937.157 505.341C929.007 504.562 920.807 505.449 912.638 505.341C909.67 505.259 906.614 505.639 903.747 504.682C903.835 498.991 903.438 493.273 904.042 487.607C907.318 487.29 910.613 487.404 913.902 487.411C923.09 487.499 932.277 487.322 941.458 487.581C943.106 485.505 943.345 482.744 944.2 480.307C945.049 477.052 946.401 473.963 947.168 470.689C938.698 471.766 930.548 474.558 922.109 475.862C921.033 476.058 919.971 475.742 918.927 475.501C917.644 470.348 914.462 465.751 913.89 460.433C931.428 455.931 949.136 452.088 966.788 448.042Z" fill="#EC602C"/>
<path d="M1015.95 473.45C1022.02 473.393 1028.11 473.234 1034.17 473.608C1035.71 479.275 1037.04 484.985 1038.35 490.709C1041.48 491.399 1044.7 490.994 1047.87 491.095C1059.76 491.184 1071.67 490.829 1083.55 491.222C1081.9 495.635 1079.86 499.883 1077.86 504.144C1075.4 509.912 1072.86 515.661 1069.94 521.214C1065.08 521.555 1060.19 521.378 1055.33 521.252C1056.02 516.94 1058.84 513.35 1059.62 509.089C1054.08 508.804 1048.51 508.715 1042.97 509.095C1044.19 519.827 1047.85 530.153 1049.07 540.891C1043.14 541.056 1037.21 540.923 1031.27 540.999C1028.77 530.407 1026.42 519.776 1024.08 509.146C1017.68 508.057 1011.12 509.228 1004.67 508.519C1004.25 502.726 1004.46 496.914 1004.5 491.121C1009.45 490.848 1014.42 491.386 1019.36 490.842C1018.76 484.954 1015.56 479.433 1015.95 473.45Z" fill="#EC602C"/>
<path d="M1047.41 209.549C1054.17 207.638 1061.02 205.755 1068.06 205.39C1072.67 205.486 1077.27 204.576 1081.87 205.252C1097.08 205.272 1112.21 209.508 1125.51 216.86C1138.68 224.317 1149.83 235.477 1156.87 248.921C1160.81 255.329 1163.31 262.454 1165.94 269.462C1167.29 273.587 1168.23 277.829 1169.21 282.051C1170.34 286.886 1170.27 291.928 1171.53 296.736V322.216C1170.15 328.486 1169.78 334.963 1168.04 341.164C1165.23 353.518 1159.97 365.216 1153.06 375.804C1139.7 395.69 1117.49 408.94 1093.9 412.417C1091.62 412.81 1089.3 412.948 1087.08 413.61H1066.97C1063.46 412.624 1059.79 412.396 1056.25 411.617C1046.59 409.727 1037.43 405.837 1028.86 401.091C1012.24 390.668 999.116 374.714 992.38 356.27C989.477 347.71 986.884 338.991 985.553 330.024C985.208 326.106 984.65 322.209 984.209 318.305C983.609 307.641 984.347 296.963 985.857 286.403C989.008 267.379 996.593 248.769 1009.34 234.139C1017.46 225.165 1027.31 217.64 1038.55 213.039C1041.57 212.039 1044.38 210.501 1047.41 209.549ZM1071.11 252.432C1061.06 254.453 1052.51 261.371 1047.32 270.062C1041.29 279.278 1039.57 290.417 1038.39 301.143C1038.41 308.51 1037.85 315.946 1039.04 323.25C1040.25 333.273 1043.84 343.074 1049.65 351.345C1052.27 355.359 1055.97 358.477 1059.93 361.091C1065.33 364.823 1072.05 365.844 1078.46 366.113C1082.94 365.575 1087.57 365.34 1091.77 363.505C1097.03 361.07 1101.45 357.125 1105.09 352.662C1108.82 347.317 1112.21 341.612 1114 335.301C1116.63 326.003 1118.16 316.346 1117.84 306.675C1117 292.549 1114.33 277.85 1105.89 266.131C1100.58 258.419 1091.78 253.446 1082.58 252.17C1078.76 252.156 1074.89 251.811 1071.11 252.432Z" fill="#EC602C"/>
<path d="M1267.97 212.218C1283.83 218.704 1299.83 224.873 1315.73 231.235C1306.94 253.897 1298.48 276.808 1286.54 298.052C1277.17 316.419 1267.8 334.787 1258.9 353.384C1247.84 348.963 1236.84 344.46 1225.73 340.175C1233.82 315.207 1240.66 289.87 1247.94 264.665C1253.8 246.889 1261.24 229.689 1267.97 212.218Z" fill="#EC602C"/>
<path d="M1231.72 354.908C1238.42 356.163 1244.98 359.134 1249.78 364.083C1257.91 372.374 1260.39 385.786 1255.49 396.366C1251.16 406.882 1239.83 413.751 1228.56 413.511C1217.75 413.624 1207.21 407.4 1202.07 397.92C1196.15 386.004 1199.23 370.303 1209.21 361.501C1215.2 356.053 1223.72 353.344 1231.72 354.908Z" fill="#EC602C"/>
</g>
<defs>
<clipPath id="clip0_61_239">
<rect width="1316" height="627" fill="white"/>
</clipPath>
</defs>
</svg>
