<svg width="1392" height="652" viewBox="0 0 1392 652" fill="none" xmlns="http://www.w3.org/2000/svg">
<g clip-path="url(#clip0_107_546)">
<path d="M603.465 0H607.852C611.943 11.0601 617.274 21.5927 621.856 32.4584C637.84 67.4898 652.778 102.993 668.947 137.932C682.737 133.258 696.315 127.955 710.133 123.336C729.291 117.293 748.052 110.074 766.868 103.039C781.741 97.8472 796.18 91.4518 811.275 86.8704C806.166 103.002 799.743 118.681 794.356 134.73C787.202 154.841 780.001 174.944 773.236 195.195C761.694 192.816 750.421 189.308 738.871 186.985C743.1 173.028 748.644 159.497 752.337 145.383C733.651 151.112 715.501 158.414 697.009 164.708C681.284 170.113 665.828 176.295 650.038 181.497C645.559 170.539 640.385 159.895 635.785 148.992C628.445 132.582 621.476 116.006 614.016 99.652C611.342 93.8212 608.954 87.8145 605.576 82.3446C603.29 85.3248 602.04 88.9159 600.485 92.3033C596.191 102.641 591.147 112.637 586.584 122.864C578.772 140.903 570.322 158.655 562.668 176.758C561.881 178.35 561.289 180.155 559.91 181.339C555.162 180.442 550.914 177.961 546.342 176.48C531.515 171.464 517.03 165.504 502.184 160.543C487.839 155.378 473.585 149.899 458.999 145.41C461.665 157.424 466.311 168.863 469.856 180.627C476.436 201.053 483.85 221.23 490.301 241.693C470.578 242.147 450.993 244.794 431.289 245.682C422.913 245.905 414.638 247.571 406.253 247.487C412.019 244.063 418.155 241.332 423.977 238.001C431.807 233.576 440.257 230.319 447.865 225.487C443.219 210.29 437.397 195.491 432.409 180.414C429.327 170.964 425.55 161.764 422.505 152.306C418.313 139.404 413.306 126.798 409.067 113.914C406.123 104.909 402.449 96.1443 399.932 87.0093C412.315 91.0261 424.551 95.4779 436.703 100.143C454.668 106.464 472.429 113.35 490.402 119.634C507.525 125.447 524.406 131.925 541.529 137.728C555.134 107.325 568.749 76.921 582.53 46.5913C589.508 31.0609 596.172 15.3823 603.465 0Z" fill="#FE9E7A"/>
<path d="M1389.63 237.556C1390.22 237.778 1391.41 238.213 1392 238.436V240.157C1391.67 240.499 1390.99 241.184 1390.65 241.536C1390.7 240.823 1390.81 239.407 1390.86 238.704C1390.56 238.417 1389.94 237.843 1389.63 237.556Z" fill="#FE9E7A"/>
<path d="M738.462 455.926C749.652 455.769 760.86 455.741 772.041 455.149C773.818 454.76 774.095 457.018 774.679 458.157C782.277 481.49 790.32 504.674 798.085 527.951C802.102 540.103 806.572 552.098 810.2 564.38C793.68 558.355 777.251 552.071 760.712 546.082C744.256 540.094 727.967 533.68 711.409 527.97C697.267 523.037 683.495 517.002 669.186 512.569C648.306 558.744 628.546 605.409 607.666 651.575H602.622C599.457 643.939 595.995 636.433 592.802 628.816C576.124 591.184 560.001 553.311 543.11 515.771C542.259 514.624 541.944 511.653 539.917 512.745C526.553 517.52 513.475 523.083 500.064 527.729C482.099 534.004 464.412 540.983 446.513 547.434C430.917 553.024 415.6 559.401 399.912 564.75C406.631 545.222 413.11 525.61 420.172 506.201C425.503 489.606 431.343 473.178 437.044 456.713C449.243 456.769 461.414 455.843 473.603 455.926C472.381 459.693 471.132 463.451 470.012 467.255C466.226 480.222 461.043 492.799 458.082 506.007C471.021 501.009 484.21 496.687 497.102 491.587C512.744 486.117 528.071 479.814 543.703 474.317C549.256 472.206 554.68 469.689 560.464 468.217C568.248 486.719 576.457 505.026 584.472 523.425C591.469 538.724 597.828 554.32 605.066 569.508C621.142 536.105 635.395 501.86 650.472 468.005C670.047 475.557 689.724 482.85 709.456 490.004C724.255 495.558 738.823 501.805 753.937 506.507C749.162 489.523 742.942 472.984 738.462 455.926Z" fill="#FE9E7A"/>
<path d="M0 214.335C4.92383 213.872 9.86617 214.159 14.8085 214.094C39.4832 214.094 64.1579 214.057 88.8326 214.113C97.9583 214.057 107.084 215.205 115.951 217.343C129.528 220.712 143.05 226.533 152.759 236.908C163.227 247.45 168.863 262.055 170.159 276.697C172.13 295.124 168.567 314.616 157.701 329.915C148.168 344.085 132.592 353.063 116.469 357.746C97.1068 363.169 76.8469 361.226 57.0128 361.689C57.0405 383.707 57.0683 405.735 57.022 427.762C38.0116 427.79 19.0104 427.772 0 427.79V214.335ZM56.9572 258.64C57.022 278.095 56.9202 297.549 57.0313 316.995C70.3774 316.624 84.1586 318.503 97.042 314.042C104.789 311.451 110.425 304.5 112.656 296.809C114.979 288.424 114.673 278.909 110.129 271.31C106.223 264.767 98.9116 261.074 91.5906 259.815C80.1788 257.724 68.4986 258.853 56.9572 258.64Z" fill="#E75E2A"/>
<path d="M642.033 214.205C670.502 214.048 698.981 214.177 727.459 214.094C746.507 213.863 766.082 217.315 782.686 227.061C796.032 234.585 805.806 247.7 810.156 262.296C813.543 274.855 813.839 288.174 811.831 300.992C808.943 319.096 798.984 336.468 783.398 346.51C768.951 356.469 751.338 360.8 733.984 361.522C722.452 362.096 710.864 361.004 699.379 362.04C699.536 383.966 699.564 405.901 699.369 427.827C680.266 427.753 661.173 427.818 642.07 427.79C641.903 356.598 642.07 285.397 642.033 214.205ZM699.443 258.686C699.471 278.104 699.416 297.521 699.517 316.93C708.199 316.911 716.88 317.124 725.562 316.893C733.42 316.254 741.833 314.616 747.821 309.081C754.309 303.028 757.178 293.829 756.697 285.11C756.549 278.224 754.189 271.033 748.821 266.47C742.212 260.787 733.225 258.742 724.692 258.677C716.27 258.677 707.856 258.631 699.443 258.686Z" fill="#E75E2A"/>
<path d="M1328.72 249.597C1333.03 239.361 1337.23 229.088 1341.54 218.861C1357.62 224.96 1373.64 231.235 1389.63 237.556C1389.94 237.843 1390.56 238.417 1390.86 238.704C1390.81 239.407 1390.7 240.823 1390.65 241.536C1383.94 259.371 1376.94 277.132 1368.9 294.412C1356.48 318.725 1344.04 343.03 1331.83 367.455C1319.98 363.438 1308.68 357.996 1296.89 353.822C1302.33 334.867 1308.15 316.014 1313.39 297.003C1318.22 281.121 1321.98 264.832 1328.72 249.597Z" fill="#E75E2A"/>
<path d="M484.156 289.229C501.51 279.751 520.501 272.291 540.456 271.431C557.856 270.061 576.505 271.653 591.481 281.426C604.096 289.534 611.278 303.926 613.666 318.401C615.507 327.842 615.257 337.504 615.23 347.074C615.174 373.989 615.285 400.903 615.165 427.818C600.301 427.809 585.428 427.725 570.563 427.827C569.768 423.172 569.416 418.47 568.601 413.824C558.476 423.412 545.315 430.308 531.265 431.363C517.225 432.76 502.194 429.78 491.208 420.515C482.49 413.768 477.15 403.282 475.993 392.398C473.873 378.811 477.399 363.928 487.266 354.007C497.669 343.807 511.755 338.356 525.805 335.45C538.753 332.349 552.044 331.155 565.26 329.767C564.714 322.946 561.04 316.004 554.283 313.626C544.436 310.109 533.653 312.025 523.787 314.486C515.263 316.699 507.211 320.234 499.288 323.982C494.54 312.274 488.922 300.937 484.156 289.229ZM542.511 365.233C536.754 366.918 530.812 369.63 527.471 374.85C523.186 381.301 525.87 391.324 533.181 394.286C543.973 398.562 558.004 393.925 563.168 383.254C566.01 376.256 564.871 368.51 565.131 361.152C557.449 361.559 549.896 363.179 542.511 365.233Z" fill="#E75E2A"/>
<path d="M1079.98 271.986C1089.6 270.616 1099.64 271.125 1108.72 274.855C1107.75 283.583 1105.46 292.089 1104.02 300.733C1102.78 306.897 1101.99 313.172 1100.23 319.225C1098.09 319.096 1096.09 318.244 1094.03 317.717C1083.44 315.181 1071.19 316.726 1063.1 324.566C1057.37 330.424 1052.34 337.736 1051.31 346.038C1051.58 353.451 1051.71 360.883 1051.3 368.306C1051.76 386.835 1051.43 405.392 1051.6 423.931C1051.52 425.3 1051.92 428.114 1049.72 427.79C1033.24 427.827 1016.75 427.762 1000.28 427.79C1000.02 376.932 1000.27 326.074 1000.1 275.216C1014.19 275.068 1028.28 275.161 1042.39 275.142C1043.9 283.722 1044.68 292.403 1045.76 301.039C1048.99 296.42 1051.39 291.2 1055.26 287.026C1061.9 279.936 1070.09 273.439 1079.98 271.986Z" fill="#E75E2A"/>
<path d="M422.552 286.452C428.957 279.77 436.75 273.791 446.023 272.005C455.908 270.561 466.191 271.199 475.594 274.744C474.197 284.916 471.522 294.837 469.8 304.944C468.875 309.905 467.968 314.875 466.913 319.808C458.564 316.523 449.17 315.597 440.489 318.133C432.066 320.9 425.625 327.749 421.488 335.394C419.655 339.022 418.054 342.937 417.998 347.065C417.915 373.98 418.026 400.894 417.85 427.799C400.858 427.762 383.865 427.762 366.872 427.818C366.539 376.923 366.853 326.019 366.724 275.124C380.764 275.235 394.823 274.985 408.863 275.281C410.927 283.731 410.964 292.69 412.464 301.307C415.518 296.161 418.248 290.7 422.552 286.452Z" fill="#E75E2A"/>
<path d="M1117 288.96C1134.58 279.807 1153.58 272.384 1173.6 271.449C1183.72 271.144 1194 270.82 1203.93 273.171C1213.07 275.133 1222.04 278.816 1229.12 285.054C1238.12 293.218 1243.79 304.592 1246 316.467C1248.62 328.666 1247.83 341.188 1247.94 353.562C1247.88 378.32 1248.01 403.069 1247.87 427.827C1232.81 427.809 1217.75 427.734 1202.69 427.846C1201.96 423.301 1201.52 418.72 1200.86 414.157C1188.67 425.68 1171.94 432.418 1155.09 431.603C1138.81 431.437 1121.68 423.551 1113.71 408.854C1108.24 398.784 1107.14 386.9 1108.76 375.701C1110.79 363.965 1117.85 353.1 1128.2 347.065C1148.93 334.209 1173.92 332.377 1197.55 329.702C1197.08 325.158 1195.84 320.391 1192.37 317.17C1187.94 312.811 1181.4 311.765 1175.43 311.997C1166.51 311.645 1157.76 313.811 1149.33 316.513C1143.34 318.475 1137.83 321.595 1132.04 324.047C1127.33 312.219 1121.61 300.807 1117 288.96ZM1168.49 367.677C1163.01 370.352 1157.59 375.562 1158.02 382.143C1157.92 387.363 1161.01 392.574 1165.98 394.462C1176.85 398.404 1190.96 393.647 1195.88 382.828C1198.35 375.895 1197.9 368.371 1197.92 361.124C1187.89 361.874 1177.68 363.41 1168.49 367.677Z" fill="#E75E2A"/>
<path d="M190.254 275.151C207.256 275.188 224.258 275.17 241.25 275.133C241.38 305.287 241.269 335.431 241.315 365.585C241.611 371.999 242.176 378.876 246.137 384.225C250.496 390.686 259.53 391.963 266.564 389.917C273.366 388.437 278.559 383.272 282.437 377.765C284.426 375.044 285.047 371.666 284.917 368.362C284.871 337.31 284.945 306.259 284.852 275.207C302.012 275.068 319.162 275.235 336.312 275.133C336.349 326.028 336.321 376.932 336.349 427.836C321.957 427.753 307.555 427.762 293.163 427.79C292.173 421.274 290.877 414.814 289.804 408.326C281.206 419.414 268.637 427.54 254.883 430.446C239.853 433.056 223.091 431.899 210.384 422.681C200.471 415.675 194.733 404.152 192.521 392.444C190.004 381.199 190.254 369.602 190.263 358.144C190.318 330.48 190.263 302.816 190.254 275.151Z" fill="#E75E2A"/>
<path d="M828.712 275.17C845.751 275.151 862.78 275.161 879.81 275.161C879.893 305.601 879.782 336.042 879.847 366.483C880.042 373.471 881.236 381.069 886.159 386.4C890.843 390.945 898.08 391.667 904.179 390.121C911.713 388.612 917.877 383.022 921.496 376.432C923.875 372.286 923.264 367.371 923.338 362.799C923.319 333.589 923.329 304.389 923.31 275.188C940.46 275.253 957.629 274.948 974.788 275.272C974.983 282.565 974.122 289.849 974.686 297.142C974.316 304.852 974.409 312.58 974.594 320.308C974.437 324.297 974.251 328.305 974.557 332.303C975.14 339.069 974.122 345.843 974.437 352.628C974.853 359.106 974.224 365.594 974.751 372.082C974.177 382.541 974.816 393.009 974.724 403.486C974.196 411.593 974.668 419.719 974.474 427.827C960.174 427.772 945.865 427.753 931.566 427.799C930.27 421.358 929.419 414.833 927.864 408.456C923.764 414.583 917.711 418.979 911.648 422.996C899.654 430.715 884.808 432.825 870.823 431.224C859.041 429.993 847.833 423.838 840.512 414.518C831.396 402.449 829.443 386.761 828.795 372.101C828.573 339.79 828.823 307.48 828.712 275.17Z" fill="#E75E2A"/>
<path d="M1292.41 369.917C1301.35 368.537 1311.04 369.787 1318.4 375.396C1330.89 384.068 1334.76 402.486 1327.26 415.601C1323.56 422.357 1317.1 427.411 1309.8 429.761C1296.74 433.667 1281.03 429.363 1273.21 417.813C1264.12 404.707 1267.28 384.503 1280.33 375.146C1283.85 372.434 1288.02 370.601 1292.41 369.917Z" fill="#E75E2A"/>
<path d="M1191.35 467.94C1195.43 466.07 1199.65 464.543 1203.87 463.034C1208.29 469.235 1212.7 475.585 1215.35 482.785C1210.96 484.386 1206.67 486.274 1202.27 487.811C1199.22 480.879 1195.4 474.317 1191.35 467.94Z" fill="#E75E2A"/>
<path d="M950.66 467.625C954.742 466.135 958.786 464.543 962.84 462.96C967.523 469.032 971.54 475.64 974.557 482.693C970.207 484.534 965.839 486.339 961.48 488.135C958.342 481.054 954.316 474.437 950.66 467.625Z" fill="#E75E2A"/>
<path d="M1007.72 464.673C1024.89 468.81 1042.25 472.04 1059.65 475.066C1058.44 481.517 1056.23 487.718 1054.98 494.16C1037.19 491.559 1019.73 487.015 1002.35 482.498C1004.23 476.584 1006.1 470.661 1007.72 464.673Z" fill="#E75E2A"/>
<path d="M1248.41 464.793C1265.56 468.837 1282.96 471.707 1300.21 475.288C1298.46 481.48 1297.08 487.774 1295.42 493.984C1292.02 494.123 1288.77 492.901 1285.47 492.355C1271.21 489.717 1257.13 486.219 1243.1 482.572C1245.12 476.723 1246.65 470.726 1248.41 464.793Z" fill="#E75E2A"/>
<path d="M876.422 481.804C879.569 476.39 882.706 470.975 885.733 465.487C900.93 469.069 916.118 472.938 930.973 477.649C932.963 482.156 933.444 487.154 934.629 491.911C927.326 495.308 920.866 500.287 915.378 506.146C910.481 502.027 905.243 498.371 899.653 495.271C901.272 493.623 902.975 492.04 904.771 490.569C904.817 490.282 904.928 489.727 904.984 489.449C895.59 486.432 885.946 484.359 876.422 481.804Z" fill="#E75E2A"/>
<path d="M1126.75 465.626C1141.97 468.856 1156.92 473.15 1171.88 477.38C1173.75 482.008 1174.78 486.913 1175.85 491.781C1168.41 495.122 1161.98 500.25 1156.24 505.988C1151.52 502.018 1146.3 498.695 1140.83 495.891C1142.15 493.234 1144.68 491.559 1146.84 489.634C1137.26 486.858 1127.62 484.247 1117.89 482.017C1120.26 476.26 1123.75 471.059 1126.75 465.626Z" fill="#E75E2A"/>
<path d="M933.686 474.122C937.758 472.493 941.756 470.698 945.875 469.18C950.271 475.492 954.353 482.11 956.953 489.384C952.724 491.022 948.596 492.929 944.255 494.262C941.367 487.219 936.925 480.98 933.686 474.122Z" fill="#E75E2A"/>
<path d="M1174.48 474.335C1178.51 472.299 1182.72 470.587 1187.05 469.291C1191.11 475.714 1195.48 482.147 1197.75 489.477C1193.59 491.096 1189.52 492.911 1185.44 494.697C1182.22 487.681 1178.48 480.934 1174.48 474.335Z" fill="#E75E2A"/>
<path d="M990.181 489.967C997.289 490.402 1004.27 492.031 1011.35 492.809C1009.49 500.805 1008.53 508.978 1008 517.159C1019.81 509.126 1034.64 506.247 1048.7 508.145C1057.45 509.154 1066.15 513.143 1071.6 520.223C1080.15 531.551 1079.15 548.665 1070.3 559.54C1063.29 567.749 1052.45 571.016 1042.21 572.96C1029.95 574.774 1017.36 574.987 1005.08 573.265C1003.72 566.564 1001.47 560.095 999.622 553.533C1012.91 555.402 1026.65 556.522 1039.81 553.144C1044.66 551.867 1049.91 550.044 1052.89 545.721C1055.07 542.75 1055.28 538.835 1054.6 535.337C1053.33 530.533 1048.78 527.238 1044.02 526.47C1036.25 525.175 1028.08 526.109 1020.89 529.367C1013.74 532.468 1008.1 538.326 1004.04 544.87C997.826 543.195 991.579 541.667 985.322 540.177C987.71 523.536 989.45 506.766 990.181 489.967Z" fill="#E75E2A"/>
<path d="M1231.21 489.625C1238.22 490.467 1245.19 491.707 1252.17 492.818C1250.43 500.824 1249.01 508.95 1248.68 517.159C1256.07 512.152 1264.61 508.885 1273.5 507.96C1283.1 507.016 1293.26 507.506 1301.99 512.004C1309.3 515.558 1315.11 522.305 1316.9 530.311C1319.89 542.204 1316.47 556.485 1306.21 563.936C1298.84 569.452 1289.73 571.812 1280.78 573.21C1269.24 574.765 1257.5 574.727 1245.94 573.46C1244.23 566.796 1242.46 560.141 1240.36 553.588C1252.81 555.393 1265.61 556.115 1278.03 553.783C1283.93 552.487 1290.42 550.386 1293.75 544.944C1297.59 539.039 1295.03 529.969 1288.2 527.599C1275.3 523.259 1260.12 527.322 1250.82 537.225C1248.52 539.53 1246.76 542.288 1244.92 544.962C1238.81 543.315 1232.71 541.566 1226.46 540.529C1227.25 529.395 1229.23 518.39 1230.02 507.256C1230.83 501.407 1230.55 495.483 1231.21 489.625Z" fill="#E75E2A"/>
<path d="M896.915 500.805C907.957 507.469 917.767 516.299 924.986 527.035C929.938 534.837 933.066 544.111 932.344 553.431C931.567 562.038 925.542 570.331 917.008 572.608C906.383 575.644 895.166 574.033 884.504 572.034C883.189 565 882.227 557.911 881.098 550.849C886.91 552.478 892.732 554.301 898.766 554.93C902.468 555.171 907.124 554.56 909.141 551.006C910.992 545.397 908.114 539.789 905.134 535.17C900.256 527.026 892.889 520.843 885.512 515.049C888.557 509.746 893.148 505.581 896.915 500.805Z" fill="#E75E2A"/>
<path d="M1126.22 514.725C1129.87 510.135 1133.77 505.72 1137.63 501.287C1146.7 505.572 1154.25 512.467 1160.7 520.047C1168.92 529.626 1175.07 542.306 1173.08 555.208C1171.66 563.519 1165.18 570.831 1156.93 572.849C1146.54 575.505 1135.52 574.154 1125.24 571.59C1124.37 564.732 1123.26 557.901 1122.23 551.071C1129.33 552.774 1136.49 555.634 1143.93 554.81C1147.49 554.56 1150.75 551.626 1150.7 547.924C1150.79 540.751 1145.92 534.994 1141.89 529.543C1137.54 523.731 1131.67 519.408 1126.22 514.725Z" fill="#E75E2A"/>
<path d="M932.01 520.149C937.989 517.354 943.958 514.54 950.021 511.93C959.322 525.369 966.273 540.344 971.373 555.847C964.672 559.04 957.758 561.733 951.187 565.195C948.743 556.43 945.754 547.804 942.255 539.409C939.488 532.653 935.258 526.655 932.01 520.149Z" fill="#E75E2A"/>
<path d="M1172.79 520.112C1178.9 517.483 1184.87 514.522 1190.96 511.865C1199.99 525.498 1207.46 540.251 1212.27 555.911C1205.43 558.938 1198.68 562.177 1191.92 565.361C1188.05 549.349 1181.47 534.087 1172.79 520.112Z" fill="#E75E2A"/>
<path d="M871.231 520.686C876.961 524.638 882.19 529.256 887.225 534.05C879.774 545.888 872.148 557.707 862.652 568.045C856.765 563.381 851.481 558.022 846.205 552.709C856.108 543.398 865.021 532.856 871.231 520.686Z" fill="#E75E2A"/>
<path d="M1112.07 521C1118.12 524.24 1122.88 529.293 1128.17 533.569C1125.97 538.354 1122.49 542.408 1119.86 546.943C1115.26 554.597 1109.45 561.391 1103.48 567.99C1097.9 563.084 1092.29 558.179 1087.4 552.57C1092.54 547.563 1097.59 542.417 1102.06 536.79C1105.74 531.755 1108.97 526.405 1112.07 521Z" fill="#E75E2A"/>
</g>
<defs>
<clipPath id="clip0_107_546">
<rect width="1392" height="651.574" fill="white"/>
</clipPath>
</defs>
</svg>
