<?xml version="1.0" encoding="UTF-8" ?>
<!DOCTYPE svg PUBLIC "-//W3C//DTD SVG 1.1//EN" "http://www.w3.org/Graphics/SVG/1.1/DTD/svg11.dtd">
<svg width="210pt" height="122pt" viewBox="0 0 210 122" version="1.1" xmlns="http://www.w3.org/2000/svg">
<style>
  path[fill="#1d66bf"] { fill: #EE4D2D; }
</style>
<g id="#1d66bfff">
<path fill="#1d66bf" opacity="1.00" d=" M 186.50 1.49 C 188.85 1.04 191.26 1.05 193.65 1.04 C 197.09 12.69 198.47 24.83 200.56 36.75 C 203.92 44.90 203.66 53.89 205.58 62.38 C 207.06 66.50 207.76 70.88 209.56 74.88 L 210.00 75.02 L 210.00 76.19 C 205.70 79.00 200.41 79.17 195.57 80.43 C 140.56 93.02 85.55 105.64 30.55 118.32 C 26.23 119.32 21.90 120.36 17.50 121.01 C 16.39 117.32 13.82 113.03 16.38 109.38 C 16.58 108.30 16.80 107.22 17.05 106.15 C 15.34 103.87 12.72 102.05 12.15 99.12 C 10.90 93.77 9.72 88.38 9.18 82.92 C 10.49 83.26 11.80 83.62 13.10 83.99 C 12.90 82.14 12.68 80.30 12.48 78.46 C 12.08 79.24 11.27 80.80 10.87 81.57 C 10.05 79.90 9.34 78.17 8.76 76.39 C 9.67 76.64 11.50 77.15 12.42 77.40 C 11.62 73.15 7.34 71.16 5.75 67.50 C 5.89 61.56 2.59 56.23 3.07 50.26 C 1.97 47.71 0.07 44.53 1.67 41.83 C 4.39 40.01 7.79 39.81 10.89 39.04 C 69.44 26.60 127.96 14.00 186.50 1.49 M 174.59 4.44 C 174.97 5.84 175.40 7.23 175.83 8.61 C 173.28 9.15 170.71 9.74 168.08 9.68 C 165.43 10.51 162.66 10.74 159.93 11.15 C 159.56 10.67 158.80 9.70 158.42 9.22 C 156.92 9.69 155.42 10.18 153.94 10.70 C 153.96 11.43 153.99 12.89 154.01 13.61 C 151.19 14.98 148.22 16.05 145.04 15.79 C 144.53 16.24 143.53 17.14 143.03 17.59 C 142.42 16.89 141.81 16.20 141.19 15.52 C 140.59 16.60 140.02 17.70 139.46 18.80 C 137.74 20.14 136.38 19.15 135.30 17.62 C 134.92 17.82 134.15 18.20 133.77 18.40 C 134.42 18.77 135.74 19.52 136.40 19.89 C 129.34 22.90 121.94 24.96 114.85 27.91 C 114.69 27.64 114.36 27.10 114.19 26.84 C 114.72 26.39 115.78 25.50 116.31 25.05 C 114.72 24.83 113.11 24.79 111.51 24.93 C 111.70 25.76 112.08 27.42 112.27 28.25 C 110.22 24.44 105.75 27.27 102.61 27.63 C 105.07 28.13 107.56 28.51 110.02 29.04 C 108.31 29.85 106.44 30.20 104.56 30.34 C 103.68 30.76 101.92 31.59 101.03 32.01 L 101.81 29.89 C 100.09 29.48 98.31 29.16 96.54 29.51 C 94.42 29.67 92.31 29.97 90.24 30.44 C 92.10 30.95 93.97 31.42 95.84 31.88 C 97.15 30.29 99.02 29.75 101.02 29.76 C 100.88 31.06 100.74 32.35 100.59 33.64 C 94.26 32.33 88.17 34.90 81.89 35.13 C 74.49 35.42 67.32 37.48 59.95 38.15 C 53.65 39.41 46.87 38.89 40.97 41.76 C 39.14 42.47 36.97 43.21 36.02 40.88 C 36.46 44.39 32.87 44.08 30.54 44.75 C 29.89 43.32 28.65 42.61 27.11 42.60 C 27.49 43.79 27.93 44.96 28.32 46.15 C 26.09 46.18 23.87 46.40 21.66 46.60 C 20.62 47.13 19.57 47.64 18.52 48.14 C 18.41 47.42 18.18 45.99 18.07 45.28 C 17.51 45.54 16.40 46.08 15.85 46.35 C 15.77 49.37 15.96 52.41 15.58 55.42 C 16.04 55.63 16.97 56.04 17.44 56.24 C 17.77 58.56 18.28 60.84 18.95 63.08 C 17.64 62.61 16.33 62.16 15.01 61.71 C 14.92 67.79 15.17 73.86 15.77 79.91 C 16.72 80.72 17.98 81.45 17.84 82.91 C 18.48 87.23 19.05 91.56 19.37 95.92 C 20.16 94.70 20.77 93.39 20.75 91.92 C 20.75 91.49 20.76 90.63 20.77 90.20 C 20.44 89.64 19.80 88.52 19.48 87.96 C 20.61 88.28 21.75 88.49 22.91 88.59 C 22.38 88.06 21.32 86.99 20.79 86.46 C 21.33 86.07 22.42 85.31 22.96 84.92 C 23.84 92.76 23.77 100.67 24.72 108.51 C 31.61 107.46 38.52 106.30 45.10 103.93 C 48.78 102.45 52.77 103.38 56.61 103.08 C 56.43 102.51 56.07 101.38 55.89 100.81 C 59.76 100.11 63.65 99.57 67.54 99.06 C 71.54 100.97 75.99 99.06 80.07 98.43 C 82.65 95.58 86.88 96.95 90.27 96.79 C 90.70 96.43 91.57 95.72 92.00 95.36 C 95.91 94.54 99.88 94.13 103.86 94.08 C 107.92 93.27 111.94 92.25 116.08 91.89 C 119.71 91.82 122.45 89.07 125.91 88.35 C 129.53 87.55 132.85 85.31 136.66 85.52 C 136.96 85.44 137.54 85.29 137.84 85.22 C 140.47 87.54 144.08 87.54 147.06 85.84 C 145.50 84.73 144.05 83.22 142.01 83.18 C 146.24 81.74 150.51 80.43 154.78 79.09 C 154.46 80.12 153.26 83.17 155.47 82.68 C 158.96 82.01 162.44 81.23 165.96 80.63 C 165.11 78.98 164.33 77.16 162.15 77.24 C 162.10 77.08 161.98 76.76 161.93 76.60 C 163.47 77.00 165.00 77.42 166.56 77.74 C 166.74 77.99 167.08 78.47 167.26 78.72 C 169.30 78.39 171.40 78.14 173.30 79.18 C 178.45 78.28 183.48 76.87 188.62 75.91 C 188.50 75.21 188.27 73.82 188.15 73.12 C 190.72 71.67 193.30 69.83 196.43 70.53 C 195.73 68.66 194.69 66.95 193.46 65.39 C 192.59 62.61 193.71 60.17 195.02 57.81 C 194.29 57.70 192.85 57.49 192.13 57.38 C 192.21 55.72 192.26 54.05 192.35 52.39 C 190.86 50.58 190.65 48.35 191.66 46.27 C 190.31 43.94 188.52 41.13 190.25 38.46 C 189.40 37.24 188.57 36.03 187.74 34.80 C 188.92 35.12 191.27 35.75 192.45 36.06 C 191.74 34.89 190.99 33.74 190.26 32.59 C 189.53 32.90 188.07 33.53 187.34 33.85 C 185.41 25.35 182.69 17.07 180.38 8.68 C 180.59 7.95 181.00 6.51 181.20 5.78 C 179.97 6.06 178.75 6.35 177.52 6.65 C 176.55 5.90 175.57 5.17 174.59 4.44 M 181.98 8.81 C 182.33 10.81 182.65 12.83 182.58 14.87 C 183.19 16.48 183.92 18.04 184.83 19.51 C 185.79 23.50 185.98 27.75 188.36 31.26 C 189.24 30.90 190.12 30.54 191.00 30.16 C 190.99 27.68 190.90 25.19 190.89 22.71 L 189.37 24.27 C 190.46 21.60 190.07 18.78 188.95 16.15 C 188.40 17.13 187.90 18.14 187.42 19.16 L 186.00 19.05 C 186.60 17.82 187.18 16.58 187.76 15.34 C 185.86 13.14 183.97 10.93 181.98 8.81 M 4.95 55.56 C 4.17 56.64 4.52 58.67 5.91 59.08 C 7.91 58.86 6.49 55.13 4.95 55.56 M 7.38 66.38 C 7.64 66.64 7.64 66.64 7.38 66.38 M 18.97 106.22 C 17.49 109.25 22.29 106.36 18.97 106.22 Z" />
<path fill="#1d66bf" opacity="1.00" d=" M 154.57 24.00 C 156.42 23.59 158.26 23.20 160.11 22.80 C 160.86 26.42 161.64 30.03 162.50 33.63 C 166.19 32.80 169.88 31.95 173.58 31.15 C 176.13 42.63 178.67 54.11 181.19 65.59 C 179.26 66.01 177.33 66.43 175.40 66.84 C 175.24 66.05 174.93 64.46 174.77 63.67 C 169.45 64.77 164.18 66.02 158.87 67.14 C 159.09 68.00 159.54 69.73 159.76 70.59 C 157.90 71.06 156.03 71.51 154.17 71.97 C 151.51 60.37 148.96 48.75 146.44 37.12 C 149.96 36.39 153.47 35.60 156.99 34.86 C 156.20 31.24 155.38 27.62 154.57 24.00 M 163.66 39.15 C 164.24 41.50 164.76 43.87 165.29 46.24 C 167.06 45.85 168.84 45.47 170.62 45.08 C 170.07 42.71 169.53 40.34 169.01 37.96 C 167.23 38.35 165.44 38.75 163.66 39.15 M 153.19 41.45 C 153.74 43.82 154.26 46.19 154.79 48.56 C 156.45 48.20 158.11 47.84 159.77 47.48 C 159.27 45.10 158.75 42.72 158.21 40.35 C 156.54 40.72 154.86 41.09 153.19 41.45 M 166.44 51.73 C 167.02 54.25 167.58 56.77 168.15 59.30 C 169.94 58.89 171.72 58.49 173.51 58.09 C 172.93 55.54 172.37 52.99 171.79 50.44 C 170.00 50.87 168.22 51.31 166.44 51.73 M 156.00 53.99 C 156.55 56.52 157.13 59.05 157.72 61.58 C 159.37 61.21 161.02 60.83 162.68 60.45 C 162.10 57.95 161.52 55.44 160.98 52.93 C 159.32 53.28 157.66 53.64 156.00 53.99 Z" />
<path fill="#1d66bf" opacity="1.00" d=" M 132.60 28.86 C 134.46 28.46 136.32 28.04 138.19 27.61 C 138.86 30.67 139.54 33.72 140.22 36.78 C 141.77 36.43 143.33 36.07 144.89 35.72 C 145.30 37.54 145.71 39.36 146.14 41.18 C 144.57 41.52 142.99 41.86 141.42 42.19 C 141.98 44.67 142.52 47.15 143.05 49.63 C 144.50 48.89 145.94 48.16 147.39 47.43 C 147.99 49.15 148.61 50.87 149.22 52.59 C 147.62 53.40 145.98 54.17 144.47 55.15 C 144.91 60.47 147.34 65.52 147.22 70.88 C 145.87 74.08 141.96 74.47 139.07 75.45 C 138.13 73.77 137.16 72.11 136.15 70.47 C 137.92 70.10 139.68 69.72 141.44 69.32 C 140.72 65.53 139.83 61.78 139.01 58.02 C 137.37 58.82 135.73 59.64 134.10 60.46 C 133.21 58.71 132.32 56.96 131.42 55.22 C 133.54 54.29 135.64 53.32 137.73 52.34 C 137.12 49.35 136.46 46.38 135.80 43.41 C 133.86 43.88 131.92 44.34 129.97 44.78 C 129.52 42.99 129.11 41.18 128.65 39.39 C 130.64 38.96 132.62 38.46 134.61 38.03 C 133.89 34.98 133.24 31.92 132.60 28.86 Z" />
<path fill="#1d66bf" opacity="1.00" d=" M 95.88 38.35 C 97.77 37.35 99.65 36.32 101.53 35.31 C 102.85 36.95 104.15 38.61 105.44 40.29 C 111.04 39.06 116.64 37.79 122.24 36.57 C 123.07 40.63 124.02 44.65 124.89 48.70 C 122.88 49.16 120.86 49.62 118.85 50.10 C 118.33 47.90 117.81 45.70 117.30 43.50 C 107.37 45.71 97.43 47.91 87.50 50.10 C 87.99 52.29 88.48 54.48 88.96 56.68 C 87.04 57.09 85.11 57.50 83.18 57.89 C 82.32 53.84 81.38 49.82 80.51 45.77 C 86.49 44.51 92.46 43.14 98.43 41.81 C 97.58 40.66 96.73 39.51 95.88 38.35 Z" />
<path fill="#1d66bf" opacity="1.00" d=" M 32.01 54.26 C 44.09 51.61 56.16 48.94 68.24 46.27 C 70.06 54.33 71.84 62.39 73.60 70.47 C 71.71 70.90 69.82 71.33 67.92 71.75 C 67.62 71.24 67.03 70.22 66.74 69.71 C 59.38 71.00 52.16 72.97 44.83 74.40 C 45.90 78.61 46.31 83.03 47.99 87.06 C 51.21 88.31 54.66 86.64 57.91 86.14 C 63.18 84.69 68.81 84.32 73.82 82.05 C 76.05 79.92 74.97 76.47 74.98 73.76 C 77.10 74.13 79.22 74.44 81.35 74.71 C 81.44 78.08 81.91 81.80 80.04 84.82 C 77.57 88.27 72.96 88.75 69.16 89.70 C 62.39 90.96 55.76 93.21 48.85 93.60 C 45.42 93.99 42.36 91.44 41.65 88.15 C 39.52 79.95 37.98 71.60 36.06 63.35 C 38.08 62.93 40.09 62.51 42.11 62.09 C 42.57 64.31 43.04 66.52 43.52 68.74 C 50.92 67.04 58.34 65.47 65.75 63.83 C 65.01 60.33 64.27 56.83 63.43 53.35 C 53.37 55.63 43.30 57.84 33.22 60.03 C 32.82 58.10 32.42 56.18 32.01 54.26 Z" />
<path fill="#1d66bf" opacity="1.00" d=" M 90.59 53.12 C 99.00 51.21 107.45 49.46 115.85 47.48 C 116.25 49.29 116.65 51.10 117.07 52.90 C 108.64 54.76 100.22 56.66 91.78 58.49 C 91.40 56.70 91.00 54.91 90.59 53.12 Z" />
<path fill="#1d66bf" opacity="1.00" d=" M 83.56 64.07 C 98.10 60.84 112.65 57.67 127.18 54.38 C 127.60 56.21 128.02 58.04 128.45 59.86 C 124.08 60.84 119.71 61.84 115.33 62.76 C 116.17 66.42 116.91 70.11 117.85 73.75 C 120.53 73.29 123.18 72.72 125.82 72.06 C 125.70 70.14 125.55 68.23 125.36 66.32 C 127.26 66.65 129.17 66.93 131.09 67.18 C 131.19 70.39 132.13 74.83 128.73 76.73 C 125.31 78.16 121.56 78.69 117.92 79.34 C 115.75 79.86 113.22 78.76 112.45 76.59 C 111.00 72.54 110.42 68.26 109.44 64.09 C 107.28 64.57 105.12 65.07 102.96 65.59 C 103.27 69.64 103.90 74.08 101.77 77.78 C 99.47 81.91 95.08 84.13 91.02 86.18 C 89.64 84.70 88.22 83.26 86.76 81.86 C 90.24 80.23 94.28 78.78 96.26 75.24 C 97.74 72.68 97.15 69.64 97.03 66.85 C 92.94 67.71 88.87 68.63 84.79 69.57 C 84.38 67.73 83.97 65.90 83.56 64.07 Z" />
<path fill="#1d66bf" opacity="1.00" d=" M 20.14 73.54 C 21.57 77.32 23.24 81.58 21.81 85.60 C 19.79 83.45 22.21 79.68 18.58 78.82 C 18.91 78.43 19.56 77.65 19.89 77.26 C 19.80 76.01 19.78 74.75 20.14 73.54 Z" />
</g>
</svg>
