<svg width="505" height="392" viewBox="0 0 505 392" fill="none" xmlns="http://www.w3.org/2000/svg">
<path d="M106.355 343.609C92.222 342.009 74.3642 337.945 67.202 336.112C-82.2497 165.687 61.4722 50.7392 80.5715 37.7443C193.257 -20.23 332.841 1.26046 388.547 19.2525C424.836 32.7465 498.845 81.8248 504.575 170.186C510.305 258.546 456.668 321.285 429.133 341.61C412.58 343.942 377.183 348.607 368.015 348.607C358.848 348.607 351.463 355.603 348.916 359.102L327.907 386.59C325.997 388.256 320.84 391.587 315.492 391.587C296.393 392.787 233.366 391.088 204.239 390.088C194.53 389.755 172.343 388.789 161.266 387.589C150.188 386.39 146.782 382.758 146.464 381.092C142.644 375.095 134.336 361.801 131.662 356.603C128.32 350.106 124.022 345.608 106.355 343.609Z" fill="white"/>
</svg>
