<svg width="320" height="156" viewBox="0 0 320 156" fill="none" xmlns="http://www.w3.org/2000/svg">
<g clip-path="url(#clip0_240_2524)">
<path d="M300 1H20C9.50659 1 1 9.50659 1 20V136C1 146.493 9.50659 155 20 155H300C310.493 155 319 146.493 319 136V20C319 9.50659 310.493 1 300 1Z" fill="url(#paint0_linear_240_2524)" stroke="#B62A2A" stroke-width="2"/>
<g style="mix-blend-mode:overlay" opacity="0.3">
<path d="M235.896 0H177.266L319.997 121.184V71.4071L235.896 0Z" fill="url(#paint1_linear_240_2524)" style="mix-blend-mode:overlay"/>
<path d="M4.82805 10H4.7813L0 27.0063V54.0126L4.7813 88.1568L87.9413 156H120.123H183.781L4.82805 10Z" fill="url(#paint2_linear_240_2524)" style="mix-blend-mode:overlay"/>
<path d="M4.82812 10L183.781 156H218.528L34.7894 0L18.0001 1.5L4.82812 10Z" fill="url(#paint3_linear_240_2524)" style="mix-blend-mode:overlay"/>
<path d="M104.273 0L288.007 156H319.996V153.661L139.015 0H104.273Z" fill="url(#paint4_linear_240_2524)" style="mix-blend-mode:overlay"/>
<path d="M104.277 0H34.7891L218.528 156H288.011L104.277 0Z" fill="url(#paint5_linear_240_2524)" style="mix-blend-mode:overlay"/>
<path d="M253.269 156L69.5304 0H34.7891L218.528 156H253.269Z" fill="url(#paint6_linear_240_2524)" style="mix-blend-mode:overlay"/>
<path d="M288.012 156L104.278 0H69.5312L253.27 156H288.012Z" fill="url(#paint7_linear_240_2524)" style="mix-blend-mode:overlay"/>
<path d="M4.7813 88.1559L87.9413 155.999H120.123L0 54.0117L4.7813 88.1559Z" fill="url(#paint8_linear_240_2524)" style="mix-blend-mode:overlay"/>
<path d="M104.273 0L288.007 156H319.996V153.661L139.015 0H104.273Z" fill="url(#paint9_linear_240_2524)" style="mix-blend-mode:overlay"/>
<path d="M212.008 0H177.266L319.997 121.184V91.6863L212.008 0Z" fill="url(#paint10_linear_240_2524)" style="mix-blend-mode:overlay"/>
<path d="M270.639 0H235.898L319.999 71.4071V41.9097L270.639 0Z" fill="url(#paint11_linear_240_2524)" style="mix-blend-mode:overlay"/>
<path d="M212.008 0H177.266L319.997 121.184V91.6863L212.008 0Z" fill="url(#paint12_linear_240_2524)" style="mix-blend-mode:overlay"/>
<path d="M4.828 10H4.78125V88.1568L87.9412 156H183.781L4.828 10Z" fill="url(#paint13_linear_240_2524)" style="mix-blend-mode:overlay"/>
</g>
<path d="M300 1H20C9.50659 1 1 9.50659 1 20V136C1 146.493 9.50659 155 20 155H300C310.493 155 319 146.493 319 136V20C319 9.50659 310.493 1 300 1Z" stroke="#B62A2A" stroke-width="2"/>
<path d="M270 14H97C83.7452 14 73 24.7452 73 38V119C73 132.255 83.7452 143 97 143H270C283.255 143 294 132.255 294 119V38C294 24.7452 283.255 14 270 14Z" fill="white"/>
<path d="M263 21H97C84.2975 21 74 31.2975 74 44V113C74 125.703 84.2975 136 97 136H263C275.703 136 286 125.703 286 113V44C286 31.2975 275.703 21 263 21Z" stroke="#DFDFDF" stroke-width="2" stroke-dasharray="6 6"/>
<path d="M275 12C286.598 12.0001 296 21.4021 296 33V124C296 135.598 286.598 145 275 145H94C80.7452 145 70 134.255 70 121V106.229C58.9112 102.154 51 91.5016 51 79C51 66.4982 58.911 55.8442 70 51.7705V33C70 21.402 79.402 12 91 12H275Z" fill="white"/>
<mask id="mask0_240_2524" style="mask-type:alpha" maskUnits="userSpaceOnUse" x="51" y="12" width="245" height="133">
<path d="M275 12C286.598 12.0001 296 21.4021 296 33V124C296 135.598 286.598 145 275 145H94C80.7452 145 70 134.255 70 121V106.229C58.9112 102.154 51 91.5016 51 79C51 66.4982 58.911 55.8442 70 51.7705V33C70 21.402 79.402 12 91 12H275Z" fill="white"/>
<mask id="mask1_240_2524" style="mask-type:alpha" maskUnits="userSpaceOnUse" x="51" y="12" width="245" height="133">
<path d="M275 12C286.598 12.0001 296 21.4021 296 33V124C296 135.598 286.598 145 275 145H94C80.7452 145 70 134.255 70 121V106.229C58.9112 102.154 51 91.5016 51 79C51 66.4982 58.911 55.8442 70 51.7705V33C70 21.402 79.402 12 91 12H275Z" fill="white"/>
</mask>
<g mask="url(#mask1_240_2524)">
<path d="M70 106.229H71V105.531L70.3449 105.29L70 106.229ZM70 51.7705L70.3448 52.7092L71 52.4685V51.7705H70ZM275 12V11H269.889V12V13H275V12ZM259.667 12V11H249.444V12V13H259.667V12ZM239.222 12V11H229V12V13H239.222V12ZM218.778 12V11H208.556V12V13H218.778V12ZM198.333 12V11H188.111V12V13H198.333V12ZM177.889 12V11H167.667V12V13H177.889V12ZM157.444 12V11H147.222V12V13H157.444V12ZM137 12V11H126.778V12V13H137V12ZM116.556 12V11H106.333V12V13H116.556V12ZM96.1111 12V11H91V12V13H96.1111V12ZM91 12V11C89.532 11 88.0966 11.1439 86.7075 11.4187L86.9016 12.3997L87.0957 13.3807C88.3576 13.131 89.663 13 91 13V12ZM79.3321 15.5371L78.7757 14.7062C76.377 16.312 74.312 18.377 72.7062 20.7757L73.5371 21.3321L74.3681 21.8884C75.8285 19.7069 77.7069 17.8285 79.8884 16.3681L79.3321 15.5371ZM70.3997 28.9016L69.4187 28.7075C69.1439 30.0966 69 31.532 69 33H70H71C71 31.663 71.1311 30.3576 71.3807 29.0957L70.3997 28.9016ZM70 33H69V37.6926H70H71V33H70ZM70 47.0779H69V51.7705H70H71V47.0779H70ZM70 51.7705L69.6552 50.8318C68.2153 51.3608 66.8273 51.9969 65.5009 52.7305L65.9849 53.6056L66.4689 54.4807C67.7067 53.7961 69.0017 53.2026 70.3448 52.7092L70 51.7705ZM59.0152 58.9842L58.2917 58.2939C56.1962 60.4902 54.4303 63.0044 53.0739 65.7573L53.9709 66.1992L54.8679 66.6412C56.1336 64.0725 57.7819 61.7254 59.7387 59.6745L59.0152 58.9842ZM51.3321 74.5973L50.3435 74.4467C50.1172 75.932 50 77.4527 50 79H51H52C52 77.5538 52.1096 76.1339 52.3207 74.7479L51.3321 74.5973ZM51 79H50C50 80.5473 50.1172 82.0679 50.3435 83.5532L51.3321 83.4026L52.3207 83.252C52.1096 81.8661 52 80.4462 52 79H51ZM53.971 91.8004L53.074 92.2424C54.4305 94.9952 56.1964 97.5092 58.2919 99.7054L59.0154 99.015L59.7389 98.3247C57.7821 96.2739 56.1337 93.927 54.868 91.3583L53.971 91.8004ZM65.985 104.393L65.5011 105.268C66.8274 106.002 68.2153 106.638 69.6551 107.167L70 106.229L70.3449 105.29C69.0017 104.796 67.7068 104.203 66.469 103.518L65.985 104.393ZM70 106.229H69V109.921H70H71V106.229H70ZM70 117.307H69V121H70H71V117.307H70ZM70 121H69C69 122.668 69.1636 124.299 69.4758 125.878L70.4568 125.684L71.4378 125.49C71.1507 124.038 71 122.537 71 121H70ZM74.0424 134.335L73.2115 134.891C75.0364 137.617 77.3831 139.964 80.1089 141.789L80.6652 140.958L81.2215 140.127C78.7129 138.447 76.5529 136.287 74.8734 133.778L74.0424 134.335ZM89.3161 144.543L89.122 145.524C90.7005 145.836 92.3316 146 94 146V145V144C92.4627 144 90.9615 143.849 89.5102 143.562L89.3161 144.543ZM94 145V146H99.0278V145V144H94V145ZM109.083 145V146H119.139V145V144H109.083V145ZM129.194 145V146H139.25V145V144H129.194V145ZM149.306 145V146H159.361V145V144H149.306V145ZM169.417 145V146H179.472V145V144H169.417V145ZM189.528 145V146H199.583V145V144H189.528V145ZM209.639 145V146H219.694V145V144H209.639V145ZM229.75 145V146H239.806V145V144H229.75V145ZM249.861 145V146H259.917V145V144H249.861V145ZM269.972 145V146H275V145V144H269.972V145ZM275 145V146C276.468 146 277.903 145.856 279.292 145.581L279.098 144.6L278.904 143.619C277.642 143.869 276.337 144 275 144V145ZM286.668 141.463L287.224 142.294C289.623 140.688 291.688 138.623 293.294 136.224L292.463 135.668L291.632 135.112C290.171 137.293 288.293 139.171 286.112 140.632L286.668 141.463ZM295.6 128.098L296.581 128.292C296.856 126.903 297 125.468 297 124H296H295C295 125.337 294.869 126.642 294.619 127.904L295.6 128.098ZM296 124H297V119.45H296H295V124H296ZM296 110.35H297V101.25H296H295V110.35H296ZM296 92.15H297V83.05H296H295V92.15H296ZM296 73.95H297V64.85H296H295V73.95H296ZM296 55.75H297V46.65H296H295V55.75H296ZM296 37.55H297V33H296H295V37.55H296ZM296 33H297C297 31.532 296.856 30.0966 296.581 28.7075L295.6 28.9016L294.619 29.0957C294.869 30.3576 295 31.663 295 33H296ZM292.463 21.3321L293.294 20.7758C291.688 18.3771 289.623 16.3121 287.224 14.7062L286.668 15.5372L286.112 16.3682C288.293 17.8286 290.171 19.707 291.632 21.8884L292.463 21.3321ZM279.098 12.3998L279.292 11.4188C277.903 11.144 276.468 11 275 11V12V13C276.337 13 277.642 13.1311 278.904 13.3807L279.098 12.3998ZM70 106.229H72V104.833L70.6897 104.351L70 106.229ZM70 51.7705L70.6897 53.6478L72 53.1665V51.7705H70ZM275 12V10H269.889V12V14H275V12ZM259.667 12V10H249.444V12V14H259.667V12ZM239.222 12V10H229V12V14H239.222V12ZM218.778 12V10H208.556V12V14H218.778V12ZM198.333 12V10H188.111V12V14H198.333V12ZM177.889 12V10H167.667V12V14H177.889V12ZM157.444 12V10H147.222V12V14H157.444V12ZM137 12V10H126.778V12V14H137V12ZM116.556 12V10H106.333V12V14H116.556V12ZM96.1111 12V10H91V12V14H96.1111V12ZM91 12V10C89.4665 10 87.9661 10.1504 86.5135 10.4377L86.9016 12.3997L87.2897 14.3617C88.4881 14.1246 89.7285 14 91 14V12ZM79.3321 15.5371L78.2194 13.8752C75.7121 15.5538 73.5538 17.7121 71.8752 20.2194L73.5371 21.3321L75.1991 22.4447C76.5868 20.3719 78.3719 18.5868 80.4447 17.1991L79.3321 15.5371ZM70.3997 28.9016L68.4377 28.5135C68.1504 29.9661 68 31.4665 68 33H70H72C72 31.7285 72.1246 30.4881 72.3617 29.2897L70.3997 28.9016ZM70 33H68V37.6926H70H72V33H70ZM70 47.0779H68V51.7705H70H72V47.0779H70ZM70 51.7705L69.3103 49.8932C67.8221 50.4399 66.3876 51.0974 65.017 51.8554L65.9849 53.6056L66.9529 55.3558C68.1464 54.6957 69.3948 54.1235 70.6897 53.6478L70 51.7705ZM59.0152 58.9842L57.5681 57.6036C55.4033 59.8725 53.5787 62.4703 52.1769 65.3153L53.9709 66.1992L55.7649 67.0832C56.9853 64.6066 58.5748 62.343 60.4622 60.3648L59.0152 58.9842ZM51.3321 74.5973L49.3549 74.2961C49.1211 75.8311 49 77.4021 49 79H51H53C53 77.6044 53.1057 76.2348 53.3093 74.8984L51.3321 74.5973ZM51 79H49C49 80.5979 49.1211 82.1688 49.3549 83.7038L51.3321 83.4026L53.3093 83.1014C53.1057 81.7652 53 80.3956 53 79H51ZM53.971 91.8004L52.177 92.6844C53.5788 95.5293 55.4035 98.1269 57.5684 100.396L59.0154 99.015L60.4624 97.6344C58.5749 95.6563 56.9854 93.3929 55.765 90.9163L53.971 91.8004ZM65.985 104.393L65.0171 106.144C66.3877 106.902 67.8221 107.559 69.3103 108.106L70 106.229L70.6897 104.351C69.3949 103.876 68.1465 103.303 66.953 102.643L65.985 104.393ZM70 106.229H68V109.921H70H72V106.229H70ZM70 117.307H68V121H70H72V117.307H70ZM70 121H68C68 122.734 68.17 124.43 68.4948 126.072L70.4568 125.684L72.4188 125.296C72.1443 123.908 72 122.472 72 121H70ZM74.0424 134.335L72.3805 135.447C74.2781 138.282 76.7181 140.722 79.5526 142.62L80.6652 140.958L81.7779 139.296C79.3779 137.689 77.3111 135.622 75.7044 133.222L74.0424 134.335ZM89.3161 144.543L88.928 146.505C90.57 146.83 92.2661 147 94 147V145V143C92.5282 143 91.092 142.856 89.7043 142.581L89.3161 144.543ZM94 145V147H99.0278V145V143H94V145ZM109.083 145V147H119.139V145V143H109.083V145ZM129.194 145V147H139.25V145V143H129.194V145ZM149.306 145V147H159.361V145V143H149.306V145ZM169.417 145V147H179.472V145V143H169.417V145ZM189.528 145V147H199.583V145V143H189.528V145ZM209.639 145V147H219.694V145V143H209.639V145ZM229.75 145V147H239.806V145V143H229.75V145ZM249.861 145V147H259.917V145V143H249.861V145ZM269.972 145V147H275V145V143H269.972V145ZM275 145V147C276.534 147 278.034 146.85 279.487 146.562L279.098 144.6L278.71 142.638C277.512 142.875 276.271 143 275 143V145ZM286.668 141.463L287.781 143.125C290.288 141.446 292.446 139.288 294.125 136.781L292.463 135.668L290.801 134.555C289.413 136.628 287.628 138.413 285.555 139.801L286.668 141.463ZM295.6 128.098L297.562 128.487C297.85 127.034 298 125.534 298 124H296H294C294 125.271 293.875 126.512 293.638 127.71L295.6 128.098ZM296 124H298V119.45H296H294V124H296ZM296 110.35H298V101.25H296H294V110.35H296ZM296 92.15H298V83.05H296H294V92.15H296ZM296 73.95H298V64.85H296H294V73.95H296ZM296 55.75H298V46.65H296H294V55.75H296ZM296 37.55H298V33H296H294V37.55H296ZM296 33H298C298 31.4665 297.85 29.9661 297.562 28.5135L295.6 28.9016L293.638 29.2898C293.875 30.4881 294 31.7285 294 33H296ZM292.463 21.3321L294.125 20.2195C292.446 17.7122 290.288 15.5539 287.781 13.8753L286.668 15.5372L285.555 17.1991C287.628 18.5869 289.413 20.3719 290.801 22.4448L292.463 21.3321ZM279.098 12.3998L279.487 10.4378C278.034 10.1504 276.534 10 275 10V12V14C276.271 14 277.512 14.1246 278.71 14.3617L279.098 12.3998Z" fill="white" fill-opacity="0.26"/>
</g>
</mask>
<g mask="url(#mask0_240_2524)">
<path d="M297 125H51V145H297V125Z" fill="#A0A0A0" fill-opacity="0.87"/>
<path d="M297 12H51V32H297V12Z" fill="#A0A0A0" fill-opacity="0.87"/>
<path d="M297 27H51V130H297V27Z" fill="#0F101B" fill-opacity="0.87"/>
</g>
<mask id="mask2_240_2524" style="mask-type:luminance" maskUnits="userSpaceOnUse" x="58" y="18" width="238" height="121">
<path d="M276.028 18C287.058 18 296 26.5538 296 37.1055V119.896C296 130.447 287.058 139.001 276.028 139.001H100.069C86.8145 139.001 76.0693 128.256 76.0693 115.001V103.729C65.5238 100.022 58.0002 90.3297 58 78.9561C58 67.5821 65.5235 57.8888 76.0693 54.1826V37.1055C76.0693 26.5538 85.0111 18 96.041 18H276.028Z" fill="white"/>
</mask>
<g mask="url(#mask2_240_2524)">
<path d="M76.0693 103.729H77.0693V103.02L76.4009 102.785L76.0693 103.729ZM76.0693 54.1826L76.4009 55.1261L77.0693 54.8911V54.1826H76.0693ZM276.028 18V17H273.029V18V19H276.028V18ZM267.029 18V17H261.029V18V19H267.029V18ZM255.03 18V17H249.03V18V19H255.03V18ZM243.031 18V17H237.031V18V19H243.031V18ZM231.031 18V17H225.032V18V19H231.031V18ZM219.032 18V17H213.033V18V19H219.032V18ZM207.033 18V17H201.034V18V19H207.033V18ZM195.034 18V17H189.034V18V19H195.034V18ZM183.035 18V17H177.035V18V19H183.035V18ZM171.036 18V17H165.036V18V19H171.036V18ZM159.037 18V17H153.037V18V19H159.037V18ZM147.037 18V17H141.038V18V19H147.037V18ZM135.038 18V17H129.039V18V19H135.038V18ZM123.039 18V17H117.04V18V19H123.039V18ZM111.04 18V17H105.04V18V19H111.04V18ZM99.0408 18V17H96.041V18V19H99.0408V18ZM96.041 18V17C95.1354 17 94.2428 17.0551 93.3666 17.162L93.4878 18.1547L93.609 19.1473C94.4049 19.0501 95.2166 19 96.041 19V18ZM88.5379 19.3941L88.1761 18.4618C86.4863 19.1176 84.9056 19.9784 83.4677 21.0125L84.0516 21.8244L84.6354 22.6362C85.9365 21.7006 87.368 20.9208 88.8997 20.3264L88.5379 19.3941ZM80.3274 25.312L79.5547 24.6773C78.4164 26.0633 77.4632 27.5976 76.7323 29.2461L77.6465 29.6514L78.5607 30.0567C79.2167 28.577 80.0738 27.1964 81.1002 25.9466L80.3274 25.312ZM76.2458 34.5544L75.2554 34.4162C75.1327 35.2964 75.0693 36.1941 75.0693 37.1055H76.0693H77.0693C77.0693 36.2868 77.1262 35.4814 77.2362 34.6925L76.2458 34.5544ZM76.0693 37.1055H75.0693V41.3748H76.0693H77.0693V37.1055H76.0693ZM76.0693 49.9133H75.0693V54.1826H76.0693H77.0693V49.9133H76.0693ZM76.0693 54.1826L75.7378 53.2392C74.8449 53.553 73.9729 53.9082 73.1243 54.3025L73.5456 55.2094L73.967 56.1163C74.7572 55.7492 75.5692 55.4183 76.4009 55.1261L76.0693 54.1826ZM68.8582 57.9727L68.2684 57.1651C66.7396 58.2818 65.3315 59.5431 64.0663 60.9281L64.8046 61.6026L65.5429 62.277C66.7176 60.9911 68.0261 59.8188 69.4481 58.7802L68.8582 57.9727ZM61.5646 65.9732L60.7041 65.4637C59.7467 67.081 58.9557 68.8015 58.3539 70.6039L59.3025 70.9206L60.251 71.2372C60.807 69.5717 61.5385 67.9802 62.4251 66.4826L61.5646 65.9732ZM58.1449 76.2351L57.1506 76.1286C57.051 77.0584 57 78.0017 57 78.9561H58H59C59 78.073 59.0472 77.2008 59.1392 76.3416L58.1449 76.2351ZM58 78.9561H57C57 79.9104 57.051 80.8537 57.1506 81.7834L58.1449 81.6769L59.1392 81.5704C59.0472 80.7112 59 79.8392 59 78.9561H58ZM59.3026 86.9913L58.3541 87.308C58.9558 89.1103 59.7469 90.8307 60.7043 92.4479L61.5648 91.9385L62.4253 91.429C61.5387 89.9314 60.8072 88.34 60.2511 86.6746L59.3026 86.9913ZM64.8049 96.3088L64.0666 96.9833C65.3318 98.3683 66.7399 99.6295 68.2686 100.746L68.8585 99.9385L69.4483 99.131C68.0264 98.0924 66.7178 96.9202 65.5432 95.6344L64.8049 96.3088ZM73.5457 102.702L73.1243 103.609C73.9729 104.003 74.8449 104.358 75.7378 104.672L76.0693 103.729L76.4009 102.785C75.5693 102.493 74.7572 102.162 73.9671 101.795L73.5457 102.702ZM76.0693 103.729H75.0693V106.547H76.0693H77.0693V103.729H76.0693ZM76.0693 112.183H75.0693V115.001H76.0693H77.0693V112.183H76.0693ZM76.0693 115.001H75.0693C75.0693 116.107 75.1412 117.196 75.2806 118.265L76.2722 118.136L77.2638 118.006C77.1355 117.023 77.0693 116.02 77.0693 115.001H76.0693ZM77.8905 124.188L76.9667 124.571C77.8098 126.604 78.9131 128.501 80.2348 130.221L81.0278 129.612L81.8207 129.002C80.6042 127.419 79.5894 125.674 78.8142 123.805L77.8905 124.188ZM85.4585 134.043L84.8492 134.835C86.5692 136.157 88.4664 137.261 90.4994 138.104L90.8824 137.18L91.2655 136.256C89.3962 135.481 87.6508 134.466 86.0679 133.25L85.4585 134.043ZM96.9347 138.798L96.8054 139.79C97.8741 139.929 98.9636 140.001 100.069 140.001V139.001V138.001C99.0503 138.001 98.0472 137.935 97.0641 137.807L96.9347 138.798ZM100.069 139.001V140.001H103.002V139.001V138.001H100.069V139.001ZM108.867 139.001V140.001H114.733V139.001V138.001H108.867V139.001ZM120.598 139.001V140.001H126.463V139.001V138.001H120.598V139.001ZM132.328 139.001V140.001H138.194V139.001V138.001H132.328V139.001ZM144.059 139.001V140.001H149.924V139.001V138.001H144.059V139.001ZM155.79 139.001V140.001H161.655V139.001V138.001H155.79V139.001ZM167.52 139.001V140.001H173.386V139.001V138.001H167.52V139.001ZM179.251 139.001V140.001H185.116V139.001V138.001H179.251V139.001ZM190.981 139.001V140.001H196.847V139.001V138.001H190.981V139.001ZM202.712 139.001V140.001H208.577V139.001V138.001H202.712V139.001ZM214.443 139.001V140.001H220.308V139.001V138.001H214.443V139.001ZM226.173 139.001V140.001H232.039V139.001V138.001H226.173V139.001ZM237.904 139.001V140.001H243.769V139.001V138.001H237.904V139.001ZM249.634 139.001V140.001H255.5V139.001V138.001H249.634V139.001ZM261.365 139.001V140.001H267.23V139.001V138.001H261.365V139.001ZM273.096 139.001V140.001H276.028V139.001V138.001H273.096V139.001ZM276.028 139.001V140.001C276.934 140.001 277.827 139.946 278.703 139.839L278.582 138.846L278.46 137.854C277.664 137.951 276.853 138.001 276.028 138.001V139.001ZM283.531 137.607L283.893 138.539C285.583 137.883 287.164 137.023 288.602 135.988L288.018 135.177L287.434 134.365C286.133 135.3 284.701 136.08 283.17 136.675L283.531 137.607ZM291.742 131.689L292.515 132.324C293.653 130.938 294.606 129.403 295.337 127.755L294.423 127.35L293.509 126.944C292.853 128.424 291.996 129.805 290.969 131.054L291.742 131.689ZM295.824 122.447L296.814 122.585C296.937 121.705 297 120.807 297 119.896H296H295C295 120.714 294.943 121.52 294.833 122.308L295.824 122.447ZM296 119.896H297V116.939H296H295V119.896H296ZM296 111.025H297V105.112H296H295V111.025H296ZM296 99.198H297V93.2844H296H295V99.198H296ZM296 87.3708H297V81.4573H296H295V87.3708H296ZM296 75.5437H297V69.6301H296H295V75.5437H296ZM296 63.7166H297V57.803H296H295V63.7166H296ZM296 51.8894H297V45.9758H296H295V51.8894H296ZM296 40.0623H297V37.1055H296H295V40.0623H296ZM296 37.1055H297C297 36.1941 296.937 35.2964 296.814 34.4162L295.824 34.5544L294.833 34.6925C294.943 35.4814 295 36.2869 295 37.1055H296ZM294.423 29.6514L295.337 29.2461C294.606 27.5976 293.653 26.0633 292.515 24.6773L291.742 25.312L290.969 25.9466C291.996 27.1964 292.853 28.577 293.509 30.0567L294.423 29.6514ZM288.018 21.8244L288.602 21.0125C287.164 19.9784 285.583 19.1176 283.893 18.4618L283.531 19.3941L283.17 20.3264C284.701 20.9208 286.133 21.7006 287.434 22.6362L288.018 21.8244ZM278.582 18.1547L278.703 17.162C277.827 17.0551 276.934 17 276.028 17V18V19C276.853 19 277.664 19.0501 278.46 19.1473L278.582 18.1547ZM76.0693 103.729H78.0693V102.312L76.7325 101.842L76.0693 103.729ZM76.0693 54.1826L76.7325 56.0695L78.0693 55.5997V54.1826H76.0693ZM276.028 18V16H273.029V18V20H276.028V18ZM267.029 18V16H261.029V18V20H267.029V18ZM255.03 18V16H249.03V18V20H255.03V18ZM243.031 18V16H237.031V18V20H243.031V18ZM231.031 18V16H225.032V18V20H231.031V18ZM219.032 18V16H213.033V18V20H219.032V18ZM207.033 18V16H201.034V18V20H207.033V18ZM195.034 18V16H189.034V18V20H195.034V18ZM183.035 18V16H177.035V18V20H183.035V18ZM171.036 18V16H165.036V18V20H171.036V18ZM159.037 18V16H153.037V18V20H159.037V18ZM147.037 18V16H141.038V18V20H147.037V18ZM135.038 18V16H129.039V18V20H135.038V18ZM123.039 18V16H117.04V18V20H123.039V18ZM111.04 18V16H105.04V18V20H111.04V18ZM99.0408 18V16H96.041V18V20H99.0408V18ZM96.041 18V16C95.0948 16 94.1618 16.0575 93.2455 16.1694L93.4878 18.1547L93.7302 20.1399C94.4859 20.0477 95.2572 20 96.041 20V18ZM88.5379 19.3941L87.8143 17.5296C86.0455 18.216 84.3902 19.1174 82.8838 20.2006L84.0516 21.8244L85.2193 23.4481C86.4519 22.5616 87.8089 21.8223 89.2615 21.2586L88.5379 19.3941ZM80.3274 25.312L78.7819 24.0426C77.5876 25.4967 76.5864 27.108 75.8181 28.8408L77.6465 29.6514L79.4749 30.4621C80.0935 29.0667 80.9025 27.763 81.873 26.5813L80.3274 25.312ZM76.2458 34.5544L74.265 34.2781C74.1359 35.2038 74.0693 36.1477 74.0693 37.1055H76.0693H78.0693C78.0693 36.3332 78.123 35.574 78.2267 34.8307L76.2458 34.5544ZM76.0693 37.1055H74.0693V41.3748H76.0693H78.0693V37.1055H76.0693ZM76.0693 49.9133H74.0693V54.1826H76.0693H78.0693V49.9133H76.0693ZM76.0693 54.1826L75.4062 52.2957C74.4828 52.6203 73.5808 52.9877 72.7029 53.3957L73.5456 55.2094L74.3884 57.0232C75.1493 56.6697 75.9314 56.351 76.7325 56.0695L76.0693 54.1826ZM68.8582 57.9727L67.6786 56.3576C66.0964 57.5133 64.6384 58.8191 63.328 60.2537L64.8046 61.6026L66.2813 62.9515C67.4107 61.7151 68.6694 60.5873 70.0379 59.5877L68.8582 57.9727ZM61.5646 65.9732L59.8435 64.9543C58.8507 66.6314 58.03 68.4164 57.4054 70.2872L59.3025 70.9206L61.1995 71.5539C61.7327 69.9569 62.4344 68.4299 63.2856 66.992L61.5646 65.9732ZM58.1449 76.2351L56.1563 76.0221C56.0529 76.9872 56 77.966 56 78.9561H58H60C60 78.1086 60.0453 77.272 60.1335 76.4481L58.1449 76.2351ZM58 78.9561H56C56 79.9461 56.0529 80.9249 56.1563 81.8899L58.1449 81.6769L60.1336 81.4639C60.0453 80.64 60 79.8035 60 78.9561H58ZM59.3026 86.9913L57.4055 87.6247C58.0302 89.4955 58.851 91.2804 59.8438 92.9574L61.5648 91.9385L63.2858 90.9196C62.4346 89.4818 61.7329 87.9549 61.1996 86.3579L59.3026 86.9913ZM64.8049 96.3088L63.3283 97.6578C64.6387 99.0923 66.0967 100.398 67.6788 101.554L68.8585 99.9385L70.0381 98.3235C68.6696 97.3239 67.4109 96.1962 66.2815 94.9599L64.8049 96.3088ZM73.5457 102.702L72.7029 104.515C73.5808 104.923 74.4828 105.291 75.4062 105.615L76.0693 103.729L76.7325 101.842C75.9315 101.56 75.1494 101.241 74.3885 100.888L73.5457 102.702ZM76.0693 103.729H74.0693V106.547H76.0693H78.0693V103.729H76.0693ZM76.0693 112.183H74.0693V115.001H76.0693H78.0693V112.183H76.0693ZM76.0693 115.001H74.0693C74.0693 116.15 74.144 117.283 74.289 118.394L76.2722 118.136L78.2554 117.877C78.1327 116.937 78.0693 115.977 78.0693 115.001H76.0693ZM77.8905 124.188L76.043 124.954C76.92 127.069 78.0675 129.042 79.4419 130.83L81.0278 129.612L82.6136 128.393C81.4498 126.879 80.4792 125.209 79.7379 123.422L77.8905 124.188ZM85.4585 134.043L84.2399 135.628C86.0283 137.003 88.0015 138.15 90.1163 139.027L90.8824 137.18L91.6485 135.332C89.8611 134.591 88.1917 133.621 86.6772 132.457L85.4585 134.043ZM96.9347 138.798L96.676 140.781C97.7875 140.926 98.9202 141.001 100.069 141.001V139.001V137.001C99.0937 137.001 98.1338 136.938 97.1934 136.815L96.9347 138.798ZM100.069 139.001V141.001H103.002V139.001V137.001H100.069V139.001ZM108.867 139.001V141.001H114.733V139.001V137.001H108.867V139.001ZM120.598 139.001V141.001H126.463V139.001V137.001H120.598V139.001ZM132.328 139.001V141.001H138.194V139.001V137.001H132.328V139.001ZM144.059 139.001V141.001H149.924V139.001V137.001H144.059V139.001ZM155.79 139.001V141.001H161.655V139.001V137.001H155.79V139.001ZM167.52 139.001V141.001H173.386V139.001V137.001H167.52V139.001ZM179.251 139.001V141.001H185.116V139.001V137.001H179.251V139.001ZM190.981 139.001V141.001H196.847V139.001V137.001H190.981V139.001ZM202.712 139.001V141.001H208.577V139.001V137.001H202.712V139.001ZM214.443 139.001V141.001H220.308V139.001V137.001H214.443V139.001ZM226.173 139.001V141.001H232.039V139.001V137.001H226.173V139.001ZM237.904 139.001V141.001H243.769V139.001V137.001H237.904V139.001ZM249.634 139.001V141.001H255.5V139.001V137.001H249.634V139.001ZM261.365 139.001V141.001H267.23V139.001V137.001H261.365V139.001ZM273.096 139.001V141.001H276.028V139.001V137.001H273.096V139.001ZM276.028 139.001V141.001C276.974 141.001 277.908 140.943 278.824 140.832L278.582 138.846L278.339 136.861C277.583 136.953 276.812 137.001 276.028 137.001V139.001ZM283.531 137.607L284.255 139.471C286.024 138.785 287.679 137.884 289.185 136.8L288.018 135.177L286.85 133.553C285.617 134.439 284.26 135.179 282.808 135.742L283.531 137.607ZM291.742 131.689L293.287 132.958C294.482 131.504 295.483 129.893 296.251 128.16L294.423 127.35L292.594 126.539C291.976 127.934 291.167 129.238 290.196 130.42L291.742 131.689ZM295.824 122.447L297.804 122.723C297.933 121.797 298 120.853 298 119.896H296H294C294 120.668 293.946 121.427 293.843 122.17L295.824 122.447ZM296 119.896H298V116.939H296H294V119.896H296ZM296 111.025H298V105.112H296H294V111.025H296ZM296 99.198H298V93.2844H296H294V99.198H296ZM296 87.3708H298V81.4573H296H294V87.3708H296ZM296 75.5437H298V69.6301H296H294V75.5437H296ZM296 63.7166H298V57.803H296H294V63.7166H296ZM296 51.8894H298V45.9758H296H294V51.8894H296ZM296 40.0623H298V37.1055H296H294V40.0623H296ZM296 37.1055H298C298 36.1477 297.933 35.2038 297.804 34.2781L295.824 34.5544L293.843 34.8307C293.946 35.574 294 36.3332 294 37.1055H296ZM294.423 29.6514L296.251 28.8408C295.483 27.108 294.482 25.4967 293.287 24.0426L291.742 25.312L290.196 26.5813C291.167 27.763 291.976 29.0667 292.594 30.4621L294.423 29.6514ZM288.018 21.8244L289.185 20.2006C287.679 19.1174 286.024 18.216 284.255 17.5296L283.531 19.3941L282.808 21.2586C284.26 21.8223 285.617 22.5616 286.85 23.4481L288.018 21.8244ZM278.582 18.1547L278.824 16.1694C277.908 16.0575 276.974 16 276.028 16V18V20C276.812 20 277.583 20.0477 278.339 20.1399L278.582 18.1547Z" fill="#373737" fill-opacity="0.47"/>
</g>
<mask id="mask3_240_2524" style="mask-type:luminance" maskUnits="userSpaceOnUse" x="58" y="18" width="238" height="121">
<path d="M276.028 18C287.058 18 296 26.5538 296 37.1055V119.896C296 130.447 287.058 139.001 276.028 139.001H100.069C86.8145 139.001 76.0693 128.256 76.0693 115.001V103.729C65.5238 100.022 58.0002 90.3297 58 78.9561C58 67.5821 65.5235 57.8888 76.0693 54.1826V37.1055C76.0693 26.5538 85.0111 18 96.041 18H276.028Z" fill="white"/>
</mask>
<g mask="url(#mask3_240_2524)">
<path d="M76.0693 103.729H77.0693V103.02L76.4009 102.785L76.0693 103.729ZM76.0693 54.1826L76.4009 55.1261L77.0693 54.8911V54.1826H76.0693ZM276.028 18V17H273.029V18V19H276.028V18ZM267.029 18V17H261.029V18V19H267.029V18ZM255.03 18V17H249.03V18V19H255.03V18ZM243.031 18V17H237.031V18V19H243.031V18ZM231.031 18V17H225.032V18V19H231.031V18ZM219.032 18V17H213.033V18V19H219.032V18ZM207.033 18V17H201.034V18V19H207.033V18ZM195.034 18V17H189.034V18V19H195.034V18ZM183.035 18V17H177.035V18V19H183.035V18ZM171.036 18V17H165.036V18V19H171.036V18ZM159.037 18V17H153.037V18V19H159.037V18ZM147.037 18V17H141.038V18V19H147.037V18ZM135.038 18V17H129.039V18V19H135.038V18ZM123.039 18V17H117.04V18V19H123.039V18ZM111.04 18V17H105.04V18V19H111.04V18ZM99.0408 18V17H96.041V18V19H99.0408V18ZM96.041 18V17C95.1354 17 94.2428 17.0551 93.3666 17.162L93.4878 18.1547L93.609 19.1473C94.4049 19.0501 95.2166 19 96.041 19V18ZM88.5379 19.3941L88.1761 18.4618C86.4863 19.1176 84.9056 19.9784 83.4677 21.0125L84.0516 21.8244L84.6354 22.6362C85.9365 21.7006 87.368 20.9208 88.8997 20.3264L88.5379 19.3941ZM80.3274 25.312L79.5547 24.6773C78.4164 26.0633 77.4632 27.5976 76.7323 29.2461L77.6465 29.6514L78.5607 30.0567C79.2167 28.577 80.0738 27.1964 81.1002 25.9466L80.3274 25.312ZM76.2458 34.5544L75.2554 34.4162C75.1327 35.2964 75.0693 36.1941 75.0693 37.1055H76.0693H77.0693C77.0693 36.2868 77.1262 35.4814 77.2362 34.6925L76.2458 34.5544ZM76.0693 37.1055H75.0693V41.3748H76.0693H77.0693V37.1055H76.0693ZM76.0693 49.9133H75.0693V54.1826H76.0693H77.0693V49.9133H76.0693ZM76.0693 54.1826L75.7378 53.2392C74.8449 53.553 73.9729 53.9082 73.1243 54.3025L73.5456 55.2094L73.967 56.1163C74.7572 55.7492 75.5692 55.4183 76.4009 55.1261L76.0693 54.1826ZM68.8582 57.9727L68.2684 57.1651C66.7396 58.2818 65.3315 59.5431 64.0663 60.9281L64.8046 61.6026L65.5429 62.277C66.7176 60.9911 68.0261 59.8188 69.4481 58.7802L68.8582 57.9727ZM61.5646 65.9732L60.7041 65.4637C59.7467 67.081 58.9557 68.8015 58.3539 70.6039L59.3025 70.9206L60.251 71.2372C60.807 69.5717 61.5385 67.9802 62.4251 66.4826L61.5646 65.9732ZM58.1449 76.2351L57.1506 76.1286C57.051 77.0584 57 78.0017 57 78.9561H58H59C59 78.073 59.0472 77.2008 59.1392 76.3416L58.1449 76.2351ZM58 78.9561H57C57 79.9104 57.051 80.8537 57.1506 81.7834L58.1449 81.6769L59.1392 81.5704C59.0472 80.7112 59 79.8392 59 78.9561H58ZM59.3026 86.9913L58.3541 87.308C58.9558 89.1103 59.7469 90.8307 60.7043 92.4479L61.5648 91.9385L62.4253 91.429C61.5387 89.9314 60.8072 88.34 60.2511 86.6746L59.3026 86.9913ZM64.8049 96.3088L64.0666 96.9833C65.3318 98.3683 66.7399 99.6295 68.2686 100.746L68.8585 99.9385L69.4483 99.131C68.0264 98.0924 66.7178 96.9202 65.5432 95.6344L64.8049 96.3088ZM73.5457 102.702L73.1243 103.609C73.9729 104.003 74.8449 104.358 75.7378 104.672L76.0693 103.729L76.4009 102.785C75.5693 102.493 74.7572 102.162 73.9671 101.795L73.5457 102.702ZM76.0693 103.729H75.0693V106.547H76.0693H77.0693V103.729H76.0693ZM76.0693 112.183H75.0693V115.001H76.0693H77.0693V112.183H76.0693ZM76.0693 115.001H75.0693C75.0693 116.107 75.1412 117.196 75.2806 118.265L76.2722 118.136L77.2638 118.006C77.1355 117.023 77.0693 116.02 77.0693 115.001H76.0693ZM77.8905 124.188L76.9667 124.571C77.8098 126.604 78.9131 128.501 80.2348 130.221L81.0278 129.612L81.8207 129.002C80.6042 127.419 79.5894 125.674 78.8142 123.805L77.8905 124.188ZM85.4585 134.043L84.8492 134.835C86.5692 136.157 88.4664 137.261 90.4994 138.104L90.8824 137.18L91.2655 136.256C89.3962 135.481 87.6508 134.466 86.0679 133.25L85.4585 134.043ZM96.9347 138.798L96.8054 139.79C97.8741 139.929 98.9636 140.001 100.069 140.001V139.001V138.001C99.0503 138.001 98.0472 137.935 97.0641 137.807L96.9347 138.798ZM100.069 139.001V140.001H103.002V139.001V138.001H100.069V139.001ZM108.867 139.001V140.001H114.733V139.001V138.001H108.867V139.001ZM120.598 139.001V140.001H126.463V139.001V138.001H120.598V139.001ZM132.328 139.001V140.001H138.194V139.001V138.001H132.328V139.001ZM144.059 139.001V140.001H149.924V139.001V138.001H144.059V139.001ZM155.79 139.001V140.001H161.655V139.001V138.001H155.79V139.001ZM167.52 139.001V140.001H173.386V139.001V138.001H167.52V139.001ZM179.251 139.001V140.001H185.116V139.001V138.001H179.251V139.001ZM190.981 139.001V140.001H196.847V139.001V138.001H190.981V139.001ZM202.712 139.001V140.001H208.577V139.001V138.001H202.712V139.001ZM214.443 139.001V140.001H220.308V139.001V138.001H214.443V139.001ZM226.173 139.001V140.001H232.039V139.001V138.001H226.173V139.001ZM237.904 139.001V140.001H243.769V139.001V138.001H237.904V139.001ZM249.634 139.001V140.001H255.5V139.001V138.001H249.634V139.001ZM261.365 139.001V140.001H267.23V139.001V138.001H261.365V139.001ZM273.096 139.001V140.001H276.028V139.001V138.001H273.096V139.001ZM276.028 139.001V140.001C276.934 140.001 277.827 139.946 278.703 139.839L278.582 138.846L278.46 137.854C277.664 137.951 276.853 138.001 276.028 138.001V139.001ZM283.531 137.607L283.893 138.539C285.583 137.883 287.164 137.023 288.602 135.988L288.018 135.177L287.434 134.365C286.133 135.3 284.701 136.08 283.17 136.675L283.531 137.607ZM291.742 131.689L292.515 132.324C293.653 130.938 294.606 129.403 295.337 127.755L294.423 127.35L293.509 126.944C292.853 128.424 291.996 129.805 290.969 131.054L291.742 131.689ZM295.824 122.447L296.814 122.585C296.937 121.705 297 120.807 297 119.896H296H295C295 120.714 294.943 121.52 294.833 122.308L295.824 122.447ZM296 119.896H297V116.939H296H295V119.896H296ZM296 111.025H297V105.112H296H295V111.025H296ZM296 99.198H297V93.2844H296H295V99.198H296ZM296 87.3708H297V81.4573H296H295V87.3708H296ZM296 75.5437H297V69.6301H296H295V75.5437H296ZM296 63.7166H297V57.803H296H295V63.7166H296ZM296 51.8894H297V45.9758H296H295V51.8894H296ZM296 40.0623H297V37.1055H296H295V40.0623H296ZM296 37.1055H297C297 36.1941 296.937 35.2964 296.814 34.4162L295.824 34.5544L294.833 34.6925C294.943 35.4814 295 36.2869 295 37.1055H296ZM294.423 29.6514L295.337 29.2461C294.606 27.5976 293.653 26.0633 292.515 24.6773L291.742 25.312L290.969 25.9466C291.996 27.1964 292.853 28.577 293.509 30.0567L294.423 29.6514ZM288.018 21.8244L288.602 21.0125C287.164 19.9784 285.583 19.1176 283.893 18.4618L283.531 19.3941L283.17 20.3264C284.701 20.9208 286.133 21.7006 287.434 22.6362L288.018 21.8244ZM278.582 18.1547L278.703 17.162C277.827 17.0551 276.934 17 276.028 17V18V19C276.853 19 277.664 19.0501 278.46 19.1473L278.582 18.1547ZM76.0693 103.729H78.0693V102.312L76.7325 101.842L76.0693 103.729ZM76.0693 54.1826L76.7325 56.0695L78.0693 55.5997V54.1826H76.0693ZM276.028 18V16H273.029V18V20H276.028V18ZM267.029 18V16H261.029V18V20H267.029V18ZM255.03 18V16H249.03V18V20H255.03V18ZM243.031 18V16H237.031V18V20H243.031V18ZM231.031 18V16H225.032V18V20H231.031V18ZM219.032 18V16H213.033V18V20H219.032V18ZM207.033 18V16H201.034V18V20H207.033V18ZM195.034 18V16H189.034V18V20H195.034V18ZM183.035 18V16H177.035V18V20H183.035V18ZM171.036 18V16H165.036V18V20H171.036V18ZM159.037 18V16H153.037V18V20H159.037V18ZM147.037 18V16H141.038V18V20H147.037V18ZM135.038 18V16H129.039V18V20H135.038V18ZM123.039 18V16H117.04V18V20H123.039V18ZM111.04 18V16H105.04V18V20H111.04V18ZM99.0408 18V16H96.041V18V20H99.0408V18ZM96.041 18V16C95.0948 16 94.1618 16.0575 93.2455 16.1694L93.4878 18.1547L93.7302 20.1399C94.4859 20.0477 95.2572 20 96.041 20V18ZM88.5379 19.3941L87.8143 17.5296C86.0455 18.216 84.3902 19.1174 82.8838 20.2006L84.0516 21.8244L85.2193 23.4481C86.4519 22.5616 87.8089 21.8223 89.2615 21.2586L88.5379 19.3941ZM80.3274 25.312L78.7819 24.0426C77.5876 25.4967 76.5864 27.108 75.8181 28.8408L77.6465 29.6514L79.4749 30.4621C80.0935 29.0667 80.9025 27.763 81.873 26.5813L80.3274 25.312ZM76.2458 34.5544L74.265 34.2781C74.1359 35.2038 74.0693 36.1477 74.0693 37.1055H76.0693H78.0693C78.0693 36.3332 78.123 35.574 78.2267 34.8307L76.2458 34.5544ZM76.0693 37.1055H74.0693V41.3748H76.0693H78.0693V37.1055H76.0693ZM76.0693 49.9133H74.0693V54.1826H76.0693H78.0693V49.9133H76.0693ZM76.0693 54.1826L75.4062 52.2957C74.4828 52.6203 73.5808 52.9877 72.7029 53.3957L73.5456 55.2094L74.3884 57.0232C75.1493 56.6697 75.9314 56.351 76.7325 56.0695L76.0693 54.1826ZM68.8582 57.9727L67.6786 56.3576C66.0964 57.5133 64.6384 58.8191 63.328 60.2537L64.8046 61.6026L66.2813 62.9515C67.4107 61.7151 68.6694 60.5873 70.0379 59.5877L68.8582 57.9727ZM61.5646 65.9732L59.8435 64.9543C58.8507 66.6314 58.03 68.4164 57.4054 70.2872L59.3025 70.9206L61.1995 71.5539C61.7327 69.9569 62.4344 68.4299 63.2856 66.992L61.5646 65.9732ZM58.1449 76.2351L56.1563 76.0221C56.0529 76.9872 56 77.966 56 78.9561H58H60C60 78.1086 60.0453 77.272 60.1335 76.4481L58.1449 76.2351ZM58 78.9561H56C56 79.9461 56.0529 80.9249 56.1563 81.8899L58.1449 81.6769L60.1336 81.4639C60.0453 80.64 60 79.8035 60 78.9561H58ZM59.3026 86.9913L57.4055 87.6247C58.0302 89.4955 58.851 91.2804 59.8438 92.9574L61.5648 91.9385L63.2858 90.9196C62.4346 89.4818 61.7329 87.9549 61.1996 86.3579L59.3026 86.9913ZM64.8049 96.3088L63.3283 97.6578C64.6387 99.0923 66.0967 100.398 67.6788 101.554L68.8585 99.9385L70.0381 98.3235C68.6696 97.3239 67.4109 96.1962 66.2815 94.9599L64.8049 96.3088ZM73.5457 102.702L72.7029 104.515C73.5808 104.923 74.4828 105.291 75.4062 105.615L76.0693 103.729L76.7325 101.842C75.9315 101.56 75.1494 101.241 74.3885 100.888L73.5457 102.702ZM76.0693 103.729H74.0693V106.547H76.0693H78.0693V103.729H76.0693ZM76.0693 112.183H74.0693V115.001H76.0693H78.0693V112.183H76.0693ZM76.0693 115.001H74.0693C74.0693 116.15 74.144 117.283 74.289 118.394L76.2722 118.136L78.2554 117.877C78.1327 116.937 78.0693 115.977 78.0693 115.001H76.0693ZM77.8905 124.188L76.043 124.954C76.92 127.069 78.0675 129.042 79.4419 130.83L81.0278 129.612L82.6136 128.393C81.4498 126.879 80.4792 125.209 79.7379 123.422L77.8905 124.188ZM85.4585 134.043L84.2399 135.628C86.0283 137.003 88.0015 138.15 90.1163 139.027L90.8824 137.18L91.6485 135.332C89.8611 134.591 88.1917 133.621 86.6772 132.457L85.4585 134.043ZM96.9347 138.798L96.676 140.781C97.7875 140.926 98.9202 141.001 100.069 141.001V139.001V137.001C99.0937 137.001 98.1338 136.938 97.1934 136.815L96.9347 138.798ZM100.069 139.001V141.001H103.002V139.001V137.001H100.069V139.001ZM108.867 139.001V141.001H114.733V139.001V137.001H108.867V139.001ZM120.598 139.001V141.001H126.463V139.001V137.001H120.598V139.001ZM132.328 139.001V141.001H138.194V139.001V137.001H132.328V139.001ZM144.059 139.001V141.001H149.924V139.001V137.001H144.059V139.001ZM155.79 139.001V141.001H161.655V139.001V137.001H155.79V139.001ZM167.52 139.001V141.001H173.386V139.001V137.001H167.52V139.001ZM179.251 139.001V141.001H185.116V139.001V137.001H179.251V139.001ZM190.981 139.001V141.001H196.847V139.001V137.001H190.981V139.001ZM202.712 139.001V141.001H208.577V139.001V137.001H202.712V139.001ZM214.443 139.001V141.001H220.308V139.001V137.001H214.443V139.001ZM226.173 139.001V141.001H232.039V139.001V137.001H226.173V139.001ZM237.904 139.001V141.001H243.769V139.001V137.001H237.904V139.001ZM249.634 139.001V141.001H255.5V139.001V137.001H249.634V139.001ZM261.365 139.001V141.001H267.23V139.001V137.001H261.365V139.001ZM273.096 139.001V141.001H276.028V139.001V137.001H273.096V139.001ZM276.028 139.001V141.001C276.974 141.001 277.908 140.943 278.824 140.832L278.582 138.846L278.339 136.861C277.583 136.953 276.812 137.001 276.028 137.001V139.001ZM283.531 137.607L284.255 139.471C286.024 138.785 287.679 137.884 289.185 136.8L288.018 135.177L286.85 133.553C285.617 134.439 284.26 135.179 282.808 135.742L283.531 137.607ZM291.742 131.689L293.287 132.958C294.482 131.504 295.483 129.893 296.251 128.16L294.423 127.35L292.594 126.539C291.976 127.934 291.167 129.238 290.196 130.42L291.742 131.689ZM295.824 122.447L297.804 122.723C297.933 121.797 298 120.853 298 119.896H296H294C294 120.668 293.946 121.427 293.843 122.17L295.824 122.447ZM296 119.896H298V116.939H296H294V119.896H296ZM296 111.025H298V105.112H296H294V111.025H296ZM296 99.198H298V93.2844H296H294V99.198H296ZM296 87.3708H298V81.4573H296H294V87.3708H296ZM296 75.5437H298V69.6301H296H294V75.5437H296ZM296 63.7166H298V57.803H296H294V63.7166H296ZM296 51.8894H298V45.9758H296H294V51.8894H296ZM296 40.0623H298V37.1055H296H294V40.0623H296ZM296 37.1055H298C298 36.1477 297.933 35.2038 297.804 34.2781L295.824 34.5544L293.843 34.8307C293.946 35.574 294 36.3332 294 37.1055H296ZM294.423 29.6514L296.251 28.8408C295.483 27.108 294.482 25.4967 293.287 24.0426L291.742 25.312L290.196 26.5813C291.167 27.763 291.976 29.0667 292.594 30.4621L294.423 29.6514ZM288.018 21.8244L289.185 20.2006C287.679 19.1174 286.024 18.216 284.255 17.5296L283.531 19.3941L282.808 21.2586C284.26 21.8223 285.617 22.5616 286.85 23.4481L288.018 21.8244ZM278.582 18.1547L278.824 16.1694C277.908 16.0575 276.974 16 276.028 16V18V20C276.812 20 277.583 20.0477 278.339 20.1399L278.582 18.1547Z" fill="white" fill-opacity="0.24"/>
</g>
<path d="M276 138.316L293.124 130.022L276 121.728L293.124 113.433L276 105.138L293.124 96.8437L276 88.5488L293.124 80.2539L276 71.959L293.124 63.665L276 55.3701L293.124 47.0761L276 38.7812L293.124 30.4863L276 22.1914L287.971 16.3945C293.444 20.3965 297 26.8644 297 34.164V123.164C297 131.678 292.163 139.06 285.089 142.718L276 138.316Z" fill="#6C5A5A"/>
<path d="M34 28.125H24C18.4772 28.125 14 31.0481 14 34.6539V120.346C14 123.952 18.4772 126.875 24 126.875H34C39.5228 126.875 44 123.952 44 120.346V34.6539C44 31.0481 39.5228 28.125 34 28.125Z" fill="#AEAEAE" fill-opacity="0.24"/>
<g clip-path="url(#clip1_240_2524)">
<path d="M25.8334 45.8099C26.0393 45.8857 26.1693 46.0102 26.2234 46.1836C26.2884 46.357 26.2613 46.5302 26.1422 46.7036C25.7847 47.2995 25.4272 47.8302 25.0697 48.2961C24.7231 48.7511 24.3601 49.1845 23.9809 49.5961C23.6126 50.0077 23.1956 50.4302 22.7297 50.8636C22.5456 51.0261 22.3613 51.0911 22.1772 51.0586C21.9931 51.0152 21.8468 50.8907 21.7384 50.6849L21.6897 50.5874C21.5813 50.3707 21.5543 50.1486 21.6084 49.9211C21.6626 49.6936 21.7818 49.4986 21.9659 49.3361C22.2693 49.087 22.5401 48.8486 22.7784 48.6211C23.0276 48.3827 23.2551 48.1445 23.4609 47.9061C23.6776 47.657 23.8888 47.397 24.0947 47.1261C24.3006 46.8445 24.5172 46.5195 24.7447 46.1511C24.8747 45.9777 25.0372 45.8586 25.2322 45.7936C25.4272 45.7286 25.6276 45.734 25.8334 45.8099ZM25.5247 42.2186C25.7413 42.3052 25.8768 42.4352 25.9309 42.6086C25.9851 42.7711 25.9363 42.9445 25.7847 43.1286C25.5572 43.4427 25.3351 43.7245 25.1184 43.9736C24.9018 44.2227 24.6851 44.4611 24.4684 44.6886C24.2518 44.9161 24.0134 45.1382 23.7534 45.3549C23.5043 45.5715 23.2281 45.8045 22.9247 46.0536C22.7513 46.1836 22.5726 46.2324 22.3884 46.1999C22.2043 46.1565 22.0472 46.0374 21.9172 45.8424C21.8088 45.6474 21.7709 45.4577 21.8034 45.2736C21.8468 45.0786 21.9551 44.9052 22.1284 44.7536C22.3884 44.5695 22.6593 44.3474 22.9409 44.0874C23.2226 43.8274 23.4881 43.5674 23.7372 43.3074C23.9863 43.0365 24.1813 42.7927 24.3222 42.5761C24.4738 42.392 24.6526 42.2674 24.8584 42.2024C25.0751 42.1374 25.2972 42.1427 25.5247 42.2186ZM25.1022 47.3374L25.1834 47.3699V56.2099C25.1834 56.4482 25.1076 56.6377 24.9559 56.7786C24.8151 56.9195 24.6256 56.9899 24.3872 56.9899C24.1488 56.9899 23.9593 56.9195 23.8184 56.7786C23.6776 56.6377 23.6072 56.4482 23.6072 56.2099V48.8324L25.1022 47.3374ZM34.8359 49.7586C35.0526 49.7586 35.2259 49.829 35.3559 49.9699C35.4968 50.0999 35.5672 50.2786 35.5672 50.5061C35.5672 50.7227 35.4968 50.8961 35.3559 51.0261C35.2259 51.1561 35.0526 51.2211 34.8359 51.2211H27.9134C27.6968 51.2211 27.5234 51.1561 27.3934 51.0261C27.2634 50.8852 27.1984 50.7011 27.1984 50.4736C27.1984 50.257 27.2634 50.0836 27.3934 49.9536C27.5234 49.8236 27.6968 49.7586 27.9134 49.7586H34.8359ZM35.7784 55.0399C35.9951 55.0399 36.1684 55.1102 36.2984 55.2511C36.4284 55.3811 36.4934 55.5599 36.4934 55.7874C36.4934 56.004 36.4284 56.1774 36.2984 56.3074C36.1684 56.4374 35.9951 56.5024 35.7784 56.5024H26.8572C26.6406 56.5024 26.4672 56.432 26.3372 56.2911C26.2072 56.1611 26.1422 55.9824 26.1422 55.7549C26.1422 55.5382 26.2072 55.3649 26.3372 55.2349C26.4672 55.1049 26.6406 55.0399 26.8572 55.0399H35.7784ZM35.3559 44.9811C35.5726 44.9811 35.7459 45.0515 35.8759 45.1924C36.0059 45.3224 36.0709 45.5011 36.0709 45.7286C36.0709 45.9452 36.0059 46.1186 35.8759 46.2486C35.7459 46.3786 35.5726 46.4436 35.3559 46.4436H27.3447C27.1281 46.4436 26.9547 46.3786 26.8247 46.2486C26.6947 46.1077 26.6297 45.9236 26.6297 45.6961C26.6297 45.4795 26.6947 45.3061 26.8247 45.1761C26.9547 45.0461 27.1281 44.9811 27.3447 44.9811H35.3559ZM32.2034 45.8099V55.6899H30.6109V45.8099H32.2034ZM30.4809 42.0724C30.6868 42.0074 30.8872 42.0127 31.0822 42.0886C31.2881 42.1536 31.4397 42.2782 31.5372 42.4624C31.6997 42.7115 31.8351 42.9336 31.9434 43.1286C32.0518 43.3127 32.1438 43.5024 32.2197 43.6974C32.3281 43.914 32.3334 44.1199 32.2359 44.3149C32.1493 44.499 31.9922 44.6345 31.7647 44.7211C31.5481 44.797 31.3476 44.7915 31.1634 44.7049C30.9901 44.6182 30.8601 44.4665 30.7734 44.2499C30.6759 44.0224 30.5784 43.8165 30.4809 43.6324C30.3834 43.4482 30.2588 43.2315 30.1072 42.9824C30.0097 42.7874 29.9934 42.6086 30.0584 42.4461C30.1234 42.2727 30.2643 42.1482 30.4809 42.0724ZM35.4372 63.5849C35.6647 63.5849 35.8434 63.6552 35.9734 63.7961C36.1034 63.9261 36.1684 64.1102 36.1684 64.3486C36.1684 64.5652 36.1034 64.744 35.9734 64.8849C35.8434 65.0149 35.6647 65.0799 35.4372 65.0799H22.6159C22.3993 65.0799 22.2206 65.0149 22.0797 64.8849C21.9388 64.744 21.8684 64.5545 21.8684 64.3161C21.8684 64.0886 21.9388 63.9099 22.0797 63.7799C22.2206 63.6499 22.3993 63.5849 22.6159 63.5849H35.4372ZM28.1734 60.8061C28.4226 60.8495 28.6013 60.9577 28.7097 61.1311C28.8181 61.3045 28.8397 61.5102 28.7747 61.7486C28.4172 63.1461 28.0001 64.4624 27.5234 65.6974C27.0468 66.9324 26.4401 68.0861 25.7034 69.1586C24.9776 70.2202 24.0622 71.2007 22.9572 72.0999C22.7838 72.2515 22.5888 72.3165 22.3722 72.2949C22.1663 72.2624 21.9822 72.154 21.8197 71.9699C21.6681 71.7857 21.6031 71.5961 21.6247 71.4011C21.6572 71.2061 21.7601 71.0327 21.9334 70.8811C22.9626 70.0686 23.8131 69.1749 24.4847 68.1999C25.1563 67.2249 25.7034 66.174 26.1259 65.0474C26.5484 63.9207 26.9059 62.7182 27.1984 61.4399C27.2526 61.2015 27.3663 61.0282 27.5397 60.9199C27.7238 60.8007 27.9351 60.7627 28.1734 60.8061ZM25.1509 68.9961C25.1509 68.7036 25.2431 68.4652 25.4272 68.2811C25.6113 68.097 25.8497 68.0049 26.1422 68.0049H34.0397C34.3322 68.0049 34.5706 68.097 34.7547 68.2811C34.9388 68.4652 35.0309 68.7036 35.0309 68.9961V74.3261C35.0309 74.6077 34.9388 74.8407 34.7547 75.0249C34.5706 75.2199 34.3322 75.3174 34.0397 75.3174H26.1422C25.8497 75.3174 25.6113 75.2199 25.4272 75.0249C25.2431 74.8407 25.1509 74.6077 25.1509 74.3261V68.9961ZM27.1822 69.4836C27.0413 69.4836 26.9222 69.5324 26.8247 69.6299C26.7381 69.7274 26.6947 69.8465 26.6947 69.9874V73.3186C26.6947 73.4595 26.7381 73.5786 26.8247 73.6761C26.9222 73.7627 27.0413 73.8061 27.1822 73.8061H32.9022C33.0538 73.8061 33.1731 73.7627 33.2597 73.6761C33.3572 73.5786 33.4059 73.4595 33.4059 73.3186V69.9874C33.4059 69.8465 33.3572 69.7274 33.2597 69.6299C33.1731 69.5324 33.0538 69.4836 32.9022 69.4836H27.1822ZM30.6759 81.6686C30.8601 81.6686 31.0063 81.7282 31.1147 81.8474C31.2338 81.9665 31.2934 82.1236 31.2934 82.3186C31.2934 82.5027 31.2338 82.6545 31.1147 82.7736C31.0063 82.882 30.8601 82.9361 30.6759 82.9361H26.3209C26.1368 82.9361 25.9851 82.882 25.8659 82.7736C25.7576 82.6545 25.7034 82.4974 25.7034 82.3024C25.7034 82.1182 25.7576 81.9665 25.8659 81.8474C25.9851 81.7282 26.1368 81.6686 26.3209 81.6686H30.6759ZM27.1497 79.5561C27.3122 79.5561 27.4476 79.6102 27.5559 79.7186C27.6643 79.827 27.7184 79.9677 27.7184 80.1411V89.9399H26.5484V80.1411C26.5484 79.9677 26.5972 79.827 26.6947 79.7186C26.8031 79.6102 26.9547 79.5561 27.1497 79.5561ZM29.9609 79.5561C30.1343 79.5561 30.2751 79.6102 30.3834 79.7186C30.4918 79.827 30.5459 79.9677 30.5459 80.1411V89.9074H29.3434V80.1411C29.3434 79.9677 29.3976 79.827 29.5059 79.7186C29.6251 79.6102 29.7768 79.5561 29.9609 79.5561ZM30.0584 84.2524V85.3574H27.1172V84.2524H30.0584ZM27.4259 90.8986C27.6101 90.9527 27.7401 91.0502 27.8159 91.1911C27.8918 91.332 27.8972 91.489 27.8322 91.6624C27.7347 91.9115 27.6101 92.1824 27.4584 92.4749C27.3176 92.7674 27.1659 93.0436 27.0034 93.3036C26.8518 93.5745 26.7109 93.7911 26.5809 93.9536C26.4834 94.1161 26.3481 94.2136 26.1747 94.2461C26.0013 94.2786 25.8334 94.2352 25.6709 94.1161C25.5084 94.0077 25.4163 93.8724 25.3947 93.7099C25.3838 93.5474 25.4272 93.3902 25.5247 93.2386C25.6656 93.0761 25.8009 92.8865 25.9309 92.6699C26.0609 92.4532 26.1801 92.2311 26.2884 92.0036C26.4076 91.7761 26.5051 91.554 26.5809 91.3374C26.6568 91.164 26.7651 91.0395 26.9059 90.9636C27.0576 90.877 27.2309 90.8552 27.4259 90.8986ZM29.1809 90.9149C29.3434 90.839 29.5006 90.8227 29.6522 90.8661C29.8147 90.8986 29.9447 90.9852 30.0422 91.1261C30.1722 91.2995 30.2751 91.4565 30.3509 91.5974C30.4376 91.7382 30.5188 91.8845 30.5947 92.0361C30.6922 92.1877 30.7084 92.3449 30.6434 92.5074C30.5784 92.6699 30.4593 92.789 30.2859 92.8649C30.1343 92.9515 29.9826 92.9677 29.8309 92.9136C29.6901 92.8595 29.5763 92.7511 29.4897 92.5886C29.4138 92.4152 29.3326 92.2636 29.2459 92.1336C29.1701 91.9927 29.0726 91.8302 28.9534 91.6461C28.8668 91.4945 28.8397 91.3536 28.8722 91.2236C28.9156 91.0936 29.0184 90.9907 29.1809 90.9149ZM31.6997 81.8961C31.6997 81.6036 31.7863 81.3382 31.9597 81.0999C32.1331 80.8615 32.3551 80.6882 32.6259 80.5799C32.9509 80.4499 33.2597 80.3199 33.5522 80.1899C33.8556 80.0599 34.1156 79.9299 34.3322 79.7999C34.5488 79.6915 34.7763 79.6427 35.0147 79.6536C35.2638 79.6645 35.4859 79.7457 35.6809 79.8974C35.8651 80.049 35.9518 80.2061 35.9409 80.3686C35.9301 80.5202 35.8109 80.6502 35.5834 80.7586C35.4101 80.8452 35.1988 80.9427 34.9497 81.0511C34.7006 81.1595 34.4459 81.2624 34.1859 81.3599C33.9259 81.4574 33.6822 81.544 33.4547 81.6199C33.3247 81.6632 33.2109 81.7499 33.1134 81.8799C33.0268 81.999 32.9834 82.129 32.9834 82.2699V86.1374C32.9834 86.9607 32.9509 87.8274 32.8859 88.7374C32.8318 89.6365 32.7181 90.5302 32.5447 91.4186C32.3822 92.307 32.1222 93.1357 31.7647 93.9049C31.6888 94.089 31.5751 94.1974 31.4234 94.2299C31.2718 94.2624 31.1201 94.2082 30.9684 94.0674C30.8168 93.9374 30.7193 93.7749 30.6759 93.5799C30.6326 93.3957 30.6488 93.2115 30.7247 93.0274C31.0172 92.334 31.2338 91.6027 31.3747 90.8336C31.5156 90.0536 31.6022 89.2682 31.6347 88.4774C31.6781 87.6757 31.6997 86.8957 31.6997 86.1374V81.8961ZM35.8922 84.5936C36.0872 84.5936 36.2443 84.6532 36.3634 84.7724C36.4826 84.8915 36.5422 85.054 36.5422 85.2599C36.5422 85.4549 36.4826 85.612 36.3634 85.7311C36.2443 85.8502 36.0872 85.9099 35.8922 85.9099H32.3822V84.5936H35.8922ZM30.6922 89.1924C30.8872 89.1924 31.0388 89.252 31.1472 89.3711C31.2663 89.4795 31.3259 89.6311 31.3259 89.8261C31.3259 90.0102 31.2663 90.162 31.1472 90.2811C31.0388 90.4002 30.8872 90.4599 30.6922 90.4599H26.1259C25.9418 90.4599 25.7901 90.4002 25.6709 90.2811C25.5518 90.162 25.4922 90.0049 25.4922 89.8099C25.4922 89.6257 25.5518 89.4795 25.6709 89.3711C25.7901 89.252 25.9418 89.1924 26.1259 89.1924H30.6922ZM35.4047 85.1786V93.8561C35.4047 94.0511 35.3451 94.2027 35.2259 94.3111C35.1068 94.4302 34.9551 94.4899 34.7709 94.4899C34.5868 94.4899 34.4351 94.4302 34.3159 94.3111C34.1968 94.2027 34.1372 94.0511 34.1372 93.8561V85.1786H35.4047ZM30.0584 86.7061V87.8111H27.1172V86.7061H30.0584ZM21.5922 88.6236C21.5381 88.407 21.5597 88.2174 21.6572 88.0549C21.7656 87.8815 21.9226 87.757 22.1284 87.6811C22.3776 87.6052 22.5997 87.5295 22.7947 87.4536C23.0006 87.3777 23.2063 87.302 23.4122 87.2261C23.6181 87.1395 23.8401 87.0474 24.0784 86.9499C24.3168 86.8524 24.5984 86.7386 24.9234 86.6086C25.1184 86.5436 25.2863 86.5545 25.4272 86.6411C25.5788 86.7277 25.6709 86.8795 25.7034 87.0961C25.7468 87.2911 25.7197 87.4752 25.6222 87.6486C25.5247 87.822 25.3784 87.9465 25.1834 88.0224C24.8909 88.1307 24.6309 88.2336 24.4034 88.3311C24.1868 88.4177 23.9809 88.5045 23.7859 88.5911C23.5909 88.6777 23.3906 88.7645 23.1847 88.8511C22.9897 88.927 22.7622 89.019 22.5022 89.1274C22.2856 89.1924 22.0959 89.1815 21.9334 89.0949C21.7709 89.0082 21.6572 88.8511 21.5922 88.6236ZM24.8747 82.5949C25.0913 82.5949 25.2647 82.6599 25.3947 82.7899C25.5247 82.9199 25.5897 83.0932 25.5897 83.3099C25.5897 83.5265 25.5247 83.6999 25.3947 83.8299C25.2647 83.9599 25.0913 84.0249 24.8747 84.0249H22.3072C22.0906 84.0249 21.9172 83.9599 21.7872 83.8299C21.6572 83.6999 21.5922 83.5265 21.5922 83.3099C21.5922 83.0932 21.6572 82.9199 21.7872 82.7899C21.9172 82.6599 22.0906 82.5949 22.3072 82.5949H24.8747ZM24.5172 92.7511C24.5172 93.1086 24.4793 93.3957 24.4034 93.6124C24.3276 93.829 24.1868 93.997 23.9809 94.1161C23.7751 94.2352 23.5693 94.3057 23.3634 94.3274C23.1684 94.3599 22.8976 94.3815 22.5509 94.3924C22.3343 94.4032 22.1556 94.3436 22.0147 94.2136C21.8738 94.0836 21.7818 93.9102 21.7384 93.6936C21.7059 93.4877 21.7438 93.3199 21.8522 93.1899C21.9713 93.0707 22.1393 93.0111 22.3559 93.0111C22.4859 93.0111 22.5943 93.0165 22.6809 93.0274C22.7676 93.0274 22.8543 93.022 22.9409 93.0111C23.0276 93.0111 23.0872 92.9949 23.1197 92.9624C23.1631 92.9299 23.1847 92.8595 23.1847 92.7511V80.0599C23.1847 79.8649 23.2443 79.7077 23.3634 79.5886C23.4934 79.4695 23.6613 79.4099 23.8672 79.4099C24.0622 79.4099 24.2193 79.4695 24.3384 79.5886C24.4576 79.7077 24.5172 79.8649 24.5172 80.0599V92.7511ZM32.3822 105.375C32.5663 105.375 32.7126 105.434 32.8209 105.554C32.9293 105.662 32.9834 105.808 32.9834 105.992C32.9834 106.176 32.9293 106.328 32.8209 106.447C32.7126 106.556 32.5663 106.61 32.3822 106.61H25.6059C25.4326 106.61 25.2863 106.556 25.1672 106.447C25.0588 106.328 25.0047 106.171 25.0047 105.976C25.0047 105.792 25.0588 105.646 25.1672 105.537C25.2863 105.429 25.4326 105.375 25.6059 105.375H32.3822ZM32.6584 108.137C32.8534 108.137 33.0051 108.197 33.1134 108.316C33.2326 108.435 33.2922 108.592 33.2922 108.787C33.2922 108.982 33.2326 109.139 33.1134 109.259C33.0051 109.367 32.8534 109.421 32.6584 109.421H25.3622C25.1672 109.421 25.0101 109.367 24.8909 109.259C24.7826 109.139 24.7284 108.977 24.7284 108.771C24.7284 108.587 24.7826 108.435 24.8909 108.316C25.0101 108.197 25.1672 108.137 25.3622 108.137H32.6584ZM31.2772 105.749V112.265C31.2772 112.46 31.2122 112.622 31.0822 112.752C30.9631 112.882 30.7951 112.947 30.5784 112.947C30.3834 112.947 30.2209 112.882 30.0909 112.752C29.9609 112.622 29.8959 112.46 29.8959 112.265V105.749H31.2772ZM27.9622 108.852C27.9622 109.188 27.9134 109.584 27.8159 110.039C27.7293 110.494 27.5668 110.959 27.3284 111.436C27.0901 111.913 26.7381 112.357 26.2722 112.769C26.1422 112.909 25.9797 112.974 25.7847 112.964C25.5897 112.964 25.4163 112.888 25.2647 112.736C25.1238 112.606 25.0588 112.465 25.0697 112.314C25.0806 112.173 25.1509 112.026 25.2809 111.875C25.6493 111.561 25.9309 111.225 26.1259 110.867C26.3209 110.51 26.4563 110.158 26.5322 109.811C26.6081 109.454 26.6459 109.129 26.6459 108.836V105.814H27.9622V108.852ZM27.3772 101.052V102.109H23.0222V101.052H27.3772ZM34.9172 101.052V102.109H30.5459V101.052H34.9172ZM22.2422 99.8174C22.2422 99.5249 22.3343 99.2865 22.5184 99.1024C22.7134 98.9182 22.9518 98.8261 23.2334 98.8261H27.3609C27.6534 98.8261 27.8863 98.9182 28.0597 99.1024C28.2438 99.2865 28.3359 99.5249 28.3359 99.8174V103.441C28.3359 103.734 28.2438 103.972 28.0597 104.156C27.8863 104.34 27.6534 104.432 27.3609 104.432H23.7209C23.5584 104.432 23.4231 104.384 23.3147 104.286C23.2172 104.178 23.1684 104.031 23.1684 103.847C23.1684 103.674 23.2172 103.539 23.3147 103.441C23.4231 103.344 23.5584 103.295 23.7209 103.295H26.5972C26.6838 103.295 26.7543 103.268 26.8084 103.214C26.8626 103.149 26.8897 103.078 26.8897 103.002V100.224C26.8897 100.148 26.8626 100.083 26.8084 100.029C26.7651 99.9745 26.7001 99.9474 26.6134 99.9474H24.0297C23.9538 99.9474 23.8888 99.9745 23.8347 100.029C23.7806 100.083 23.7534 100.148 23.7534 100.224V112.509C23.7534 112.736 23.6831 112.915 23.5422 113.045C23.4122 113.186 23.2281 113.256 22.9897 113.256C22.7731 113.256 22.5943 113.186 22.4534 113.045C22.3126 112.915 22.2422 112.736 22.2422 112.509V99.8174ZM34.8522 98.8261C35.1447 98.8261 35.3831 98.9182 35.5672 99.1024C35.7513 99.2865 35.8434 99.5249 35.8434 99.8174V111.371C35.8434 111.783 35.7893 112.108 35.6809 112.346C35.5834 112.595 35.4047 112.785 35.1447 112.915C34.9713 113.001 34.7872 113.061 34.5922 113.094C34.4081 113.137 34.1913 113.164 33.9422 113.175C33.7038 113.186 33.4113 113.191 33.0647 113.191C32.8372 113.202 32.6422 113.137 32.4797 112.996C32.3172 112.855 32.2197 112.666 32.1872 112.427C32.1547 112.2 32.1981 112.021 32.3172 111.891C32.4363 111.761 32.6097 111.696 32.8372 111.696C33.1081 111.696 33.3356 111.696 33.5197 111.696C33.7038 111.696 33.8609 111.696 33.9909 111.696C34.1101 111.685 34.1913 111.658 34.2347 111.615C34.2888 111.561 34.3159 111.474 34.3159 111.355V100.224C34.3159 100.148 34.2888 100.083 34.2347 100.029C34.1913 99.9745 34.1263 99.9474 34.0397 99.9474H31.3584C31.2826 99.9474 31.2176 99.9745 31.1634 100.029C31.1093 100.083 31.0822 100.148 31.0822 100.224V103.019C31.0822 103.105 31.1093 103.181 31.1634 103.246C31.2284 103.3 31.3043 103.327 31.3909 103.327H34.5434C34.7059 103.327 34.8359 103.381 34.9334 103.49C35.0418 103.587 35.0959 103.723 35.0959 103.896C35.0959 104.059 35.0418 104.194 34.9334 104.302C34.8359 104.4 34.7059 104.449 34.5434 104.449H30.6109C30.3184 104.449 30.0801 104.356 29.8959 104.172C29.7118 103.988 29.6197 103.755 29.6197 103.474V99.8174C29.6197 99.5249 29.7118 99.2865 29.8959 99.1024C30.0801 98.9182 30.3184 98.8261 30.6109 98.8261H34.8522ZM30.5134 116.942C30.7518 116.942 30.9413 117.018 31.0822 117.17C31.2338 117.311 31.3097 117.506 31.3097 117.755C31.3313 119.109 31.3963 120.414 31.5047 121.671C31.6238 122.917 31.7809 124.071 31.9759 125.132C32.1818 126.183 32.4147 127.109 32.6747 127.911C32.9456 128.702 33.2381 129.314 33.5522 129.747C33.8663 130.181 34.1968 130.397 34.5434 130.397C34.7493 130.397 34.8956 130.229 34.9822 129.894C35.0688 129.558 35.1338 129.005 35.1772 128.236C35.2097 127.987 35.2909 127.835 35.4209 127.781C35.5509 127.716 35.7188 127.749 35.9247 127.879C36.1088 128.009 36.2551 128.187 36.3634 128.415C36.4826 128.642 36.5151 128.875 36.4609 129.114C36.3634 129.861 36.2388 130.441 36.0872 130.852C35.9463 131.275 35.7406 131.573 35.4697 131.746C35.2097 131.919 34.8522 132.006 34.3972 132.006C33.8556 132.006 33.3626 131.822 32.9184 131.454C32.4851 131.096 32.0951 130.592 31.7484 129.942C31.4126 129.281 31.1201 128.507 30.8709 127.619C30.6218 126.719 30.4106 125.739 30.2372 124.677C30.0747 123.616 29.9501 122.5 29.8634 121.33C29.7768 120.149 29.7172 118.957 29.6847 117.755C29.6738 117.506 29.7443 117.311 29.8959 117.17C30.0476 117.018 30.2534 116.942 30.5134 116.942ZM32.6422 117.381C32.7831 117.24 32.9456 117.154 33.1297 117.121C33.3247 117.089 33.5034 117.121 33.6659 117.219C33.9693 117.359 34.2563 117.506 34.5272 117.657C34.7981 117.809 35.0256 117.955 35.2097 118.096C35.3831 118.215 35.4751 118.367 35.4859 118.551C35.4968 118.724 35.4263 118.898 35.2747 119.071C35.1338 119.223 34.9713 119.304 34.7872 119.315C34.6138 119.326 34.4406 119.266 34.2672 119.136C34.0613 118.963 33.8231 118.795 33.5522 118.632C33.2922 118.47 33.0213 118.318 32.7397 118.177C32.5772 118.08 32.4851 117.961 32.4634 117.82C32.4418 117.668 32.5013 117.522 32.6422 117.381ZM34.8522 122.126C35.0797 122.169 35.2368 122.278 35.3234 122.451C35.4209 122.624 35.4318 122.819 35.3559 123.036C34.8901 124.379 34.3647 125.56 33.7797 126.579C33.2056 127.586 32.5447 128.491 31.7972 129.292C31.0497 130.094 30.1831 130.847 29.1972 131.551C29.0131 131.703 28.8072 131.768 28.5797 131.746C28.3522 131.724 28.1463 131.627 27.9622 131.454L27.9297 131.437C27.7672 131.264 27.6913 131.085 27.7022 130.901C27.7238 130.717 27.8322 130.549 28.0272 130.397C28.7531 129.931 29.4031 129.439 29.9772 128.919C30.5622 128.399 31.0822 127.83 31.5372 127.212C32.0031 126.595 32.4256 125.912 32.8047 125.165C33.1838 124.417 33.5306 123.589 33.8447 122.679C33.9206 122.462 34.0451 122.299 34.2184 122.191C34.4026 122.083 34.6138 122.061 34.8522 122.126ZM35.4372 119.412C35.6647 119.412 35.8434 119.483 35.9734 119.624C36.1143 119.754 36.1847 119.938 36.1847 120.176C36.1847 120.404 36.1143 120.588 35.9734 120.729C35.8434 120.859 35.6647 120.924 35.4372 120.924H22.6322C22.4047 120.924 22.2206 120.859 22.0797 120.729C21.9497 120.588 21.8847 120.398 21.8847 120.16C21.8847 119.932 21.9497 119.754 22.0797 119.624C22.2206 119.483 22.4047 119.412 22.6322 119.412H35.4372ZM21.9334 130.186C21.8901 129.948 21.9281 129.747 22.0472 129.585C22.1663 129.411 22.3451 129.303 22.5834 129.26C23.0168 129.184 23.4447 129.108 23.8672 129.032C24.3006 128.946 24.7447 128.859 25.1997 128.772C25.6547 128.675 26.1368 128.572 26.6459 128.464C27.1551 128.355 27.7076 128.241 28.3034 128.122C28.5201 128.068 28.6988 128.095 28.8397 128.204C28.9913 128.312 29.0781 128.48 29.0997 128.707C29.1106 128.924 29.0563 129.114 28.9372 129.276C28.8181 129.439 28.6556 129.541 28.4497 129.585C27.8756 129.715 27.3447 129.834 26.8572 129.942C26.3697 130.04 25.9093 130.137 25.4759 130.235C25.0426 130.332 24.6093 130.43 24.1759 130.527C23.7534 130.614 23.3201 130.706 22.8759 130.804C22.6376 130.858 22.4318 130.825 22.2584 130.706C22.0959 130.598 21.9876 130.424 21.9334 130.186ZM24.1597 125.587C24.1597 125.685 24.1868 125.766 24.2409 125.831C24.3059 125.885 24.3872 125.912 24.4847 125.912H26.7597C26.8572 125.912 26.9331 125.885 26.9872 125.831C27.0522 125.766 27.0847 125.685 27.0847 125.587V123.832C27.0847 123.735 27.0522 123.659 26.9872 123.605C26.9331 123.54 26.8572 123.507 26.7597 123.507H24.4847C24.3872 123.507 24.3059 123.54 24.2409 123.605C24.1868 123.659 24.1597 123.735 24.1597 123.832V125.587ZM27.5884 122.191C27.8809 122.191 28.1193 122.283 28.3034 122.467C28.4876 122.651 28.5797 122.89 28.5797 123.182V126.237C28.5797 126.53 28.4876 126.768 28.3034 126.952C28.1193 127.136 27.8809 127.229 27.5884 127.229H23.7372C23.4447 127.229 23.2063 127.136 23.0222 126.952C22.8381 126.768 22.7459 126.53 22.7459 126.237V123.182C22.7459 122.89 22.8381 122.651 23.0222 122.467C23.2063 122.283 23.4447 122.191 23.7372 122.191H27.5884ZM31.7159 136.424C31.7159 136.207 31.7863 136.034 31.9272 135.904C32.0681 135.762 32.2522 135.692 32.4797 135.692C32.6963 135.692 32.8697 135.762 32.9997 135.904C33.1406 136.034 33.2109 136.207 33.2109 136.424C33.2109 136.424 33.2109 136.559 33.2109 136.83C33.2109 137.09 33.2109 137.442 33.2109 137.886C33.2109 138.32 33.2109 138.796 33.2109 139.316C33.2109 139.836 33.2109 140.356 33.2109 140.876C33.2109 141.396 33.2109 141.879 33.2109 142.322C33.2109 142.756 33.2109 143.107 33.2109 143.379C33.2109 143.639 33.2109 143.769 33.2109 143.769C33.2109 143.769 33.1622 143.769 33.0647 143.769C32.9672 143.769 32.8426 143.769 32.6909 143.769C32.5393 143.769 32.3876 143.769 32.2359 143.769C32.0951 143.769 31.9706 143.769 31.8622 143.769C31.7647 143.769 31.7159 143.769 31.7159 143.769C31.7159 143.769 31.7159 143.639 31.7159 143.379C31.7159 143.107 31.7159 142.756 31.7159 142.322C31.7159 141.879 31.7159 141.396 31.7159 140.876C31.7159 140.345 31.7159 139.825 31.7159 139.316C31.7159 138.796 31.7159 138.32 31.7159 137.886C31.7159 137.442 31.7159 137.09 31.7159 136.83C31.7159 136.559 31.7159 136.424 31.7159 136.424ZM32.6097 139.137C32.6097 139.137 32.7181 139.137 32.9347 139.137C33.1513 139.137 33.4168 139.137 33.7309 139.137C34.0559 139.137 34.3809 139.137 34.7059 139.137C35.0309 139.137 35.3018 139.137 35.5184 139.137C35.7351 139.137 35.8434 139.137 35.8434 139.137C36.0493 139.137 36.2172 139.207 36.3472 139.349C36.4881 139.479 36.5584 139.646 36.5584 139.852C36.5584 140.059 36.4881 140.231 36.3472 140.372C36.2172 140.502 36.0493 140.567 35.8434 140.567C35.8434 140.567 35.7351 140.567 35.5184 140.567C35.3018 140.567 35.0309 140.567 34.7059 140.567C34.3809 140.567 34.0559 140.567 33.7309 140.567C33.4168 140.567 33.1513 140.567 32.9347 140.567C32.7181 140.567 32.6097 140.567 32.6097 140.567C32.6097 140.567 32.6097 140.497 32.6097 140.356C32.6097 140.205 32.6097 140.036 32.6097 139.852C32.6097 139.657 32.6097 139.49 32.6097 139.349C32.6097 139.207 32.6097 139.137 32.6097 139.137ZM23.5584 137.269C23.4501 137.269 23.3581 137.306 23.2822 137.382C23.2063 137.459 23.1684 137.55 23.1684 137.659C23.1684 137.659 23.1684 137.761 23.1684 137.967C23.1684 138.162 23.1684 138.406 23.1684 138.699C23.1684 138.98 23.1684 139.267 23.1684 139.56C23.1684 139.841 23.1684 140.085 23.1684 140.291C23.1684 140.486 23.1684 140.584 23.1684 140.584C23.1684 140.725 23.2118 140.839 23.2984 140.925C23.3851 141.001 23.4988 141.039 23.6397 141.039C23.6397 141.039 23.7209 141.039 23.8834 141.039C24.0459 141.039 24.2572 141.039 24.5172 141.039C24.7772 141.039 25.0534 141.039 25.3459 141.039C25.6493 141.039 25.9309 141.039 26.1909 141.039C26.4509 141.039 26.6622 141.039 26.8247 141.039C26.9872 141.039 27.0684 141.039 27.0684 141.039C27.2093 141.039 27.3231 140.995 27.4097 140.909C27.4963 140.822 27.5397 140.714 27.5397 140.584C27.5397 140.584 27.5397 140.486 27.5397 140.291C27.5397 140.085 27.5397 139.841 27.5397 139.56C27.5397 139.267 27.5397 138.98 27.5397 138.699C27.5397 138.406 27.5397 138.162 27.5397 137.967C27.5397 137.772 27.5397 137.675 27.5397 137.675C27.5397 137.556 27.5018 137.459 27.4259 137.382C27.3501 137.306 27.2581 137.269 27.1497 137.269C27.1497 137.269 27.0631 137.269 26.8897 137.269C26.7163 137.269 26.4943 137.269 26.2234 137.269C25.9526 137.269 25.6601 137.269 25.3459 137.269C25.0426 137.269 24.7556 137.269 24.4847 137.269C24.2138 137.269 23.9918 137.269 23.8184 137.269C23.6451 137.269 23.5584 137.269 23.5584 137.269ZM22.0472 137.187C22.0472 136.906 22.1393 136.672 22.3234 136.489C22.5184 136.294 22.7568 136.196 23.0384 136.196C23.0384 136.196 23.1522 136.196 23.3797 136.196C23.6072 136.196 23.8943 136.196 24.2409 136.196C24.5984 136.196 24.9776 136.196 25.3784 136.196C25.7793 136.196 26.1531 136.196 26.4997 136.196C26.8572 136.196 27.1443 136.196 27.3609 136.196C27.5884 136.196 27.7022 136.196 27.7022 136.196C27.9947 136.196 28.2331 136.294 28.4172 136.489C28.6013 136.672 28.6934 136.906 28.6934 137.187C28.6934 137.187 28.6934 137.322 28.6934 137.594C28.6934 137.854 28.6934 138.179 28.6934 138.569C28.6934 138.959 28.6934 139.354 28.6934 139.755C28.6934 140.145 28.6934 140.475 28.6934 140.746C28.6934 141.006 28.6934 141.136 28.6934 141.136C28.6934 141.417 28.6013 141.651 28.4172 141.835C28.2331 142.019 27.9947 142.111 27.7022 142.111C27.7022 142.111 27.5884 142.111 27.3609 142.111C27.1443 142.111 26.8572 142.111 26.4997 142.111C26.1531 142.111 25.7793 142.111 25.3784 142.111C24.9776 142.111 24.5984 142.111 24.2409 142.111C23.8943 142.111 23.6072 142.111 23.3797 142.111C23.1522 142.111 23.0384 142.111 23.0384 142.111C22.7568 142.111 22.5184 142.019 22.3234 141.835C22.1393 141.651 22.0472 141.417 22.0472 141.136C22.0472 141.136 22.0472 141.006 22.0472 140.746C22.0472 140.475 22.0472 140.145 22.0472 139.755C22.0472 139.354 22.0472 138.959 22.0472 138.569C22.0472 138.179 22.0472 137.854 22.0472 137.594C22.0472 137.322 22.0472 137.187 22.0472 137.187ZM23.4284 138.471C23.3959 138.352 23.4068 138.244 23.4609 138.146C23.5151 138.049 23.5963 137.984 23.7047 137.951C23.8238 137.919 23.9322 137.93 24.0297 137.984C24.1272 138.027 24.1976 138.109 24.2409 138.227C24.3168 138.455 24.3709 138.65 24.4034 138.812C24.4359 138.975 24.4684 139.132 24.5009 139.284C24.5334 139.425 24.5659 139.597 24.5984 139.804C24.6201 139.934 24.5931 140.052 24.5172 140.161C24.4413 140.259 24.3384 140.335 24.2084 140.389C24.0893 140.421 23.9863 140.41 23.8997 140.356C23.8238 140.291 23.7751 140.194 23.7534 140.064C23.7318 139.857 23.7047 139.679 23.6722 139.527C23.6506 139.376 23.6181 139.219 23.5747 139.056C23.5422 138.894 23.4934 138.699 23.4284 138.471ZM23.9647 147.961C23.9431 147.81 23.9701 147.685 24.0459 147.587C24.1218 147.479 24.2409 147.42 24.4034 147.409C24.5443 147.387 24.6688 147.42 24.7772 147.506C24.8963 147.592 24.9668 147.712 24.9884 147.864C25.0209 148.08 25.0481 148.291 25.0697 148.497C25.0913 148.704 25.1076 148.904 25.1184 149.099C25.1293 149.282 25.1347 149.477 25.1347 149.684C25.1456 149.835 25.0968 149.96 24.9884 150.057C24.8909 150.166 24.7609 150.231 24.5984 150.252C24.4468 150.264 24.3222 150.225 24.2247 150.139C24.1381 150.062 24.0893 149.949 24.0784 149.797C24.0784 149.549 24.0731 149.342 24.0622 149.18C24.0622 149.006 24.0513 148.827 24.0297 148.644C24.0188 148.449 23.9972 148.221 23.9647 147.961ZM25.7034 147.896C25.6601 147.766 25.6656 147.652 25.7197 147.555C25.7847 147.446 25.8876 147.381 26.0284 147.36C26.1693 147.339 26.2993 147.36 26.4184 147.425C26.5484 147.49 26.6351 147.592 26.6784 147.734C26.7543 147.94 26.8193 148.14 26.8734 148.335C26.9276 148.519 26.9763 148.704 27.0197 148.887C27.0738 149.061 27.1172 149.234 27.1497 149.407C27.1822 149.559 27.1551 149.689 27.0684 149.797C26.9926 149.916 26.8734 149.992 26.7109 150.025C26.5809 150.057 26.4618 150.036 26.3534 149.96C26.2451 149.884 26.1801 149.776 26.1584 149.635C26.1151 149.407 26.0718 149.212 26.0284 149.05C25.9959 148.887 25.9526 148.72 25.8984 148.546C25.8551 148.372 25.7901 148.156 25.7034 147.896ZM27.4422 147.864C27.3772 147.722 27.3663 147.599 27.4097 147.49C27.4531 147.381 27.5451 147.3 27.6859 147.246C27.8268 147.192 27.9676 147.192 28.1084 147.246C28.2493 147.29 28.3576 147.381 28.4334 147.522C28.5418 147.717 28.6338 147.907 28.7097 148.091C28.7963 148.265 28.8722 148.437 28.9372 148.611C29.0131 148.774 29.0781 148.947 29.1322 149.131C29.1863 149.272 29.1756 149.407 29.0997 149.537C29.0347 149.679 28.9263 149.776 28.7747 149.83C28.6338 149.884 28.4984 149.879 28.3684 149.814C28.2493 149.76 28.1681 149.656 28.1247 149.505C28.0706 149.321 28.0109 149.142 27.9459 148.969C27.8809 148.795 27.8051 148.616 27.7184 148.432C27.6318 148.249 27.5397 148.059 27.4422 147.864ZM22.2747 147.62C22.3072 147.469 22.3831 147.36 22.5022 147.295C22.6213 147.219 22.7676 147.214 22.9409 147.279C23.0926 147.332 23.2063 147.43 23.2822 147.571C23.3581 147.701 23.3743 147.842 23.3309 147.994C23.2768 148.254 23.2226 148.497 23.1684 148.725C23.1143 148.952 23.0493 149.169 22.9734 149.375C22.9084 149.591 22.8218 149.802 22.7134 150.009C22.6593 150.16 22.5509 150.264 22.3884 150.317C22.2259 150.371 22.0634 150.366 21.9009 150.301C21.7493 150.225 21.6463 150.122 21.5922 149.992C21.5488 149.862 21.5651 149.716 21.6409 149.554C21.7493 149.337 21.8359 149.131 21.9009 148.936C21.9768 148.73 22.0418 148.519 22.0959 148.302C22.1609 148.086 22.2206 147.859 22.2747 147.62ZM26.4509 138.227C26.5376 137.914 26.7326 137.81 27.0359 137.919C27.1768 137.962 27.2743 138.044 27.3284 138.162C27.3826 138.281 27.3826 138.411 27.3284 138.552C27.2526 138.791 27.1822 138.996 27.1172 139.17C27.0631 139.332 27.0088 139.49 26.9547 139.641C26.9006 139.792 26.8301 139.971 26.7434 140.177C26.7109 140.286 26.6459 140.361 26.5484 140.405C26.4509 140.437 26.3481 140.432 26.2397 140.389C26.0013 140.291 25.9256 140.124 26.0122 139.885C26.0772 139.669 26.1313 139.479 26.1747 139.316C26.2181 139.142 26.2613 138.975 26.3047 138.812C26.3588 138.65 26.4076 138.455 26.4509 138.227ZM21.9984 143.655C21.9984 143.471 22.0526 143.325 22.1609 143.216C22.2693 143.107 22.4101 143.054 22.5834 143.054C22.5834 143.054 22.7188 143.054 22.9897 143.054C23.2606 143.054 23.6072 143.054 24.0297 143.054C24.4522 143.054 24.8963 143.054 25.3622 143.054C25.8388 143.054 26.2884 143.054 26.7109 143.054C27.1334 143.054 27.4747 143.054 27.7347 143.054C28.0056 143.054 28.1409 143.054 28.1409 143.054C28.3251 143.054 28.4713 143.114 28.5797 143.232C28.6881 143.341 28.7422 143.481 28.7422 143.655C28.7422 143.829 28.6881 143.975 28.5797 144.094C28.4713 144.202 28.3251 144.256 28.1409 144.256C28.1409 144.256 28.0056 144.256 27.7347 144.256C27.4747 144.256 27.1334 144.256 26.7109 144.256C26.2884 144.256 25.8388 144.256 25.3622 144.256C24.8963 144.256 24.4522 144.256 24.0297 144.256C23.6072 144.256 23.2606 144.256 22.9897 144.256C22.7188 144.256 22.5834 144.256 22.5834 144.256C22.4101 144.256 22.2693 144.202 22.1609 144.094C22.0526 143.975 21.9984 143.829 21.9984 143.655ZM24.7772 136.732C24.7772 136.732 24.8313 136.732 24.9397 136.732C25.0481 136.732 25.1672 136.732 25.2972 136.732C25.4381 136.732 25.5626 136.732 25.6709 136.732C25.7793 136.732 25.8334 136.732 25.8334 136.732C25.8334 136.732 25.8334 136.851 25.8334 137.09C25.8334 137.329 25.8334 137.631 25.8334 138C25.8334 138.369 25.8334 138.764 25.8334 139.186C25.8334 139.597 25.8334 139.987 25.8334 140.356C25.8334 140.725 25.8334 141.027 25.8334 141.266C25.8334 141.505 25.8334 141.624 25.8334 141.624C25.8334 141.624 25.8497 141.624 25.8822 141.624C25.9147 141.624 25.9309 141.624 25.9309 141.624C25.9309 141.624 25.9309 141.726 25.9309 141.932C25.9309 142.127 25.9309 142.387 25.9309 142.712C25.9309 143.026 25.9309 143.367 25.9309 143.736C25.9309 144.094 25.9309 144.435 25.9309 144.76C25.9309 145.074 25.9309 145.334 25.9309 145.54C25.9309 145.735 25.9309 145.832 25.9309 145.832C25.9309 145.832 25.8659 145.832 25.7359 145.832C25.6168 145.832 25.4706 145.832 25.2972 145.832C25.1347 145.832 24.9884 145.832 24.8584 145.832C24.7393 145.832 24.6797 145.832 24.6797 145.832C24.6797 145.832 24.6797 145.735 24.6797 145.54C24.6797 145.334 24.6797 145.074 24.6797 144.76C24.6797 144.435 24.6797 144.094 24.6797 143.736C24.6797 143.367 24.6797 143.026 24.6797 142.712C24.6797 142.387 24.6797 142.127 24.6797 141.932C24.6797 141.726 24.6797 141.624 24.6797 141.624C24.6797 141.624 24.6959 141.624 24.7284 141.624C24.7609 141.624 24.7772 141.624 24.7772 141.624C24.7772 141.624 24.7772 141.505 24.7772 141.266C24.7772 141.027 24.7772 140.725 24.7772 140.356C24.7772 139.987 24.7772 139.597 24.7772 139.186C24.7772 138.764 24.7772 138.369 24.7772 138C24.7772 137.631 24.7772 137.329 24.7772 137.09C24.7772 136.851 24.7772 136.732 24.7772 136.732ZM21.6897 145.914C21.6897 145.74 21.7438 145.6 21.8522 145.491C21.9606 145.382 22.1013 145.329 22.2747 145.329C22.2747 145.329 22.4209 145.329 22.7134 145.329C23.0059 145.329 23.3797 145.329 23.8347 145.329C24.3006 145.329 24.7934 145.329 25.3134 145.329C25.8443 145.329 26.3372 145.329 26.7922 145.329C27.2581 145.329 27.6372 145.329 27.9297 145.329C28.2222 145.329 28.3684 145.329 28.3684 145.329C28.5418 145.329 28.6826 145.382 28.7909 145.491C28.8993 145.6 28.9534 145.751 28.9534 145.946C28.9534 146.109 28.8993 146.244 28.7909 146.352C28.6826 146.461 28.5418 146.515 28.3684 146.515C28.3684 146.515 28.2222 146.515 27.9297 146.515C27.6372 146.515 27.2581 146.515 26.7922 146.515C26.3372 146.515 25.8443 146.515 25.3134 146.515C24.7934 146.515 24.3006 146.515 23.8347 146.515C23.3797 146.515 23.0059 146.515 22.7134 146.515C22.4209 146.515 22.2747 146.515 22.2747 146.515C22.1013 146.515 21.9606 146.461 21.8522 146.352C21.7438 146.234 21.6897 146.087 21.6897 145.914ZM29.4409 144.354C29.4409 144.072 29.5331 143.839 29.7172 143.655C29.9013 143.46 30.1397 143.362 30.4322 143.362C30.4322 143.362 30.5351 143.362 30.7409 143.362C30.9576 143.362 31.2393 143.362 31.5859 143.362C31.9326 143.362 32.3009 143.362 32.6909 143.362C33.0809 143.362 33.4493 143.362 33.7959 143.362C34.1426 143.362 34.4243 143.362 34.6409 143.362C34.8576 143.362 34.9659 143.362 34.9659 143.362C35.2476 143.362 35.4806 143.46 35.6647 143.655C35.8597 143.839 35.9572 144.072 35.9572 144.354C35.9572 144.354 35.9572 144.479 35.9572 144.727C35.9572 144.966 35.9572 145.28 35.9572 145.67C35.9572 146.049 35.9572 146.455 35.9572 146.889C35.9572 147.311 35.9572 147.712 35.9572 148.091C35.9572 148.47 35.9572 148.785 35.9572 149.034C35.9572 149.272 35.9572 149.391 35.9572 149.391C35.9572 149.672 35.8597 149.906 35.6647 150.09C35.4806 150.285 35.2476 150.382 34.9659 150.382C34.9659 150.382 34.8576 150.382 34.6409 150.382C34.4243 150.382 34.1426 150.382 33.7959 150.382C33.4493 150.382 33.0809 150.382 32.6909 150.382C32.3009 150.382 31.9326 150.382 31.5859 150.382C31.2393 150.382 30.9576 150.382 30.7409 150.382C30.5351 150.382 30.4322 150.382 30.4322 150.382C30.1397 150.382 29.9013 150.285 29.7172 150.09C29.5331 149.906 29.4409 149.672 29.4409 149.391C29.4409 149.391 29.4409 149.272 29.4409 149.034C29.4409 148.785 29.4409 148.47 29.4409 148.091C29.4409 147.712 29.4409 147.311 29.4409 146.889C29.4409 146.455 29.4409 146.049 29.4409 145.67C29.4409 145.28 29.4409 144.966 29.4409 144.727C29.4409 144.479 29.4409 144.354 29.4409 144.354ZM31.3422 144.76C31.2013 144.76 31.0822 144.804 30.9847 144.89C30.8981 144.976 30.8547 145.096 30.8547 145.247C30.8547 145.247 30.8547 145.329 30.8547 145.491C30.8547 145.642 30.8547 145.844 30.8547 146.092C30.8547 146.331 30.8547 146.591 30.8547 146.872C30.8547 147.144 30.8547 147.404 30.8547 147.652C30.8547 147.891 30.8547 148.091 30.8547 148.254C30.8547 148.405 30.8547 148.481 30.8547 148.481C30.8547 148.622 30.8981 148.741 30.9847 148.839C31.0822 148.925 31.2013 148.969 31.3422 148.969C31.3422 148.969 31.4072 148.969 31.5372 148.969C31.6672 148.969 31.8297 148.969 32.0247 148.969C32.2197 148.969 32.4309 148.969 32.6584 148.969C32.8968 148.969 33.1134 148.969 33.3084 148.969C33.5034 148.969 33.6659 148.969 33.7959 148.969C33.9259 148.969 33.9909 148.969 33.9909 148.969C34.1426 148.969 34.2618 148.925 34.3484 148.839C34.4351 148.741 34.4784 148.622 34.4784 148.481C34.4784 148.481 34.4784 148.405 34.4784 148.254C34.4784 148.091 34.4784 147.891 34.4784 147.652C34.4784 147.404 34.4784 147.144 34.4784 146.872C34.4784 146.591 34.4784 146.331 34.4784 146.092C34.4784 145.844 34.4784 145.642 34.4784 145.491C34.4784 145.329 34.4784 145.247 34.4784 145.247C34.4784 145.096 34.4351 144.976 34.3484 144.89C34.2618 144.804 34.1426 144.76 33.9909 144.76C33.9909 144.76 33.9259 144.76 33.7959 144.76C33.6659 144.76 33.5034 144.76 33.3084 144.76C33.1134 144.76 32.8968 144.76 32.6584 144.76C32.4309 144.76 32.2197 144.76 32.0247 144.76C31.8297 144.76 31.6672 144.76 31.5372 144.76C31.4072 144.76 31.3422 144.76 31.3422 144.76ZM34.3647 164.452C34.5056 164.452 34.6193 164.496 34.7059 164.582C34.8034 164.669 34.8522 164.794 34.8522 164.956C34.8522 165.097 34.8034 165.216 34.7059 165.314C34.6193 165.4 34.5056 165.444 34.3647 165.444H23.3309C23.1793 165.444 23.0601 165.4 22.9734 165.314C22.8868 165.216 22.8434 165.091 22.8434 164.94C22.8434 164.789 22.8868 164.669 22.9734 164.582C23.0601 164.496 23.1793 164.452 23.3309 164.452H34.3647ZM36.0872 166.126C36.2388 166.126 36.3581 166.175 36.4447 166.272C36.5422 166.37 36.5909 166.5 36.5909 166.662C36.5909 166.804 36.5422 166.922 36.4447 167.02C36.3581 167.117 36.2388 167.166 36.0872 167.166H21.9334C21.7926 167.166 21.6734 167.117 21.5759 167.02C21.4784 166.922 21.4297 166.797 21.4297 166.646C21.4297 166.484 21.4784 166.359 21.5759 166.272C21.6734 166.175 21.7926 166.126 21.9334 166.126H36.0872ZM29.7659 168.092C29.7659 168.461 29.7118 168.731 29.6034 168.905C29.4951 169.089 29.3001 169.225 29.0184 169.311C28.7368 169.409 28.4172 169.462 28.0597 169.474C27.7131 169.485 27.2418 169.49 26.6459 169.49C26.4726 169.49 26.3156 169.436 26.1747 169.327C26.0447 169.23 25.9634 169.089 25.9309 168.905C25.8984 168.731 25.9256 168.596 26.0122 168.499C26.0988 168.401 26.2234 168.352 26.3859 168.352C26.7543 168.364 27.0684 168.369 27.3284 168.369C27.5884 168.369 27.7781 168.364 27.8972 168.352C28.0272 168.341 28.1138 168.315 28.1572 168.271C28.2113 168.239 28.2384 168.169 28.2384 168.06V163.039H29.7659V168.092ZM34.6897 162.827C34.8306 162.936 34.8847 163.039 34.8522 163.136C34.8306 163.222 34.7276 163.282 34.5434 163.315C33.7418 163.424 32.8806 163.515 31.9597 163.591C31.0388 163.656 30.0801 163.71 29.0834 163.754C28.0976 163.797 27.0847 163.824 26.0447 163.835C25.0156 163.846 23.9809 163.846 22.9409 163.835C22.8001 163.835 22.6756 163.791 22.5672 163.705C22.4588 163.619 22.3884 163.51 22.3559 163.38C22.3234 163.239 22.3397 163.131 22.4047 163.055C22.4697 162.969 22.5672 162.925 22.6972 162.925C23.7156 162.936 24.7231 162.936 25.7197 162.925C26.7163 162.904 27.6859 162.876 28.6284 162.844C29.5709 162.811 30.4538 162.767 31.2772 162.714C32.1113 162.649 32.8751 162.572 33.5684 162.486C33.7526 162.465 33.9476 162.486 34.1534 162.551C34.3593 162.605 34.5381 162.697 34.6897 162.827ZM28.5147 155.19C28.7856 155.19 28.9209 155.331 28.9209 155.612C28.9209 155.731 28.8831 155.829 28.8072 155.905C28.7313 155.981 28.6338 156.019 28.5147 156.019H22.2584C21.9984 156.019 21.8684 155.872 21.8684 155.58C21.8684 155.461 21.9009 155.369 21.9659 155.304C22.0418 155.227 22.1393 155.19 22.2584 155.19H28.5147ZM28.6122 159.756C28.7313 159.756 28.8288 159.794 28.9047 159.87C28.9806 159.946 29.0184 160.044 29.0184 160.162C29.0184 160.281 28.9806 160.379 28.9047 160.455C28.8288 160.531 28.7313 160.569 28.6122 160.569H21.9497C21.8306 160.569 21.7331 160.531 21.6572 160.455C21.5813 160.379 21.5434 160.281 21.5434 160.162C21.5434 160.044 21.5813 159.946 21.6572 159.87C21.7331 159.794 21.8306 159.756 21.9497 159.756H28.6122ZM23.3959 158.456C23.3959 158.521 23.4176 158.575 23.4609 158.619C23.5043 158.662 23.5584 158.684 23.6234 158.684H27.1497C27.2038 158.684 27.2526 158.662 27.2959 158.619C27.3393 158.575 27.3609 158.521 27.3609 158.456V158.18H23.3959V158.456ZM23.3959 157.579H27.3609V157.319C27.3609 157.254 27.3393 157.205 27.2959 157.172C27.2634 157.129 27.2147 157.107 27.1497 157.107H23.6072C23.5422 157.107 23.4881 157.129 23.4447 157.172C23.4122 157.205 23.3959 157.254 23.3959 157.319V157.579ZM27.4584 156.49C27.7509 156.49 27.9893 156.582 28.1734 156.766C28.3576 156.95 28.4497 157.189 28.4497 157.481V158.31C28.4497 158.591 28.3576 158.83 28.1734 159.025C27.9893 159.209 27.7509 159.301 27.4584 159.301H23.3309C23.0493 159.301 22.8109 159.209 22.6159 159.025C22.4318 158.83 22.3397 158.591 22.3397 158.31V157.481C22.3397 157.189 22.4318 156.95 22.6159 156.766C22.8109 156.582 23.0493 156.49 23.3309 156.49H27.4584ZM25.3459 154.41C25.5193 154.41 25.6601 154.464 25.7684 154.572C25.8768 154.681 25.9309 154.827 25.9309 155.011V162.031H24.7284V155.011C24.7284 154.827 24.7826 154.681 24.8909 154.572C25.0101 154.464 25.1618 154.41 25.3459 154.41ZM33.5522 154.897C33.8013 154.897 34.0072 154.979 34.1697 155.141C34.3322 155.292 34.4134 155.499 34.4134 155.759V156.425C34.4134 156.599 34.4297 156.722 34.4622 156.799C34.4947 156.864 34.5597 156.896 34.6572 156.896C34.7222 156.896 34.8143 156.896 34.9334 156.896C35.0634 156.896 35.1881 156.896 35.3072 156.896C35.4372 156.896 35.5347 156.896 35.5997 156.896C35.7081 156.896 35.8001 156.896 35.8759 156.896C35.9518 156.896 36.0384 156.891 36.1359 156.88C36.2226 156.859 36.2931 156.869 36.3472 156.912C36.4122 156.956 36.4501 157.015 36.4609 157.091C36.4718 157.177 36.4718 157.27 36.4609 157.367C36.4609 157.465 36.4447 157.557 36.4122 157.644C36.3038 157.827 36.1847 157.936 36.0547 157.969C35.9247 158.001 35.7838 158.017 35.6322 158.017C35.5563 158.017 35.4426 158.017 35.2909 158.017C35.1393 158.017 34.9876 158.017 34.8359 158.017C34.6951 158.017 34.5868 158.017 34.5109 158.017C34.1209 158.017 33.8231 157.969 33.6172 157.871C33.4113 157.762 33.2706 157.59 33.1947 157.351C33.1297 157.112 33.0972 156.804 33.0972 156.425V156.019C33.0972 155.997 33.0756 155.981 33.0322 155.97C32.9888 155.959 32.9293 155.954 32.8534 155.954H31.5372C31.3747 155.954 31.2934 156.04 31.2934 156.214V156.49C31.2934 156.62 31.2447 156.787 31.1472 156.994C31.0606 157.189 30.8981 157.4 30.6597 157.627C30.4213 157.855 30.0801 158.071 29.6359 158.277C29.4626 158.364 29.2731 158.386 29.0672 158.342C28.8722 158.289 28.7043 158.185 28.5634 158.034C28.2926 157.741 28.3522 157.514 28.7422 157.351C29.2731 157.135 29.6143 156.907 29.7659 156.669C29.9284 156.43 30.0097 156.144 30.0097 155.807V155.629C30.0097 155.401 30.0801 155.222 30.2209 155.092C30.3618 154.962 30.5351 154.897 30.7409 154.897H33.5522ZM35.0147 158.911C35.0147 159.052 34.9876 159.209 34.9334 159.382C34.8901 159.556 34.8251 159.696 34.7384 159.805C34.3376 160.336 33.8934 160.775 33.4059 161.121C32.9184 161.467 32.3659 161.75 31.7484 161.966C31.1309 162.172 30.4376 162.356 29.6684 162.519C29.5059 162.54 29.3488 162.514 29.1972 162.437C29.0456 162.361 28.9209 162.242 28.8234 162.08C28.7476 161.939 28.7368 161.815 28.7909 161.706C28.8451 161.597 28.9588 161.532 29.1322 161.511C29.7497 161.414 30.3184 161.289 30.8384 161.137C31.3584 160.975 31.8351 160.769 32.2684 160.52C32.7018 160.26 33.0863 159.946 33.4222 159.577C33.4763 159.534 33.4981 159.496 33.4872 159.464C33.4763 159.42 33.4331 159.399 33.3572 159.399H30.1559C30.0043 159.399 29.8851 159.355 29.7984 159.269C29.7118 159.171 29.6684 159.046 29.6684 158.895C29.6684 158.744 29.7118 158.624 29.7984 158.537C29.8851 158.44 30.0043 158.391 30.1559 158.391H34.5109C34.6626 158.391 34.7818 158.44 34.8684 158.537C34.9659 158.624 35.0147 158.749 35.0147 158.911ZM30.4484 159.464C30.6109 159.42 30.7788 159.42 30.9522 159.464C31.1363 159.496 31.2988 159.566 31.4397 159.675C31.7972 160.021 32.1872 160.32 32.6097 160.569C33.0431 160.817 33.5359 161.024 34.0884 161.186C34.6518 161.349 35.3072 161.49 36.0547 161.609C36.2497 161.63 36.3688 161.701 36.4122 161.82C36.4663 161.929 36.4338 162.064 36.3147 162.226C36.1956 162.389 36.0384 162.514 35.8434 162.6C35.6484 162.676 35.4588 162.692 35.2747 162.649C34.4838 162.497 33.7851 162.312 33.1784 162.096C32.5718 161.88 32.0301 161.609 31.5534 161.284C31.0876 160.959 30.6597 160.564 30.2697 160.097C30.1397 159.967 30.0909 159.842 30.1234 159.724C30.1668 159.605 30.2751 159.517 30.4484 159.464ZM23.1197 160.747C23.3147 160.747 23.4122 160.845 23.4122 161.04V161.381C23.4122 161.522 23.4826 161.592 23.6234 161.592H27.1334C27.2743 161.592 27.3447 161.522 27.3447 161.381V161.04C27.3447 160.845 27.4422 160.747 27.6372 160.747H27.9134C28.0759 160.747 28.2059 160.796 28.3034 160.894C28.4118 160.991 28.4659 161.126 28.4659 161.3V161.625C28.4659 161.852 28.3956 162.042 28.2547 162.194C28.1138 162.345 27.9243 162.421 27.6859 162.421H23.1197C22.8922 162.421 22.7026 162.345 22.5509 162.194C22.4101 162.042 22.3397 161.852 22.3397 161.625V161.284C22.3397 161.121 22.3884 160.991 22.4859 160.894C22.5834 160.796 22.7134 160.747 22.8759 160.747H23.1197Z" fill="white"/>
</g>
</g>
<defs>
<linearGradient id="paint0_linear_240_2524" x1="-3.8893e-08" y1="78" x2="320" y2="78" gradientUnits="userSpaceOnUse">
<stop stop-color="#6D0707"/>
<stop offset="1" stop-color="#990B0B"/>
</linearGradient>
<linearGradient id="paint1_linear_240_2524" x1="39.7833" y1="-37.6373" x2="79.9826" y2="129.202" gradientUnits="userSpaceOnUse">
<stop stop-color="white"/>
<stop offset="1" stop-color="white" stop-opacity="0"/>
</linearGradient>
<linearGradient id="paint2_linear_240_2524" x1="39.7867" y1="-37.6373" x2="79.986" y2="129.202" gradientUnits="userSpaceOnUse">
<stop stop-color="white"/>
<stop offset="1" stop-color="white" stop-opacity="0"/>
</linearGradient>
<linearGradient id="paint3_linear_240_2524" x1="39.7868" y1="-37.6373" x2="79.9861" y2="129.202" gradientUnits="userSpaceOnUse">
<stop stop-color="white"/>
<stop offset="1" stop-color="white" stop-opacity="0"/>
</linearGradient>
<linearGradient id="paint4_linear_240_2524" x1="39.7831" y1="-37.6373" x2="79.9824" y2="129.202" gradientUnits="userSpaceOnUse">
<stop stop-color="white"/>
<stop offset="1" stop-color="white" stop-opacity="0"/>
</linearGradient>
<linearGradient id="paint5_linear_240_2524" x1="39.7865" y1="-37.6373" x2="79.9858" y2="129.202" gradientUnits="userSpaceOnUse">
<stop stop-color="white"/>
<stop offset="1" stop-color="white" stop-opacity="0"/>
</linearGradient>
<linearGradient id="paint6_linear_240_2524" x1="39.7865" y1="-37.6373" x2="79.9858" y2="129.202" gradientUnits="userSpaceOnUse">
<stop stop-color="white"/>
<stop offset="1" stop-color="white" stop-opacity="0"/>
</linearGradient>
<linearGradient id="paint7_linear_240_2524" x1="39.7874" y1="-37.6373" x2="79.9867" y2="129.202" gradientUnits="userSpaceOnUse">
<stop stop-color="white"/>
<stop offset="1" stop-color="white" stop-opacity="0"/>
</linearGradient>
<linearGradient id="paint8_linear_240_2524" x1="39.7867" y1="-37.6382" x2="79.986" y2="129.201" gradientUnits="userSpaceOnUse">
<stop stop-color="white"/>
<stop offset="1" stop-color="white" stop-opacity="0"/>
</linearGradient>
<linearGradient id="paint9_linear_240_2524" x1="39.7831" y1="-37.6373" x2="79.9824" y2="129.202" gradientUnits="userSpaceOnUse">
<stop stop-color="white"/>
<stop offset="1" stop-color="white" stop-opacity="0"/>
</linearGradient>
<linearGradient id="paint10_linear_240_2524" x1="39.7833" y1="-37.6373" x2="79.9826" y2="129.202" gradientUnits="userSpaceOnUse">
<stop stop-color="white"/>
<stop offset="1" stop-color="white" stop-opacity="0"/>
</linearGradient>
<linearGradient id="paint11_linear_240_2524" x1="39.7861" y1="-37.6373" x2="79.9854" y2="129.202" gradientUnits="userSpaceOnUse">
<stop stop-color="white"/>
<stop offset="1" stop-color="white" stop-opacity="0"/>
</linearGradient>
<linearGradient id="paint12_linear_240_2524" x1="39.7833" y1="-37.6373" x2="79.9826" y2="129.202" gradientUnits="userSpaceOnUse">
<stop stop-color="white"/>
<stop offset="1" stop-color="white" stop-opacity="0"/>
</linearGradient>
<linearGradient id="paint13_linear_240_2524" x1="39.7866" y1="-37.6373" x2="79.9859" y2="129.202" gradientUnits="userSpaceOnUse">
<stop stop-color="white"/>
<stop offset="1" stop-color="white" stop-opacity="0"/>
</linearGradient>
<clipPath id="clip0_240_2524">
<rect width="320" height="156" fill="white"/>
</clipPath>
<clipPath id="clip1_240_2524">
<rect width="15" height="72.5" fill="white" transform="translate(21.5 41.875)"/>
</clipPath>
</defs>
</svg>
