<svg width="484" height="543" viewBox="0 0 484 543" fill="none" xmlns="http://www.w3.org/2000/svg">
<g clip-path="url(#clip0_299_5110)">
<path opacity="0.95" d="M110.813 80.2893C114.093 63.8616 119.347 36.9671 140 38.0306C164.96 40.2695 185.307 58.4743 203.413 75.0839C211.093 88.1393 227.173 74.0344 238.667 77.1829C243.973 77.2248 249.32 77.2388 254.693 77.2248C269.8 76.5532 284.053 82.6681 298.587 85.6066C317.64 67.7096 340.893 51.3659 366.933 47.7277C369.4 47.9096 371.893 47.9236 374.4 47.7277C391.92 48.6373 396.533 72.1874 397.373 87.0199C397.267 100.075 397.253 113.145 397.373 126.214C396.693 141.55 391.893 156.313 388.013 170.992C392.093 182.774 395.827 195.073 397.28 207.625C397.467 209.626 397.84 213.642 398.013 215.657C400.8 221.352 402.427 227.789 402.667 234.198C402.133 237.444 402.347 240.606 403.293 243.671C404.267 246.385 404.32 249.45 403.373 252.179C402.48 254.291 402.373 256.614 402.693 258.881C401.827 269.656 398.053 280.276 393.387 289.918C391.56 293.36 389.36 292.94 387.467 289.778C389.693 284.81 392.373 279.983 393.813 274.665C397.027 264.576 398.853 253.928 398.613 243.279C396.013 219.995 392.027 196.179 383.72 174.28C383.253 172.475 382.853 170.684 382.493 168.879C392.107 149.051 393.173 125.361 393.133 103.504C392.88 87.1318 394.213 62.0145 377.76 53.4368C351.667 50.5543 326.253 67.4857 307.773 85.5506C298.36 89.4966 311.573 90.2523 312.133 95.5136C293.533 91.5676 275.693 83.0459 256.307 82.4022C248.547 81.3807 240.6 80.6111 232.92 82.3043C219.453 84.0674 206.107 86.852 193.253 91.4137C185.56 87.6216 198.92 83.9414 202.653 82.4022C193.693 71.5717 182.72 62.6862 171.027 55.3259C159.613 47.4898 145.467 40.5913 131.667 44.4814C119.067 52.9891 118.987 72.1874 114.307 85.5087C112.613 87.5516 112.813 90.3502 113.6 92.743C113.36 94.4641 113.147 96.1853 112.973 97.9204C111.573 109.716 111.2 121.792 113.107 133.56C113.187 134.148 113.36 135.338 113.453 135.925C112.827 138.332 112.653 141.089 114.32 143.118C112.28 156.383 122.96 135.995 121.693 147.497C108.093 165.478 103.053 188.287 98.5466 210.088C94.1466 217.154 91.8 225.354 90.32 233.582C89.2666 239.333 88.72 245.434 90.1733 251.171C90.5333 253.018 90.9733 254.851 91.44 256.684C97.0667 284.264 116.213 307.395 140.187 319.541C138.587 320.408 136.987 321.276 135.44 322.199C126.413 318.939 120.08 311.243 112.027 306.359C108.587 302.399 105.56 298.089 101.96 294.311C100.96 293.234 99.96 292.156 98.9733 291.107C97.8533 288.448 96.68 285.804 95.16 283.369C93.3333 280.122 91.72 276.764 90.3467 273.294C83.1467 252.193 83.1733 228.041 94.08 208.269C97.7467 190.232 101.307 170.852 111.253 155.431C112.813 152.633 112.853 149.89 111.36 147.232C109.72 144.629 108.88 141.648 109.32 138.542C109.733 135.254 109.533 132.105 108.707 129.055C108.533 128.369 108.2 126.998 108.027 126.312C107.933 117.804 107.867 109.311 108.253 100.817L108.573 99.4736C108.813 97.4726 109.28 93.4427 109.52 91.4417C109.64 90.6581 109.867 89.1188 109.987 88.3492C110.2 86.3342 110.6 82.3043 110.813 80.2893Z" fill="#211309"/>
<path d="M131.667 44.4816C145.467 40.5915 159.613 47.4901 171.027 55.3261C159.64 51.9678 148.853 45.2792 136.347 45.9228C134.773 45.4191 133.213 44.9433 131.667 44.4816Z" fill="#E6BE66"/>
<path d="M114.307 85.5078C118.987 72.1865 119.067 52.9882 131.667 44.4805C133.213 44.9422 134.773 45.418 136.347 45.9217C120.72 56.3325 122.653 80.0505 118.413 96.6462C118.107 99.5147 115.827 101.194 113.653 102.495C113.48 101.362 113.133 99.0669 112.973 97.9195C113.147 96.1844 113.36 94.4632 113.6 92.7421C115.427 90.7691 115.16 87.8726 114.307 85.5078Z" fill="#EED08C"/>
<path d="M118.413 96.6467C122.653 80.051 120.72 56.333 136.347 45.9222C148.853 45.2786 159.64 51.9672 171.027 55.3255C182.72 62.6858 193.693 71.5713 202.653 82.4018C198.92 83.9411 185.56 87.6212 193.253 91.4133C189 97.7101 200.68 93.1484 203.893 92.5607C217.493 86.1939 234.547 91.4273 247.067 83.1435C249.373 82.9616 254 82.5977 256.307 82.4018C275.693 83.0455 293.533 91.5672 312.133 95.5132C311.573 90.2519 298.36 89.4962 307.773 85.5502C320.787 80.6387 331.76 71.2075 344.133 64.8127C354.187 57.8022 366.56 57.3545 377.76 53.4364C394.213 62.0141 392.88 87.1314 393.133 103.503C391.333 122.03 388.68 141.438 379.693 157.824C379.053 157.712 377.773 157.474 377.133 157.348C375.827 156.229 374.533 155.123 373.2 154.088C375.72 161.168 377.12 170.124 383.72 174.279C392.027 196.178 396.013 219.994 398.613 243.279C392.813 246.427 394.107 255.215 391.52 260.812C384.547 229.901 347.173 221.324 322.507 233.735C310.627 236.674 297.693 254.109 286.267 241.362C281.773 232.322 274.293 226.221 266.093 221.24C272.213 220.148 281.227 219.323 279.96 210.465C275.013 206.743 267.04 212.214 262.48 206.085C266.36 198.361 272.28 203.105 278.787 200.88C288.133 202.433 292.133 192.316 299.813 189.322C291.92 177.176 317.987 178.128 309.027 167.563C307.6 166.094 304.973 176.938 305.307 169.494C305.213 167.227 305.107 164.96 304.973 162.707C305.573 160.021 309.24 160.133 309.387 156.984C307.6 152.478 302.213 151.961 298.613 149.736C299.987 145.44 303.933 149.806 306.72 150.044C305.693 137.59 288.053 142.977 280.267 144.614C271.92 145.762 272.84 138.5 263.653 143.285C269.4 145.37 269.307 146.951 264.173 149.932C259.533 157.446 248.32 159.321 245.04 166.499C248.853 164.652 251.707 165.716 255.347 162.483C255.773 168.766 260.053 178.002 249.36 174.042C243.04 184.117 262.507 181.206 256.853 188.748C251.907 182.353 246.373 193.786 241.493 188.944C238.827 184.956 234.227 187.797 230.573 187.867C232.987 185.32 235.707 183.053 237.76 180.129C233.493 181.458 230.267 178.491 228.947 174.461C224.467 177.442 219.347 177.498 222.173 170.711C214.56 168.878 220.507 183.683 213.653 180.954C203.867 182.269 208.813 178.086 208.267 173.58C218.28 162.064 203.173 143.117 190.173 149.47C182.933 152.367 181.92 159.573 182.693 166.695C183.427 172.698 178.307 163.197 174.48 166.457C179.347 160.231 180.173 151.737 184.92 145.384C186.96 142.446 190.267 136.974 179.707 141.41C191.92 137.716 175.28 134.204 170.933 131.923C172.96 139.493 161.693 141.62 157.053 144.083C156.4 150.785 148.547 143.789 143.987 148.127C144.293 142.152 142.693 136.876 138.32 132.888C143.667 127.627 149.76 123.275 155.76 118.881C153.733 122.785 146.24 127.137 150.88 131.825C156.72 130.44 163.16 126.158 164 119.441C161.893 116.727 158.453 118.616 155.76 118.881C164.147 111.339 174.027 106.022 183.733 100.733C185.28 97.2064 180.587 98.9835 178.707 98.4377C182.08 94.0859 175.747 91.1894 173.853 87.8871C165.52 79.1415 154.853 65.9181 142.267 66.9116C131.707 72.3129 133.413 87.6632 130.347 97.892C129.587 106.372 127.787 115.453 130.267 123.807C130.667 125.206 131.093 126.592 131.56 127.977C130.773 130.37 130.707 132.86 131.787 135.197C130.48 137.128 129.213 139.101 127.973 141.088C125.933 143.285 123.907 145.496 121.693 147.497C122.96 135.995 112.28 156.382 114.32 143.117C115.16 140.738 115.467 137.772 113.453 135.925C113.36 135.337 113.187 134.148 113.107 133.56C113.08 129.32 113.347 125.122 113.613 120.924C114.36 115.201 115.2 109.226 113.8 103.545L113.653 102.496C115.827 101.194 118.107 99.5152 118.413 96.6467ZM360.507 79.0295C347.64 81.2264 336.32 91.2454 327.867 101.292C330.253 93.6661 318.747 102.538 324.04 104.217C330.52 107.813 336.16 113.606 343.053 115.971C347.333 126.424 360.333 134.316 365.893 145.342C369.227 148.7 372.013 139.619 369.573 140.473C372.907 132.497 374.28 123.681 374.667 115.019C377.027 112.067 376.947 96.9545 374.72 94.016C375.587 86.012 369.933 70.8996 360.507 79.0295ZM296.253 200.278C284.08 202.013 276.76 223.269 286.853 231.511C291.373 240.396 306.32 240.41 311.627 233.12C313.933 230.839 315.6 227.495 316 224.178C318.267 223.185 318.253 213.963 316.013 212.914C315.413 206.911 310.08 202.391 305.027 200.32C303.96 197.648 297.36 197.69 296.253 200.278ZM385.72 220.316C381.547 221.31 379.493 227.984 384.853 228.936C391.293 232.406 392.64 218.777 385.72 220.316Z" fill="#FAB536"/>
<path opacity="0.44" d="M366.933 47.7287C367.613 45.2519 373.68 45.2519 374.4 47.7287C371.893 47.9246 369.4 47.9106 366.933 47.7287Z" fill="#1F1B14"/>
<path d="M307.773 85.5511C326.253 67.4862 351.667 50.5548 377.76 53.4373C366.56 57.3554 354.187 57.8031 344.133 64.8136C331.76 71.2084 320.787 80.6396 307.773 85.5511Z" fill="#ECCD7E"/>
<path d="M142.267 66.9142C154.853 65.9207 165.52 79.1441 173.853 87.8896C175.747 91.192 182.08 94.0885 178.707 98.4403C160.387 106.234 144.12 118.996 131.787 135.2C130.707 132.863 130.773 130.372 131.56 127.979C144.653 115.33 158.493 103.142 174.907 95.5018C167.093 82.6983 154.893 73.8547 142.267 66.9142Z" fill="#D6772B"/>
<path d="M130.347 97.8925C133.413 87.6636 131.707 72.3134 142.267 66.9121C154.893 73.8526 167.093 82.6961 174.907 95.4997C158.493 103.14 144.653 115.328 131.56 127.977C131.093 126.592 130.667 125.207 130.267 123.807C130.56 115.16 130.56 106.526 130.347 97.8925Z" fill="#FDEACC"/>
<path opacity="0.28" d="M238.667 77.1832C240.013 75.3921 253.027 73.601 254.693 77.2252C249.32 77.2392 243.973 77.2252 238.667 77.1832Z" fill="#130E0A"/>
<path d="M360.507 79.031C369.934 70.9011 375.587 86.0135 374.72 94.0174C374.587 101.014 374.653 108.024 374.667 115.021C374.28 123.682 372.907 132.498 369.574 140.474C369.08 141.076 368.093 142.279 367.6 142.881C360.427 133.058 352.84 123.053 343.054 115.972C339.534 110.627 333.947 107.633 329.067 103.91C338.32 93.9335 351.387 88.7841 360.507 79.031Z" fill="#FDEDD0"/>
<path d="M327.867 101.292C336.32 91.2451 347.64 81.2262 360.507 79.0293C351.387 88.7824 338.32 93.9318 329.067 103.909C328.773 103.251 328.16 101.95 327.867 101.292Z" fill="#F9D5B8"/>
<path opacity="0.44" d="M109.987 88.3509C108.293 86.4199 107.693 80.6828 110.813 80.291C110.6 82.306 110.2 86.336 109.987 88.3509Z" fill="#2A2319"/>
<path d="M232.92 82.3045C240.6 80.6114 248.547 81.381 256.307 82.4025C254 82.5984 249.373 82.9622 247.067 83.1441C242.24 82.9622 237.653 82.7663 232.92 82.3045Z" fill="#63451B"/>
<path d="M193.253 91.4141C206.107 86.8524 219.453 84.0678 232.92 82.3047C237.653 82.7665 242.24 82.9624 247.067 83.1443C234.547 91.4281 217.493 86.1947 203.893 92.5615C200.68 93.1492 189 97.7109 193.253 91.4141Z" fill="#F2C86A"/>
<path d="M113.6 92.7441C112.813 90.3513 112.613 87.5527 114.307 85.5098C115.16 87.8746 115.427 90.7711 113.6 92.7441Z" fill="#958060"/>
<path opacity="0.55" d="M397.373 87.0195C398.666 96.3528 400.84 116.922 397.373 126.214C397.253 113.144 397.266 100.075 397.373 87.0195Z" fill="#1F1305"/>
<path opacity="0.51" d="M108.573 99.4753C106.96 97.5023 106.413 91.8492 109.52 91.4434C109.28 93.4443 108.813 97.4743 108.573 99.4753Z" fill="#231C11"/>
<path d="M374.72 94.0176C376.947 96.9561 377.027 112.068 374.667 115.021C374.653 108.025 374.587 101.014 374.72 94.0176Z" fill="#FDD487"/>
<path d="M113.107 133.56C111.2 121.792 111.573 109.716 112.973 97.9199C113.133 99.0673 113.48 101.362 113.653 102.496L113.8 103.545C113.667 109.338 113.6 115.131 113.613 120.924C113.347 125.122 113.08 129.32 113.107 133.56Z" fill="#A68042"/>
<path d="M130.267 123.809C127.787 115.456 129.587 106.374 130.347 97.8945C130.56 106.528 130.56 115.162 130.267 123.809Z" fill="#FCD482"/>
<path d="M131.787 135.199C144.12 118.995 160.387 106.234 178.707 98.4395C180.587 98.9852 185.28 97.2081 183.733 100.734C174.027 106.024 164.147 111.341 155.76 118.883C149.76 123.277 143.667 127.629 138.32 132.89C135.16 136.556 132.387 140.502 129.56 144.42C129.16 143.581 128.373 141.93 127.973 141.09C129.213 139.103 130.48 137.13 131.787 135.199Z" fill="#FCD376"/>
<path d="M324.04 104.217C318.747 102.538 330.253 93.6664 327.867 101.293C326.6 102.3 325.333 103.294 324.04 104.217Z" fill="#8B4916"/>
<path opacity="0.35" d="M108.027 126.312C106.64 121.302 104.04 105.672 108.253 100.816C107.867 109.31 107.933 117.804 108.027 126.312Z" fill="#1F180D"/>
<path d="M324.04 104.219C325.333 103.296 326.6 102.302 327.867 101.295C328.16 101.953 328.773 103.254 329.067 103.912C333.947 107.634 339.533 110.628 343.053 115.974C336.16 113.609 330.52 107.816 324.04 104.219Z" fill="#D67C31"/>
<path d="M113.8 103.547C115.2 109.228 114.36 115.203 113.613 120.926C113.6 115.133 113.667 109.34 113.8 103.547Z" fill="#FCDC75"/>
<path d="M379.693 157.825C388.68 141.439 391.333 122.031 393.133 103.504C393.173 125.361 392.107 149.051 382.493 168.879C380.627 165.073 378.867 161.211 377.133 157.349C377.773 157.475 379.053 157.713 379.693 157.825Z" fill="#DE8C1D"/>
<path d="M343.053 115.973C352.84 123.053 360.426 133.058 367.6 142.881C368.093 142.279 369.08 141.076 369.573 140.474C372.013 139.621 369.227 148.702 365.893 145.344C360.333 134.317 347.333 126.425 343.053 115.973Z" fill="#DA832B"/>
<path d="M155.76 118.883C158.453 118.617 161.893 116.728 164 119.443C163.16 126.159 156.72 130.441 150.88 131.826C146.24 127.139 153.733 122.787 155.76 118.883Z" fill="#FED17C"/>
<path opacity="0.48" d="M108.707 129.057C109.533 132.107 109.733 135.256 109.32 138.544C106.427 137.257 107.28 131.533 108.707 129.057Z" fill="#271C0B"/>
<path d="M170.933 131.924C175.28 134.205 191.92 137.717 179.707 141.411C190.267 136.975 186.96 142.447 184.92 145.385C180.173 151.738 179.347 160.232 174.48 166.458C178.307 163.198 183.427 172.699 182.693 166.696C187.613 176.128 199.573 178.898 208.267 173.581C208.813 178.087 203.867 182.27 213.653 180.955C220.507 183.684 214.56 168.879 222.173 170.712C219.347 177.499 224.467 177.443 228.947 174.462C230.267 178.492 233.493 181.459 237.76 180.129C235.707 183.054 232.987 185.321 230.573 187.868C234.227 187.798 238.827 184.957 241.493 188.945C246.373 193.787 251.907 182.354 256.853 188.749C262.507 181.207 243.04 184.117 249.36 174.043C260.053 178.003 255.773 168.767 255.347 162.484C251.707 165.717 248.853 164.653 245.04 166.5C248.32 159.322 259.533 157.447 264.173 149.933C269.307 146.952 269.4 145.371 263.653 143.286C272.84 138.501 271.92 145.763 280.267 144.615C288.053 142.978 305.693 137.591 306.72 150.045C303.933 149.807 299.987 145.441 298.613 149.737C302.213 151.962 307.6 152.479 309.387 156.985C309.24 160.134 305.573 160.022 304.973 162.708C300.093 144.489 270.707 152.759 273.347 170.852C277.68 185.279 299.333 180.619 305.307 169.495C304.973 176.939 307.6 166.095 309.027 167.564C317.987 178.129 291.92 177.177 299.813 189.323C292.133 192.317 288.133 202.434 278.787 200.881C272.28 203.106 266.36 198.362 262.48 206.086C267.04 212.215 275.013 206.744 279.96 210.466C281.227 219.324 272.213 220.149 266.093 221.241C248.04 214.188 227.307 211.012 209.4 220.079C199.773 225.523 192.093 234.058 182.587 239.586C167.92 235.556 157.68 221.689 142.72 218.484C126.04 213.601 105.04 220.009 96.9999 237.081C94.3466 227.188 98.7599 206.156 111.733 211.348C115.867 207.752 107.813 206.254 105.68 204.337C108.653 182.732 117.307 161.995 129.56 144.42C132.387 140.502 135.16 136.555 138.32 132.889C142.693 136.877 144.293 142.153 143.987 148.128C148.547 143.79 156.4 150.786 157.053 144.084C161.693 141.621 172.96 139.494 170.933 131.924ZM176.08 193.381C170.147 195.578 165.693 201.189 164.053 207.472C161.733 207.975 161.72 217.659 163.987 218.582C164.533 223.704 168.72 228.909 173.507 229.916C177.093 233.499 188.827 232.211 191.827 225.97C201.08 217.631 198.787 197.621 186.573 193.381C186.08 190.988 176.587 190.988 176.08 193.381Z" fill="#FCB83A"/>
<path d="M113.453 135.926C115.467 137.773 115.16 140.739 114.32 143.118C112.653 141.089 112.827 138.333 113.453 135.926Z" fill="#96611C"/>
<path d="M121.693 147.499C123.907 145.498 125.933 143.287 127.973 141.09C128.373 141.929 129.16 143.581 129.56 144.42C117.307 161.995 108.653 182.733 105.68 204.338C107.813 206.255 115.867 207.752 111.733 211.348C98.76 206.157 94.3467 227.188 97 237.081C95.0933 243.602 93 250.067 91.44 256.686C90.9734 254.852 90.5333 253.019 90.1733 251.172C90.2267 245.309 90.28 239.446 90.32 233.583C91.8 225.355 94.1466 217.155 98.5466 210.089C103.053 188.288 108.093 165.48 121.693 147.499Z" fill="#F0D496"/>
<path opacity="0.45" d="M111.36 147.23C112.853 149.889 112.813 152.632 111.253 155.43C109.573 153.219 109.76 149.427 111.36 147.23Z" fill="#1B160F"/>
<path d="M190.173 149.472C203.173 143.119 218.28 162.065 208.267 173.582C199.573 178.899 187.613 176.128 182.693 166.697C181.92 159.575 182.933 152.368 190.173 149.472Z" fill="#FEF5E2"/>
<path d="M273.347 170.852C270.707 152.759 300.093 144.49 304.973 162.708C305.107 164.961 305.213 167.228 305.307 169.495C299.333 180.619 277.68 185.279 273.347 170.852Z" fill="#FEF4DB"/>
<path d="M373.2 154.09C374.534 155.125 375.827 156.231 377.133 157.35C378.867 161.212 380.627 165.074 382.493 168.88C382.853 170.685 383.254 172.477 383.72 174.282C377.12 170.126 375.72 161.17 373.2 154.09Z" fill="#99500C"/>
<path d="M176.08 193.381C176.587 190.988 186.08 190.988 186.573 193.381C183.04 193.339 179.533 193.339 176.08 193.381Z" fill="#7F5A1F"/>
<path d="M164.053 207.47C165.693 201.187 170.147 195.576 176.08 193.379C179.533 193.337 183.04 193.337 186.573 193.379C198.787 197.619 201.08 217.629 191.827 225.969C192.533 216.565 187.92 216.873 182.48 219.798C178.187 222.876 169.507 214.215 169.267 222.75C167.387 227.102 180.08 229.033 173.507 229.915C168.72 228.907 164.533 223.702 163.987 218.58C163.933 214.872 163.96 211.164 164.053 207.47ZM176.4 197.927C169.96 198.976 172.707 209.401 178.587 207.358C184.347 206.071 182.8 195.436 176.4 197.927Z" fill="#130E09"/>
<path d="M176.4 197.929C182.8 195.438 184.347 206.073 178.587 207.36C172.707 209.403 169.96 198.979 176.4 197.929Z" fill="#DEDDDD"/>
<path d="M296.253 200.278C297.36 197.689 303.96 197.648 305.027 200.32C302.84 200.306 298.453 200.278 296.253 200.278Z" fill="#8E5F1E"/>
<path d="M286.854 231.512C276.76 223.27 284.08 202.014 296.253 200.279C298.453 200.279 302.84 200.307 305.027 200.321C310.08 202.392 315.414 206.912 316.014 212.915C315.987 216.665 315.987 220.415 316 224.179C315.6 227.496 313.933 230.84 311.627 233.121C312.227 229.105 310.8 222.472 305.574 224.501C299.107 228.265 288.854 221.605 286.854 231.512ZM292.334 206.226C286.734 208.633 290.187 217.505 295.654 215.504C301.107 212.845 298.8 203.036 292.334 206.226Z" fill="#1C110A"/>
<path d="M292.333 206.227C298.8 203.036 301.106 212.845 295.653 215.504C290.186 217.505 286.733 208.634 292.333 206.227Z" fill="#E6E6E5"/>
<path d="M163.987 218.581C161.72 217.658 161.733 207.974 164.053 207.471C163.96 211.165 163.933 214.873 163.987 218.581Z" fill="#B28026"/>
<path opacity="0.37" d="M397.28 207.625C400.16 208.213 399.587 213.712 398.013 215.657C397.84 213.642 397.466 209.626 397.28 207.625Z" fill="#291D0E"/>
<path d="M316.013 212.916C318.253 213.965 318.267 223.187 316 224.18C315.987 220.416 315.987 216.666 316.013 212.916Z" fill="#6A4815"/>
<path d="M209.4 220.079C227.307 211.012 248.04 214.188 266.093 221.24C274.293 226.222 281.773 232.323 286.267 241.362C297.693 254.11 310.627 236.675 322.507 233.736C347.173 221.324 384.547 229.902 391.52 260.813C391.84 265.472 392.587 270.146 393.813 274.666C384.08 279.437 381.787 294.843 372.44 301.574C349.48 325.474 316.573 334.289 285.4 337.732C260.053 340.222 234.547 341.636 209.267 337.662C197.587 337.046 186.093 331.099 174.387 333.576C162.573 330.092 151.16 325.264 140.187 319.541C116.213 307.395 97.0667 284.265 91.4401 256.685C93.0001 250.066 95.0934 243.601 97 237.08C105.04 220.009 126.04 213.6 142.72 218.484C157.68 221.688 167.92 235.555 182.587 239.585C192.093 234.058 199.773 225.522 209.4 220.079ZM218.573 228.671C216.147 229.3 216.147 235.793 218.587 236.423C219.933 242.356 225.987 244.791 230.813 246.946C229.893 248.723 230.027 250.43 231.213 252.067C227.867 256.964 222.493 259.315 217.293 261.33C214.667 259.567 210.733 259.553 208.107 261.232C202.16 258.84 193.133 254.712 196.88 246.652C192.733 242.972 188.267 250.388 191 254.488C193.093 259.763 197.76 263.359 202.827 265.15C201.907 266.829 201.707 271.055 203.933 271.433C206.147 286.112 211.693 304.135 227.107 308.584C228.88 310.082 244.467 310.781 246.56 308.207C259.987 302.386 265.973 286.615 269.32 272.818C271.453 272.958 271.547 269.068 270.453 267.781C275.107 265.36 280.413 262.813 282.333 257.286C285.427 252.571 281.627 248.331 277.653 249.38C275.907 269.782 244.96 265.64 237.347 252.053C236.853 249.674 237.347 246.89 240.12 246.75C247.48 245.77 254.84 241.642 257.333 233.834C258.267 226.922 250.813 222.64 245.133 222.752C245.293 220.177 241.12 220.443 240.013 221.982C232.72 220.429 221.987 220.387 218.573 228.671ZM140.52 226.278C130.547 226.054 118.92 235.093 125.253 246.624C133.853 257.734 154.267 258.546 161.92 245.686C166.88 232.617 150.787 224.501 140.52 226.278ZM327.173 237.29C317.453 238.522 308.147 251.437 316.293 260.225C327.587 268.215 347.747 269.138 354.693 254.852C355.907 240.467 337.987 234.324 327.173 237.29Z" fill="#FCF2DC"/>
<path d="M182.48 219.799C187.92 216.874 192.533 216.566 191.827 225.969C188.827 232.21 177.093 233.498 173.507 229.915C180.08 229.034 167.387 227.103 169.267 222.751C169.507 214.215 178.187 222.877 182.48 219.799Z" fill="#2D2523"/>
<path d="M385.72 220.317C392.64 218.778 391.293 232.407 384.853 228.937C379.493 227.985 381.547 221.311 385.72 220.317Z" fill="#E48926"/>
<path d="M218.573 228.671C221.987 220.387 232.72 220.429 240.013 221.982C241.573 222.863 243.36 223.031 245.133 222.751C250.813 222.64 258.267 226.921 257.333 233.834C254.84 241.642 247.48 245.77 240.12 246.749C237.347 246.889 236.853 249.674 237.347 252.053C244.96 265.64 275.907 269.782 277.653 249.38C281.627 248.331 285.427 252.57 282.333 257.286C280.413 262.813 275.107 265.36 270.453 267.781C268.533 268.55 269.32 271.195 269.32 272.818C265.973 286.615 259.987 302.385 246.56 308.206C244.733 308.122 242.92 308.01 241.133 307.871C248.067 303.071 254.613 297.348 259.053 289.876C262.093 283.313 263.533 276.093 265.24 269.068C262.56 267.277 259.187 269.124 256.24 268.998C247.933 267.753 241.173 262.701 234.547 257.762C226.4 261.358 218.92 267.431 209.373 266.493C208.533 275.575 211.56 284.362 214.293 292.842C215.733 300.202 227.44 302.791 227.107 308.584C211.693 304.134 206.147 286.112 203.933 271.433C203.8 269.46 205.093 266.13 202.827 265.15C197.76 263.359 193.093 259.763 191 254.487C188.267 250.388 192.733 242.971 196.88 246.651C193.133 254.711 202.16 258.839 208.107 261.232C210.707 262.561 214.52 262.827 217.293 261.33C222.493 259.315 227.867 256.964 231.213 252.067C232.573 250.849 232.933 247.491 230.813 246.945C225.987 244.79 219.933 242.356 218.587 236.423C218.693 233.834 218.693 231.245 218.573 228.671ZM224.293 225.718C218.88 230.252 228.187 231.427 230.507 228.139C230.493 224.99 226.387 225.298 224.293 225.718Z" fill="#251913"/>
<path d="M240.013 221.982C241.12 220.443 245.293 220.177 245.133 222.752C243.36 223.032 241.573 222.864 240.013 221.982Z" fill="#817464"/>
<path d="M286.854 231.511C288.854 221.604 299.107 228.264 305.574 224.5C310.8 222.471 312.227 229.104 311.627 233.12C306.32 240.41 291.374 240.396 286.854 231.511Z" fill="#342822"/>
<path d="M140.52 226.278C150.787 224.501 166.88 232.617 161.92 245.686C154.267 258.546 133.853 257.734 125.253 246.624C118.92 235.094 130.547 226.054 140.52 226.278Z" fill="#FDB7B8"/>
<path d="M327.173 237.291C337.987 234.324 355.907 240.467 354.693 254.852C347.747 269.139 327.587 268.215 316.293 260.225C308.147 251.438 317.453 238.522 327.173 237.291Z" fill="#FDB7B8"/>
<path d="M224.293 225.718C226.387 225.298 230.493 224.99 230.507 228.139C228.187 231.427 218.88 230.252 224.293 225.718Z" fill="#A49485"/>
<path d="M218.587 236.424C216.147 235.794 216.147 229.302 218.573 228.672C218.693 231.247 218.693 233.835 218.587 236.424Z" fill="#77695B"/>
<path d="M90.1734 251.171C88.72 245.434 89.2667 239.333 90.32 233.582C90.28 239.445 90.2267 245.308 90.1734 251.171Z" fill="#8B6D46"/>
<path opacity="0.53" d="M402.667 234.197C405.547 235.471 404.707 241.194 403.293 243.67C402.347 240.606 402.133 237.444 402.667 234.197Z" fill="#2E210E"/>
<path d="M391.52 260.812C394.107 255.215 392.813 246.428 398.613 243.279C398.853 253.928 397.027 264.577 393.813 274.665C392.587 270.146 391.84 265.472 391.52 260.812Z" fill="#DF9320"/>
<path d="M230.813 246.945C232.933 247.491 232.573 250.849 231.213 252.067C230.026 250.43 229.893 248.722 230.813 246.945Z" fill="#A69D8E"/>
<path opacity="0.49" d="M402.693 258.88C402.373 256.614 402.48 254.291 403.373 252.178C404.707 253.787 405.293 258.628 402.693 258.88Z" fill="#2E2111"/>
<path d="M209.373 266.493C218.92 267.431 226.4 261.358 234.547 257.762C241.173 262.701 247.933 267.753 256.24 268.998C254.8 276.05 249.053 267.809 256.24 268.998C259.187 269.124 262.56 267.277 265.24 269.068C263.533 276.092 262.093 283.313 259.053 289.876C251.733 270.062 217.026 269.544 214.293 292.842C211.56 284.362 208.533 275.575 209.373 266.493Z" fill="#A43436"/>
<path d="M208.107 261.232C210.733 259.553 214.667 259.567 217.293 261.33C214.52 262.828 210.707 262.562 208.107 261.232Z" fill="#84745F"/>
<path opacity="0.94" d="M62.76 267.656C66.16 264.228 73.5067 264.466 76.0267 268.748C74.5734 269.223 73.1334 269.713 71.7067 270.203C67.5067 269.643 63.3467 271.056 62.1733 275.772C61.6 277.927 60.4533 278.725 58.64 277.241C51.56 272.512 39.1733 274.107 37.5733 284C37.6133 287.106 35.7067 288.799 33.2 289.905C27.16 292.55 26.4266 300.652 30.3866 305.633C32.36 307.564 30.48 309.257 29.1733 310.866C27.0133 312.112 27.16 315.092 28.8267 316.715C29.9467 319.136 30.9866 321.725 32.88 323.642C39.2533 330.275 47.5467 334.486 54.44 340.489C74.48 358.82 98.3733 374.618 124.84 379.278C126 375.78 126.96 372.211 128.28 368.769C129.453 366.488 130.613 364.193 131.827 361.927C132.52 363.62 133.173 365.327 133.813 367.062C131.36 373.807 129.84 380.859 127.773 387.73C126.053 389.227 126.107 391.676 126.893 393.677C126.747 394.278 126.48 395.482 126.347 396.083C124.64 398.126 124.827 400.911 125.52 403.346C125.427 403.933 125.253 405.123 125.173 405.71C123.987 411.895 123.187 418.486 124.813 424.671C125.707 428.995 126.8 433.179 127.947 437.46C128 437.964 128.133 438.972 128.2 439.475C128.587 444.779 131.173 449.494 132.28 454.644C131.44 464.607 133.12 474.78 137.307 483.777C138.16 486.38 139.093 488.968 140.107 491.529C136.387 495.545 133.373 500.457 134.653 506.502C132.72 511.315 135.733 514.827 138.627 518.172C128.053 514.785 129.347 499.267 134.133 490.956C133.68 482.714 126.653 475.101 127.987 466.23C127.533 461.528 129.213 456.281 126.853 451.985C123.787 445.576 122.427 438.3 121.32 431.276C121.307 421.453 121.28 411.657 121.347 401.848C121.507 400.771 121.8 398.616 121.947 397.539C122.173 395.524 122.6 391.522 122.827 389.521C122.693 388.499 122.453 386.442 122.333 385.421C96.4933 376.941 72.1466 363.536 51.64 344.897C44.9866 334.472 29.4 333.703 25.4267 320.619C22.76 315.134 26.1467 309.005 24.1067 303.52C24.0534 301.239 23.92 296.664 23.8667 294.383C25.3334 287.106 33.76 284.14 35.1333 276.36C41.5866 264.788 55.3467 275.8 62.76 267.656Z" fill="#2E180C"/>
<path d="M202.827 265.15C205.093 266.13 203.8 269.46 203.933 271.433C201.707 271.055 201.907 266.83 202.827 265.15Z" fill="#AFA593"/>
<path d="M269.32 272.819C269.32 271.196 268.534 268.551 270.454 267.781C271.547 269.069 271.454 272.959 269.32 272.819Z" fill="#ABA08F"/>
<path opacity="0.96" d="M71.7067 270.201C73.1333 269.712 74.5733 269.222 76.0267 268.746C78.12 269.628 78.9733 272.16 80.44 273.84C79.4666 275.099 78.4933 276.33 77.5066 277.562C75.68 275.015 73.68 272.622 71.7067 270.201Z" fill="#794F2F"/>
<path d="M256.24 268.999C254.8 276.051 249.053 267.809 256.24 268.999Z" fill="#D8837F"/>
<path d="M62.1733 275.771C63.3466 271.055 67.5067 269.642 71.7067 270.201C73.68 272.622 75.68 275.015 77.5066 277.562C80.5733 286.769 91.5866 287.609 98.9733 291.107C99.9599 292.156 100.96 293.234 101.96 294.311C96.0399 296.41 91.08 290.141 85.7067 288.378C84.7467 307.661 77.1066 328.314 60.0666 337.843C49.3333 337.815 42.6666 322.857 32.8799 323.641C30.9866 321.723 29.9466 319.135 28.8266 316.714C29.5466 314.797 29.6533 312.852 29.1733 310.865C30.48 309.256 32.3599 307.563 30.3866 305.632C26.4266 300.65 27.16 292.548 33.2 289.904C42.76 292.758 42.7599 288.14 37.5733 283.998C39.1733 274.105 51.5599 272.51 58.6399 277.24C60.0399 281.676 60.5333 290.309 66.7733 288.518C66.4666 283.845 62.7333 280.416 62.1733 275.771ZM46.92 281.648C40.48 285.412 47.9733 296.774 52.4133 290.351C57.4 287.105 51.8 279.087 46.92 281.648ZM37.6266 294.283C33.1199 297.306 37.6266 305.002 41.76 303.029C46.56 299.797 43.4533 291.443 37.6266 294.283ZM59.16 294.577C48.44 296.788 45.1067 314.181 52.9467 321.108C63.8267 327.866 67.8133 312.432 72.44 305.772C73.6533 298.901 65.9466 291.191 59.16 294.577ZM36.2933 308.234C34.2266 311.117 33.64 317.358 38.6666 316.56C45.88 317.288 41.8933 305.8 36.2933 308.234Z" fill="#FBEDD5"/>
<path opacity="0.46" d="M81.36 272.973C81.8667 270.623 87.4266 270.539 87.7466 273.043C85.6 273.155 83.4533 273.169 81.36 272.973Z" fill="#65625F"/>
<path d="M80.4401 273.84L81.3601 272.973C80.6134 280.179 89.9334 281.424 95.16 283.369C96.68 285.804 97.8533 288.449 98.9733 291.107C91.5867 287.609 80.5734 286.77 77.5067 277.562C78.4934 276.331 79.4667 275.1 80.4401 273.84Z" fill="#B39074"/>
<path opacity="0.98" d="M81.36 272.973C83.4534 273.169 85.6 273.155 87.7467 273.043C88.3867 273.099 89.6934 273.225 90.3467 273.294C91.72 276.765 93.3333 280.123 95.16 283.369C89.9333 281.424 80.6134 280.179 81.36 272.973Z" fill="#EDE9E4"/>
<path opacity="0.95" d="M419.173 273.643C426.907 268.843 427.76 281.773 434.627 280.164C438.16 280.164 441.733 280.164 445.36 280.15C451.907 281.283 458.253 287.58 457.747 295.094C472.413 302.874 466.36 325.305 461.107 337.227C439.413 353.053 416.227 369.536 393.547 382.2C407.933 385.474 418.493 399.257 420.027 414.426C419.96 420.961 420.013 427.537 420.013 434.1C414.227 459.959 390 478.793 365.053 480.319C361.227 478.835 358.293 479.143 356.253 481.242C352.84 487.399 351.027 493.738 354.76 500.091C354.6 502.693 354.6 505.31 354.773 507.941C352.547 521.094 338.587 523.445 328.027 525.012C318.2 525.012 308.413 524.998 298.627 524.998C289.787 524.144 281.16 520.982 273.4 516.546C269.187 508.458 266.413 499.671 262.427 491.499C248.827 491.149 235.2 492.045 221.693 490.254C218.32 498.048 216.987 506.975 212.293 513.986C212.853 511.117 212.773 508.193 212.053 505.366C213 499.895 215.667 495.039 217.787 490.016C218.627 488.099 219.387 486.154 220.227 484.237C220.8 484.349 221.947 484.572 222.52 484.684C223.92 486.448 226.227 486.35 228.133 485.608C229.747 485.776 231.373 485.944 233.013 486.112C241.96 487.595 251.16 487.777 260.107 485.986C269.88 484.586 268.387 499.923 274.107 505.702C274.48 516.434 287.013 517.974 294.56 519.807C296.507 521.458 299.107 521.332 301.427 520.618C305.733 522.06 308.893 521.682 310.907 519.499C312.867 514.587 311.413 509.634 309.267 505.226C311.667 505.464 313.68 507.213 314.907 509.34C310.827 520.534 316.827 524.942 325.707 521.36C329.92 520.31 335.48 517.876 334.893 512.348C334.973 510.194 334.28 508.123 333.067 506.429C333.933 505.436 334.84 504.484 335.8 503.561C336.227 504.302 337.093 505.8 337.52 506.541C339.187 508.57 334.48 521.766 339.76 518.533C344.013 516.308 348.813 513.748 349.827 508.346C352.76 502.917 349.587 498.09 346.333 494.284C349.027 485.916 352.373 477.786 354.8 469.32C355.373 463.037 359.227 465.528 358.813 470.649C359.173 474.344 356.653 480.92 365.373 476.009C389.587 473.91 412.32 454.292 416.373 428.699C416.947 424.347 418.227 419.729 416.187 415.629C413.027 403.399 407.4 389.616 394.187 387.014C385.533 383.809 370.533 387.21 365.4 393.227C365.267 398.488 366.16 403.651 366.693 408.885C366.68 409.528 366.667 410.802 366.653 411.445C365.333 411.963 364.027 412.481 362.747 413.027C362.32 410.76 361.787 408.521 361.24 406.31C360.533 399.775 362.293 388.973 352.893 392.107C351.947 390.736 351 389.364 350.16 387.937C351.747 381.374 362.307 389.784 366.707 385.139C390.88 378.534 414.4 367.242 433.68 350.422C434.973 349.331 436.28 348.281 437.627 347.218C438.2 346.952 439.36 346.406 439.947 346.14C445.307 343.51 450.64 340.445 455.107 336.289C458.813 332.567 464.84 324.353 458.627 320.351C459.013 319.022 459.44 317.707 459.907 316.405C464.707 311.872 463.187 302.174 456.76 300.467C444.627 302.734 455.893 296.13 452.987 291.75C449.467 282.5 438.427 283.844 430.8 285.621C430.173 285.593 428.933 285.565 428.32 285.537C427.107 280.178 422.987 275 417.573 278.764C416.133 278.219 414.72 277.673 413.32 277.141C414.48 275.056 417.2 274.678 419.173 273.643Z" fill="#331B0F"/>
<path d="M214.293 292.841C217.027 269.543 251.734 270.061 259.054 289.875C254.614 297.347 248.067 303.07 241.133 307.87C242.92 308.009 244.734 308.121 246.56 308.205C244.467 310.78 228.88 310.08 227.107 308.583C227.44 302.79 215.733 300.201 214.293 292.841Z" fill="#F78A87"/>
<path d="M372.44 301.574C381.787 294.844 384.08 279.438 393.813 274.666C392.373 279.983 389.693 284.811 387.467 289.778C365.92 325.404 324.227 337.522 286.64 341.79C284.64 341.986 280.613 342.364 278.6 342.56C276.933 342.868 275.28 343.147 273.64 343.399C257.853 342.938 242.093 343.036 226.333 343.231C225.747 343.119 224.587 342.91 224 342.798C220.693 340.461 217.56 340.223 214.613 342.112C212.427 341.86 210.267 341.65 208.133 341.44C206.693 339.635 204.347 339.719 202.48 340.531L201.52 340.055C200.08 338.208 197.707 338.348 195.84 339.201C188.64 337.494 181.36 336.095 174.387 333.576C186.093 331.1 197.587 337.047 209.267 337.662C234.547 341.636 260.053 340.223 285.4 337.732C316.573 334.29 349.48 325.474 372.44 301.574Z" fill="#EACBAB"/>
<path d="M58.64 277.241C60.4533 278.724 61.6 277.926 62.1734 275.771C62.7334 280.417 66.4667 283.845 66.7734 288.519C60.5334 290.31 60.04 281.676 58.64 277.241Z" fill="#D98A40"/>
<path opacity="0.93" d="M393.76 291.611C402.613 290.492 407.853 283.481 413.32 277.143C414.72 277.674 416.133 278.22 417.573 278.766C410.453 288.757 401.547 297.111 389.213 298.482C391.213 296.579 392.627 294.172 393.76 291.611Z" fill="#8A684F"/>
<path d="M417.573 278.767C422.987 275.003 427.107 280.18 428.32 285.539C426.6 289.275 424.893 293.067 423.933 297.111C429.187 296.328 431.533 290.689 430.8 285.623C438.427 283.846 449.467 282.503 452.987 291.752C455.893 296.132 444.627 302.737 456.76 300.47C463.187 302.177 464.707 311.874 459.907 316.408C453.56 316.198 443.307 322.621 458.627 320.354C464.84 324.356 458.813 332.57 455.107 336.292C450.12 333.829 438.107 340.378 439.947 346.143C439.36 346.409 438.2 346.954 437.627 347.22C434.893 346.213 432.067 346.8 429.333 347.276C410.507 339.846 401.387 317.121 402.587 297.167C397.84 299.294 392.907 301.799 387.56 300.078C387.973 299.672 388.8 298.875 389.213 298.483C401.547 297.111 410.453 288.758 417.573 278.767ZM437.627 292.886C434.173 296.412 437.827 302.597 442.293 300.82C448.04 298.343 442.467 290.213 437.627 292.886ZM424.4 303.016C419.187 303.954 412.973 309.341 416.867 315.568C421.04 321.249 421.907 331.156 430.427 331.478C443.68 326.259 439.573 300.848 424.4 303.016ZM447 304.178C441.4 306.585 444.853 315.456 450.32 313.455C455.773 310.797 453.467 300.987 447 304.178ZM448.387 322.467C440.653 323.138 445.853 333.717 451.067 329.547C455.44 327.602 451.907 321.347 448.387 322.467Z" fill="#FAECD2"/>
<path opacity="0.58" d="M434.626 280.165C435.533 277.73 444.453 277.716 445.36 280.151C441.733 280.165 438.16 280.165 434.626 280.165Z" fill="#2B1F14"/>
<path d="M46.92 281.647C51.8 279.086 57.4 287.104 52.4133 290.35C47.9733 296.773 40.48 285.411 46.92 281.647Z" fill="#F9B09F"/>
<path d="M37.5734 283.998C42.76 288.14 42.7601 292.758 33.2001 289.903C35.7067 288.798 37.6134 287.104 37.5734 283.998Z" fill="#B5835C"/>
<path d="M428.32 285.537C428.933 285.565 430.173 285.593 430.8 285.621C431.533 290.687 429.186 296.326 423.933 297.109C424.893 293.065 426.6 289.273 428.32 285.537Z" fill="#BA5F4F"/>
<path d="M85.7067 288.379C91.08 290.142 96.0399 296.411 101.96 294.312C105.56 298.09 108.587 302.4 112.027 306.36C114.133 320.703 126.373 331.449 138.907 336.039C141.16 340.251 142.787 344.812 145.04 349.038C150.813 365.018 162.48 377.122 172.16 390.457C159.28 411.181 160.84 440.706 178.213 458.127C183.373 466.985 192.293 471.714 200.253 477.326C197.04 477.004 193.88 476.458 190.72 476.024C196.467 483.93 201.507 492.494 202.64 502.625C200.947 502.569 199.253 502.527 197.587 502.485C186.813 496.342 175.04 492.004 163 489.639C157.88 488.45 152.653 488.38 147.6 489.555C145.04 490.031 142.56 490.759 140.107 491.528C139.093 488.968 138.16 486.379 137.307 483.776C140.72 474.961 133.587 465.823 135.32 456.7C134.92 450.305 131.133 444.876 128.2 439.475C128.133 438.971 128 437.963 127.947 437.46C127.493 413.042 133.253 389.17 135.267 365.032C137.093 360.149 134.413 355.517 131.827 361.926C130.613 364.193 129.453 366.488 128.28 368.768C101.96 370.406 77.6666 355.181 57.3199 339.271C58.0133 338.921 59.3733 338.208 60.0666 337.844C77.1066 328.315 84.7467 307.661 85.7067 288.379Z" fill="#FAB438"/>
<path d="M286.64 341.791C324.227 337.523 365.92 325.405 387.467 289.779C389.36 292.942 391.56 293.361 393.387 289.919L393.76 291.612C392.627 294.173 391.214 296.58 389.214 298.483C388.8 298.875 387.974 299.672 387.56 300.078C383.867 303.884 380.774 308.222 376.907 311.832C375.574 312.826 374.28 313.861 373.08 315.009C372.774 315.302 372.147 315.876 371.84 316.17C365.307 321.641 355.067 323.978 352.96 333.661C352.613 329.519 351.6 326.427 347.933 330.037C345.333 331.478 342.653 332.738 340 333.997C328.64 338.363 317.04 341.791 305.16 344.114C302.573 344.31 299.987 344.436 297.427 344.66C309.827 339.79 291.547 343.218 286.694 342.91L286.64 341.791Z" fill="#44271A"/>
<path d="M437.626 292.884C442.466 290.211 448.04 298.341 442.293 300.818C437.826 302.595 434.173 296.41 437.626 292.884Z" fill="#F69F93"/>
<path opacity="0.44" d="M24.1067 303.52C21.36 302.653 21.56 295.628 23.8667 294.383C23.92 296.664 24.0534 301.239 24.1067 303.52Z" fill="#29211A"/>
<path d="M37.6266 294.283C43.4532 291.442 46.56 299.796 41.76 303.028C37.6266 305.001 33.1199 297.305 37.6266 294.283Z" fill="#FCB7B2"/>
<path d="M59.16 294.578C65.9467 291.191 73.6534 298.901 72.44 305.772C67.8134 312.433 63.8267 327.867 52.9467 321.108C45.1067 314.182 48.44 296.789 59.16 294.578Z" fill="#FCB5B3"/>
<path d="M387.56 300.077C392.907 301.798 397.84 299.293 402.586 297.166C401.386 317.12 410.507 339.844 429.333 347.275L429.44 348.436C407.08 368.474 377.293 374.491 349.507 381.306C349.667 382.971 350 386.287 350.16 387.938C351 389.365 351.947 390.737 352.893 392.108C351.787 398.279 358.507 401.777 361.24 406.311C361.787 408.522 362.32 410.761 362.747 413.028C362.693 415.392 362.653 417.757 362.667 420.136C363.387 431.302 361.467 442.483 356.027 452.11C352.533 466.537 347.747 480.641 339.52 492.857C319.427 487.414 300.013 494.914 282.013 503.506C279.32 504.024 276.626 504.611 274.106 505.703C274.146 496.635 274.186 487.512 277.306 478.962C275.026 478.738 272.746 478.668 270.493 478.64C275.866 474.485 280.64 469.517 284.387 463.71C292.373 455.93 298.24 445.659 300.306 434.395C301.226 428.644 302.213 422.487 300.466 416.834C299.08 412.118 297.573 407.5 295.88 402.953C295.413 401.693 294.987 400.448 294.573 399.203C300.027 395.103 305.426 390.947 310.8 386.721C312.76 386.959 314.453 385.461 314.48 383.349C326.92 371.902 339.786 359.994 347.96 344.644C353.373 339.886 361.107 340.446 367 336.584C371.24 333.632 374.413 329.154 377.667 325.04C379.8 321.024 381.48 314.587 376.907 311.831C380.773 308.22 383.867 303.883 387.56 300.077Z" fill="#FAB335"/>
<path d="M424.4 303.016C439.574 300.847 443.68 326.258 430.427 331.477C421.907 331.156 421.04 321.249 416.867 315.567C412.974 309.341 419.187 303.953 424.4 303.016Z" fill="#FCADAC"/>
<path d="M447 304.176C453.467 300.986 455.773 310.795 450.32 313.453C444.853 315.454 441.4 306.583 447 304.176Z" fill="#F5A292"/>
<path d="M112.027 306.359C120.08 311.243 126.413 318.939 135.44 322.199C135.947 322.773 136.973 323.948 137.48 324.536C137.333 328.426 137.893 332.288 138.907 336.038C126.373 331.449 114.133 320.702 112.027 306.359Z" fill="#D78E20"/>
<path d="M36.5579 308.35C42.3102 305.841 46.4054 317.678 38.9958 316.928C33.8324 317.75 34.435 311.32 36.5579 308.35Z" fill="#FBA6A2"/>
<path d="M28.8267 316.716C27.1601 315.093 27.0134 312.113 29.1734 310.867C29.6534 312.854 29.5467 314.799 28.8267 316.716Z" fill="#B2957B"/>
<path d="M373.08 315.008C374.28 313.861 375.573 312.826 376.907 311.832C381.48 314.589 379.8 321.025 377.667 325.041C378.067 320.843 376.307 317.373 373.08 315.008Z" fill="#B7823C"/>
<path d="M371.84 316.169C372.147 315.875 372.773 315.302 373.08 315.008C376.307 317.373 378.067 320.843 377.667 325.041C374.413 329.155 371.24 333.632 367 336.585C367.227 335.731 367.68 334.01 367.907 333.157C372.32 328.861 375.333 322.2 371.84 316.169Z" fill="#7C7865"/>
<path d="M352.96 333.661C355.066 323.978 365.306 321.641 371.84 316.17C375.333 322.201 372.32 328.861 367.907 333.157C363.533 334.123 349.32 344.534 352.96 333.661Z" fill="#3D7EAF"/>
<path d="M458.627 320.351C443.307 322.618 453.56 316.196 459.907 316.405C459.44 317.707 459.013 319.022 458.627 320.351Z" fill="#DCA880"/>
<path d="M140.187 319.541C151.16 325.264 162.573 330.092 174.387 333.576C181.36 336.095 188.64 337.494 195.84 339.201C197.307 340.894 199.6 340.852 201.52 340.055L202.48 340.53C203.88 342.322 206.213 342.238 208.133 341.44C210.267 341.65 212.427 341.86 214.613 342.112C217.787 344.211 220.92 344.434 224 342.797C224.587 342.909 225.747 343.119 226.333 343.231C241.933 345.456 257.96 345.05 273.64 343.399C275.28 343.147 276.933 342.867 278.6 342.559C281.147 343.651 284.067 344.197 286.693 342.909C291.547 343.217 309.827 339.789 297.427 344.658C295.693 345.274 293.933 345.806 292.2 346.323C287.987 344.043 284.8 344.392 282.667 347.373L281.627 347.457C276.493 347.275 271.427 347.653 266.453 348.618C265.907 348.716 264.84 348.912 264.307 349.01C253.48 348.646 242.68 348.716 231.88 348.8L230.787 348.66C226.187 347.611 221.653 347.233 217 347.373C216.413 347.275 215.253 347.079 214.68 346.981C211.333 344.602 208.187 344.406 205.253 346.421C197.76 344.756 190.173 343.525 182.773 341.566C181.453 339.733 179.173 339.691 177.307 340.335C168.76 337.578 160.333 334.471 152 331.113C148.493 329.35 144.973 327.615 141.413 326.09C140.107 325.516 138.787 324.998 137.48 324.536C136.973 323.949 135.947 322.773 135.44 322.2C136.987 321.276 138.587 320.409 140.187 319.541Z" fill="#13161A"/>
<path d="M32.88 323.641C42.6667 322.857 49.3334 337.816 60.0667 337.844C59.3734 338.208 58.0134 338.921 57.32 339.271C56.6 339.579 55.1601 340.181 54.4401 340.489C47.5467 334.486 39.2533 330.274 32.88 323.641Z" fill="#E0C39E"/>
<path d="M448.387 322.465C451.907 321.346 455.44 327.601 451.067 329.546C445.853 333.715 440.653 323.137 448.387 322.465Z" fill="#F09F85"/>
<path d="M137.48 324.537C138.787 324.999 140.107 325.517 141.413 326.09C141.653 329.533 142.693 332.835 144.08 335.955C144.36 340.279 144.813 344.687 145.04 349.039C142.787 344.813 141.16 340.251 138.907 336.039C137.893 332.289 137.333 328.427 137.48 324.537Z" fill="#1D4768"/>
<path d="M141.413 326.09C144.973 327.615 148.493 329.35 152 331.113C150.347 344.742 167.893 348.856 176.307 355.699C175.76 357.336 175.2 358.973 174.613 360.596C164.507 357.42 157.067 346.296 147.573 344.197C146.36 341.468 145.28 338.669 144.08 335.955C142.693 332.834 141.653 329.532 141.413 326.09Z" fill="#2E8FD0"/>
<path d="M347.933 330.037C351.6 326.427 352.613 329.519 352.96 333.661C349.32 344.534 363.534 334.123 367.907 333.157C367.68 334.011 367.227 335.732 367 336.586C361.107 340.448 353.373 339.888 347.96 344.645C347.453 342.812 346.987 340.965 346.64 339.118C348.053 336.558 353.467 330.429 347.933 330.037Z" fill="#324C5C"/>
<path d="M340 333.995C342.653 332.736 345.333 331.476 347.933 330.035C353.467 330.427 348.053 336.556 346.64 339.117C344.72 341.817 342.973 344.658 340.64 346.995C334.773 348.1 330 352.816 324.187 354.481C321.387 354.845 318.613 355.32 315.813 355.586C321.04 345.399 338.373 344.448 340 333.995Z" fill="#247FC2"/>
<path d="M176.307 355.699C167.893 348.856 150.347 344.742 152 331.113C160.333 334.472 168.76 337.578 177.307 340.335C178.453 342.378 180.88 342.252 182.773 341.566C190.173 343.525 197.76 344.756 205.253 346.422C208.493 348.423 211.627 348.618 214.68 346.981C215.253 347.079 216.413 347.275 217 347.373C221.48 348.325 226.187 348.744 230.787 348.66L231.88 348.8C242.493 350.06 253.747 351.767 264.307 349.01C264.84 348.912 265.907 348.716 266.453 348.618C271.493 348.479 276.547 348.087 281.627 347.457L282.667 347.373C286.227 348.688 289.413 348.339 292.2 346.324C293.933 345.806 295.693 345.274 297.427 344.658C299.987 344.435 302.573 344.309 305.16 344.113C305.907 344.239 307.373 344.477 308.107 344.602C298.587 352.397 286.853 356.357 277.28 364.011C244.347 377.178 207.36 372.56 176.307 355.699Z" fill="#5FB8EB"/>
<path d="M305.16 344.113C317.04 341.79 328.64 338.362 340 333.996C338.373 344.449 321.04 345.4 315.813 355.587C318.613 355.321 321.387 354.846 324.187 354.482C298.467 365.662 270.293 369.944 242.867 374.254C219.133 379.263 196.267 369.356 174.613 360.597C175.2 358.974 175.76 357.336 176.307 355.699C207.36 372.561 244.347 377.178 277.28 364.011C286.853 356.357 298.587 352.397 308.107 344.603C307.373 344.477 305.907 344.239 305.16 344.113Z" fill="#46A5E2"/>
<path d="M439.947 346.142C438.107 340.377 450.12 333.828 455.107 336.291C450.64 340.447 445.307 343.511 439.947 346.142Z" fill="#D6BB9E"/>
<path d="M144.08 335.955C145.28 338.67 146.36 341.468 147.573 344.197C163.373 382.118 196.173 410.146 231.947 425.552C274.453 411.685 314.067 384.762 340.64 346.996C342.973 344.659 344.72 341.818 346.64 339.117C346.987 340.965 347.453 342.812 347.96 344.645C339.787 359.995 326.92 371.903 314.48 383.349C312.507 383.195 310.893 384.651 310.8 386.721C305.427 390.947 300.027 395.103 294.573 399.203C282.547 407.515 270.147 415.337 256.907 421.34C246 424.95 233.84 434.144 222.68 426.993C203.8 418.164 187.88 404.227 172.16 390.458C162.48 377.122 150.813 365.018 145.04 349.038C144.813 344.687 144.36 340.279 144.08 335.955Z" fill="#206B9E"/>
<path d="M54.4401 340.489C55.1601 340.181 56.6 339.579 57.32 339.271C77.6667 355.181 101.96 370.406 128.28 368.769C126.96 372.211 126 375.779 124.84 379.277C98.3734 374.618 74.4801 358.82 54.4401 340.489Z" fill="#D8881C"/>
<path d="M195.84 339.202C197.707 338.348 200.08 338.208 201.52 340.055C199.6 340.853 197.307 340.895 195.84 339.202Z" fill="#8A7565"/>
<path d="M177.307 340.336C179.173 339.692 181.453 339.734 182.773 341.567C180.88 342.253 178.453 342.379 177.307 340.336Z" fill="#2D6A92"/>
<path d="M202.48 340.53C204.347 339.718 206.693 339.634 208.133 341.44C206.213 342.237 203.88 342.321 202.48 340.53Z" fill="#725E4D"/>
<path d="M214.613 342.11C217.56 340.221 220.693 340.459 224 342.796C220.92 344.433 217.787 344.209 214.613 342.11Z" fill="#987B62"/>
<path d="M278.6 342.559C280.613 342.363 284.64 341.985 286.64 341.789L286.694 342.908C284.067 344.196 281.147 343.65 278.6 342.559Z" fill="#8E725B"/>
<path d="M147.573 344.197C157.067 346.296 164.507 357.421 174.613 360.597C196.267 369.357 219.133 379.264 242.867 374.254C270.293 369.944 298.467 365.662 324.187 354.482C330 352.817 334.773 348.101 340.64 346.996C314.067 384.763 274.453 411.685 231.947 425.552C196.173 410.146 163.373 382.118 147.573 344.197Z" fill="#64BAEC"/>
<path d="M226.333 343.232C242.093 343.036 257.853 342.938 273.64 343.4C257.96 345.051 241.933 345.457 226.333 343.232Z" fill="#766756"/>
<path d="M205.253 346.421C208.187 344.406 211.333 344.602 214.68 346.981C211.627 348.618 208.493 348.422 205.253 346.421Z" fill="#3176A2"/>
<path d="M282.667 347.374C284.8 344.394 287.987 344.044 292.2 346.325C289.413 348.34 286.227 348.69 282.667 347.374Z" fill="#316485"/>
<path d="M429.333 347.276C432.067 346.801 434.893 346.213 437.627 347.221C436.28 348.284 434.974 349.333 433.68 350.425C432.254 349.739 430.84 349.082 429.44 348.438L429.333 347.276Z" fill="#E2B782"/>
<path d="M217 347.374C221.653 347.234 226.187 347.612 230.787 348.661C226.187 348.745 221.48 348.325 217 347.374Z" fill="#2F5F7E"/>
<path d="M266.453 348.62C271.426 347.654 276.493 347.276 281.626 347.458C276.546 348.088 271.493 348.48 266.453 348.62Z" fill="#2C5F83"/>
<path d="M231.88 348.802C242.68 348.718 253.48 348.648 264.306 349.012C253.746 351.768 242.493 350.061 231.88 348.802Z" fill="#408BB3"/>
<path d="M349.507 381.305C377.294 374.49 407.08 368.473 429.44 348.436C430.84 349.079 432.254 349.737 433.68 350.423C414.4 367.242 390.88 378.534 366.707 385.139C362.307 389.785 351.747 381.375 350.16 387.938C350 386.286 349.667 382.97 349.507 381.305Z" fill="#DA8A20"/>
<path d="M131.827 361.925C134.413 355.517 137.093 360.148 135.267 365.032C134.907 365.536 134.173 366.557 133.813 367.061C133.173 365.326 132.52 363.619 131.827 361.925Z" fill="#76521D"/>
<path d="M135.267 365.033C133.253 389.171 127.493 413.043 127.947 437.461C126.8 433.179 125.707 428.995 124.813 424.671C124.96 418.332 125.04 412.022 125.173 405.711C125.253 405.123 125.427 403.934 125.52 403.346C127.453 401.415 127.147 398.476 126.347 396.084C126.48 395.482 126.747 394.278 126.893 393.677C128.6 392.194 128.48 389.717 127.773 387.73C129.84 380.859 131.36 373.807 133.813 367.062C134.173 366.558 134.907 365.537 135.267 365.033Z" fill="#F0CF80"/>
<path d="M310.8 386.721C310.893 384.65 312.506 383.195 314.48 383.349C314.453 385.462 312.76 386.959 310.8 386.721Z" fill="#8B7852"/>
<path d="M365.4 393.228C370.533 387.211 385.533 383.811 394.187 387.015C407.4 389.618 413.027 403.401 416.187 415.631C416.107 419.941 416.24 424.349 416.373 428.7C415.707 428.393 414.387 427.763 413.72 427.455C410.947 436.858 402.507 451.103 391.387 446.737C399.973 434.214 394.387 412.581 380.213 407.235C374.333 403.653 373.773 394.18 365.4 393.228Z" fill="#FBF0DE"/>
<path d="M126.893 393.676C126.107 391.675 126.053 389.226 127.773 387.729C128.48 389.716 128.6 392.192 126.893 393.676Z" fill="#8B7654"/>
<path opacity="0.38" d="M121.947 397.538C120.453 395.523 119.773 389.953 122.827 389.52C122.6 391.521 122.173 395.523 121.947 397.538Z" fill="#211A12"/>
<path d="M172.16 390.459C187.88 404.228 203.8 418.165 222.68 426.995C233.84 434.145 246 424.952 256.907 421.341C271.16 423.021 282.187 406.481 295.88 402.955C297.573 407.502 299.08 412.12 300.467 416.836C300.36 422.671 300.307 428.52 300.307 434.397C298.24 445.661 292.373 455.932 284.387 463.712C250.533 478.88 210.533 476.334 178.213 458.129C160.84 440.708 159.28 411.183 172.16 390.459Z" fill="#FDF1DB"/>
<path d="M352.893 392.109C362.293 388.974 360.533 399.777 361.24 406.312C358.507 401.778 351.787 398.28 352.893 392.109Z" fill="#D78F22"/>
<path d="M365.4 393.227C373.773 394.178 374.333 403.651 380.213 407.234C375.96 407.499 372 407.891 367.92 408.703L366.693 408.885C366.16 403.651 365.267 398.488 365.4 393.227Z" fill="#F3D9BA"/>
<path d="M125.52 403.344C124.827 400.91 124.64 398.125 126.347 396.082C127.147 398.475 127.453 401.413 125.52 403.344Z" fill="#9E8458"/>
<path d="M256.907 421.34C270.147 415.337 282.547 407.515 294.573 399.203C294.987 400.448 295.413 401.694 295.88 402.953C282.187 406.479 271.16 423.019 256.907 421.34Z" fill="#DDCDBD"/>
<path opacity="0.56" d="M121.32 431.273C119.56 425.242 118.213 407.667 121.347 401.846C121.28 411.655 121.307 421.45 121.32 431.273Z" fill="#261B11"/>
<path d="M124.813 424.671C123.187 418.486 123.987 411.896 125.173 405.711C125.04 412.022 124.96 418.333 124.813 424.671Z" fill="#6F5330"/>
<path d="M367.92 408.704C372 407.892 375.96 407.5 380.213 407.234C394.387 412.58 399.973 434.213 391.387 446.736C389.067 451.172 387.84 456.154 385.84 460.743C373.986 460.869 380.666 444.945 374.626 438.173C380.226 434.912 383.76 427.342 380.413 420.961C378.707 410.998 364.426 420.318 367.92 408.704Z" fill="#F9B43F"/>
<path d="M366.694 408.887L367.92 408.705C364.427 420.319 378.707 411 380.414 420.963C378.787 420.977 377.227 420.991 375.64 421.033C365.827 416.303 367.76 428.281 366.734 435.278C367.734 435.376 369.76 435.558 370.773 435.641C369 436.523 366.413 436.971 367.6 439.601C363.107 445.073 362.52 452.881 359.84 459.401C358.867 457.54 357.907 455.609 356.147 454.49C356.107 453.902 356.054 452.713 356.027 452.111C361.467 442.484 363.387 431.304 362.667 420.137C368.693 424.433 366.44 415.967 366.653 411.448C366.667 410.804 366.68 409.531 366.694 408.887Z" fill="#C37217"/>
<path d="M362.747 413.028C364.027 412.483 365.333 411.965 366.653 411.447C366.44 415.967 368.693 424.433 362.667 420.137C362.653 417.758 362.693 415.393 362.747 413.028Z" fill="#6B370A"/>
<path opacity="0.48" d="M420.027 414.428C421.773 417.394 423.093 430.604 420.013 434.102C420.013 427.539 419.96 420.962 420.027 414.428Z" fill="#2A2019"/>
<path d="M416.187 415.631C418.227 419.731 416.947 424.348 416.373 428.7C416.24 424.348 416.107 419.941 416.187 415.631Z" fill="#9A8879"/>
<path d="M300.467 416.834C302.213 422.487 301.227 428.644 300.307 434.395C300.307 428.518 300.36 422.669 300.467 416.834Z" fill="#FCD17E"/>
<path d="M366.733 435.276C367.76 428.28 365.827 416.302 375.64 421.031C378.92 426.446 376.853 433.835 370.773 435.64C369.76 435.556 367.733 435.374 366.733 435.276Z" fill="#ED9524"/>
<path d="M375.64 421.033C377.226 420.991 378.787 420.977 380.413 420.963C383.76 427.344 380.226 434.914 374.626 438.174C372.293 438.748 369.933 439.238 367.6 439.601C366.413 436.971 369 436.523 370.773 435.642C376.853 433.836 378.92 426.448 375.64 421.033Z" fill="#9E530B"/>
<path d="M413.72 427.453C414.387 427.761 415.707 428.391 416.373 428.698C412.32 454.292 389.587 473.91 365.373 476.009C356.653 480.92 359.173 474.343 358.813 470.649C359.16 470.244 359.84 469.446 360.187 469.054C368.867 468.494 379.813 468.522 385.84 460.742C387.84 456.153 389.067 451.171 391.387 446.735C402.507 451.101 410.947 436.856 413.72 427.453Z" fill="#E0C6AF"/>
<path d="M367.6 439.601C369.933 439.237 372.293 438.748 374.626 438.174C380.666 444.946 373.987 460.87 385.84 460.744C379.813 468.524 368.867 468.496 360.187 469.056C360.093 466.635 359.92 461.822 359.84 459.401C362.52 452.88 363.106 445.072 367.6 439.601Z" fill="#E99625"/>
<path d="M128.2 439.475C131.133 444.876 134.92 450.305 135.32 456.7C134.56 456.182 133.04 455.161 132.28 454.643C131.173 449.494 128.587 444.778 128.2 439.475Z" fill="#D18318"/>
<path opacity="0.56" d="M126.853 451.982C129.213 456.278 127.533 461.526 127.987 466.227C124 465.094 127.667 455.97 126.853 451.982Z" fill="#2A2317"/>
<path d="M339.52 492.859C347.747 480.643 352.533 466.538 356.027 452.111C356.053 452.713 356.107 453.902 356.147 454.49C355.573 459.402 355.093 464.369 354.8 469.323C352.373 477.788 349.027 485.918 346.333 494.286C344.027 493.936 341.747 493.446 339.52 492.859Z" fill="#E49425"/>
<path d="M132.28 454.645C133.04 455.162 134.56 456.184 135.32 456.701C133.587 465.825 140.72 474.962 137.307 483.778C133.12 474.78 131.44 464.608 132.28 454.645Z" fill="#E8C067"/>
<path d="M356.146 454.488C357.906 455.608 358.867 457.539 359.84 459.4C359.92 461.821 360.093 466.634 360.187 469.055C359.84 469.447 359.16 470.244 358.813 470.65C359.226 465.529 355.373 463.038 354.8 469.321C355.093 464.367 355.573 459.4 356.146 454.488Z" fill="#804810"/>
<path d="M178.213 458.127C210.533 476.332 250.533 478.879 284.387 463.71C280.64 469.517 275.867 474.485 270.493 478.641C266.653 480.516 258.747 479.55 260.107 485.987C251.053 485.847 242.04 485.693 233.013 486.113C231.373 485.945 229.747 485.777 228.133 485.609C226.747 483.734 224.373 483.86 222.52 484.686C221.947 484.574 220.8 484.35 220.227 484.238C218.467 483.678 216.72 483.118 214.987 482.629C209.96 481.187 205.067 479.368 200.253 477.325C192.293 471.714 183.373 466.984 178.213 458.127Z" fill="#EDD3BB"/>
<path d="M190.72 476.025C193.88 476.459 197.04 477.005 200.253 477.327C205.067 479.37 209.96 481.189 214.987 482.63C212.693 483.442 206.693 481.329 208.133 485.597C211.2 487.402 214.613 488.437 217.787 490.018C215.667 495.042 213 499.897 212.053 505.369L211.107 505.075C208.32 504.109 205.48 503.326 202.64 502.626C201.507 492.495 196.467 483.931 190.72 476.025Z" fill="#DE9129"/>
<path d="M260.107 485.987C258.747 479.55 266.653 480.516 270.493 478.641C272.747 478.669 275.027 478.739 277.307 478.962C274.187 487.512 274.147 496.636 274.107 505.703C268.387 499.924 269.88 484.588 260.107 485.987Z" fill="#DC8A23"/>
<path opacity="0.51" d="M356.253 481.243C358.293 479.144 361.227 478.836 365.054 480.32C363.64 482.894 358.707 482.167 356.253 481.243Z" fill="#2A221B"/>
<path d="M208.133 485.595C206.693 481.328 212.693 483.44 214.987 482.629C216.72 483.119 218.467 483.678 220.227 484.238C219.387 486.155 218.627 488.1 217.787 490.017C214.613 488.436 211.2 487.4 208.133 485.595Z" fill="#9C550C"/>
<path d="M222.52 484.687C224.373 483.861 226.747 483.735 228.133 485.61C226.227 486.352 223.92 486.45 222.52 484.687Z" fill="#9C7D64"/>
<path d="M233.013 486.115C242.04 485.695 251.053 485.849 260.106 485.989C251.16 487.78 241.96 487.598 233.013 486.115Z" fill="#987E69"/>
<path d="M147.6 489.555C152.653 488.379 157.88 488.449 163 489.639C157.787 489.807 152.733 490.058 147.6 489.555Z" fill="#FCD98B"/>
<path d="M140.107 491.528C142.56 490.758 145.04 490.03 147.6 489.555C152.733 490.058 157.787 489.807 163 489.639C175.04 492.003 186.813 496.341 197.587 502.484C199.747 516.827 179.16 513.637 170.453 517.904C168.107 513.902 170.853 509.215 171.973 505.255C167.88 504.597 166.413 508.921 165.107 512.125C164.307 521.249 153.68 510.404 150.307 516.939C146.44 512.391 148.293 505.926 150.747 501.127C146.973 500.161 145.067 503.492 143.92 506.654C142.947 514.378 139.467 505.045 135.587 508.291C135.347 507.843 134.88 506.948 134.653 506.5C133.373 500.455 136.387 495.544 140.107 491.528Z" fill="#FAF0DC"/>
<path d="M282.013 503.505C300.013 494.914 319.427 487.413 339.52 492.857C341.747 493.444 344.027 493.934 346.333 494.284C349.587 498.09 352.76 502.918 349.827 508.347C345.493 505.087 342.867 512.237 338.627 511.299C338.387 509.662 338.027 508.081 337.52 506.542C337.093 505.8 336.227 504.303 335.8 503.561C334.053 500.273 330 504.275 333.067 506.43C334.28 508.123 334.973 510.194 334.893 512.349C330.587 515.203 319.44 519.821 316.173 513.552C315.8 512.111 315.387 510.712 314.907 509.34C313.68 507.213 311.667 505.464 309.267 505.226C311.413 509.634 312.867 514.588 310.907 519.499C302.907 513.23 281.96 518.394 282.013 503.505Z" fill="#FBF0D9"/>
<path opacity="0.37" d="M354.76 500.094C357.133 500.807 357.133 507.188 354.773 507.944C354.6 505.313 354.6 502.696 354.76 500.094Z" fill="#241C17"/>
<path opacity="0.96" d="M143.92 506.654C145.067 503.492 146.973 500.161 150.747 501.127C148.293 505.926 146.44 512.391 150.307 516.939C152.267 518.464 154.573 519.485 157 519.919C161.387 520.633 168.987 523.096 165.933 516.295C165.72 515.26 165.307 513.161 165.107 512.125C166.413 508.921 167.88 504.597 171.973 505.255C170.853 509.215 168.107 513.902 170.453 517.904C170.787 518.338 171.44 519.206 171.76 519.639C174.52 522.522 179.547 520.409 183.067 519.975C192.893 517.247 208.613 518.268 211.107 505.073L212.053 505.367C212.773 508.193 212.853 511.118 212.293 513.986C202.88 524.677 186.373 522.732 173.693 524.593C166.88 523.795 160.12 523.557 153.32 523.515C148.293 522.41 142.827 520.913 138.627 518.17C135.733 514.826 132.72 511.314 134.653 506.5C134.88 506.948 135.347 507.843 135.587 508.291C137.027 512.307 140.307 515.036 143.933 516.799C143.933 514.266 143.92 509.187 143.92 506.654Z" fill="#462715"/>
<path d="M197.587 502.484C199.253 502.526 200.947 502.568 202.64 502.624C205.48 503.324 208.32 504.108 211.107 505.073C208.613 518.268 192.893 517.247 183.067 519.976C179.253 519.864 175.493 519.752 171.76 519.64C171.44 519.206 170.787 518.338 170.453 517.905C179.16 513.637 199.747 516.827 197.587 502.484Z" fill="#E0C6AE"/>
<path d="M333.067 506.43C330 504.275 334.053 500.273 335.8 503.562C334.84 504.485 333.934 505.437 333.067 506.43Z" fill="#BEA68E"/>
<path d="M274.106 505.703C276.626 504.611 279.32 504.024 282.013 503.506C281.96 518.394 302.907 513.231 310.907 519.5C308.893 521.683 305.733 522.06 301.426 520.619C299.613 518.52 296.787 518.856 294.56 519.808C287.013 517.975 274.48 516.435 274.106 505.703Z" fill="#E1CBB6"/>
<path d="M135.587 508.291C139.467 505.045 142.947 514.378 143.92 506.654C143.92 509.187 143.933 514.266 143.933 516.799C140.307 515.036 137.027 512.307 135.587 508.291Z" fill="#E2C9AC"/>
<path d="M337.52 506.543C338.027 508.082 338.387 509.663 338.627 511.301C338.8 513.721 339.08 516.17 339.76 518.535C334.48 521.767 339.187 508.572 337.52 506.543Z" fill="#6E503C"/>
<path d="M338.626 511.301C342.866 512.238 345.493 505.088 349.826 508.348C348.813 513.749 344.013 516.31 339.76 518.535C339.08 516.17 338.8 513.721 338.626 511.301Z" fill="#DCC8B3"/>
<path d="M314.907 509.342C315.387 510.713 315.8 512.112 316.174 513.554C313.947 521.292 319.307 521.935 325.707 521.362C316.827 524.944 310.827 520.536 314.907 509.342Z" fill="#745743"/>
<path d="M150.307 516.939C153.68 510.404 164.307 521.248 165.107 512.125C165.307 513.16 165.72 515.259 165.933 516.295C164.813 520.073 161.84 521.29 157 519.919C154.573 519.485 152.267 518.464 150.307 516.939Z" fill="#E5D0B5"/>
<path d="M316.173 513.553C319.44 519.822 330.587 515.204 334.893 512.35C335.48 517.877 329.92 520.312 325.707 521.361C319.307 521.935 313.947 521.291 316.173 513.553Z" fill="#DFC8AE"/>
<path d="M165.933 516.297C168.987 523.097 161.387 520.635 157 519.921C161.84 521.292 164.813 520.075 165.933 516.297Z" fill="#795E48"/>
<path d="M171.76 507.893C175.493 507.999 179.253 508.106 183.067 508.213C179.547 508.626 174.52 510.639 171.76 507.893Z" fill="#876C59"/>
<path d="M294.56 508.054C296.787 507.147 299.613 506.827 301.427 508.827C299.107 509.507 296.507 509.627 294.56 508.054Z" fill="#896D5C"/>
<path opacity="0.58" d="M153.32 511.586C160.12 511.626 166.88 511.853 173.693 512.613C167.827 511.519 157.04 515.559 153.32 511.586Z" fill="#332219"/>
<path opacity="0.4" d="M298.626 513C308.413 513 318.2 513.013 328.027 513.013C321.813 514.44 304.733 516.507 298.626 513Z" fill="#271C17"/>
</g>
<defs>
<clipPath id="clip0_299_5110">
<rect width="484" height="543" fill="white"/>
</clipPath>
</defs>
</svg>
