<svg width="484" height="543" viewBox="0 0 484 543" fill="none" xmlns="http://www.w3.org/2000/svg">
<g clip-path="url(#clip0_299_17855)">
<path d="M136.267 139.6C155.76 114.826 195.813 109.92 218.96 132.44C226.707 137.906 227.96 149.906 237.187 153.306C240.267 155.146 243.067 155.173 245.573 153.373C257 138.373 271.213 122.12 291.587 120.106C297.16 120.213 302.747 120.28 308.333 120.306C336.52 124.8 357 150.72 361.72 177.893C360.813 180.146 360.507 182.96 362.493 184.773C362.64 190.933 362.547 197.08 362.547 203.266C360.4 204.413 360.373 207.426 362.413 208.706C366.413 212.506 368.827 217.586 369.427 223.08C369.36 227.973 369.347 232.986 369.44 237.92C368.28 246 364.227 253.2 360.973 260.56C356.147 267.093 350.973 273.413 345 278.96C341.227 281.413 337.56 284.026 333.587 286.173C328.667 285.333 324.573 288.133 321.453 291.6C318.187 292.76 314.893 293.826 311.68 295.12C306.493 296 301.373 297.64 296.107 297.84C296.56 296 296.187 294.08 295.107 292.56C290.813 274.093 268.453 281.573 257.4 288.733C253.8 291.266 250.24 295.186 245.56 292.613C241.44 291.493 237 290.413 233.027 292.4C226.96 296.186 223.027 286.973 217.347 285.973C208.707 281.866 195.827 276.4 188.28 284.946C185.08 288.56 184.44 293.56 183.773 298.16C150.467 292.226 115.773 271.12 108.8 235.746C108.893 230.146 108.973 224.56 109.013 219C110.827 208.746 120.413 201.76 116.427 190.053C118.52 186.706 118.653 183.56 116.827 180.613C120.52 165.946 125.293 150.586 136.267 139.6ZM174.973 180.586C163.627 184.186 158.667 200.053 166.64 208.906C168.08 211.826 171.667 213.853 174.92 214.08C176.053 216.546 182.6 216.546 183.76 214.066C187 213.706 190.773 210.506 191.867 207.706C193.707 206.413 194.707 203.96 194.733 201.746C197.227 200.6 197.227 194.053 194.747 192.92C194.08 186.866 188.293 181.426 182.413 180.56C181.72 178.173 175.6 178.146 174.973 180.586ZM296.253 181.92C289.453 182.44 285.093 189.52 283.92 195.586C281.467 196.706 281.413 203.32 283.973 204.346C285.04 207.026 286.093 210.026 288.413 211.88C290.773 216.133 302.96 219.026 305.133 215.546C311.8 214.96 315.867 207.866 316.093 201.76C318.467 201.56 318.48 195.76 316.08 195.586C314.973 189.733 311.107 183.613 305.027 181.96C303.973 179.413 297.373 179.453 296.253 181.92ZM214.147 210.746C210.52 210.08 205.467 212.386 205.16 216.44C205.147 218.36 205.227 220.306 205.373 222.24C208.76 233.76 222.307 239.96 233.307 242.026C237.773 244.466 242.227 244.466 246.693 242.013C249.213 241.48 253.467 241.866 254.64 239.4C262.827 238.613 268.813 230.36 272.147 223.493C274.413 221.16 274.333 218.36 271.907 215.106C269.76 210.12 263.027 211.666 259.853 207.52C246.253 197.333 226.227 199.173 214.147 210.746ZM140.507 211.84C133 213.133 123.907 220.413 129.253 228.733C137.093 239.173 156.173 238.653 164.093 228.733C170.267 215.24 150.267 208.773 140.507 211.84ZM327.2 214.613C318.973 214.946 311.96 222.626 313.48 231.04C322.587 242.746 344.267 243.013 352.027 229.906C354.267 216.786 337.093 212.12 327.2 214.613Z" fill="#FCF8F5"/>
<path opacity="0.94" d="M227.627 36.199C239.053 26.3057 253.227 16.6657 269.24 19.4123C272.68 20.6657 276.747 22.199 277.427 26.3057C277.293 28.7457 277.28 31.199 277.36 33.6523C276.307 37.4257 269.733 44.8523 281.36 40.6523C291 40.199 295.867 49.3457 292.227 57.719C308.2 62.8657 324.32 70.7057 336 82.1724C330.76 83.959 326.973 78.7323 322.667 76.6523C309.293 69.039 295.347 61.439 279.947 59.0257C283.627 56.759 289.733 53.999 288.987 49.0524C280.067 38.6924 265.027 46.3857 254.253 48.439C260.627 43.1723 267.893 38.8124 273 32.1724C276.707 20.8657 260.52 22.679 254.32 24.3057C244.92 27.5857 235.72 32.8924 229.413 40.719C226.347 45.079 225.907 44.319 224.093 40.7857C218 40.599 213.453 47.0524 211.68 52.3857C211.28 56.9057 211.733 63.159 207.96 58.0257C150.427 67.6123 103.693 117.572 95.6399 175.039C85.0266 198.999 85.4399 227.506 100.227 249.759C98.3332 251.332 96.5599 253.146 95.8799 255.599C76.6533 248.892 52.7866 229.599 33.9866 245.972C19.5866 258.932 28.7199 281.852 39.6399 294.186C52.9866 313.906 74.2666 327.546 96.0799 336.452C99.7599 335.852 104.96 323.386 104.28 332.892C99.6399 343.226 97.3332 354.519 95.5999 365.679C95.0666 374.052 92.9332 383.079 95.8666 391.252C98.4666 418.119 115.427 444.226 140.293 455.212C142.64 457.386 145.213 459.306 148.12 460.692C148.587 462.452 148.96 464.252 149.307 466.066L148.2 465.679C146.067 464.892 143.907 464.199 141.787 463.412C115.04 448.132 92.5866 421.839 90.6399 390.012C90.6266 382.866 90.7333 375.772 90.6266 368.652C90.2133 359.106 94.3599 350.172 95.8532 341.026C63.8932 328.359 31.9999 304.519 22.6799 270.012C22.6266 265.906 22.6399 261.972 22.6399 257.946C24.2132 247.319 33.1732 236.479 44.2399 235.252C46.4532 235.252 50.8799 235.252 53.0933 235.252C67.6133 235.946 79.7066 244.692 93.2133 248.826C89.9466 238.626 84.5599 228.892 83.9999 218.026C83.9732 212.199 83.9732 206.412 83.9732 200.626C90.0266 179.986 92.5999 158.119 101.573 138.186C120.24 94.4124 160.84 61.5724 207.507 52.3457C209.827 43.6524 217.52 32.519 227.627 36.199Z" fill="#08102A"/>
<path d="M254.32 24.3064C260.52 22.6797 276.707 20.8664 273 32.1731C267.893 38.8131 260.627 43.173 254.253 48.4397C265.027 46.3864 280.067 38.6931 288.987 49.0531C289.733 53.9997 283.627 56.7597 279.947 59.0264C295.347 61.4397 309.293 69.0397 322.667 76.6531C326.973 78.7331 330.76 83.9597 336 82.1731C337.627 82.1331 338.4 82.9064 338.347 84.4931C337.707 91.2131 346.32 94.7597 350.2 99.133C350.653 98.4397 351.587 97.0664 352.053 96.3864C356.333 101.253 362.227 106.266 363.853 112.546C362.36 121.506 371.733 128.013 373.4 136.626C373.653 144.44 383.933 147.4 381.907 155.48C383.6 171.12 387.747 186.426 391.307 201.746C385.827 209.32 388.56 219.373 383.6 227.093C378.48 228.44 374.147 225.32 370.467 223.026L369.427 223.08C368.827 217.586 366.413 212.506 362.413 208.706C362.907 206.893 362.947 205.08 362.547 203.266C362.547 197.08 362.64 190.933 362.493 184.773C363.173 182.466 363.293 179.853 361.72 177.893C357 150.72 336.52 124.8 308.333 120.306C302.813 119.226 297.107 118.946 291.587 120.106C271.213 122.12 257 138.373 245.573 153.373C242.96 151.893 239.827 151.96 237.187 153.306C227.96 149.906 226.707 137.906 218.96 132.44C195.813 109.92 155.76 114.826 136.267 139.6C125.293 150.586 120.52 165.946 116.827 180.613C114.787 183.946 114.653 187.093 116.427 190.053C120.413 201.76 110.827 208.746 109.013 219C107.893 224.453 107.44 230.253 108.8 235.746C115.773 271.12 150.467 292.226 183.773 298.16C182.12 300.88 176.293 297.346 173 298.053C175.72 299.666 178.813 300.453 181.76 301.573L181.933 302.72C151.507 316.96 130.427 346.68 123.693 379.2C122.213 380.64 122.093 382.76 122.613 384.666L122.493 385.733C121.653 394.2 119.573 403.373 122.427 411.693L122.733 412.693C122.173 414.96 122.04 417.533 123.64 419.466C123.773 420.413 124.067 422.306 124.2 423.24C110.907 416.48 104.04 402.946 95.8666 391.253C92.9333 383.08 95.0666 374.053 95.6 365.68C98.5866 371.28 91.1066 387.466 98.5866 388.666C96.1466 367.613 102.36 347.413 110.027 328.16C110.973 325.426 111.627 321.973 107.96 324.573C108.187 322.32 111.44 316.44 106.947 318.213C104.12 319.426 103.72 323.64 101.213 325.613C77.8133 321.426 59 306.6 39.6399 294.186C28.7199 281.853 19.5866 258.933 33.9866 245.973C39.2133 249.24 42.8 237.666 49.4 241.933C66.2533 246.453 81.4799 256.24 98.5333 260.28C98.6133 259.733 98.7866 258.653 98.8666 258.12C107.627 266.693 113.973 277.466 123.12 285.626C126.973 286.186 130.733 283.146 134.907 284.373C121.733 274.493 107.373 265.28 100.227 249.76C85.44 227.506 85.0266 199 95.64 175.04C96.08 177.386 95.28 185.253 98.12 180.093C104.44 148.413 118.8 117.6 143.013 95.6798C161.547 79.7064 184.32 69.5464 207.68 62.8797C207.853 61.2664 207.947 59.6397 207.96 58.0264C211.733 63.1597 211.28 56.9064 211.68 52.3864C211.8 54.3331 211.987 56.2664 212.213 58.2264C215.747 52.1198 221.973 47.6664 224.093 40.7864C225.907 44.3197 226.347 45.0797 229.413 40.7197C228.947 42.9464 228.48 45.1731 228.093 47.4264C238.973 36.9331 251.907 27.5064 267.147 25.0131C262.813 24.6931 258.627 24.5064 254.32 24.3064ZM169.76 81.0664C160.853 85.0664 149.213 92.653 149.333 103.386C158.8 102.493 165.187 92.9731 173.04 88.4264C176.68 86.2664 174.507 78.4797 169.76 81.0664Z" fill="#2C3F60"/>
<path d="M428.347 243.427C453.653 240.427 457.32 274.734 443.96 289.814C428.573 308.96 404.88 320.987 381.453 327.547C376.973 329.48 373.853 325.227 371.907 321.84C372.96 329.107 374.867 336.24 377.12 343.227C381.933 353.96 383.28 365.947 383.987 377.574C379.32 393.294 372.827 413.454 356.013 422C356.053 419.8 356.093 417.614 356.16 415.454C357.92 414.107 357.853 411.774 357.213 409.907C357.2 404.614 357.16 399.334 357.107 394.094C357.84 391.787 357.987 389.147 356.36 387.2C350.467 353.494 328.987 319.68 296.24 307.2C297.053 304.974 302.107 306.494 297.52 303.947C304.24 298.614 314.893 300.36 321.653 294.24C318.32 294.44 315 294.88 311.68 295.12C314.893 293.827 318.187 292.76 321.453 291.6C325.707 290.294 329.787 288.48 333.587 286.174C337.56 284.027 341.227 281.414 345 278.96C346.8 281.054 348.507 283.374 345.16 284.96C348.987 288.2 353.973 289.347 358.653 290.894C364.32 280.947 370.28 271.094 375.8 261.147C379.04 258.947 382.747 257.627 386.48 256.534C386.52 258.294 386.6 260.067 386.733 261.84C400.48 255.48 415.667 251.907 428.347 243.427Z" fill="#2C3F60"/>
<path d="M229.413 40.72C235.72 32.8933 244.92 27.5866 254.32 24.3066C258.627 24.5066 262.813 24.6933 267.147 25.0133C251.907 27.5066 238.973 36.9333 228.093 47.4266C228.48 45.1733 228.947 42.9466 229.413 40.72Z" fill="#596986"/>
<path opacity="0.52" d="M277.427 26.3066C279.827 26.9066 279.853 33.1599 277.36 33.6533C277.28 31.1999 277.293 28.7466 277.427 26.3066Z" fill="#10131C"/>
<path d="M211.68 52.3872C213.453 47.0538 218 40.6005 224.093 40.7872C221.973 47.6672 215.747 52.1205 212.213 58.2272C211.987 56.2672 211.8 54.3338 211.68 52.3872Z" fill="#5A6B89"/>
<path d="M123.693 379.201C130.427 346.681 151.507 316.961 181.933 302.721C182.973 308.761 182.853 314.894 183.64 321.001C184.053 326.481 187.053 331.401 190.253 335.721C197.107 342.747 208.173 338.614 216.027 335.334C222.427 332.947 227.12 323.201 234.6 327.307C238.187 328.507 242.12 329.374 245.653 327.641C254.707 325.801 262.187 337.201 271.853 338.361C273.387 339.734 275.507 339.867 277.44 339.387C288.013 341.147 294.187 331.694 295.147 322.227C295.28 320.134 295.573 315.947 295.72 313.854C295.853 311.627 295.973 309.401 296.24 307.201C328.987 319.681 350.467 353.494 356.36 387.201C355.493 389.454 355.187 392.241 357.107 394.094C357.16 399.334 357.2 404.614 357.213 409.907C355.347 411.147 355.48 413.547 356.16 415.454C356.093 417.614 356.053 419.801 356.013 422.001C355.68 422.334 355.027 422.987 354.707 423.307C331.96 443.974 300.947 452.267 271.093 455.747C228.547 461.147 183.373 458.121 144.413 438.907C138.08 436.107 133.467 429.987 126.613 428.454C125.813 426.707 125.04 424.961 124.2 423.241C124.067 422.307 123.773 420.414 123.64 419.467C124.507 417.214 124.893 414.334 122.733 412.694L122.427 411.694C122.6 403.014 122.6 394.387 122.493 385.734L122.613 384.667C124.773 383.654 124.507 381.001 123.693 379.201Z" fill="#FCF9F5"/>
<path d="M95.6399 175.041C103.693 117.574 150.427 67.614 207.96 58.0273C207.947 59.6407 207.853 61.2674 207.68 62.8807C184.32 69.5474 161.547 79.7074 143.013 95.6807C118.8 117.601 104.44 148.414 98.1199 180.094C95.2799 185.254 96.0799 177.387 95.6399 175.041Z" fill="#5E6B88"/>
<path d="M169.76 81.0672C174.507 78.4806 176.68 86.2673 173.04 88.4273C165.187 92.9739 158.8 102.494 149.333 103.387C149.213 92.6539 160.853 85.0672 169.76 81.0672Z" fill="#515F7E"/>
<path opacity="0.95" d="M338.347 84.4941C344.107 86.4941 348 91.9875 352.053 96.3875C351.587 97.0675 350.653 98.4408 350.2 99.1341C346.32 94.7608 337.707 91.2141 338.347 84.4941Z" fill="#0D1733"/>
<path opacity="0.93" d="M363.853 112.547C383.853 135.64 387.84 167.84 394.667 196.64C394.68 204.64 394.707 212.667 394.64 220.694C393.027 231.44 389.867 242.254 384.027 251.52C400.973 246.96 417.387 236.427 435.6 238.44C460.56 244.494 461.147 278.347 445.56 294.12C445.027 292.667 444.493 291.227 443.96 289.814C457.32 274.734 453.653 240.427 428.347 243.427C413.4 243.827 400.093 251.227 386.48 256.534C382.747 257.627 379.04 258.947 375.8 261.147C381.013 242.014 395.013 223.334 391.307 201.747C387.747 186.427 383.6 171.12 381.907 155.48C383.933 147.4 373.653 144.44 373.4 136.627C371.733 128.014 362.36 121.507 363.853 112.547Z" fill="#08112A"/>
<path d="M291.587 120.107C297.107 118.947 302.813 119.227 308.333 120.307C302.747 120.28 297.16 120.214 291.587 120.107Z" fill="#BEC3CF"/>
<path d="M237.187 153.306C239.827 151.959 242.96 151.893 245.573 153.373C243.067 155.173 240.267 155.146 237.187 153.306Z" fill="#A1A9B7"/>
<path d="M361.72 177.893C363.293 179.853 363.173 182.466 362.493 184.773C360.507 182.959 360.813 180.146 361.72 177.893Z" fill="#A9ADB8"/>
<path d="M174.973 180.587C175.6 178.147 181.72 178.174 182.413 180.56C179.933 180.707 177.453 180.707 174.973 180.587Z" fill="#9F9EA4"/>
<path d="M116.427 190.053C114.653 187.093 114.787 183.947 116.827 180.613C118.653 183.56 118.52 186.707 116.427 190.053Z" fill="#9FA5B2"/>
<path d="M166.64 208.907C158.667 200.054 163.627 184.187 174.973 180.587C177.453 180.707 179.933 180.707 182.413 180.561C188.293 181.427 194.08 186.867 194.747 192.921C194.747 195.121 194.733 199.547 194.733 201.747C194.707 203.961 193.707 206.414 191.867 207.707C191.12 204.587 188.747 202.227 185.4 202.507C178.947 205.307 169.933 200.774 166.64 208.907ZM172.333 186.241C167.093 188.507 170.293 196.494 175.653 193.747C181.133 191.254 178.16 183.441 172.333 186.241Z" fill="#0D1428"/>
<path d="M296.253 181.921C297.373 179.454 303.973 179.414 305.027 181.961C302.84 181.947 298.453 181.921 296.253 181.921Z" fill="#72717E"/>
<path d="M283.92 195.587C285.093 189.52 289.453 182.44 296.253 181.92C298.453 181.92 302.84 181.947 305.027 181.96C311.107 183.613 314.973 189.733 316.08 195.587C315.96 197.627 315.96 199.693 316.093 201.76C315.867 207.867 311.8 214.96 305.133 215.547C299.04 214.68 313.96 211.813 310.653 206.147C307.133 199.027 299.773 210.547 294.16 206.52C286.267 202.013 288.987 208.64 288.413 211.88C286.093 210.027 285.04 207.027 283.973 204.347C283.96 202.16 283.933 197.773 283.92 195.587ZM293.667 187.587C288.96 189.573 290.213 197.187 295.893 195.32C302.28 194.24 300.307 184.373 293.667 187.587Z" fill="#0D1429"/>
<path d="M172.333 186.24C178.16 183.44 181.133 191.253 175.653 193.747C170.293 196.493 167.093 188.507 172.333 186.24Z" fill="#E1E2E5"/>
<path d="M293.667 187.586C300.307 184.373 302.28 194.239 295.893 195.319C290.213 197.186 288.96 189.573 293.667 187.586Z" fill="#E0E0E3"/>
<path d="M194.747 192.92C197.227 194.053 197.227 200.6 194.733 201.747C194.733 199.547 194.747 195.12 194.747 192.92Z" fill="#ADADB3"/>
<path d="M283.973 204.346C281.413 203.319 281.467 196.706 283.92 195.586C283.933 197.773 283.96 202.159 283.973 204.346Z" fill="#AAAEB1"/>
<path d="M316.08 195.586C318.48 195.759 318.467 201.559 316.093 201.759C315.96 199.693 315.96 197.626 316.08 195.586Z" fill="#A5A4B0"/>
<path opacity="0.59" d="M394.667 196.641C396.093 201.161 398.307 216.147 394.64 220.694C394.707 212.667 394.68 204.641 394.667 196.641Z" fill="#070B18"/>
<path opacity="0.34" d="M83.9999 218.027C82.1332 215.76 80.7599 203.267 83.9732 200.627C83.9732 206.414 83.9732 212.2 83.9999 218.027Z" fill="#0D1018"/>
<path d="M214.147 210.747C226.227 199.173 246.253 197.333 259.853 207.52C263.027 211.667 269.76 210.12 271.907 215.107C267.173 214.187 267.96 218.733 267.72 221.987C267.133 222.28 265.973 222.867 265.387 223.16C255.96 223.333 247.453 229.213 237.893 227.907C228.627 226.773 219.907 223.133 210.84 221.107C209.747 218.013 209.173 213.907 205.16 216.44C205.467 212.387 210.52 210.08 214.147 210.747ZM228.44 207.72C216.613 212.973 236.32 211.787 238.76 207.333C235.307 207.213 231.88 207.347 228.44 207.72Z" fill="#FBC739"/>
<path d="M166.64 208.907C169.933 200.774 178.947 205.307 185.4 202.507C188.747 202.227 191.12 204.587 191.867 207.707C190.773 210.507 187 213.707 183.76 214.067C181.547 214.08 177.133 214.08 174.92 214.08C171.667 213.854 168.08 211.827 166.64 208.907Z" fill="#152645"/>
<path d="M391.307 201.746C395.013 223.333 381.013 242.013 375.8 261.146C370.28 271.093 364.32 280.946 358.653 290.893C353.973 289.346 348.987 288.199 345.16 284.959C348.507 283.373 346.8 281.053 345 278.959C350.973 273.413 356.147 267.093 360.973 260.559C372.76 265.066 374.067 245.906 379.893 239.293C383.92 235.293 376.547 235.506 374.267 234.453C369.973 231.786 373.973 241.253 370.373 238.399C370.493 233.226 370.707 228.159 370.467 223.026C374.147 225.319 378.48 228.439 383.6 227.093C388.56 219.373 385.827 209.319 391.307 201.746Z" fill="#213557"/>
<path d="M294.16 206.52C299.773 210.547 307.133 199.027 310.653 206.147C313.96 211.814 299.04 214.68 305.133 215.547C302.96 219.027 290.773 216.134 288.413 211.88C288.987 208.64 286.267 202.014 294.16 206.52Z" fill="#142747"/>
<path d="M362.413 208.708C360.373 207.428 360.4 204.414 362.547 203.268C362.947 205.081 362.907 206.894 362.413 208.708Z" fill="#979EAC"/>
<path d="M228.44 207.72C231.88 207.347 235.307 207.214 238.76 207.334C236.32 211.787 216.613 212.974 228.44 207.72Z" fill="#FEE98B"/>
<path d="M140.507 211.84C150.267 208.774 170.267 215.24 164.093 228.734C156.173 238.654 137.093 239.174 129.253 228.734C123.907 220.414 133 213.134 140.507 211.84Z" fill="#FDB3BA"/>
<path d="M174.92 214.08C177.133 214.08 181.547 214.08 183.76 214.066C182.6 216.546 176.053 216.546 174.92 214.08Z" fill="#8993A1"/>
<path d="M327.2 214.613C337.093 212.12 354.267 216.787 352.027 229.907C344.267 243.013 322.587 242.747 313.48 231.04C311.96 222.627 318.973 214.947 327.2 214.613Z" fill="#FDB7BD"/>
<path d="M205.16 216.44C209.173 213.906 209.747 218.013 210.84 221.106C209.027 221.52 207.187 221.88 205.373 222.24C205.227 220.306 205.147 218.36 205.16 216.44Z" fill="#8F4106"/>
<path d="M267.72 221.987C267.96 218.733 267.173 214.187 271.907 215.107C274.333 218.36 274.413 221.16 272.147 223.493C270.2 223.76 267.24 225.293 267.72 221.987Z" fill="#8F4A10"/>
<path d="M108.8 235.747C107.44 230.253 107.893 224.453 109.013 219C108.973 224.56 108.893 230.147 108.8 235.747Z" fill="#B2B8C3"/>
<path d="M210.84 221.107C219.907 223.134 228.627 226.774 237.893 227.907C247.453 229.214 255.96 223.334 265.387 223.161C265.653 224.387 267.293 225.934 265.92 227.054C257.013 227.147 248.813 231.574 240 232.441C229.267 231.201 219.467 226.227 209.253 223.227C217.76 237.507 238.96 242.534 254.747 236.614C252.947 238.081 250.573 239.907 254.64 239.401C253.467 241.867 249.213 241.481 246.693 242.014C242.2 241.961 237.773 242.041 233.307 242.027C222.307 239.961 208.76 233.761 205.373 222.241C207.187 221.881 209.027 221.521 210.84 221.107Z" fill="#E69315"/>
<path d="M265.387 223.16C265.973 222.866 267.133 222.28 267.72 221.986C267.24 225.293 270.2 223.76 272.147 223.493C268.813 230.36 262.827 238.613 254.64 239.4C250.573 239.906 252.947 238.08 254.747 236.613C258.867 233.933 262.813 230.906 265.92 227.053C267.293 225.933 265.653 224.386 265.387 223.16Z" fill="#C5721A"/>
<path d="M209.253 223.227C219.467 226.227 229.267 231.2 240 232.44C248.813 231.573 257.013 227.147 265.92 227.053C262.813 230.907 258.867 233.933 254.747 236.613C238.96 242.533 217.76 237.507 209.253 223.227Z" fill="#FCC12F"/>
<path d="M369.427 223.081L370.467 223.027C370.707 228.161 370.493 233.227 370.373 238.401L369.44 237.921C369.347 232.987 369.36 227.974 369.427 223.081Z" fill="#818D9E"/>
<path opacity="0.43" d="M44.24 235.253C45.4 232.773 51.9333 232.773 53.0933 235.253C50.88 235.253 46.4533 235.253 44.24 235.253Z" fill="#171921"/>
<path d="M370.373 238.4C373.973 241.254 369.973 231.787 374.267 234.454C376.547 235.507 383.92 235.294 379.893 239.294C374.067 245.907 372.76 265.067 360.973 260.56C364.227 253.2 368.28 246 369.44 237.92L370.373 238.4Z" fill="#34486B"/>
<path d="M33.9866 245.974C52.7866 229.601 76.6532 248.894 95.8799 255.601C96.9199 256.374 97.9199 257.214 98.8666 258.121C98.7866 258.654 98.6132 259.734 98.5332 260.281C81.4799 256.241 66.2532 246.454 49.3999 241.934C42.7999 237.667 39.2132 249.241 33.9866 245.974Z" fill="#495876"/>
<path d="M233.307 242.026C237.773 242.039 242.2 241.959 246.693 242.013C242.227 244.466 237.773 244.466 233.307 242.026Z" fill="#F1BA62"/>
<path d="M386.48 256.532C400.093 251.226 413.4 243.826 428.347 243.426C415.667 251.906 400.48 255.479 386.733 261.839C386.6 260.066 386.52 258.292 386.48 256.532Z" fill="#536180"/>
<path d="M100.227 249.76C107.373 265.28 121.733 274.493 134.907 284.373C130.733 283.146 126.973 286.186 123.12 285.626C113.973 277.466 107.627 266.693 98.8667 258.12C97.92 257.213 96.92 256.373 95.88 255.6C96.56 253.146 98.3333 251.333 100.227 249.76Z" fill="#192C4C"/>
<path opacity="0.33" d="M22.68 270.014C20.16 270.467 20.32 258.721 22.64 257.947C22.64 261.974 22.6267 265.907 22.68 270.014Z" fill="#0A0D16"/>
<path d="M188.28 284.947C195.827 276.4 208.707 281.867 217.347 285.974C223.027 286.974 226.96 296.187 233.027 292.4C237.16 292.32 241.387 292.427 245.56 292.614C250.24 295.187 253.8 291.267 257.4 288.734C268.453 281.574 290.813 274.094 295.107 292.56C294.507 294.067 293.36 297.974 296.107 297.84C301.373 297.64 306.493 296 311.68 295.12C315 294.88 318.32 294.44 321.653 294.24C314.893 300.36 304.24 298.614 297.52 303.947C302.107 306.494 297.053 304.974 296.24 307.2C295.973 309.4 295.853 311.627 295.72 313.854C295.573 315.947 295.28 320.134 295.147 322.227C294.187 331.694 288.013 341.147 277.44 339.387C276.387 337.187 273.68 337.534 271.853 338.36C262.187 337.2 254.707 325.8 245.653 327.64C241.96 327.6 238.267 327.48 234.6 327.307C227.12 323.2 222.427 332.947 216.027 335.334C208.173 338.614 197.107 342.747 190.253 335.72C187.053 331.4 184.053 326.48 183.64 321C181.827 315.427 187.693 304.76 181.76 301.574C178.813 300.454 175.72 299.667 173 298.054C176.293 297.347 182.12 300.88 183.773 298.16C184.44 293.56 185.08 288.56 188.28 284.947ZM188.013 299.294C184.88 302.547 186.187 315.214 187.947 318C187.947 321.6 188.587 325.534 190.88 328.44C189.96 332.267 194.52 334.174 197.427 335.28C208.28 336 220.827 330.387 226.84 321.587C228.173 321.574 229.493 321.547 230.84 321.534C235.747 325.88 244.893 325.4 249.24 320.28C249.893 320.587 251.2 321.214 251.853 321.52C259.747 330.094 272.413 336.6 284.067 334.107C293.52 325.414 292.773 307.707 290.76 297.987C293.267 289.814 281.827 282.427 277.547 285.827C267.933 286.587 258.587 291.76 251.88 298.6C251.267 298.88 250.027 299.414 249.4 299.68C244.653 294.2 234.32 294.947 229.2 299.48L227.893 298.88C222.533 292.48 213.853 287.747 205.613 286.334C196.213 280.76 185.973 288.32 188.013 299.294Z" fill="#1B345D"/>
<path d="M188.013 299.293C185.973 288.32 196.213 280.76 205.613 286.333C197.613 284.666 191.827 291.96 193.427 299.413C194.48 303.92 188.907 303.666 188.067 307.506C188.053 304.76 188.013 302.013 188.013 299.293Z" fill="#93CAEC"/>
<path d="M277.547 285.826C281.827 282.426 293.267 289.813 290.76 297.986C290.987 308.36 291 333.506 274.2 329.213C266.56 327.093 258.627 323.893 253.053 318.093C253.987 315.573 254.467 312.92 255.067 310.32C258.467 309.666 261.867 309.066 265.253 308.293C266.773 301.32 258.573 303.773 254.68 304.707C253.747 303.053 253 301.306 252.293 299.573C261.12 294.146 270.813 290.56 280.267 286.453C279.587 286.293 278.227 285.973 277.547 285.826Z" fill="#68BAEE"/>
<path d="M205.613 286.334C213.853 287.747 222.533 292.481 227.893 298.881C225.213 304.374 221.92 308.481 214.613 304.801C213.92 309.521 220.48 308.094 223.493 309.134C224.4 312.001 225.133 314.921 225.893 317.841C218.187 327.027 202.947 333.467 190.88 328.441C188.587 325.534 187.947 321.601 187.947 318.001C187.96 314.481 188 310.974 188.067 307.507C188.907 303.667 194.48 303.921 193.427 299.414C191.827 291.961 197.613 284.667 205.613 286.334Z" fill="#67B7EB"/>
<path d="M251.88 298.6C258.587 291.76 267.933 286.586 277.547 285.826C278.227 285.973 279.587 286.293 280.267 286.453C270.813 290.56 261.12 294.146 252.293 299.573L251.88 298.6Z" fill="#A5D1EB"/>
<path d="M321.453 291.6C324.573 288.134 328.667 285.334 333.587 286.174C329.787 288.48 325.707 290.294 321.453 291.6Z" fill="#CFC9CE"/>
<path d="M381.453 327.546C404.88 320.986 428.573 308.959 443.96 289.812C444.493 291.226 445.027 292.666 445.56 294.119C444.813 297.266 442.493 299.946 440.133 302.079C434.72 306.413 429.827 311.333 425.107 316.399C408.8 324.639 393.253 334.266 377.12 343.226C374.867 336.239 372.96 329.106 371.907 321.839C373.853 325.226 376.973 329.479 381.453 327.546Z" fill="#172C4E"/>
<path d="M233.027 292.401C237 290.414 241.44 291.494 245.56 292.614C241.387 292.427 237.16 292.321 233.027 292.401Z" fill="#B2B6BF"/>
<path d="M295.107 292.561C296.187 294.081 296.56 296.001 296.107 297.841C293.36 297.974 294.507 294.067 295.107 292.561Z" fill="#97A3B8"/>
<path d="M39.6399 294.188C58.9999 306.601 77.8132 321.428 101.213 325.614C103.72 323.641 104.12 319.427 106.947 318.214C111.44 316.441 108.187 322.321 107.96 324.574C106.707 327.334 105.507 330.121 104.28 332.894C104.96 323.387 99.7599 335.854 96.0799 336.454C74.2666 327.548 52.9866 313.908 39.6399 294.188Z" fill="#182E52"/>
<path d="M229.2 299.48C234.32 294.947 244.653 294.2 249.4 299.68C250.547 305.307 251.293 311.133 249.467 316.707C243.48 320.44 236.067 319.453 229.493 317.973C227.147 312.04 228.227 305.56 229.2 299.48Z" fill="#60B6ED"/>
<path d="M249.4 299.68C250.027 299.413 251.267 298.88 251.88 298.6L252.293 299.573C253 301.306 253.747 303.053 254.68 304.706C255.6 306.56 258.347 305.666 260.027 306.346C258.453 307.706 255.64 308.146 255.067 310.32C254.467 312.92 253.987 315.573 253.053 318.093C252.627 319.213 252.227 320.36 251.853 321.52C251.2 321.213 249.893 320.586 249.24 320.28C249.293 319.386 249.413 317.6 249.467 316.706C251.293 311.133 250.547 305.306 249.4 299.68Z" fill="#1A5E9B"/>
<path d="M290.76 297.986C292.773 307.706 293.52 325.413 284.067 334.106C272.413 336.6 259.747 330.093 251.853 321.52C252.227 320.36 252.627 319.213 253.053 318.093C258.627 323.893 266.56 327.093 274.2 329.213C291 333.506 290.987 308.36 290.76 297.986Z" fill="#3692D0"/>
<path d="M187.947 318C186.187 315.213 184.88 302.546 188.013 299.293C188.013 302.013 188.053 304.76 188.067 307.506C188 310.973 187.96 314.48 187.947 318Z" fill="#37699C"/>
<path d="M214.613 304.801C221.92 308.481 225.213 304.374 227.893 298.881L229.2 299.481C228.227 305.561 227.147 312.041 229.493 317.974C229.907 319.161 230.36 320.348 230.84 321.534C229.493 321.548 228.173 321.574 226.84 321.588C226.533 320.321 226.227 319.068 225.893 317.841C225.133 314.921 224.4 312.001 223.493 309.134C220.48 308.094 213.92 309.521 214.613 304.801Z" fill="#175C9C"/>
<path d="M181.76 301.574C187.693 304.761 181.827 315.428 183.64 321.001C182.853 314.894 182.973 308.761 181.933 302.721L181.76 301.574Z" fill="#6C7890"/>
<path opacity="0.75" d="M425.107 316.4C429.827 311.333 434.72 306.413 440.133 302.08C436.587 307.44 431.76 315.347 425.107 316.4Z" fill="#070A1E"/>
<path d="M254.68 304.707C258.573 303.774 266.773 301.32 265.253 308.294C261.867 309.067 258.467 309.667 255.067 310.32C255.64 308.147 258.453 307.707 260.027 306.347C258.347 305.667 255.6 306.56 254.68 304.707Z" fill="#3785C4"/>
<path d="M229.493 317.974C236.067 319.454 243.48 320.44 249.467 316.707C249.413 317.6 249.293 319.387 249.24 320.28C244.893 325.4 235.747 325.88 230.84 321.534C230.36 320.347 229.907 319.16 229.493 317.974Z" fill="#2987C5"/>
<path opacity="0.94" d="M377.12 343.227C393.253 334.267 408.8 324.64 425.107 316.4C414.613 329.387 398.173 337.174 382.813 343.68C384.933 351.907 388.493 359.907 388.013 368.654C388 376.64 387.96 384.667 388.027 392.694C384.947 423.04 364.44 450.04 336.96 463.054C336.427 463.094 335.333 463.16 334.787 463.187C334.32 462.507 333.387 461.147 332.933 460.467C335.333 458.52 337.773 456.614 340.08 454.56C369.2 442.654 386.4 408.48 383.987 377.574C383.28 365.947 381.933 353.96 377.12 343.227Z" fill="#061028"/>
<path d="M225.893 317.84C226.227 319.067 226.533 320.32 226.84 321.587C220.827 330.387 208.28 336 197.427 335.28C194.52 334.173 189.96 332.267 190.88 328.44C202.947 333.467 218.187 327.027 225.893 317.84Z" fill="#368ECC"/>
<path d="M107.96 324.573C111.627 321.973 110.973 325.427 110.027 328.16C102.36 347.413 96.1467 367.613 98.5867 388.667C91.1067 387.467 98.5867 371.28 95.6 365.68C97.3334 354.52 99.64 343.226 104.28 332.893C105.507 330.12 106.707 327.333 107.96 324.573Z" fill="#4B5979"/>
<path d="M234.6 327.307C238.267 327.48 241.96 327.6 245.653 327.64C242.12 329.373 238.187 328.507 234.6 327.307Z" fill="#AFB2BE"/>
<path d="M271.853 338.359C273.68 337.532 276.387 337.186 277.44 339.386C275.507 339.866 273.387 339.732 271.853 338.359Z" fill="#8B90A6"/>
<path opacity="0.36" d="M90.6399 390.012C88.9999 386.866 87.3599 371.679 90.6266 368.652C90.7333 375.772 90.6266 382.866 90.6399 390.012Z" fill="#0B0D17"/>
<path opacity="0.64" d="M388.013 368.652C389.453 373.106 391.573 388.092 388.027 392.692C387.96 384.666 388 376.639 388.013 368.652Z" fill="#060A1A"/>
<path d="M356.013 422.001C372.827 413.454 379.32 393.294 383.987 377.574C386.4 408.481 369.2 442.654 340.08 454.561C346.16 444.801 352.907 434.934 354.707 423.308C355.027 422.988 355.68 422.334 356.013 422.001Z" fill="#1B2F54"/>
<path d="M122.613 384.666C122.093 382.759 122.213 380.639 123.693 379.199C124.507 380.999 124.773 383.653 122.613 384.666Z" fill="#A5ACBC"/>
<path d="M122.427 411.692C119.573 403.372 121.653 394.199 122.493 385.732C122.6 394.386 122.6 403.012 122.427 411.692Z" fill="#9AA2B3"/>
<path d="M356.36 387.199C357.987 389.146 357.84 391.786 357.107 394.093C355.187 392.239 355.493 389.453 356.36 387.199Z" fill="#81899C"/>
<path d="M95.8667 391.254C104.04 402.947 110.907 416.481 124.2 423.241C125.04 424.961 125.813 426.707 126.613 428.454C128.96 438.361 134.76 446.841 140.293 455.214C115.427 444.227 98.4667 418.121 95.8667 391.254Z" fill="#1D3256"/>
<path d="M356.16 415.453C355.48 413.546 355.347 411.146 357.213 409.906C357.853 411.773 357.92 414.106 356.16 415.453Z" fill="#8990A2"/>
<path d="M122.733 412.693C124.893 414.333 124.507 417.213 123.64 419.467C122.04 417.533 122.173 414.96 122.733 412.693Z" fill="#A0A7B9"/>
<path d="M271.093 455.747C300.947 452.267 331.96 443.973 354.707 423.307C352.907 434.933 346.16 444.8 340.08 454.56C337.773 456.613 335.333 458.52 332.933 460.467C316.253 467.027 298.88 471.307 281.147 473.773C280.267 473.853 278.493 474.013 277.613 474.093C273.573 474.053 269.613 474.8 265.72 475.787C250.387 475.16 235.04 475.093 219.707 475.64C217.147 475.413 214.6 475.187 212.067 474.92C208.72 472.773 205.573 472.627 202.6 474.453C200.893 474.2 199.173 473.96 197.467 473.747C196.053 472.053 193.76 472.12 191.867 472.84C190.96 472.693 189.147 472.4 188.227 472.24C174.44 470.053 160.933 466.253 148.12 460.693C145.213 459.307 142.64 457.387 140.293 455.213C134.76 446.84 128.96 438.36 126.613 428.453C133.467 429.987 138.08 436.107 144.413 438.907C183.373 458.12 228.547 461.147 271.093 455.747Z" fill="#E5DBDE"/>
<path d="M148.12 460.693C160.933 466.253 174.44 470.053 188.227 472.24C185.44 472.107 185.347 474.573 185.067 476.707C172.653 475.227 160.44 471.787 149.307 466.067C148.96 464.253 148.587 462.453 148.12 460.693Z" fill="#6E564F"/>
<path d="M281.147 473.774C298.88 471.307 316.253 467.027 332.933 460.467C333.387 461.147 334.32 462.507 334.787 463.187C333.773 463.96 332.773 464.76 331.773 465.56C315.92 472.4 298.987 477.16 281.72 478.36C281.573 477.214 281.293 474.92 281.147 473.774Z" fill="#8D7B7A"/>
<path opacity="0.93" d="M141.787 463.414C143.907 464.201 146.067 464.894 148.2 465.681C145.307 466.214 142.467 467.027 139.747 468.174C139.147 468.467 137.92 469.067 137.32 469.361C133.28 471.854 128.813 474.241 126.04 478.254C123.52 481.094 123.36 485.507 125.187 488.827C129.507 490.774 135.013 489.814 139.773 491.067C147.64 499.041 160.52 494.161 167.747 487.641C168.053 489.387 168.667 492.894 168.96 494.654C179.747 496.094 191.427 492.361 200.413 486.427C203.507 484.601 203.173 480.707 199.88 479.374C202.187 479.561 204.493 479.827 206.8 480.161C208.493 491.067 195.88 493.921 187.96 496.521C180.707 498.227 171.667 502.161 165.187 496.707C159.813 496.961 154.84 499.814 149.333 499.347C141.187 502.761 138.56 491.147 130.613 494.054C123.853 494.027 117.04 488.494 120.013 480.747C123.733 471.521 133.133 466.974 141.787 463.414Z" fill="#8B4B09"/>
<path opacity="0.94" d="M331.773 465.559C332.773 464.759 333.773 463.959 334.787 463.186C335.333 463.159 336.427 463.093 336.96 463.053C343.96 467.359 354.52 469.533 357.32 478.093C357.293 481.906 357.36 485.933 357.307 489.839C353.773 496.679 343.44 490.946 338.893 496.879C330.52 505.039 318.467 491.959 310.347 499.359C308.16 499.373 303.773 499.413 301.587 499.426C290.253 497.746 271.693 495.079 271.733 480.479C273.64 480.066 275.547 479.679 277.467 479.346C270.307 486.733 286.533 492.693 293.347 492.919C300.187 495.306 314.467 498.773 309.88 486.999C316.907 493.039 336.973 502.559 338.933 487.453C339.827 487.479 341.64 487.559 342.533 487.599C346.187 491.893 356.08 489.933 354.56 483.506C353.4 479.919 351.627 476.253 348.373 474.146C346.547 472.839 344.613 471.679 342.627 470.666C342.04 470.373 340.88 469.773 340.293 469.479C337.507 468.053 334.68 466.693 331.773 465.559Z" fill="#8D4C07"/>
<path d="M139.747 468.173C142.467 467.026 145.307 466.213 148.2 465.68L149.307 466.066C160.44 471.786 172.653 475.226 185.067 476.706C189.973 477.68 194.867 478.92 199.88 479.373C203.173 480.706 203.507 484.6 200.413 486.426C191.427 492.36 179.747 496.093 168.96 494.653C173.947 492.946 184.933 491.8 185.307 484.933C170.56 478.48 155.6 471.48 139.747 468.173Z" fill="#E09816"/>
<path d="M281.72 478.361C298.987 477.161 315.92 472.401 331.773 465.561C334.68 466.694 337.507 468.054 340.293 469.481C322.893 472.734 306.027 478.787 289.6 485.281C289.12 488.507 289.907 491.841 293.347 492.921C286.533 492.694 270.307 486.734 277.467 479.347C278.88 479.014 280.307 478.694 281.72 478.361Z" fill="#E29617"/>
<path d="M137.32 469.361C137.92 469.067 139.147 468.467 139.747 468.174C155.6 471.48 170.56 478.481 185.307 484.934C184.933 491.801 173.947 492.947 168.96 494.654C168.667 492.894 168.053 489.387 167.747 487.64C160.52 494.16 147.64 499.04 139.773 491.067C140.173 487.814 141.293 484.761 142.373 481.707C138.32 481.321 136.64 485.134 135.133 488.147C131.827 488.467 128.507 488.694 125.187 488.827C123.36 485.507 123.52 481.094 126.04 478.254C130.373 478.68 139.6 473.694 137.32 469.361Z" fill="#FAC12D"/>
<path d="M126.04 478.253C128.813 474.239 133.28 471.853 137.32 469.359C139.6 473.693 130.373 478.679 126.04 478.253Z" fill="#F2D572"/>
<path d="M289.6 485.281C306.027 478.787 322.893 472.734 340.293 469.48C340.88 469.774 342.04 470.374 342.627 470.667C337.853 475.4 346.92 479.067 348.373 474.147C351.627 476.254 353.4 479.92 354.56 483.507C356.08 489.934 346.187 491.894 342.533 487.601C341.587 484.187 339.28 481.454 335.747 480.64C336.56 483 337.707 485.241 338.933 487.454C336.973 502.561 316.907 493.04 309.88 487C314.467 498.774 300.187 495.307 293.347 492.92C289.907 491.84 289.12 488.507 289.6 485.281Z" fill="#F9BE27"/>
<path d="M348.373 474.146C346.92 479.066 337.853 475.399 342.627 470.666C344.613 471.679 346.547 472.839 348.373 474.146Z" fill="#FADE65"/>
<path opacity="0.98" d="M185.067 476.706C185.347 474.573 185.44 472.106 188.227 472.24C189.147 472.4 190.96 472.693 191.867 472.84C193.2 474.64 195.587 474.493 197.467 473.746C199.173 473.96 200.893 474.2 202.6 474.453C205.92 476.466 209.08 476.626 212.067 474.92C214.6 475.186 217.147 475.413 219.707 475.64C230.773 477.213 241.973 476.453 253.12 476.76C253.587 477.4 254.533 478.666 255.013 479.293C254.507 479.546 253.493 480.066 252.973 480.32L251.88 480.666C241.24 480.68 230.613 480.613 219.987 480.666C215.56 480.56 211.187 480.48 206.8 480.16C204.493 479.826 202.187 479.56 199.88 479.373C194.867 478.92 189.973 477.68 185.067 476.706Z" fill="#11152E"/>
<path d="M191.867 472.839C193.76 472.119 196.053 472.053 197.467 473.746C195.587 474.493 193.2 474.639 191.867 472.839Z" fill="#676774"/>
<path d="M202.6 474.453C205.573 472.626 208.72 472.773 212.067 474.92C209.08 476.626 205.92 476.466 202.6 474.453Z" fill="#757482"/>
<path d="M265.72 475.787C269.613 474.8 273.573 474.053 277.613 474.093C274.533 474.893 271.653 476.16 270.853 479.547C270.147 479.533 268.747 479.507 268.04 479.493C263.667 479.28 259.36 479.307 255.013 479.293C254.533 478.667 253.587 477.4 253.12 476.76C257.293 476.573 261.627 476.947 265.72 475.787Z" fill="#58566B"/>
<path opacity="0.98" d="M277.613 474.093C278.493 474.013 280.267 473.853 281.147 473.773C281.293 474.92 281.573 477.213 281.72 478.36C280.307 478.693 278.88 479.013 277.467 479.347C275.547 479.68 273.64 480.067 271.733 480.48C271.52 480.24 271.08 479.773 270.853 479.547C271.653 476.16 274.533 474.893 277.613 474.093Z" fill="#1D2132"/>
<path d="M219.707 475.64C235.04 475.093 250.387 475.16 265.72 475.787C261.627 476.947 257.293 476.573 253.12 476.76C241.973 476.453 230.773 477.213 219.707 475.64Z" fill="#8F8C9A"/>
<path opacity="0.62" d="M357.32 478.093C359.747 476.693 359.693 490.013 357.307 489.84C357.36 485.933 357.293 481.907 357.32 478.093Z" fill="#633A09"/>
<path opacity="0.68" d="M252.973 480.32C253.493 480.066 254.507 479.546 255.013 479.293C259.36 479.306 263.667 479.28 268.04 479.493C264.12 481.08 259.107 481.36 252.973 480.32Z" fill="#423E4C"/>
<path opacity="0.4" d="M219.987 480.667C230.613 480.614 241.24 480.681 251.88 480.667C245.04 481.961 227.147 484.307 219.987 480.667Z" fill="#1E1E28"/>
<path d="M335.747 480.641C339.28 481.454 341.587 484.187 342.533 487.601C341.64 487.561 339.827 487.481 338.933 487.454C337.707 485.241 336.56 483.001 335.747 480.641Z" fill="#C7780B"/>
<path d="M135.133 488.147C136.64 485.134 138.32 481.32 142.373 481.707C141.293 484.76 140.173 487.814 139.773 491.067C135.013 489.814 129.507 490.774 125.187 488.827C128.507 488.694 131.827 488.467 135.133 488.147Z" fill="#C1720B"/>
<path opacity="0.51" d="M301.587 499.426C303.773 499.413 308.16 499.373 310.347 499.359C309.347 501.919 302.707 501.839 301.587 499.426Z" fill="#4E3010"/>
</g>
<defs>
<clipPath id="clip0_299_17855">
<rect width="484" height="543" fill="white"/>
</clipPath>
</defs>
</svg>
